<svg width="61" height="64" viewBox="0 0 61 64" fill="none" xmlns="http://www.w3.org/2000/svg">
<rect x="0.980469" y="3.46973" width="60" height="60" rx="30" fill="white"/>
<path d="M31 60.2701C32.9891 60.2701 34.8968 59.4799 36.3033 58.0734C37.7098 56.6669 38.5 54.7592 38.5 52.7701H23.5C23.5 54.7592 24.2902 56.6669 25.6967 58.0734C27.1032 59.4799 29.0109 60.2701 31 60.2701ZM31 7.46263L28.0113 8.06638C24.6205 8.75582 21.5723 10.5963 19.3833 13.2761C17.1942 15.9558 15.999 19.3099 16 22.7701C16 25.1251 15.4975 31.0089 14.2787 36.8026C13.6787 39.6789 12.8688 42.6751 11.7925 45.2701H50.2075C49.1312 42.6751 48.325 39.6826 47.7212 36.8026C46.5025 31.0089 46 25.1251 46 22.7701C46.0002 19.3106 44.8045 15.9573 42.6156 13.2784C40.4266 10.5994 37.3789 8.75944 33.9887 8.07013L31 7.46263ZM54.325 45.2701C55.1613 46.9464 56.1288 48.2739 57.25 49.0201H4.75C5.87125 48.2739 6.83875 46.9464 7.675 45.2701C11.05 38.5201 12.25 26.0701 12.25 22.7701C12.25 13.6951 18.7 6.12013 27.2688 4.39138C27.2164 3.86995 27.2739 3.34335 27.4376 2.84553C27.6013 2.3477 27.8675 1.88971 28.2191 1.50109C28.5706 1.11248 28.9998 0.801856 29.4787 0.589269C29.9577 0.376681 30.476 0.266846 31 0.266846C31.524 0.266846 32.0423 0.376681 32.5213 0.589269C33.0002 0.801856 33.4294 1.11248 33.7809 1.50109C34.1325 1.88971 34.3987 2.3477 34.5624 2.84553C34.7261 3.34335 34.7836 3.86995 34.7312 4.39138C38.9705 5.25219 42.7816 7.55231 45.5188 10.9019C48.256 14.2514 49.7509 18.4444 49.75 22.7701C49.75 26.0701 50.95 38.5201 54.325 45.2701Z" fill="#1871ED"/>
</svg>
