<svg width="61" height="64" viewBox="0 0 61 64" fill="none" xmlns="http://www.w3.org/2000/svg">
<rect x="0.970703" y="3.46973" width="60" height="60" rx="30" fill="white"/>
<path d="M17.8828 34.02C19.3747 34.02 20.8054 33.4274 21.8603 32.3725C22.9152 31.3176 23.5078 29.8869 23.5078 28.395C23.5078 26.9032 22.9152 25.4724 21.8603 24.4175C20.8054 23.3627 19.3747 22.77 17.8828 22.77C16.391 22.77 14.9602 23.3627 13.9053 24.4175C12.8504 25.4724 12.2578 26.9032 12.2578 28.395C12.2578 29.8869 12.8504 31.3176 13.9053 32.3725C14.9602 33.4274 16.391 34.02 17.8828 34.02Z" fill="#1871ED"/>
<path d="M53.5078 49.02C53.5078 51.0091 52.7176 52.9168 51.3111 54.3233C49.9046 55.7298 47.9969 56.52 46.0078 56.52H8.50781C6.51869 56.52 4.61103 55.7298 3.20451 54.3233C1.79799 52.9168 1.00781 51.0091 1.00781 49.02V19.02C1.00781 17.0322 1.79696 15.1257 3.20186 13.7194C4.60676 12.3131 6.51249 11.522 8.50031 11.52C8.50031 9.5309 9.29049 7.62324 10.697 6.21672C12.1035 4.8102 14.0112 4.02002 16.0003 4.02002H53.5003C55.4894 4.02002 57.3971 4.8102 58.8036 6.21672C60.2101 7.62324 61.0003 9.5309 61.0003 11.52V41.52C61.0003 43.5078 60.2112 45.4144 58.8063 46.8207C57.4014 48.227 55.4956 49.018 53.5078 49.02ZM53.5003 7.77002H16.0003C15.0058 7.77002 14.0519 8.16511 13.3487 8.86837C12.6454 9.57163 12.2503 10.5255 12.2503 11.52H46.0078C47.9969 11.52 49.9046 12.3102 51.3111 13.7167C52.7176 15.1232 53.5078 17.0309 53.5078 19.02V45.27C54.5011 45.268 55.453 44.8721 56.1546 44.169C56.8563 43.466 57.2503 42.5133 57.2503 41.52V11.52C57.2503 10.5255 56.8552 9.57163 56.152 8.86837C55.4487 8.16511 54.4949 7.77002 53.5003 7.77002ZM8.50781 15.27C7.51325 15.27 6.55942 15.6651 5.85616 16.3684C5.1529 17.0716 4.75781 18.0255 4.75781 19.02V49.02L14.6803 40.1925C14.9868 39.8871 15.3895 39.6971 15.8201 39.6548C16.2507 39.6124 16.6827 39.7202 17.0428 39.96L27.0178 46.6088L40.9303 32.6963C41.2084 32.4179 41.567 32.2341 41.9553 32.1708C42.3436 32.1076 42.742 32.1681 43.0941 32.3438L49.7578 39.645V19.02C49.7578 18.0255 49.3627 17.0716 48.6595 16.3684C47.9562 15.6651 47.0024 15.27 46.0078 15.27H8.50781Z" fill="#1871ED"/>
</svg>
