<svg width="61" height="64" viewBox="0 0 61 64" fill="none" xmlns="http://www.w3.org/2000/svg">
<rect x="0.951172" y="3.02002" width="60" height="60" rx="30" fill="white"/>
<path d="M1 5.89502C1 4.40318 1.59263 2.97244 2.64752 1.91754C3.70242 0.862652 5.13316 0.27002 6.625 0.27002L36.625 0.27002C38.1168 0.27002 39.5476 0.862652 40.6025 1.91754C41.6574 2.97244 42.25 4.40318 42.25 5.89502V13.395C42.25 14.8869 41.6574 16.3176 40.6025 17.3725C39.5476 18.4274 38.1168 19.02 36.625 19.02H6.625C5.13316 19.02 3.70242 18.4274 2.64752 17.3725C1.59263 16.3176 1 14.8869 1 13.395L1 5.89502ZM6.625 4.02002C6.12772 4.02002 5.65081 4.21756 5.29917 4.56919C4.94754 4.92082 4.75 5.39774 4.75 5.89502V13.395C4.75 13.8923 4.94754 14.3692 5.29917 14.7208C5.65081 15.0725 6.12772 15.27 6.625 15.27H36.625C37.1223 15.27 37.5992 15.0725 37.9508 14.7208C38.3025 14.3692 38.5 13.8923 38.5 13.395V5.89502C38.5 5.39774 38.3025 4.92082 37.9508 4.56919C37.5992 4.21756 37.1223 4.02002 36.625 4.02002H6.625Z" fill="#1871ED"/>
<path d="M30.3362 10.8563L28.8513 9.37127C28.7198 9.24015 28.6302 9.07296 28.5939 8.89088C28.5576 8.7088 28.5762 8.52004 28.6473 8.34853C28.7184 8.17701 28.8388 8.03047 28.9933 7.92748C29.1478 7.82449 29.3293 7.76969 29.515 7.77002H32.485C32.6707 7.76969 32.8522 7.82449 33.0067 7.92748C33.1612 8.03047 33.2816 8.17701 33.3527 8.34853C33.4238 8.52004 33.4424 8.7088 33.4061 8.89088C33.3698 9.07296 33.2802 9.24015 33.1487 9.37127L31.6638 10.8563C31.5767 10.9436 31.4732 11.0128 31.3593 11.0601C31.2454 11.1074 31.1233 11.1317 31 11.1317C30.8767 11.1317 30.7546 11.1074 30.6407 11.0601C30.5268 11.0128 30.4233 10.9436 30.3362 10.8563ZM1 30.27C1 28.2809 1.79018 26.3732 3.1967 24.9667C4.60322 23.5602 6.51088 22.77 8.5 22.77H53.5C55.4891 22.77 57.3968 23.5602 58.8033 24.9667C60.2098 26.3732 61 28.2809 61 30.27V49.02C61 51.0091 60.2098 52.9168 58.8033 54.3233C57.3968 55.7298 55.4891 56.52 53.5 56.52H8.5C6.51088 56.52 4.60322 55.7298 3.1967 54.3233C1.79018 52.9168 1 51.0091 1 49.02V30.27ZM4.75 41.52V49.02C4.75 50.0146 5.14509 50.9684 5.84835 51.6717C6.55161 52.3749 7.50544 52.77 8.5 52.77H53.5C54.4946 52.77 55.4484 52.3749 56.1516 51.6717C56.8549 50.9684 57.25 50.0146 57.25 49.02V41.52H4.75ZM57.25 37.77V30.27C57.25 29.2755 56.8549 28.3216 56.1516 27.6184C55.4484 26.9151 54.4946 26.52 53.5 26.52H8.5C7.50544 26.52 6.55161 26.9151 5.84835 27.6184C5.14509 28.3216 4.75 29.2755 4.75 30.27V37.77H57.25ZM8.5 32.145C8.5 31.6477 8.69754 31.1708 9.04918 30.8192C9.40081 30.4676 9.87772 30.27 10.375 30.27H44.125C44.6223 30.27 45.0992 30.4676 45.4508 30.8192C45.8025 31.1708 46 31.6477 46 32.145C46 32.6423 45.8025 33.1192 45.4508 33.4708C45.0992 33.8225 44.6223 34.02 44.125 34.02H10.375C9.87772 34.02 9.40081 33.8225 9.04918 33.4708C8.69754 33.1192 8.5 32.6423 8.5 32.145ZM8.5 47.145C8.5 46.6477 8.69754 46.1708 9.04918 45.8192C9.40081 45.4676 9.87772 45.27 10.375 45.27H32.875C33.3723 45.27 33.8492 45.4676 34.2008 45.8192C34.5525 46.1708 34.75 46.6477 34.75 47.145C34.75 47.6423 34.5525 48.1192 34.2008 48.4708C33.8492 48.8225 33.3723 49.02 32.875 49.02H10.375C9.87772 49.02 9.40081 48.8225 9.04918 48.4708C8.69754 48.1192 8.5 47.6423 8.5 47.145Z" fill="#1871ED"/>
</svg>
