<svg width="61" height="64" viewBox="0 0 61 64" fill="none" xmlns="http://www.w3.org/2000/svg">
<rect x="0.970703" y="3.02002" width="60" height="60" rx="30" fill="white"/>
<path d="M37.2578 3.51002L30.9991 0.27002L24.7403 3.51002L17.7728 4.56752L14.6153 10.8675L9.60156 15.8175L10.7491 22.77L9.60156 29.7225L14.6153 34.6725L17.7728 40.9725L24.7403 42.03L30.9991 45.27L37.2578 42.03L44.2253 40.9725L47.3828 34.6725L52.3966 29.7225L51.2491 22.77L52.3966 15.8175L47.3828 10.8675L44.2253 4.56752L37.2578 3.51002ZM41.7428 7.98377L44.3078 13.1025L48.3803 17.1225L47.4503 22.77L48.3803 28.4175L44.3078 32.4375L41.7428 37.5563L36.0803 38.415L30.9991 41.0475L25.9178 38.415L20.2553 37.5563L17.6903 32.4375L13.6178 28.4175L14.5516 22.77L13.6141 17.1225L17.6903 13.1025L20.2553 7.98377L25.9178 7.12502L30.9991 4.49252L36.0841 7.12502L41.7428 7.98377Z" fill="#1871ED"/>
<path d="M16 44.4976V60.2701L31 56.5201L46 60.2701V44.4976L38.4325 45.6451L31 49.4926L23.5675 45.6451L16 44.4976Z" fill="#1871ED"/>
</svg>
