<svg width="61" height="64" viewBox="0 0 61 64" fill="none" xmlns="http://www.w3.org/2000/svg">
<rect x="0.951172" y="3.46973" width="60" height="60" rx="30" fill="white"/>
<path d="M1 15.27C1 13.2809 1.79018 11.3732 3.1967 9.96672C4.60322 8.5602 6.51088 7.77002 8.5 7.77002H53.5C55.4891 7.77002 57.3968 8.5602 58.8033 9.96672C60.2098 11.3732 61 13.2809 61 15.27V45.27C61 47.2591 60.2098 49.1668 58.8033 50.5733C57.3968 51.9798 55.4891 52.77 53.5 52.77H8.5C6.51088 52.77 4.60322 51.9798 3.1967 50.5733C1.79018 49.1668 1 47.2591 1 45.27V15.27ZM8.5 11.52C7.50544 11.52 6.55161 11.9151 5.84835 12.6184C5.14509 13.3216 4.75 14.2755 4.75 15.27V19.02H57.25V15.27C57.25 14.2755 56.8549 13.3216 56.1516 12.6184C55.4484 11.9151 54.4946 11.52 53.5 11.52H8.5ZM57.25 26.52H4.75V45.27C4.75 46.2646 5.14509 47.2184 5.84835 47.9217C6.55161 48.6249 7.50544 49.02 8.5 49.02H53.5C54.4946 49.02 55.4484 48.6249 56.1516 47.9217C56.8549 47.2184 57.25 46.2646 57.25 45.27V26.52Z" fill="#1871ED"/>
<path d="M8.5 37.77C8.5 36.7755 8.89509 35.8216 9.59835 35.1184C10.3016 34.4151 11.2554 34.02 12.25 34.02H16C16.9946 34.02 17.9484 34.4151 18.6516 35.1184C19.3549 35.8216 19.75 36.7755 19.75 37.77V41.52C19.75 42.5146 19.3549 43.4684 18.6516 44.1717C17.9484 44.8749 16.9946 45.27 16 45.27H12.25C11.2554 45.27 10.3016 44.8749 9.59835 44.1717C8.89509 43.4684 8.5 42.5146 8.5 41.52V37.77Z" fill="#1871ED"/>
</svg>
