<svg width="61" height="64" viewBox="0 0 61 64" fill="none" xmlns="http://www.w3.org/2000/svg">
<rect x="0.980469" y="3.02002" width="60" height="60" rx="30" fill="white"/>
<path d="M8.5 7.77002H16V15.27H8.5V7.77002Z" fill="#1871ED"/>
<path d="M23.5 0.27002V22.77H1V0.27002H23.5ZM19.75 4.02002H4.75V19.02H19.75V4.02002ZM16 45.27H8.5V52.77H16V45.27Z" fill="#1871ED"/>
<path d="M23.5 37.77V60.27H1V37.77H23.5ZM4.75 41.52V56.52H19.75V41.52H4.75ZM46 7.77002H53.5V15.27H46V7.77002Z" fill="#1871ED"/>
<path d="M38.5 0.27002V22.77H61V0.27002H38.5ZM57.25 4.02002V19.02H42.25V4.02002H57.25ZM31 4.02002V0.27002H34.75V7.77002H31V15.27H27.25V4.02002H31ZM31 22.77V15.27H34.75V22.77H31ZM23.5 30.27V26.52H27.25V22.77H31V30.27H34.75V26.52H53.5V30.27H38.5V34.02H27.25V30.27H23.5ZM23.5 30.27V34.02H8.5V30.27H4.75V34.02H1V26.52H12.25V30.27H23.5ZM61 34.02H57.25V26.52H61V34.02ZM57.25 34.02H53.5V41.52H61V37.77H57.25V34.02ZM42.25 34.02H49.75V37.77H46V41.52H42.25V34.02ZM49.75 45.27V41.52H46V45.27H42.25V49.02H34.75V52.77H46V45.27H49.75ZM49.75 45.27H61V49.02H53.5V52.77H49.75V45.27ZM34.75 41.52V45.27H38.5V37.77H27.25V41.52H34.75Z" fill="#1871ED"/>
<path d="M27.25 45.27H31V56.52H46V60.27H27.25V45.27ZM61 52.77V60.27H49.75V56.52H57.25V52.77H61Z" fill="#1871ED"/>
</svg>
