<?xml version="1.0" encoding="utf-8"?>
<!-- Generator: Adobe Illustrator 27.5.0, SVG Export Plug-In . SVG Version: 6.00 Build 0)  -->
<svg version="1.1" xmlns="http://www.w3.org/2000/svg" xmlns:xlink="http://www.w3.org/1999/xlink" x="0px" y="0px"
	 viewBox="0 0 500 500" style="enable-background:new 0 0 500 500;" xml:space="preserve">
<g id="Background_Simple">
	<g>
		<path style="fill:#92E3A9;" d="M434.503,349.023c-4.557,4.148-9.218,8.155-13.932,12.026
			c-32.557,26.735-70.248,46.504-112.799,50.322c-1.046,0.094-2.094,0.18-3.141,0.258c-79.496,5.835-78.037-88.977-87.519-112.315
			c-9.481-23.338-170.661-40.113-198.375-96.27c-23.708-48.039,5.538-92.094,47.41-117.118
			c28.921-17.285,61.701-27.787,94.291-35.618c96.55-23.203,199.581-20.19,277.382,49.01c9.448,8.404,16.717,17.284,23.998,27.52
			c20.339,28.595,33.82,62.711,34.848,98.027c1.433,49.207-25.913,90.857-61.009,123.103
			C435.272,348.319,434.887,348.671,434.503,349.023z"/>
		<path style="opacity:0.7;fill:#FFFFFF;" d="M434.503,349.023c-4.557,4.148-9.218,8.155-13.932,12.026
			c-32.557,26.735-70.248,46.504-112.799,50.322c-1.046,0.094-2.094,0.18-3.141,0.258c-79.496,5.835-78.037-88.977-87.519-112.315
			c-9.481-23.338-170.661-40.113-198.375-96.27c-23.708-48.039,5.538-92.094,47.41-117.118
			c28.921-17.285,61.701-27.787,94.291-35.618c96.55-23.203,199.581-20.19,277.382,49.01c9.448,8.404,16.717,17.284,23.998,27.52
			c20.339,28.595,33.82,62.711,34.848,98.027c1.433,49.207-25.913,90.857-61.009,123.103
			C435.272,348.319,434.887,348.671,434.503,349.023z"/>
	</g>
</g>
<g id="Moutains">
	<g>
		<polygon style="fill:#DBDBDB;" points="406.86,252.91 406.86,371.51 273.55,371.51 274.45,252.91 275,251.76 299.42,200.42 
			311.09,175.88 313.47,170.89 340.66,113.71 341.22,114.89 378.07,192.37 		"/>
		<polygon style="fill:#B8B8B8;" points="409.96,366.42 406.86,366.99 382.48,371.51 322.53,371.51 279.02,279.53 275,251.76 
			299.42,200.42 311.09,175.88 313.47,170.89 340.66,113.71 341.22,114.89 323.68,245.27 338.98,210.39 338.37,278.31 359.17,252 
			359.17,289.94 351.83,277.09 345.1,334.6 381.81,247.72 406.86,353.35 		"/>
		<polygon style="fill:#FFFFFF;stroke:#263238;stroke-linecap:round;stroke-linejoin:round;stroke-miterlimit:10;" points="
			311.09,175.88 309.002,180.271 332.862,152.261 340.817,185.303 349.995,157.156 359.793,169.963 363.431,161.59 341.22,114.89 
			340.66,113.71 313.47,170.89 		"/>
		<polygon style="fill:none;stroke:#263238;stroke-linecap:round;stroke-linejoin:round;stroke-miterlimit:10;" points="
			406.86,252.91 406.86,371.51 273.55,371.51 274.45,252.91 275,251.76 299.42,200.42 311.09,175.88 313.47,170.89 340.66,113.71 
			341.22,114.89 378.07,192.37 		"/>
	</g>
	<g>
		<polygon style="fill:#DBDBDB;" points="473.18,391.26 448.01,374.35 444.47,405.81 420.48,396.37 414.59,430.97 373.69,404.24 
			339.09,404.24 341.05,369.24 379.55,286.46 381.29,282.73 403.97,233.97 422.06,268.58 425.16,276.02 429.51,286.46 		"/>
		<g>
			<polygon style="fill:#B8B8B8;" points="445.783,355.961 448.329,374.564 457.59,380.786 			"/>
		</g>
		<polygon style="fill:#B8B8B8;" points="420.48,396.37 439.462,403.84 437.198,396.595 430.331,385.149 435.481,377.708 
			434.503,349.023 416.023,374.847 414.878,319.905 396.564,356.533 406.282,238.393 403.97,233.97 381.29,282.73 379.55,286.46 
			341.05,369.24 339.09,404.24 373.69,404.24 414.59,430.97 		"/>
		<polyline style="fill:none;stroke:#263238;stroke-linecap:round;stroke-linejoin:round;stroke-miterlimit:10;" points="
			475.799,396.598 406.11,228.307 327.313,398.134 		"/>
		<polygon style="fill:#FFFFFF;stroke:#263238;stroke-linecap:round;stroke-linejoin:round;stroke-miterlimit:10;" points="
			413.042,291.237 418.194,286.554 430.839,300.604 431.894,290.573 406.11,228.307 376.076,293.038 376.044,293.579 
			402.739,265.479 		"/>
	</g>
	<g>
		<polygon style="fill:#DBDBDB;" points="358.72,433.14 361.06,460.77 342.14,451.44 317.36,439.22 293.62,427.52 280.97,437.36 
			246.32,422.84 215.41,452.81 191.05,431.74 162.02,437.82 163.89,409.72 213.79,298.09 220.27,283.58 264.58,184.46 279.1,217.71 
			292.68,235.51 352.4,380.21 363.67,365.88 400.4,451.87 		"/>
		<polygon style="fill:#B8B8B8;" points="271.673,356.633 260.047,341.947 267.39,268.52 233.736,335.216 263.107,209.779 
			264.966,185.343 264.58,184.46 220.27,283.58 213.79,298.09 163.89,409.72 162.02,437.82 191.05,431.74 215.41,452.81 
			246.32,422.84 256.75,427.211 259.435,384.78 280.24,400.077 277.792,341.947 		"/>
		<polyline style="fill:none;stroke:#263238;stroke-linecap:round;stroke-linejoin:round;stroke-miterlimit:10;" points="
			405.141,463.16 363.667,365.876 352.402,380.213 267.711,175.732 167.051,403.254 		"/>
		<polygon style="fill:#FFFFFF;stroke:#263238;stroke-linecap:round;stroke-linejoin:round;stroke-miterlimit:10;" points="
			297.703,248.146 267.711,175.732 232.612,255.067 259.917,224.658 276.647,236.241 279.221,227.876 		"/>
		<polygon style="fill:#B8B8B8;" points="342.14,451.44 317.36,439.22 300.32,363.17 		"/>
	</g>
</g>
<g id="Clouds">
	<g>
		<path style="fill:#263238;stroke:#263238;stroke-linecap:round;stroke-linejoin:round;stroke-miterlimit:10;" d="M362.21,175.88
			h-51.12l2.38-4.99c0.05,0,0.1,0,0.15-0.01c2.38-0.24,2.62-1.9,5.95-2.38c3.34-0.48,5.72,1.43,8.34,0.24
			c2.62-1.19,4.29-5.72,9.53-5c5.24,0.71,12.62,8.33,12.62,8.33c2.86,0,4.05-0.71,7.15,0.48
			C360.3,173.74,362.21,175.88,362.21,175.88z"/>
		<path style="fill:#FFFFFF;stroke:#263238;stroke-linecap:round;stroke-linejoin:round;stroke-miterlimit:10;" d="M352.647,169.486
			c0,0-7.384-7.622-12.625-8.337c-5.241-0.715-6.908,3.811-9.528,5.002c-2.62,1.191-5.002-0.715-8.337-0.238
			c-3.335,0.476-3.573,2.144-5.955,2.382c-2.382,0.238-4.049-1.429-6.67-0.953c-2.62,0.476-4.049,3.335-5.479,3.335
			s-3.811-1.667-6.432-1.667c-2.62,0-6.67,2.382-6.67,2.382l-16.198,1.906h90.04c0,0-1.906-2.144-5.002-3.335
			C356.697,168.772,355.505,169.486,352.647,169.486z"/>
	</g>
	<path style="fill:#FFFFFF;stroke:#263238;stroke-linecap:round;stroke-linejoin:round;stroke-miterlimit:10;" d="M444.62,150.19
		c0,0-7.384-7.622-12.625-8.337c-5.241-0.715-6.908,3.811-9.528,5.002c-2.62,1.191-5.002-0.715-8.337-0.238
		s-3.573,2.144-5.955,2.382c-2.382,0.238-4.049-1.429-6.67-0.953c-2.62,0.476-4.049,3.335-5.479,3.335s-3.811-1.667-6.432-1.667
		c-2.62,0-6.67,2.382-6.67,2.382l-16.198,1.906h90.04c0,0-1.906-2.144-5.002-3.335C448.67,149.476,447.478,150.19,444.62,150.19z"/>
	<g>
		<path style="fill:#263238;stroke:#263238;stroke-linecap:round;stroke-linejoin:round;stroke-miterlimit:10;" d="M399.108,313.647
			c0,0-13.232-13.659-22.623-14.94c-9.391-1.28-12.379,6.83-17.074,8.964c-4.695,2.134-8.964-1.28-14.94-0.427
			c-5.976,0.854-6.403,3.842-10.671,4.268c-4.269,0.427-7.256-2.561-11.952-1.707c-4.695,0.854-7.256,5.976-9.818,5.976
			s-6.83-2.988-11.525-2.988c-4.695,0-11.952,4.269-11.952,4.269l-29.026,3.415h161.349c0,0-3.415-3.842-8.964-5.976
			C406.364,312.366,404.23,313.647,399.108,313.647z"/>
		<path style="fill:#FFFFFF;stroke:#263238;stroke-linecap:round;stroke-linejoin:round;stroke-miterlimit:10;" d="M404.148,311.127
			c0,0-13.232-13.659-22.623-14.94c-9.391-1.281-12.379,6.83-17.074,8.964c-4.695,2.134-8.964-1.281-14.94-0.427
			c-5.976,0.854-6.403,3.842-10.671,4.269c-4.269,0.427-7.257-2.561-11.952-1.707c-4.695,0.854-7.256,5.976-9.818,5.976
			s-6.83-2.988-11.525-2.988c-4.695,0-11.952,4.268-11.952,4.268l-29.026,3.415h161.349c0,0-3.415-3.842-8.964-5.976
			C411.404,309.846,409.27,311.127,404.148,311.127z"/>
	</g>
	<g>
		<path style="fill:#263238;stroke:#263238;stroke-linecap:round;stroke-linejoin:round;stroke-miterlimit:10;" d="M429.51,286.46
			h-49.96l1.74-3.73c1.43,0.48,2.66,1.11,3.54,1.11c1.43,0,2.86-2.86,5.48-3.33c2.62-0.48,4.29,1.19,6.67,0.95
			c2.38-0.24,2.62-1.91,5.96-2.38c3.33-0.48,5.71,1.43,8.33,0.23c2.62-1.19,4.29-5.71,9.53-5c1.36,0.19,2.88,0.84,4.36,1.71
			L429.51,286.46z"/>
		<path style="fill:#FFFFFF;stroke:#263238;stroke-linecap:round;stroke-linejoin:round;stroke-miterlimit:10;" d="M435.671,279.506
			c0,0-7.384-7.622-12.625-8.337c-5.24-0.715-6.908,3.811-9.528,5.002c-2.62,1.191-5.002-0.715-8.337-0.238
			c-3.335,0.476-3.573,2.144-5.955,2.382c-2.382,0.238-4.049-1.429-6.67-0.953c-2.62,0.477-4.049,3.335-5.479,3.335
			c-1.429,0-3.811-1.667-6.431-1.667c-2.62,0-6.67,2.382-6.67,2.382l-16.198,1.906h90.041c0,0-1.906-2.144-5.002-3.335
			C439.72,278.791,438.529,279.506,435.671,279.506z"/>
	</g>
	<g>
		<path style="fill:#263238;stroke:#263238;stroke-linecap:round;stroke-linejoin:round;stroke-miterlimit:10;" d="M299.07,298.09
			h-85.28l6.48-14.51c1.82,0.19,3.61,0.07,5.45-0.77c5.61-2.54,9.17-12.22,20.38-10.69c11.2,1.53,26.99,17.82,26.99,17.82
			c6.11,0,8.66-1.52,15.28,1.02C294.99,293.51,299.07,298.09,299.07,298.09z"/>
		<path style="fill:#FFFFFF;stroke:#263238;stroke-linecap:round;stroke-linejoin:round;stroke-miterlimit:10;" d="M276.714,286.84
			c0,0-15.79-16.299-26.996-17.827c-11.206-1.528-14.771,8.15-20.374,10.696c-5.603,2.547-10.696-1.528-17.827-0.509
			c-7.131,1.019-7.64,4.584-12.734,5.094c-5.094,0.509-8.659-3.056-14.262-2.037c-5.603,1.019-8.659,7.131-11.715,7.131
			c-3.056,0-8.15-3.566-13.753-3.566c-5.603,0-14.262,5.094-14.262,5.094l-34.636,4.075h192.534c0,0-4.075-4.584-10.696-7.131
			C285.373,285.312,282.826,286.84,276.714,286.84z"/>
	</g>
	<path style="fill:#FFFFFF;stroke:#263238;stroke-linecap:round;stroke-linejoin:round;stroke-miterlimit:10;" d="M231.182,111.431
		c0,0-15.79-16.299-26.996-17.827c-11.206-1.528-14.771,8.15-20.374,10.696c-5.603,2.547-10.696-1.528-17.827-0.509
		c-7.131,1.019-7.64,4.584-12.734,5.093c-5.094,0.509-8.659-3.056-14.262-2.037c-5.603,1.019-8.659,7.131-11.715,7.131
		c-3.056,0-8.15-3.565-13.752-3.565c-5.603,0-14.262,5.093-14.262,5.093l-34.636,4.075h192.534c0,0-4.075-4.584-10.696-7.131
		C239.841,109.903,237.294,111.431,231.182,111.431z"/>
	<path style="fill:#FFFFFF;stroke:#263238;stroke-linecap:round;stroke-linejoin:round;stroke-miterlimit:10;" d="M442.539,433.882
		c0,0-22.711-23.444-38.828-25.641c-16.117-2.198-21.246,11.722-29.304,15.385c-8.059,3.663-15.385-2.198-25.641-0.733
		c-10.257,1.465-10.989,6.593-18.315,7.326c-7.326,0.733-12.454-4.396-20.513-2.93c-8.059,1.465-12.454,10.257-16.85,10.257
		c-4.396,0-11.722-5.128-19.781-5.128c-8.059,0-20.513,7.326-20.513,7.326l-49.818,5.861h276.927c0,0-5.861-6.594-15.385-10.257
		C454.994,431.684,451.331,433.882,442.539,433.882z"/>
</g>
<g id="Flag">
	<g>
		<g>
			
				<line style="fill:none;stroke:#263238;stroke-linecap:round;stroke-linejoin:round;stroke-miterlimit:10;" x1="340.657" y1="113.711" x2="340.657" y2="72.694"/>
			<g>
				<g>
					<path style="fill:#263238;stroke:#263238;stroke-linecap:round;stroke-linejoin:round;stroke-miterlimit:10;" d="
						M366.801,106.76v-7.594c0,0,2.704,1.434,3.887,3.597c0.169,0.309,0.307,0.633,0.401,0.97
						C371.089,103.732,367.53,103.243,366.801,106.76z"/>
					<path style="fill:#92E3A9;stroke:#263238;stroke-miterlimit:10;" d="M350.402,77.243c-5.917,0.219-9.055-2.093-9.777-2.705
						v11.304l0.191,13.097c1.766,2.775,14.128,2.775,21.192,2.775c7.064,0,9.082,2.018,9.082,2.018V79.009
						C367.305,75.477,357.214,76.991,350.402,77.243z"/>
					<path style="fill:#FFFFFF;stroke:#263238;stroke-linecap:round;stroke-linejoin:round;stroke-miterlimit:10;" d="
						M371.089,80.088c-1.066-0.759-2.265-1.197-3.539-1.197c-4.374,0-7.919,5.039-7.919,11.254c0,6.215,3.546,11.254,7.919,11.254
						c1.274,0,2.473-0.438,3.539-1.197V80.088z"/>
					<path style="fill:#92E3A9;stroke:#263238;stroke-miterlimit:10;" d="M371.089,103.732c0,0-4.412-0.336-4.289,3.027
						c0.058,1.592,2.018,2.775,9.082,2.271c7.064-0.505,17.941,1.087,17.941,1.087l-6.812-12.109l10.091-4.037
						c0,0-4.822-3.862-12.138-6.133c-7.316-2.271-13.907-1.884-13.907-1.884L371.089,103.732z"/>
				</g>
				<g>
					<path style="fill:#263238;" d="M367.774,99.89v-1.336c-1.133-0.121-1.974-0.624-2.524-1.51
						c-0.55-0.885-0.852-1.995-0.907-3.329l1.65-0.384c0.033,0.558,0.107,1.1,0.222,1.626c0.115,0.526,0.305,0.964,0.569,1.316
						c0.264,0.352,0.632,0.547,1.105,0.587c0.483,0.041,0.849-0.086,1.096-0.382c0.248-0.295,0.372-0.74,0.372-1.333
						c0-0.71-0.138-1.292-0.413-1.748c-0.275-0.456-0.621-0.92-1.039-1.394l-2.243-2.512c-0.286-0.334-0.525-0.676-0.718-1.028
						c-0.193-0.352-0.336-0.735-0.429-1.149c-0.094-0.414-0.14-0.88-0.14-1.396c0-1.123,0.27-1.974,0.808-2.555
						c0.538-0.58,1.27-0.851,2.193-0.812v-1.297l0.577,0.049v1.297c0.462,0.078,0.866,0.225,1.213,0.441
						c0.346,0.216,0.637,0.502,0.874,0.858c0.237,0.355,0.423,0.781,0.561,1.276c0.138,0.496,0.228,1.068,0.273,1.717l-1.584,0.37
						c-0.033-0.519-0.099-1.005-0.198-1.459c-0.099-0.454-0.272-0.826-0.52-1.118c-0.248-0.292-0.602-0.438-1.064-0.438
						c-0.462,0-0.822,0.125-1.081,0.374c-0.259,0.249-0.387,0.658-0.387,1.225c0,0.478,0.068,0.874,0.206,1.189
						c0.138,0.315,0.36,0.653,0.668,1.015l2.259,2.513c0.33,0.377,0.641,0.793,0.932,1.25c0.291,0.457,0.528,0.958,0.709,1.502
						c0.181,0.545,0.272,1.146,0.272,1.804c0,0.71-0.116,1.323-0.347,1.839c-0.231,0.516-0.552,0.911-0.965,1.187
						c-0.413,0.275-0.894,0.422-1.444,0.44v1.355L367.774,99.89z"/>
				</g>
			</g>
		</g>
		
			<line style="fill:none;stroke:#263238;stroke-linecap:round;stroke-linejoin:round;stroke-miterlimit:10;" x1="360.588" y1="44.541" x2="360.588" y2="57.407"/>
		
			<line style="fill:none;stroke:#263238;stroke-linecap:round;stroke-linejoin:round;stroke-miterlimit:10;" x1="360.588" y1="120.511" x2="360.588" y2="133.377"/>
		
			<line style="fill:none;stroke:#263238;stroke-linecap:round;stroke-linejoin:round;stroke-miterlimit:10;" x1="312.8" y1="62.308" x2="327.504" y2="73.949"/>
		
			<line style="fill:none;stroke:#263238;stroke-linecap:round;stroke-linejoin:round;stroke-miterlimit:10;" x1="405.925" y1="62.308" x2="391.221" y2="73.949"/>
		
			<line style="fill:none;stroke:#263238;stroke-linecap:round;stroke-linejoin:round;stroke-miterlimit:10;" x1="405.925" y1="128.885" x2="391.221" y2="117.244"/>
		
			<line style="fill:none;stroke:#263238;stroke-linecap:round;stroke-linejoin:round;stroke-miterlimit:10;" x1="312.188" y1="128.885" x2="326.892" y2="117.244"/>
		
			<line style="fill:none;stroke:#263238;stroke-linecap:round;stroke-linejoin:round;stroke-miterlimit:10;" x1="321.378" y1="95.392" x2="301.772" y2="95.392"/>
		
			<line style="fill:none;stroke:#263238;stroke-linecap:round;stroke-linejoin:round;stroke-miterlimit:10;" x1="421.855" y1="95.392" x2="402.249" y2="95.392"/>
	</g>
</g>
<g id="Crag">
	<g>
		<path style="fill:#FFFFFF;stroke:#263238;stroke-linecap:round;stroke-linejoin:round;stroke-miterlimit:10;" d="M155.832,470.288
			l7.23-16.765c0,0,2.893-7.522,4.629-9.837c1.736-2.315,4.05-6.944,4.05-6.944l9.258-13.887l9.258-28.353l-25.69,8.563
			l-19.749,15.192l-26.965,13.293l-93.428,18.989"/>
		<g>
			<polyline style="fill:#FFFFFF;stroke:#263238;stroke-linecap:round;stroke-linejoin:round;stroke-miterlimit:10;" points="
				25.347,379.458 139.338,379.458 190.258,394.503 185.05,402.604 174.634,406.076 163.062,408.969 153.804,422.277 
				146.281,428.642 121.4,432.693 22.454,454.681 			"/>
			<polyline style="fill:#FFFFFF;stroke:#263238;stroke-linecap:round;stroke-linejoin:round;stroke-miterlimit:10;" points="
				163.062,408.969 164.219,430.378 157.854,442.53 153.225,450.052 140.641,470.288 			"/>
			<polyline style="fill:#FFFFFF;stroke:#263238;stroke-linecap:round;stroke-linejoin:round;stroke-miterlimit:10;" points="
				146.281,428.642 144.546,446.58 135.866,451.788 124.293,458.731 			"/>
		</g>
	</g>
</g>
<g id="Character">
	<g>
		<path style="opacity:0.21;" d="M131.709,403.642c0,3.484-18.783,6.309-41.953,6.309c-23.17,0-41.953-2.824-41.953-6.309
			c0-3.484,18.783-6.309,41.953-6.309C112.926,397.333,131.709,400.158,131.709,403.642z"/>
		<g>
			<g>
				<path style="fill:#FFFFFF;stroke:#263238;stroke-miterlimit:10;" d="M155.088,170.752c0,0,2.662-2.178,4.235-3.267
					c1.573-1.089,4.356-4.114,4.598-5.324c0.242-1.21,1.573-8.47,1.573-8.47s-0.968-0.121-2.783,0.242s-3.388,0.847-3.388,0.847
					l-4.84,5.808L155.088,170.752z"/>
				<path style="fill:#FFFFFF;stroke:#263238;stroke-miterlimit:10;" d="M161.622,154.176c0,0-0.363,2.057,0.363,2.662
					c0.726,0.605,4.84,0.726,5.445-0.484c0.605-1.21,0.726-3.267,0-3.267S161.622,154.176,161.622,154.176z"/>
				<path style="fill:#FFFFFF;stroke:#263238;stroke-miterlimit:10;" d="M164.647,157.806c0,0-5.687,0.242-5.929,0.968
					s-0.605,2.178-0.242,2.42c0.363,0.242,6.292,0.242,6.897-0.484C165.978,159.984,166.825,157.08,164.647,157.806z"/>
				<path style="fill:#FFFFFF;stroke:#263238;stroke-miterlimit:10;" d="M164.284,161.073c0,0-5.687,0.242-5.929,0.968
					c-0.242,0.726-0.605,2.178-0.242,2.42c0.363,0.242,6.292,0.242,6.897-0.484C165.615,163.251,166.462,160.347,164.284,161.073z"
					/>
				<path style="fill:#FFFFFF;stroke:#263238;stroke-miterlimit:10;" d="M162.616,164.19c0,0-4.296,0.183-4.479,0.731
					c-0.183,0.548-0.457,1.645-0.183,1.828c0.274,0.183,4.753,0.183,5.21-0.366C163.621,165.835,164.261,163.642,162.616,164.19z"/>
			</g>
			<g>
				<g>
					<path style="fill:#FFFFFF;stroke:#263238;stroke-miterlimit:10;" d="M187.875,149.632l-39.007,5.886
						c-0.157,0.018-0.324,0.037-0.481,0.037c-0.12,0-0.25-0.009-0.37-0.019c-1.416-0.167-2.61-1.268-2.832-2.739
						c-0.268-1.768,0.953-3.424,2.721-3.693l37.415-5.636l1.592-0.241c1.768-0.268,3.415,0.953,3.683,2.721
						C190.864,147.716,189.643,149.363,187.875,149.632z"/>
				</g>
				<g>
					<path style="fill:#B5B5B5;stroke:#263238;stroke-miterlimit:10;" d="M185.099,149.937l-37.082,5.599
						c-1.416-0.167-2.61-1.268-2.832-2.739c-0.268-1.768,0.953-3.424,2.721-3.693l37.415-5.636c1.286,0.287,2.332,1.342,2.545,2.721
						C188.134,147.994,186.894,149.669,185.099,149.937z"/>
				</g>
				<g>
					<path style="fill:#B5B5B5;stroke:#263238;stroke-miterlimit:10;" d="M121.569,158.668c-1.126,0-2.112-0.822-2.285-1.969
						c-0.19-1.263,0.68-2.442,1.943-2.633l26.818-4.042c1.267-0.191,2.442,0.68,2.633,1.943c0.19,1.264-0.68,2.442-1.943,2.633
						l-26.818,4.042C121.8,158.659,121.683,158.668,121.569,158.668z"/>
				</g>
			</g>
			<path style="fill:#FFFFFF;stroke:#263238;stroke-miterlimit:10;" d="M148.312,172.446c0,0,3.146-10.648,3.388-12.584
				c0.242-1.936,2.42-3.63,2.42-3.63s3.993-3.267,4.961-4.961c0.968-1.694,1.815,0.363,1.815,1.815s-4.719,5.929-4.719,5.929
				s0.847,3.993,0.847,6.05c0,2.057-1.573,4.84-1.573,4.84l-2.299,6.655L148.312,172.446z"/>
			<g>
				<polygon style="fill:#FFFFFF;stroke:#263238;stroke-miterlimit:10;" points="147.102,170.873 156.177,177.528 152.91,183.094 
					144.561,176.076 				"/>
				<path style="fill:#92E3A9;stroke:#263238;stroke-miterlimit:10;" d="M144.803,174.866l11.253,9.075
					c0,0-23.595,34.848-25.047,35.816c-1.452,0.968-4.235,1.573-4.235,1.573l-5.566-17.182L144.803,174.866z"/>
			</g>
			<polygon style="fill:#FFFFFF;stroke:#263238;stroke-linecap:round;stroke-linejoin:round;stroke-miterlimit:10;" points="
				112.376,179.101 117.942,182.61 115.038,182.61 113.586,183.941 110.924,183.699 109.956,180.553 			"/>
			<g>
				<path style="fill:#FFFFFF;stroke:#263238;stroke-linecap:round;stroke-linejoin:round;stroke-miterlimit:10;" d="
					M119.394,142.802c0,0,3.388,8.47,2.904,9.317c-0.484,0.847-1.21,2.178-0.968,3.025c0.242,0.847,3.63,4.961,3.267,5.687
					s-2.662,3.509-2.662,3.509s-1.21,5.445-0.968,5.929c0.242,0.484,1.331,1.815,0.605,3.146c-0.726,1.331-2.662,1.573-3.872,1.573
					c-1.21,0-2.783-0.242-2.783-0.242l-3.509,6.655l-19.723-7.502l3.025-6.655c0,0-2.178-4.84-0.605-11.011
					c1.573-6.171,13.431-13.31,18.392-14.036S119.394,142.802,119.394,142.802z"/>
				<path style="fill:#263238;stroke:#263238;stroke-linecap:round;stroke-linejoin:round;stroke-miterlimit:10;" d="
					M114.796,144.375c0,0,3.146,4.114,2.541,5.324c-0.605,1.21-3.63,4.114-3.63,4.114s0.968,4.235,0.484,4.719
					c-0.484,0.484-1.815,0.847-2.299,0.605c-0.484-0.242-3.509-6.05-5.445-4.719c-1.936,1.331-2.299,4.477-1.452,6.292
					c0.847,1.815,1.573,2.783,1.573,2.783s-4.84,4.477-7.502,4.961c-2.662,0.484-4.719,0.726-5.445-0.363
					c-0.726-1.089-5.203-10.89-5.324-17.787c-0.121-6.897,4.477-12.705,7.26-14.036c2.783-1.331,8.107-1.452,8.107-1.452
					s0.363-3.146,4.114-3.025c3.751,0.121,7.623,3.146,7.623,3.146s-1.21-4.356,1.694-1.815c2.904,2.541,4.961,3.993,4.356,7.986
					C120.845,145.101,114.796,144.375,114.796,144.375z"/>
				<polyline style="fill:none;stroke:#263238;stroke-linecap:round;stroke-linejoin:round;stroke-miterlimit:10;" points="
					106.568,163.492 109.23,164.219 110.319,166.396 				"/>
				<path style="fill:#263238;stroke:#263238;stroke-linecap:round;stroke-linejoin:round;stroke-miterlimit:10;" d="M117.7,174.987
					c0,0-1.452-0.726-2.42-1.452c-0.968-0.726-3.146-2.299-3.146-2.299l1.21,5.808l1.573-2.299L117.7,174.987z"/>
			</g>
			<polygon style="fill:#FFFFFF;stroke:#263238;stroke-linecap:round;stroke-linejoin:round;stroke-miterlimit:10;" points="
				86.966,172.083 85.877,177.165 109.835,183.82 121.451,193.863 112.134,182.731 110.682,179.222 			"/>
			<path style="fill:#92E3A9;stroke:#263238;stroke-linecap:round;stroke-linejoin:round;stroke-miterlimit:10;" d="
				M113.586,183.941c0,0,6.719,2.319,11.837,16.186c5.118,13.868,19.487,69.105,19.487,69.105l-7.931,2.049
				c0,0-3.467-20.141-9.74-39.456C120.965,212.509,113.586,183.941,113.586,183.941z"/>
			<g>
				<path style="fill:#263238;stroke:#263238;stroke-linecap:round;stroke-linejoin:round;stroke-miterlimit:10;" d="
					M138.134,266.328c0,0-2.711,29.341-3.852,43.403s-12.352,52.068-13.682,57.199s-1.9,20.903-1.9,20.903l1.9,1.33v1.52
					l6.461,4.181c0,0,9.502,3.421,7.411,5.511c-2.09,2.09-5.891,1.33-11.212,1.33c-5.321,0-11.022-1.9-12.732-1.9
					c-1.71,0-3.421,0-4.181-0.19c-0.76-0.19-2.47,0.57-2.47-1.14c0-1.71-1.33-8.171-1.33-8.171s-1.52-2.28-1.52-3.801
					c0-1.52,0.38-6.651,1.14-8.551s1.9-9.501,1.9-9.501l1.14-19.953l-6.651,14.442l-5.701,23.944c0,0,2.85,0.95,2.85,1.71
					s-0.57,4.181-0.57,4.181s3.611,3.611,5.321,4.941c1.71,1.33,9.882,5.701,10.452,5.891c0.57,0.19,3.04,2.28,1.52,3.23
					c-1.52,0.95-9.121,1.52-15.202,1.52c-6.081,0-13.872-2.66-13.872-2.66l-1.71,1.14c0,0-5.511-1.33-6.271-1.52
					s-1.14-3.611-0.95-4.941c0.19-1.33,0-2.85,0-3.611s-0.57-4.751-0.19-6.081c0.38-1.33,1.71-4.941,1.71-4.941
					s2.851-30.785,3.611-35.536c0.76-4.751,5.891-15.202,5.891-15.202s2.66-18.623,3.04-22.233c0.38-3.611,0.57-17.293,0.57-17.293
					s-3.23-8.171-4.371-14.252c-1.14-6.081-0.19-7.411-0.19-7.411l2.47-9.501L138.134,266.328z"/>
				<path style="fill:none;stroke:#8C8C8C;stroke-linecap:round;stroke-linejoin:round;stroke-miterlimit:10;" d="M108.907,343.512
					c0,0,5.788-19.295,6.753-25.084c0.965-5.789,7.396-27.656,7.396-27.656l6.11-4.181"/>
				<path style="fill:none;stroke:#8C8C8C;stroke-linecap:round;stroke-linejoin:round;stroke-miterlimit:10;" d="M86.717,340.618
					c0,0,13.828-8.361,21.868-22.833"/>
				<path style="fill:none;stroke:#8C8C8C;stroke-linecap:round;stroke-linejoin:round;stroke-miterlimit:10;" d="M110.515,309.103
					c0,0-8.361,12.863-14.15,18.009"/>
			</g>
			<path style="fill:#FFFFFF;stroke:#263238;stroke-linecap:round;stroke-linejoin:round;stroke-miterlimit:10;" d="M125.201,203.18
				c0,0,9.796,46.639,11.117,52.913c1.321,6.273,1.816,10.235,1.816,10.235s-4.292,0.826-6.108,0.826
				c-1.816,0-5.778-0.165-5.778-0.165l-5.943-66.366L125.201,203.18z"/>
			<path style="fill:#92E3A9;stroke:#263238;stroke-linecap:round;stroke-linejoin:round;stroke-miterlimit:10;" d="M82.973,175.35
				v5.082c0,0-5.566,22.264-4.84,29.282s7.623,29.524,7.623,29.524s-1.694,2.783-1.815,3.146s0.605,3.146,0.605,3.146l-6.171,30.492
				c0,0,23.595,4.961,39.082,3.63s16.577-2.178,16.577-2.178s-2.057-28.798-1.936-35.574c0.121-6.776-5.566-35.452-6.897-38.719
				c-1.331-3.267-3.751-9.317-3.751-9.317l-11.616-10.043L82.973,175.35z"/>
			<g>
				<g>
					<path style="fill:none;stroke:#263238;stroke-linecap:round;stroke-linejoin:round;stroke-miterlimit:10;" d="M100.881,211.65
						c0,0-12.826,11.616-14.641,12.342"/>
					<path style="fill:none;stroke:#263238;stroke-linecap:round;stroke-linejoin:round;stroke-miterlimit:10;" d="M104.632,211.287
						c0,0-3.63,5.929-5.203,8.591"/>
					
						<line style="fill:none;stroke:#263238;stroke-linecap:round;stroke-linejoin:round;stroke-miterlimit:10;" x1="103.059" y1="220.483" x2="99.187" y2="227.863"/>
				</g>
				<path style="fill:#FFFFFF;stroke:#263238;stroke-linecap:round;stroke-linejoin:round;stroke-miterlimit:10;" d="
					M126.532,167.001c0,0,0.363-8.591,0.726-10.043c0.363-1.452,3.509-7.623,3.509-7.623s1.936-1.573,2.783-0.968
					c0.847,0.605,0.726,2.057,0.726,2.057s1.452-2.057,2.299-1.815s1.694,1.936,1.694,1.936s1.694-0.484,2.662-0.121
					c0.968,0.363,1.694,0.121,1.452,1.21c-0.242,1.089-2.662,7.018-2.662,7.018s5.082-1.936,5.082-0.968s-0.847,1.331-1.936,2.057
					c-1.089,0.726-5.082,2.783-5.082,2.783l-3.025,3.025l-0.484,2.783L126.532,167.001z"/>
				<path style="fill:#FFFFFF;stroke:#263238;stroke-linecap:round;stroke-linejoin:round;stroke-miterlimit:10;" d="
					M127.016,171.478l-0.484-4.477c0,0,1.815-0.605,3.509-0.484s5.445,1.331,5.445,1.331l0.242,4.598L127.016,171.478z"/>
				<path style="fill:#92E3A9;stroke:#263238;stroke-linecap:round;stroke-linejoin:round;stroke-miterlimit:10;" d="M85.877,189.87
					c0,0,4.84-1.331,6.292-1.452c1.452-0.121,32.669,2.783,32.669,2.783l1.573-21.296c0,0,1.815-0.363,3.509,0.121
					c1.694,0.484,8.833,2.541,8.833,2.541s0.484,22.022,0.484,26.983c0,4.961,0,8.107,0,8.107s-1.573,0.605-2.904,0.847
					s-34.364,3.025-40.413,3.025s-12.463,0.484-13.915-5.687"/>
			</g>
		</g>
	</g>
</g>
</svg>
