<?xml version="1.0" encoding="utf-8"?>
<!-- Generator: Adobe Illustrator 27.5.0, SVG Export Plug-In . SVG Version: 6.00 Build 0)  -->
<svg version="1.1" xmlns="http://www.w3.org/2000/svg" xmlns:xlink="http://www.w3.org/1999/xlink" x="0px" y="0px"
	 viewBox="0 0 500 500" style="enable-background:new 0 0 500 500;" xml:space="preserve">
<g id="Background_Complete">
	<g>
		<rect y="382.398" style="fill:#EBEBEB;" width="500" height="0.25"/>
		<rect x="52.459" y="391.922" style="fill:#EBEBEB;" width="33.122" height="0.25"/>
		<rect x="171.14" y="389.208" style="fill:#EBEBEB;" width="55.416" height="0.25"/>
		<rect x="91" y="397.861" style="fill:#EBEBEB;" width="19.192" height="0.25"/>
		<rect x="385.46" y="391.797" style="fill:#EBEBEB;" width="43.193" height="0.25"/>
		<rect x="437.556" y="391.797" style="fill:#EBEBEB;" width="6.333" height="0.25"/>
		<rect x="277.213" y="395.306" style="fill:#EBEBEB;" width="46.838" height="0.25"/>
		<path style="fill:#EBEBEB;" d="M237.014,337.8H43.915c-3.147,0-5.708-2.561-5.708-5.708V60.66c0-3.147,2.561-5.708,5.708-5.708
			h193.099c3.146,0,5.707,2.561,5.707,5.708v271.432C242.721,335.239,240.16,337.8,237.014,337.8z M43.915,55.203
			c-3.01,0-5.458,2.448-5.458,5.458v271.432c0,3.01,2.448,5.458,5.458,5.458h193.099c3.009,0,5.457-2.448,5.457-5.458V60.66
			c0-3.009-2.448-5.458-5.457-5.458H43.915z"/>
		<path style="fill:#EBEBEB;" d="M453.31,337.8H260.212c-3.147,0-5.707-2.561-5.707-5.708V60.66c0-3.147,2.561-5.708,5.707-5.708
			H453.31c3.148,0,5.708,2.561,5.708,5.708v271.432C459.019,335.239,456.458,337.8,453.31,337.8z M260.212,55.203
			c-3.009,0-5.457,2.448-5.457,5.458v271.432c0,3.01,2.448,5.458,5.457,5.458H453.31c3.01,0,5.458-2.448,5.458-5.458V60.66
			c0-3.009-2.448-5.458-5.458-5.458H260.212z"/>
	</g>
	<g>
		<g>
			<g>
				<rect x="104.783" y="74.394" style="fill:#FAFAFA;" width="193.058" height="138.592"/>
				<polygon style="fill:#FFFFFF;" points="286.854,212.986 237.75,74.394 200.899,74.394 250.003,212.986 				"/>
				<polygon style="fill:#FFFFFF;" points="187.763,212.986 138.658,74.394 125.217,74.394 174.322,212.986 				"/>
				<g>
					<path style="fill:#E0E0E0;" d="M95.578,69.628h211.468c0.472,0,0.858,0.386,0.858,0.858l0,0c0,0.472-0.386,0.858-0.858,0.858
						H95.578c-0.472,0-0.858-0.386-0.858-0.858l0,0C94.72,70.014,95.106,69.628,95.578,69.628z"/>
					<rect x="200.168" y="74.096" style="fill:#F0F0F0;" width="2.288" height="139.188"/>
					<rect x="199.024" y="74.096" style="fill:#E0E0E0;" width="1.144" height="139.188"/>
					
						<rect x="200.168" y="45.827" transform="matrix(6.123234e-17 -1 1 6.123234e-17 57.6222 345.0016)" style="fill:#F0F0F0;" width="2.288" height="195.726"/>
					<path style="fill:#F0F0F0;" d="M103.449,212.032L103.449,212.032V75.347v-2.288h2.287h191.151h2.288v2.288v136.685h0v2.288h0
						l0,0h-2.288l0,0H105.736l0,0h-2.287l0,0l0,0V212.032z M296.887,212.032V75.347H105.736v136.685H296.887z"/>
					<rect x="102.305" y="73.059" style="fill:#E0E0E0;" width="1.144" height="141.261"/>
				</g>
			</g>
			<g>
				<polygon style="opacity:0.5;fill:#EBEBEB;" points="131.83,67.531 131.83,230.288 90.51,230.288 98.088,67.531 				"/>
				<polygon style="opacity:0.5;fill:#EBEBEB;" points="269.651,67.531 269.651,230.288 310.971,230.288 303.393,67.531 				"/>
			</g>
		</g>
		<g>
			<g>
				<g>
					<rect x="61.924" y="249.789" style="fill:#F0F0F0;" width="15.759" height="127.83"/>
					<rect x="64.95" y="377.619" style="fill:#F0F0F0;" width="173.626" height="4.78"/>
					
						<rect x="77.683" y="249.789" transform="matrix(-1 -1.224647e-16 1.224647e-16 -1 319.2858 627.4077)" style="fill:#F5F5F5;" width="163.919" height="127.83"/>
					<rect x="59.941" y="245.618" style="fill:#F0F0F0;" width="16.107" height="4.171"/>
					
						<rect x="76.048" y="245.618" transform="matrix(-1 -1.224647e-16 1.224647e-16 -1 319.6335 495.407)" style="fill:#FAFAFA;" width="167.537" height="4.171"/>
					<path style="fill:#E0E0E0;" d="M235.936,321.726H83.35v-63.181h152.586V321.726z M84.408,320.667h150.469v-61.064H84.408
						V320.667z"/>
					<path style="fill:#E0E0E0;" d="M235.936,368.862H83.35v-40.811h152.586V368.862z M84.408,367.804h150.469V329.11H84.408
						V367.804z"/>
					<path style="fill:#E0E0E0;" d="M213.98,262.467H105.305c-0.769,0-1.398-0.629-1.398-1.398v-0.598
						c0-0.769,0.629-1.398,1.398-1.398H213.98c0.769,0,1.398,0.629,1.398,1.398v0.598
						C215.378,261.838,214.749,262.467,213.98,262.467z"/>
					<path style="fill:#E0E0E0;" d="M213.98,331.974H105.305c-0.769,0-1.398-0.629-1.398-1.398v-0.597
						c0-0.769,0.629-1.398,1.398-1.398H213.98c0.769,0,1.398,0.629,1.398,1.398v0.597
						C215.378,331.345,214.749,331.974,213.98,331.974z"/>
				</g>
			</g>
		</g>
		<g>
			
				<rect x="347.859" y="96.548" transform="matrix(-1 -1.224647e-16 1.224647e-16 -1 787.3951 472.8128)" style="fill:#F0F0F0;" width="91.677" height="279.716"/>
			<rect x="344.95" y="96.548" style="fill:#E0E0E0;" width="2.909" height="279.716"/>
			
				<rect x="362.733" y="107.218" transform="matrix(-1 -1.224647e-16 1.224647e-16 -1 787.3951 472.8128)" style="fill:#FAFAFA;" width="61.929" height="258.376"/>
		</g>
	</g>
</g>
<g id="Background_Simple" style="display:none;">
	<g style="display:inline;">
		<path style="fill:#407BFF;" d="M146.453,288.772c41.905,14.269,94.495-1.814,136.877-21.901
			c168.557-63.776,74.606-197.077-39.038-186.882C130.649,90.184,19.544,245.283,146.453,288.772z"/>
		<path style="opacity:0.9;fill:#FFFFFF;" d="M146.453,288.772c41.905,14.269,94.495-1.814,136.877-21.901
			c168.557-63.776,74.606-197.077-39.038-186.882C130.649,90.184,19.544,245.283,146.453,288.772z"/>
	</g>
</g>
<g id="Shadow_1_">
	<ellipse id="_x3C_Path_x3E__291_" style="fill:#F5F5F5;" cx="250" cy="416.238" rx="193.889" ry="11.323"/>
</g>
<g id="Character_1_">
	<g>
		<polygon style="fill:#B55B52;" points="143.356,407.533 151.185,404.563 146.392,385.641 138.562,388.611 		"/>
		<polygon style="fill:#B55B52;" points="84.527,407.685 92.901,407.685 94.155,388.293 85.781,388.293 		"/>
		<path style="fill:#263238;" d="M93.739,406.715H83.529c-0.342,0-0.627,0.238-0.685,0.572l-1.284,7.443
			c-0.133,0.772,0.51,1.503,1.3,1.489c3.282-0.056,5.669-0.249,9.806-0.249c2.545,0,10.234,0.264,13.749,0.264
			c3.438,0,3.801-3.475,2.347-3.79c-6.522-1.411-11.481-3.358-13.639-5.215C94.734,406.895,94.239,406.715,93.739,406.715z"/>
		<path style="fill:#263238;" d="M150.787,403.677l-8.55,3.243c-0.32,0.121-0.513,0.449-0.464,0.788l1.093,7.546
			c0.113,0.782,0.921,1.258,1.655,0.966c3.065-1.222,5.666-2.773,9.568-4.174c4.563-1.638,9.092-3.39,12.785-5.742
			c2.899-1.847,1.678-5.343,0.311-4.795c-6.223,2.498-7.749,3.319-14.28,2.064C152.194,403.436,151.462,403.421,150.787,403.677z"/>
		<path style="fill:#B65B52;" d="M128.697,152.492c2.636,4.656,5.412,9.456,8.21,14.1c2.796,4.665,5.671,9.275,8.719,13.597
			c0.739,1.095,1.557,2.142,2.294,3.155c0.305,0.453,0.435,0.583,0.65,0.754c0.218,0.16,0.729,0.305,1.519,0.238
			c0.781-0.055,1.772-0.283,2.797-0.664c2.072-0.756,4.289-1.996,6.458-3.383c1.078-0.709,2.173-1.439,3.245-2.216
			c1.056-0.767,2.151-1.625,3.127-2.378l4.696,4.181c-0.9,1.31-1.779,2.423-2.748,3.573c-0.955,1.137-1.949,2.256-3.029,3.311
			c-1.07,1.068-2.206,2.098-3.438,3.071c-1.228,0.978-2.545,1.916-4.031,2.742c-1.486,0.823-3.124,1.59-5.083,2.069
			c-1.937,0.464-4.299,0.644-6.755-0.02c-2.466-0.629-4.689-2.205-6.163-3.891c-1.004-1.164-1.984-2.25-2.9-3.4
			c-3.713-4.549-6.989-9.257-10.098-14.048c-3.092-4.825-5.949-9.655-8.653-14.788L128.697,152.492z"/>
		<g>
			<path style="fill:#407BFF;" d="M113.844,152.877c-2.258,7.681,13.637,28.622,13.637,28.622l16.027-10.313
				c0,0-4.71-10.684-11.106-18.832C125.836,143.989,116.322,144.447,113.844,152.877z"/>
			<path style="opacity:0.2;" d="M113.844,152.877c-2.258,7.681,13.637,28.622,13.637,28.622l16.027-10.313
				c0,0-4.71-10.684-11.106-18.832C125.836,143.989,116.322,144.447,113.844,152.877z"/>
		</g>
		<path style="opacity:0.2;" d="M123.614,161.894c3.297,1.408,8.148,9.347,10.672,15.231l-6.802,4.371
			c0,0-6.124-8.064-10.224-16.024C119.409,163.115,121.871,161.154,123.614,161.894z"/>
		<path style="fill:#B55B52;" d="M164.73,178.306l2.936-8.223l8.334,3.977c0,0-1.73,7.334-7.828,7.322L164.73,178.306z"/>
		<polygon style="fill:#B55B52;" points="175.083,164.667 178.609,168.565 176.001,174.061 167.667,170.083 		"/>
		<polygon style="opacity:0.2;" points="146.391,385.647 148.864,395.4 141.031,398.371 138.559,388.618 		"/>
		<polygon style="opacity:0.2;" points="85.779,388.298 94.157,388.298 93.506,398.294 85.128,398.294 		"/>
		<g>
			<path style="fill:#407BFF;" d="M76.517,149.48c9.02,31.809,7.544,65.56,8.107,72.417c6.563-0.235,31.284-1.167,44.76-1.677
				c7.603-47.415-6.051-73.805-6.051-73.805s-2.872-0.558-6.778-0.959c-1.225-0.125-2.546-0.236-3.922-0.308
				c-0.76-0.046-1.532-0.07-2.315-0.086c-5.053-0.083-13.305,0.72-18.99,1.415c-1.19,0.148-2.403,0.327-3.574,0.518
				c-1.088,0.186-2.155,0.383-3.16,0.584C80.035,148.488,76.517,149.48,76.517,149.48z"/>
			<path style="opacity:0.2;" d="M76.517,149.48c9.02,31.809,7.544,65.56,8.107,72.417c6.563-0.235,31.284-1.167,44.76-1.677
				c7.603-47.415-6.051-73.805-6.051-73.805s-2.872-0.558-6.778-0.959c-1.225-0.125-2.546-0.236-3.922-0.308
				c-0.76-0.046-1.532-0.07-2.315-0.086c-5.053-0.083-13.305,0.72-18.99,1.415c-1.19,0.148-2.403,0.327-3.574,0.518
				c-1.088,0.186-2.155,0.383-3.16,0.584C80.035,148.488,76.517,149.48,76.517,149.48z"/>
		</g>
		<path style="opacity:0.2;" d="M86.046,163.126c0.803,3.077-0.115,17.12-3.328,20.583c-0.438-4.496-1.022-9.191-1.794-13.99
			L86.046,163.126z"/>
		<path style="fill:#B55B52;" d="M91.621,124.955c1.652,6.02,3.681,17.125-0.29,21.519c3.566,3.053,8.19,6.544,15.464,6.259
			c7.273-0.285,5.635-5.18,3.523-7.671c-6.933-1.12-7.134-6.188-6.3-11.023L91.621,124.955z"/>
		<g>
			<polygon style="fill:#407BFF;" points="106.98,151.698 108.301,152.592 103.481,153.995 104.723,151.764 			"/>
			<polygon style="fill:#407BFF;" points="108.799,151.229 108.301,152.592 113.141,153.995 112.814,151.406 			"/>
			<path style="fill:#FFFFFF;" d="M88.437,146.013l1.905-0.956c0.619-0.311,1.358-0.252,1.914,0.161
				c2,1.486,7.321,4.992,14.724,6.48c-3.825,1.826-2.879,6.723-2.879,6.723s-12.15-4.007-16.051-11.261
				C87.827,146.745,88.016,146.225,88.437,146.013z"/>
			<path style="fill:#FFFFFF;" d="M112.442,144.752l-2.793-0.42c-0.324-0.049-0.545,0.313-0.356,0.581
				c0.976,1.383,2.595,4.442-0.493,6.317c3.825,1.826,5.015,6.294,5.015,6.294s4.979-5.374-0.826-12.462
				C112.853,144.896,112.654,144.784,112.442,144.752z"/>
		</g>
		<path style="opacity:0.2;" d="M96.675,128.663l7.337,5.372c-0.201,1.145-0.338,2.3-0.335,3.414
			c-2.631-0.182-6.418-2.773-6.897-5.478C96.541,130.622,96.501,129.312,96.675,128.663z"/>
		<path style="fill:#263238;" d="M112.867,112.611c-0.335,2.905-3.124,5.411-4.93,6.037l-2.247-12.659
			C110.741,102.429,113.338,108.527,112.867,112.611z"/>
		<path style="fill:#B55B52;" d="M89.091,116.101c1.456,8.182,1.892,13.045,6.541,16.795c6.993,5.641,16.73,0.695,17.749-7.757
			c0.917-7.608-1.618-19.711-10.062-22.061C95,100.763,87.635,107.919,89.091,116.101z"/>
		<path style="fill:#263238;" d="M90.646,121.618c3.79,2.014,5.459-2.513,5.492-4.347c0.051-2.924-1.215-6.129-2.723-7.303
			c7.316-0.043,21.791-0.362,18.14-7.331c-3.651-6.97-10.963-6.173-16.475-2.362c-2.913,2.014-12.333,0.261-9.998,5.694
			C80.17,108.578,84.43,118.315,90.646,121.618z"/>
		<path style="fill:#263238;" d="M85.885,105.52c0,0-1.613,0.15-3.611-1.228c0.576,2.588,3.196,2.648,3.196,2.648L85.885,105.52z"/>
		<path style="fill:#B55B52;" d="M86.014,122.831c0.988,2.011,2.813,3.378,4.565,3.945c2.636,0.852,3.24-1.565,2.6-4.11
			c-0.576-2.291-1.817-5.41-4.507-5.154C86.022,117.764,84.884,120.531,86.014,122.831z"/>
		<path style="fill:#263238;" d="M139.134,308.75c-3.403-25.33-9.751-88.527-9.751-88.527l-29.424,1.104
			c0,0,13.878,63.155,18.901,88.761s18.992,87.413,18.992,87.413l13.26-5.022C151.112,392.479,142.676,335.087,139.134,308.75z"/>
		<path style="opacity:0.2;" d="M110.945,238.354c-1.836,0.459-4.736,1.586-6.541,3.349c2.775,12.769,6.406,29.576,9.525,44.39
			C116.057,273.26,116.12,249.047,110.945,238.354z"/>
		<path style="fill:#263238;" d="M113.507,220.819c0,0-6.243,68.556-9.103,92.925c-3.132,26.686-7.042,82.614-7.042,82.614H82.025
			c0,0-0.636-49.465,1.358-75.587c2.271-29.755,1.244-98.866,1.244-98.866L113.507,220.819z"/>
		<polygon style="fill:#407BFF;" points="99.4,396.69 81.34,396.69 80.96,391.294 101.124,390.943 		"/>
		<polygon style="fill:#407BFF;" points="152.894,392.156 137.095,398.148 135.159,393.043 152.718,386.077 		"/>
		<path style="fill:#263238;" d="M101.856,116.964c0.077,0.671,0.495,1.174,0.934,1.123c0.439-0.05,0.731-0.635,0.654-1.306
			c-0.077-0.671-0.495-1.174-0.934-1.123C102.071,115.708,101.778,116.293,101.856,116.964z"/>
		<path style="fill:#263238;" d="M109.44,116.09c0.077,0.671,0.496,1.174,0.934,1.123c0.439-0.05,0.731-0.635,0.654-1.306
			c-0.077-0.671-0.496-1.174-0.934-1.123S109.363,115.419,109.44,116.09z"/>
		<path style="fill:#A02724;" d="M107.067,116.702c0,0,1.972,3.695,3.867,5.369c-1.059,1.245-3.136,0.971-3.136,0.971
			L107.067,116.702z"/>
		<path style="fill:#263238;" d="M105.176,125.163c-2.592-0.05-3.98-1.685-4.044-1.762c-0.07-0.084-0.058-0.209,0.026-0.279
			c0.084-0.07,0.209-0.058,0.279,0.025c0.016,0.019,1.637,1.917,4.573,1.579c0.109-0.012,0.207,0.066,0.22,0.174
			c0.013,0.109-0.066,0.207-0.174,0.22C105.749,125.156,105.456,125.169,105.176,125.163z"/>
		<path style="fill:#263238;" d="M99.235,114.784c-0.066-0.001-0.133-0.019-0.194-0.055c-0.189-0.111-0.251-0.354-0.14-0.543
			c1.115-1.89,2.943-1.993,3.021-1.996c0.219-0.01,0.404,0.16,0.414,0.379c0.01,0.218-0.159,0.403-0.377,0.414l0,0
			c-0.06,0.003-1.485,0.098-2.375,1.607C99.509,114.717,99.373,114.787,99.235,114.784z"/>
		<path style="fill:#263238;" d="M112.407,113.105c-0.128-0.003-0.253-0.067-0.327-0.184c-0.941-1.477-2.368-1.524-2.428-1.525
			c-0.218-0.005-0.393-0.185-0.389-0.403c0.003-0.218,0.181-0.393,0.4-0.39c0.079,0.003,1.908,0.041,3.087,1.892
			c0.118,0.185,0.063,0.43-0.121,0.548C112.559,113.087,112.482,113.106,112.407,113.105z"/>
		<g>
			<path style="fill:#407BFF;" d="M96.581,408.178c-0.774,0-1.618-0.161-2.206-0.301c-0.079-0.019-0.141-0.082-0.157-0.161
				c-0.017-0.079,0.015-0.158,0.081-0.2c0.296-0.191,2.915-1.85,3.864-1.374c0.147,0.074,0.331,0.231,0.368,0.561
				c0.05,0.444-0.071,0.796-0.358,1.048C97.809,408.07,97.218,408.178,96.581,408.178z M94.936,407.599
				c1.436,0.285,2.527,0.233,2.966-0.151c0.193-0.169,0.269-0.404,0.234-0.72c-0.017-0.154-0.082-0.206-0.137-0.233
				C97.505,406.248,96.002,406.964,94.936,407.599z"/>
			<path style="fill:#407BFF;" d="M94.421,407.883c-0.038,0-0.076-0.011-0.11-0.032c-0.063-0.04-0.101-0.109-0.099-0.182
				c0.003-0.102,0.083-2.518,1.017-3.314c0.243-0.207,0.523-0.293,0.832-0.255c0,0,0,0,0,0c0.477,0.058,0.616,0.351,0.657,0.52
				c0.224,0.934-1.361,2.768-2.204,3.239C94.486,407.875,94.454,407.883,94.421,407.883z M95.943,404.489
				c-0.163,0-0.31,0.057-0.447,0.174c-0.599,0.51-0.796,1.918-0.859,2.624c0.829-0.654,1.827-2.04,1.695-2.592
				c-0.012-0.05-0.04-0.168-0.299-0.2l0,0C96.003,404.491,95.973,404.489,95.943,404.489z"/>
			<path style="fill:#407BFF;" d="M151.967,404.467c-0.074,0.002-0.143-0.037-0.18-0.103c-0.041-0.074-0.03-0.165,0.026-0.228
				c0.286-0.319,2.828-3.108,3.98-2.939c0.222,0.033,0.393,0.163,0.493,0.377c0,0,0,0,0,0c0.168,0.359,0.166,0.707-0.005,1.034
				c-0.57,1.086-2.931,1.629-4.288,1.856C151.985,404.466,151.976,404.467,151.967,404.467z M155.658,401.586
				c-0.668,0.02-2.128,1.318-3.145,2.38c1.838-0.368,3.098-0.932,3.418-1.542c0.113-0.214,0.112-0.437-0.003-0.681
				c-0.044-0.094-0.102-0.14-0.192-0.153C155.712,401.586,155.686,401.585,155.658,401.586z"/>
			<path style="fill:#407BFF;" d="M151.967,404.467c-0.019,0.001-0.038-0.001-0.057-0.007c-0.068-0.018-0.122-0.071-0.14-0.139
				c-0.025-0.093-0.614-2.282,0.072-3.477c0.209-0.365,0.515-0.603,0.908-0.708l0,0c0.53-0.142,0.775,0.061,0.887,0.256
				c0.479,0.831-0.751,3.234-1.535,4.017C152.065,404.445,152.017,404.466,151.967,404.467z M153.056,400.486
				c-0.054,0.002-0.121,0.011-0.204,0.033c0,0,0,0,0,0c-0.291,0.078-0.509,0.249-0.666,0.522c-0.451,0.786-0.251,2.153-0.118,2.806
				c0.745-0.945,1.513-2.759,1.225-3.257C153.276,400.56,153.23,400.481,153.056,400.486z M152.801,400.328l0.005,0L152.801,400.328
				z"/>
		</g>
		<g>
			<path style="fill:#B65B52;" d="M85.724,161.318c-2.512,5.176-5.072,10.517-7.554,15.776c-1.231,2.645-2.466,5.283-3.632,7.932
				l-1.735,3.971l-0.829,1.986l-0.208,0.497l-0.145,0.369c-0.102,0.236-0.168,0.476-0.257,0.714
				c-0.595,1.909-0.756,3.916-0.328,6.082c0.391,2.165,1.342,4.436,2.637,6.653c1.299,2.217,2.933,4.386,4.762,6.445
				c0.908,1.037,1.862,2.056,2.863,3.032c0.5,0.488,1.01,0.968,1.529,1.434c0.497,0.466,1.062,0.965,1.505,1.349l-3.336,5.329
				c-1.551-0.788-2.845-1.562-4.193-2.454c-1.329-0.875-2.632-1.8-3.894-2.799c-2.51-2.01-4.884-4.287-6.987-6.956
				c-2.092-2.665-3.93-5.758-5.052-9.361c-1.107-3.581-1.39-7.717-0.484-11.577c0.121-0.475,0.228-0.96,0.375-1.426l0.386-1.24
				l0.709-2.204c0.492-1.453,0.98-2.914,1.52-4.341c1.05-2.874,2.149-5.712,3.331-8.508c2.337-5.625,4.866-11.049,7.724-16.497
				L85.724,161.318z"/>
			<g>
				<path style="fill:#407BFF;" d="M76.519,149.481c-7.64,2.393-15.153,28.298-15.153,28.298l17.677,7.737
					c0,0,5.719-12.519,9.007-22.33C91.631,152.5,85.774,146.583,76.519,149.481z"/>
				<path style="opacity:0.2;" d="M76.519,149.481c-7.64,2.393-15.153,28.298-15.153,28.298l17.677,7.737
					c0,0,5.719-12.519,9.007-22.33C91.631,152.5,85.774,146.583,76.519,149.481z"/>
			</g>
			<path style="fill:#B55B52;" d="M82.463,215.915l7.311,4.346l-7.111,7.079c0,0-6.176-4.75-4.334-8.473L82.463,215.915z"/>
			<polygon style="fill:#B55B52;" points="94.655,227.191 87.322,232.328 82.663,227.34 89.774,220.261 			"/>
		</g>
	</g>
</g>
<g id="Screen">
	<g>
		<g>
			
				<rect x="446.304" y="215.995" transform="matrix(0.0722 -0.9974 0.9974 0.0722 200.3721 648.4017)" style="fill:#407BFF;" width="4.833" height="1.001"/>
			
				<rect x="442.695" y="202.336" transform="matrix(0.0723 -0.9974 0.9974 0.0723 214.9011 636.7047)" style="fill:#407BFF;" width="14.01" height="1.001"/>
			<path style="fill:#407BFF;" d="M422.324,352.96H177.387c-7.484,0-13.169-6.123-12.632-13.608l12.959-180.797
				c0.536-7.484,7.099-13.608,14.583-13.608h244.937c7.484,0,13.169,6.123,12.632,13.608l-12.959,180.797
				C436.37,346.837,429.808,352.96,422.324,352.96z"/>
			<polygon style="fill:#407BFF;" points="365.348,416.238 285.844,416.238 271.673,317.995 351.177,317.995 			"/>
			<polygon style="fill:#407BFF;" points="352.724,410.384 266.721,410.384 265.013,416.238 351.016,416.238 			"/>
			<polygon style="fill:#263238;" points="355.374,365.29 277.884,361.056 271.673,317.995 348.552,317.995 			"/>
			<path style="fill:#263238;" d="M419.559,352.96H174.622c-7.484,0-13.169-6.123-12.632-13.608l12.959-180.797
				c0.536-7.484,7.099-13.608,14.583-13.608h244.937c7.484,0,13.169,6.123,12.632,13.608l-12.959,180.797
				C433.605,346.837,427.043,352.96,419.559,352.96z"/>
			
				<rect x="391.264" y="211.726" transform="matrix(0.0716 -0.9974 0.9974 0.0716 199.8676 639.1325)" style="fill:#FFFFFF;" width="103.984" height="0.956"/>
			
				<rect x="419.603" y="290.551" transform="matrix(0.0715 -0.9974 0.9974 0.0715 116.0421 706.7129)" style="fill:#FFFFFF;" width="36.005" height="0.956"/>
		</g>
		<g>
			<g>
				<path style="fill:#FFFFFF;" d="M419.041,349.577H175.625c-5.826,0-10.25-4.766-9.833-10.592l12.907-180.062
					c0.418-5.826,5.526-10.592,11.351-10.592h243.416c5.826,0,10.25,4.766,9.833,10.592l-12.907,180.062
					C429.974,344.81,424.866,349.577,419.041,349.577z"/>
				<path style="opacity:0.2;fill:#407BFF;" d="M419.041,349.577H175.625c-5.826,0-10.25-4.766-9.833-10.592l12.907-180.062
					c0.418-5.826,5.526-10.592,11.351-10.592h243.416c5.826,0,10.25,4.766,9.833,10.592l-12.907,180.062
					C429.974,344.81,424.866,349.577,419.041,349.577z"/>
				<path style="opacity:0.5;fill:#FFFFFF;" d="M238.063,341.596h-56.848c-2.814,0-4.952-2.303-4.75-5.117l12.547-175.049
					c0.202-2.814,2.669-5.117,5.484-5.117h56.847c2.814,0,4.952,2.303,4.751,5.117l-12.547,175.049
					C243.345,339.293,240.877,341.596,238.063,341.596z"/>
			</g>
			<path style="opacity:0.4;fill:#407BFF;" d="M235.862,180.989H206.44c-2.535,0-4.461-2.074-4.279-4.61l0.323-4.511
				c0.182-2.535,2.405-4.609,4.94-4.609h29.422c2.535,0,4.461,2.074,4.279,4.609l-0.323,4.511
				C240.62,178.915,238.397,180.989,235.862,180.989z"/>
			<g>
				<path style="fill:#407BFF;" d="M217.155,251.798h-44.917c-4.423,0-7.783-3.619-7.465-8.042l3.22-44.917
					c0.317-4.423,4.195-8.042,8.618-8.042h44.917c4.423,0,7.783,3.619,7.465,8.042l-3.22,44.917
					C225.456,248.179,221.578,251.798,217.155,251.798z"/>
				<path style="fill:#FFFFFF;" d="M223.595,214.971c-1.686,0-3.164,1.379-3.285,3.065l-0.467,6.522
					c-0.121,1.686,1.16,3.065,2.845,3.065h4.56c0.42,0,0.785-0.34,0.815-0.76l0.798-11.131c0.03-0.42-0.286-0.76-0.706-0.76H223.595
					z"/>
				<path style="fill:#FFFFFF;" d="M206.264,202.227h-28.313c-0.676,0-1.189-0.553-1.141-1.229l0,0
					c0.048-0.676,0.641-1.229,1.317-1.229h28.313c0.676,0,1.189,0.553,1.141,1.229l0,0
					C207.532,201.675,206.939,202.227,206.264,202.227z"/>
				<path style="fill:#FFFFFF;" d="M205.815,208.482h-28.313c-0.676,0-1.189-0.553-1.141-1.229l0,0
					c0.048-0.676,0.641-1.229,1.317-1.229h28.313c0.676,0,1.189,0.553,1.141,1.229l0,0
					C207.084,207.93,206.491,208.482,205.815,208.482z"/>
				<path style="fill:#FFFFFF;" d="M195.584,214.738h-18.53c-0.676,0-1.189-0.553-1.141-1.229l0,0
					c0.048-0.676,0.641-1.229,1.317-1.229h18.53c0.676,0,1.189,0.553,1.141,1.229l0,0
					C196.852,214.185,196.26,214.738,195.584,214.738z"/>
				<path style="opacity:0.5;fill:#FFFFFF;" d="M206.337,244.54h-27.392c-2.891,0-5.087-2.365-4.88-5.257l1.031-14.391
					c0.207-2.891,2.742-5.257,5.634-5.257h27.392c2.891,0,5.087,2.366,4.88,5.257l-1.031,14.391
					C211.764,242.175,209.229,244.54,206.337,244.54z"/>
			</g>
			<g>
				<path style="opacity:0.4;fill:#407BFF;" d="M231.911,268.621h-34.082c-1.254,0-2.206-1.026-2.116-2.279l0,0
					c0.09-1.254,1.189-2.279,2.443-2.279h34.082c1.254,0,2.206,1.026,2.116,2.279l0,0
					C234.264,267.595,233.165,268.621,231.911,268.621z"/>
				<path style="opacity:0.8;fill:#FFFFFF;" d="M225.042,277.567h-21.627c-1.254,0-2.206-1.026-2.116-2.279l0,0
					c0.09-1.254,1.189-2.279,2.443-2.279h21.627c1.254,0,2.206,1.026,2.116,2.279l0,0
					C227.395,276.542,226.296,277.567,225.042,277.567z"/>
				<path style="opacity:0.4;fill:#407BFF;" d="M230.141,293.308h-34.082c-1.254,0-2.206-1.026-2.116-2.279l0,0
					c0.09-1.254,1.189-2.279,2.443-2.279h34.082c1.254,0,2.206,1.026,2.116,2.279l0,0
					C232.494,292.283,231.395,293.308,230.141,293.308z"/>
				<path style="opacity:0.8;fill:#FFFFFF;" d="M223.273,302.254h-21.627c-1.254,0-2.206-1.026-2.116-2.279l0,0
					c0.09-1.254,1.189-2.279,2.443-2.279h21.627c1.254,0,2.206,1.026,2.116,2.279l0,0
					C225.625,301.229,224.526,302.254,223.273,302.254z"/>
				<path style="opacity:0.4;fill:#407BFF;" d="M228.372,317.995H194.29c-1.254,0-2.206-1.026-2.116-2.279l0,0
					c0.09-1.254,1.189-2.279,2.443-2.279h34.082c1.254,0,2.206,1.026,2.116,2.279l0,0
					C230.725,316.97,229.626,317.995,228.372,317.995z"/>
				<path style="opacity:0.8;fill:#FFFFFF;" d="M221.503,326.941h-21.627c-1.254,0-2.206-1.026-2.116-2.279v0
					c0.09-1.254,1.189-2.279,2.443-2.279h21.627c1.254,0,2.206,1.026,2.116,2.279v0
					C223.856,325.916,222.757,326.941,221.503,326.941z"/>
			</g>
			<g>
				<path style="opacity:0.5;fill:#407BFF;" d="M421.682,290.266c1.478-2.254,4.864-1.301,4.677,1.309l-3.279,45.751
					c-0.169,2.357-1.948,4.272-3.969,4.272H254.275c-2.021,0-3.526-1.915-3.357-4.272l1.948-27.182
					c0.263-3.666,3.993-6.306,7.423-5.237c9.291,2.896,17.251,1.195,24.649-2.473c15.824-7.856,29.063-24.714,47.255-24.714
					c0.697,0,1.384,0.018,2.052,0.062c27.06,1.633,35.304,35.244,56.268,35.244c6.196,0,11.852-2.674,16.776-6.487
					C413.322,301.873,418.247,295.505,421.682,290.266z"/>
				<path style="opacity:0.5;fill:#407BFF;" d="M425.102,309.115l-2.022,28.21c-0.169,2.357-1.948,4.272-3.969,4.272H254.275
					c-2.021,0-3.526-1.915-3.357-4.272l4.018-56.058c0.275-3.84,5.307-5.455,7.344-2.348c5.259,8.023,13.352,18.386,22.658,23.514
					c3.567,1.96,7.303,3.151,11.134,3.151c13.319,0,24.646-15.799,38.173-27.804c8.295-7.361,17.415-13.302,28.325-13.302
					c22.773,0,26.131,37.001,44.719,42.059c3.584,0.98,7.73,0.768,12.694-1.13C422.643,304.393,425.302,306.335,425.102,309.115z"/>
				<g style="opacity:0.8;">
					<path style="fill:#FFFFFF;" d="M425.91,298.18c-0.091,0-0.17-0.04-0.24-0.1c-0.03-0.03-0.06-0.07-0.07-0.11
						c-0.02-0.04-0.03-0.09-0.03-0.13c0-0.1,0.04-0.18,0.101-0.24c0.12-0.13,0.35-0.14,0.48,0c0.07,0.061,0.101,0.15,0.101,0.24
						c0,0.04-0.01,0.09-0.021,0.13c-0.02,0.04-0.05,0.08-0.08,0.11C426.09,298.14,426,298.18,425.91,298.18z"/>
					<path style="fill:#FFFFFF;" d="M265.64,321.609c-0.189,0-0.34-0.149-0.34-0.34l0,0c0-0.18,0.15-0.33,0.34-0.33v-0.01
						c0.191,0,0.34,0.16,0.34,0.34l0,0c0,0.19-0.149,0.351-0.34,0.351l0,0C265.64,321.62,265.64,321.62,265.64,321.609z
						 M262.21,321.42c0,0,0,0,0.01,0l0,0c-0.189-0.01-0.33-0.18-0.31-0.37l0,0c0.02-0.19,0.189-0.32,0.38-0.3l0,0
						c0.189,0.02,0.319,0.19,0.3,0.37l0,0c-0.021,0.18-0.17,0.31-0.34,0.31l0,0C262.24,321.43,262.229,321.43,262.21,321.42z
						 M268.68,321.12c-0.02-0.19,0.11-0.36,0.3-0.38l0,0c0.19-0.021,0.36,0.109,0.38,0.3l0,0c0.021,0.189-0.109,0.359-0.3,0.38l0,0
						c-0.01,0-0.029,0-0.04,0l0,0C268.85,321.42,268.7,321.29,268.68,321.12z M258.83,320.899c-0.181-0.04-0.3-0.22-0.271-0.409l0,0
						c0.04-0.181,0.221-0.301,0.41-0.271l0,0c0.18,0.04,0.3,0.22,0.271,0.41l0,0c-0.04,0.16-0.181,0.27-0.341,0.27l0,0
						C258.88,320.899,258.85,320.899,258.83,320.899z M272.02,320.56c-0.05-0.19,0.061-0.37,0.25-0.42l0,0
						c0.181-0.04,0.36,0.07,0.41,0.25l0,0c0.05,0.18-0.07,0.37-0.25,0.42l0,0c0,0,0,0,0-0.01l0,0c-0.03,0.01-0.06,0.01-0.08,0.01
						l0,0C272.19,320.81,272.05,320.71,272.02,320.56z M381.39,320.7c-0.189,0-0.34-0.15-0.34-0.341l0,0c0-0.19,0.16-0.34,0.34-0.34
						l0,0c0.191,0,0.34,0.15,0.34,0.34l0,0C381.729,320.55,381.58,320.7,381.39,320.7L381.39,320.7L381.39,320.7z M384.44,320.22
						c-0.02-0.19,0.12-0.36,0.301-0.37l0,0c0.189-0.03,0.359,0.11,0.38,0.3l0,0c0.02,0.19-0.12,0.36-0.31,0.38l0,0
						c-0.01,0-0.02,0-0.029,0l0,0C384.609,320.529,384.46,320.399,384.44,320.22z M377.97,320.49c-0.18-0.021-0.32-0.19-0.29-0.381
						l0,0c0.021-0.19,0.19-0.319,0.38-0.3l0,0c0.19,0.03,0.32,0.2,0.3,0.38l0,0c-0.029,0.181-0.17,0.31-0.34,0.31l0,0
						C378,320.5,377.99,320.5,377.97,320.49z M255.51,320.08c-0.18-0.051-0.29-0.24-0.24-0.42l0,0c0.061-0.181,0.24-0.29,0.431-0.24
						l0,0c0.18,0.06,0.279,0.24,0.23,0.43l0,0c-0.04,0.15-0.18,0.24-0.33,0.24l0,0C255.569,320.09,255.54,320.09,255.51,320.08z
						 M387.8,319.75c-0.04-0.19,0.08-0.37,0.27-0.4l0,0c0.181-0.04,0.36,0.08,0.4,0.27l0,0c0.04,0.18-0.08,0.359-0.27,0.399l0,0l0,0
						l0,0c-0.021,0-0.04,0.01-0.061,0.01l0,0C387.979,320.029,387.83,319.91,387.8,319.75z M374.609,319.87
						c-0.19-0.04-0.3-0.221-0.25-0.41l0,0c0.04-0.181,0.221-0.29,0.41-0.25l0,0c0.181,0.04,0.29,0.23,0.25,0.41l0,0
						c-0.04,0.159-0.18,0.26-0.33,0.26l0,0C374.66,319.88,374.63,319.88,374.609,319.87z M275.26,319.59
						c-0.07-0.18,0.021-0.38,0.2-0.44l0,0c0.17-0.069,0.37,0.02,0.439,0.19l0,0c0.061,0.18-0.02,0.38-0.199,0.439l0,0
						c-0.04,0.021-0.08,0.03-0.12,0.03l0,0C275.44,319.81,275.31,319.72,275.26,319.59z M391.109,319
						c-0.05-0.19,0.051-0.38,0.24-0.431l0,0c0.181-0.05,0.37,0.061,0.42,0.24l0,0c0.05,0.181-0.06,0.37-0.239,0.42l0,0l0,0l0,0
						c-0.03,0.011-0.061,0.021-0.091,0.021l0,0C391.29,319.25,391.149,319.149,391.109,319z M371.33,318.88L371.33,318.88
						L371.33,318.88c-0.181-0.061-0.271-0.26-0.21-0.43l0,0c0.069-0.181,0.26-0.271,0.44-0.21l0,0
						c0.181,0.069,0.271,0.26,0.21,0.439l0,0c-0.05,0.14-0.189,0.22-0.33,0.22l0,0C371.399,318.899,371.359,318.899,371.33,318.88z
						 M278.37,318.24c-0.09-0.16-0.02-0.37,0.149-0.461l0,0c0.17-0.079,0.37-0.01,0.46,0.16l0,0c0.08,0.16,0.021,0.37-0.149,0.45
						l0,0l0,0l0,0c-0.05,0.03-0.101,0.04-0.16,0.04l0,0C278.55,318.43,278.43,318.359,278.37,318.24z M394.359,318
						c-0.069-0.181,0.03-0.37,0.2-0.431l0.01-0.01c0.171-0.06,0.37,0.04,0.431,0.21l0,0c0.06,0.181-0.03,0.38-0.21,0.44l0,0
						c-0.04,0.01-0.07,0.02-0.11,0.02l0,0C394.54,318.229,394.41,318.14,394.359,318z M368.17,317.58L368.17,317.58L368.17,317.58
						c-0.17-0.07-0.25-0.28-0.17-0.45l0,0c0.08-0.17,0.28-0.24,0.45-0.17l0,0c0.18,0.08,0.25,0.28,0.17,0.46l0,0
						c-0.06,0.12-0.181,0.2-0.31,0.2l0,0C368.26,317.62,368.21,317.609,368.17,317.58z M397.53,316.8
						c-0.07-0.17,0.01-0.37,0.189-0.44l0,0c0.17-0.08,0.37,0,0.44,0.181l0,0c0.08,0.17,0,0.37-0.181,0.45l0,0l0,0l0,0
						c-0.04,0.02-0.09,0.02-0.13,0.02l0,0C397.71,317.01,397.59,316.93,397.53,316.8z M281.33,316.6
						c-0.101-0.16-0.05-0.38,0.109-0.48l0,0c0.16-0.101,0.37-0.051,0.471,0.109l0,0c0.1,0.16,0.05,0.37-0.11,0.471l0,0l0,0l0,0
						c-0.05,0.04-0.12,0.06-0.18,0.06l0,0C281.51,316.76,281.399,316.7,281.33,316.6z M365.12,316.05L365.12,316.05L365.12,316.05
						c-0.17-0.09-0.23-0.3-0.141-0.47l0,0c0.09-0.16,0.301-0.221,0.471-0.13l0,0c0.159,0.09,0.22,0.29,0.13,0.46l0,0
						c-0.061,0.109-0.181,0.18-0.3,0.18l0,0C365.229,316.09,365.17,316.069,365.12,316.05z M400.64,315.43
						c-0.08-0.17-0.01-0.37,0.16-0.45l0,0c0.17-0.08,0.38-0.01,0.46,0.16l0,0c0.08,0.17,0,0.37-0.17,0.45l0,0c0,0,0,0,0.01,0.01l0,0
						c-0.05,0.02-0.1,0.03-0.149,0.03l0,0C400.819,315.63,400.7,315.56,400.64,315.43z M284.149,314.72
						c-0.109-0.16-0.069-0.37,0.08-0.479l0,0c0.15-0.11,0.37-0.08,0.48,0.069l0,0c0.109,0.15,0.07,0.37-0.08,0.48l0,0
						c-0.061,0.04-0.13,0.069-0.2,0.069l0,0C284.319,314.859,284.22,314.81,284.149,314.72z M362.17,314.34c0,0,0,0,0-0.01l0,0
						c-0.16-0.09-0.21-0.301-0.11-0.46l0,0c0.09-0.17,0.3-0.221,0.46-0.12l0,0c0.17,0.1,0.221,0.31,0.12,0.47l0,0
						c-0.07,0.11-0.18,0.17-0.29,0.17l0,0C362.29,314.39,362.22,314.37,362.17,314.34z M403.68,313.91
						c-0.09-0.16-0.03-0.37,0.14-0.46l0,0c0.16-0.091,0.37-0.021,0.461,0.14l0,0c0.09,0.17,0.029,0.37-0.141,0.47l0,0
						c-0.05,0.021-0.109,0.04-0.16,0.04l0,0C403.859,314.1,403.74,314.029,403.68,313.91z M286.87,312.67
						c-0.12-0.15-0.101-0.36,0.05-0.48l0,0c0.149-0.12,0.36-0.09,0.48,0.051l0,0c0.12,0.149,0.091,0.369-0.05,0.489l0,0
						c-0.069,0.05-0.14,0.07-0.22,0.07l0,0C287.03,312.8,286.93,312.76,286.87,312.67z M359.29,312.52c0,0,0,0,0-0.01l0,0
						c-0.16-0.1-0.2-0.31-0.1-0.47l0,0c0.11-0.16,0.32-0.2,0.48-0.1l0,0c0.149,0.1,0.2,0.32,0.1,0.471l0,0
						c-0.069,0.109-0.18,0.159-0.29,0.159l0,0C359.41,312.569,359.35,312.55,359.29,312.52z M406.649,312.27
						c-0.1-0.17-0.04-0.37,0.12-0.47l0,0c0.16-0.09,0.37-0.04,0.471,0.12l0,0c0.09,0.16,0.04,0.37-0.12,0.47l0,0
						c-0.06,0.03-0.12,0.05-0.181,0.05l0,0C406.83,312.44,406.71,312.38,406.649,312.27z M356.46,310.63
						c-0.15-0.11-0.2-0.32-0.09-0.48l0,0c0.109-0.149,0.319-0.189,0.48-0.09l0,0c0.15,0.11,0.19,0.32,0.09,0.48l0,0
						c-0.069,0.1-0.18,0.15-0.29,0.15l0,0C356.59,310.69,356.52,310.67,356.46,310.63z M409.55,310.51
						c-0.1-0.16-0.05-0.37,0.11-0.48l0,0c0.159-0.1,0.37-0.05,0.47,0.11l0,0c0.1,0.16,0.05,0.37-0.11,0.47l0,0l0,0l0,0
						c-0.05,0.04-0.109,0.06-0.18,0.06l0,0C409.729,310.67,409.62,310.609,409.55,310.51z M289.5,310.529
						c-0.12-0.14-0.101-0.359,0.04-0.479l0,0c0.15-0.12,0.37-0.1,0.49,0.04l0,0c0.119,0.15,0.1,0.36-0.051,0.479l0,0
						c-0.06,0.061-0.14,0.08-0.22,0.08l0,0C289.67,310.649,289.569,310.609,289.5,310.529z M412.399,308.649
						c-0.109-0.159-0.069-0.37,0.08-0.48l0,0c0.16-0.11,0.37-0.07,0.48,0.09l0,0c0.1,0.15,0.07,0.37-0.09,0.47l0,0
						c-0.06,0.04-0.13,0.061-0.19,0.061l0,0C412.569,308.79,412.46,308.74,412.399,308.649z M353.649,308.729
						c-0.159-0.109-0.199-0.319-0.09-0.47l0,0c0.101-0.16,0.31-0.2,0.471-0.1l0,0c0.159,0.109,0.199,0.319,0.09,0.479l0,0
						c-0.06,0.101-0.17,0.15-0.28,0.15l0,0C353.78,308.79,353.71,308.77,353.649,308.729z M292.109,308.35
						c-0.13-0.14-0.109-0.359,0.04-0.48l0,0c0.141-0.12,0.36-0.101,0.48,0.04l0,0c0.12,0.149,0.1,0.359-0.04,0.479l0,0l0,0l0,0
						c-0.07,0.061-0.14,0.08-0.22,0.08l0,0C292.27,308.47,292.17,308.43,292.109,308.35z M350.83,306.85
						c-0.16-0.109-0.21-0.32-0.101-0.47l0,0c0.101-0.16,0.32-0.21,0.471-0.101l0,0c0.159,0.101,0.199,0.311,0.1,0.471l0,0
						c-0.06,0.1-0.17,0.149-0.28,0.149l0,0C350.95,306.899,350.89,306.89,350.83,306.85z M415.18,306.69
						c-0.12-0.15-0.08-0.359,0.07-0.47l0,0c0.149-0.11,0.37-0.08,0.479,0.07l0,0c0.11,0.15,0.07,0.37-0.08,0.479l0,0
						c-0.06,0.04-0.13,0.061-0.199,0.061l0,0C415.35,306.83,415.24,306.79,415.18,306.69z M294.72,306.18
						c-0.12-0.14-0.1-0.36,0.05-0.479l0,0c0.15-0.12,0.36-0.091,0.48,0.05l0,0c0.12,0.149,0.1,0.37-0.05,0.479l0,0
						c-0.061,0.061-0.141,0.08-0.221,0.08l0,0C294.89,306.31,294.79,306.27,294.72,306.18z M347.979,305.02
						c-0.16-0.1-0.21-0.31-0.109-0.47l0,0c0.1-0.16,0.31-0.21,0.47-0.11l0,0c0.16,0.1,0.21,0.31,0.11,0.471l0,0
						c-0.07,0.109-0.181,0.17-0.29,0.17l0,0C348.1,305.08,348.03,305.06,347.979,305.02z M417.899,304.66
						c-0.119-0.15-0.09-0.37,0.061-0.48l0,0c0.149-0.12,0.359-0.09,0.48,0.061l0,0c0.11,0.149,0.08,0.359-0.06,0.479l0,0
						c0,0,0,0-0.01,0l0,0c-0.06,0.05-0.13,0.07-0.2,0.07l0,0C418.06,304.79,417.96,304.74,417.899,304.66z M297.38,304.08
						c-0.11-0.15-0.08-0.37,0.07-0.48l0,0c0.149-0.109,0.359-0.08,0.479,0.07l0,0c0.11,0.149,0.08,0.359-0.07,0.48l0,0
						c-0.06,0.04-0.13,0.07-0.199,0.07l0,0C297.55,304.22,297.45,304.17,297.38,304.08z M345.069,303.29
						c-0.159-0.09-0.22-0.3-0.119-0.471l0,0c0.09-0.159,0.3-0.22,0.46-0.119l0,0c0.17,0.09,0.229,0.3,0.13,0.46l0,0
						c-0.061,0.109-0.181,0.18-0.3,0.18l0,0C345.19,303.34,345.13,303.319,345.069,303.29z M420.55,302.54
						c-0.12-0.141-0.1-0.36,0.05-0.48l0,0c0.15-0.12,0.36-0.1,0.48,0.05l0,0c0.12,0.141,0.1,0.36-0.04,0.48l0,0
						c-0.07,0.05-0.15,0.08-0.221,0.08l0,0C420.72,302.67,420.62,302.63,420.55,302.54z M300.14,302.1
						c-0.109-0.16-0.07-0.37,0.09-0.48l0,0c0.16-0.101,0.37-0.06,0.48,0.1l0,0c0.1,0.15,0.06,0.37-0.101,0.47l0,0
						c-0.06,0.04-0.119,0.06-0.19,0.06l0,0C300.31,302.25,300.2,302.19,300.14,302.1z M342.1,301.68c-0.16-0.08-0.23-0.29-0.14-0.46
						l0,0c0.08-0.17,0.29-0.229,0.46-0.15l0,0c0.16,0.091,0.23,0.301,0.149,0.471l0,0c-0.06,0.109-0.189,0.18-0.31,0.18l0,0
						C342.21,301.72,342.149,301.71,342.1,301.68z M423.149,300.35c-0.119-0.14-0.109-0.359,0.03-0.48h0.01
						c0.141-0.12,0.35-0.11,0.48,0.029l0,0c0.12,0.141,0.1,0.36-0.04,0.48l0,0c-0.061,0.06-0.14,0.09-0.22,0.09l0,0
						C423.31,300.47,423.22,300.43,423.149,300.35z M303.01,300.29c-0.1-0.16-0.04-0.37,0.13-0.471l0,0
						c0.16-0.09,0.37-0.029,0.46,0.131l0,0c0.09,0.17,0.04,0.369-0.13,0.47l0,0c0,0,0,0,0.01,0l0,0c-0.06,0.03-0.12,0.04-0.17,0.04
						l0,0C303.19,300.46,303.069,300.399,303.01,300.29z M339.06,300.229L339.06,300.229L339.06,300.229
						c-0.17-0.08-0.25-0.279-0.17-0.45l0,0c0.07-0.17,0.28-0.25,0.45-0.17l0,0c0.17,0.07,0.25,0.271,0.17,0.45l0,0
						c-0.05,0.12-0.18,0.2-0.31,0.2l0,0C339.149,300.26,339.109,300.25,339.06,300.229z M335.94,298.96
						c-0.18-0.061-0.27-0.26-0.199-0.44l0,0c0.06-0.17,0.26-0.26,0.439-0.2l0,0c0.17,0.07,0.26,0.261,0.2,0.44l0,0
						c-0.05,0.14-0.18,0.22-0.32,0.22l0,0C336.02,298.979,335.979,298.979,335.94,298.96z M306.01,298.72
						c-0.07-0.17,0-0.38,0.17-0.45l0,0c0.17-0.08,0.38-0.01,0.46,0.17l0,0c0.07,0.17,0,0.37-0.18,0.45l0,0
						c-0.04,0.021-0.09,0.03-0.141,0.03l0,0C306.19,298.92,306.069,298.85,306.01,298.72z M332.74,297.91
						c-0.181-0.061-0.28-0.24-0.23-0.431l0,0c0.05-0.18,0.25-0.279,0.43-0.229l0,0c0.181,0.05,0.28,0.24,0.23,0.43l0,0
						c-0.05,0.14-0.18,0.24-0.33,0.24l0,0C332.81,297.92,332.78,297.92,332.74,297.91z M309.149,297.44
						c-0.06-0.18,0.04-0.37,0.221-0.43l0,0c0.18-0.06,0.37,0.04,0.43,0.22l0,0c0.06,0.181-0.04,0.37-0.22,0.431l0,0
						c-0.03,0.01-0.07,0.02-0.11,0.02l0,0C309.33,297.68,309.2,297.59,309.149,297.44z M329.479,297.08
						c-0.18-0.04-0.3-0.221-0.26-0.4l0,0c0.04-0.189,0.22-0.31,0.41-0.26l0,0c0.18,0.03,0.3,0.21,0.26,0.399l0,0
						c-0.03,0.16-0.18,0.271-0.34,0.271l0,0C329.53,297.09,329.51,297.09,329.479,297.08z M312.399,296.51
						c-0.04-0.19,0.08-0.37,0.27-0.41l0,0c0.18-0.04,0.36,0.08,0.399,0.26l0,0c0.04,0.19-0.069,0.37-0.26,0.41l0,0
						c-0.02,0-0.05,0.01-0.069,0.01l0,0C312.58,296.779,312.44,296.67,312.399,296.51z M326.17,296.5L326.17,296.5L326.17,296.5
						c-0.18-0.03-0.32-0.2-0.29-0.391l0,0c0.02-0.19,0.2-0.319,0.38-0.29h0.01c0.181,0.021,0.311,0.2,0.29,0.391l0,0
						c-0.029,0.16-0.17,0.29-0.34,0.29l0,0C326.2,296.5,326.19,296.5,326.17,296.5z M315.74,295.93
						c-0.021-0.189,0.119-0.35,0.3-0.37l0,0c0.189-0.03,0.359,0.11,0.38,0.3l0,0c0.02,0.19-0.12,0.351-0.31,0.381l0,0
						c-0.01,0-0.02,0-0.029,0l0,0C315.91,296.24,315.76,296.109,315.74,295.93z M322.819,296.149c0,0,0,0,0.011,0l0,0
						c-0.191-0.01-0.34-0.17-0.32-0.359l0,0c0.01-0.19,0.17-0.33,0.36-0.32l0,0c0.19,0.01,0.33,0.18,0.319,0.37l0,0
						c-0.01,0.18-0.159,0.32-0.34,0.32l0,0C322.84,296.16,322.83,296.149,322.819,296.149z M319.12,295.71
						c-0.011-0.19,0.149-0.34,0.34-0.34l0,0c0.18-0.011,0.34,0.149,0.34,0.34l0,0c0,0.189-0.15,0.34-0.34,0.34l0,0l0,0l0,0
						C319.27,296.05,319.12,295.899,319.12,295.71z"/>
					<path style="fill:#FFFFFF;" d="M252.25,319.01c-0.04,0-0.09-0.01-0.13-0.03c-0.04-0.02-0.08-0.04-0.11-0.08
						c-0.03-0.029-0.06-0.06-0.07-0.109c-0.02-0.04-0.029-0.08-0.029-0.13c0-0.091,0.04-0.17,0.1-0.24
						c0.03-0.03,0.07-0.06,0.11-0.07c0.08-0.04,0.18-0.04,0.26,0c0.05,0.01,0.08,0.04,0.11,0.07c0.069,0.07,0.1,0.149,0.1,0.24
						c0,0.05,0,0.09-0.02,0.13c-0.02,0.05-0.039,0.08-0.079,0.109c-0.03,0.04-0.07,0.061-0.11,0.08
						C252.34,319,252.3,319.01,252.25,319.01z"/>
				</g>
			</g>
			<g>
				<g>
					<path style="fill:#FFFFFF;" d="M307.085,216.607L307.085,216.607l-2.335-2.516c-4.145,3.868-9.661,6.258-15.564,6.258
						c-9.889,0-17.728-6.718-19.513-15.84l-3.502,0.92c0,0,0,0,0,0l-3.2,0.841c0.941,4.782,3.142,9.138,6.388,12.635
						c10.15,10.933,28.141,10.933,39.858,0L307.085,216.607z"/>
					<path style="fill:#263238;" d="M312.075,179.047l-3.056,2.852c0,0,0,0,0,0l-2.11,1.969c3.591,3.861,5.605,9.206,5.182,15.108
						c-0.423,5.902-3.196,11.248-7.341,15.115l1.829,1.97l0,0l2.64,2.844c5.664-5.286,9.148-12.454,9.684-19.929
						C319.437,191.508,316.982,184.332,312.075,179.047z"/>
					<path style="fill:#407BFF;" d="M312.075,179.047c-10.15-10.926-28.142-10.926-39.858,0
						c-7.615,7.113-11.149,17.511-9.246,27.223l3.958-1.04c0,0,0,0,0,0l2.743-0.721c-0.341-1.763-0.458-3.624-0.321-5.533
						c0.846-11.798,11.1-21.367,22.898-21.367c5.902,0,11.069,2.39,14.66,6.258l2.704-2.523c0,0,0,0,0,0L312.075,179.047z"/>
				</g>
				<g>
					<path style="fill:#FFFFFF;" d="M340.796,216.608L340.796,216.608l2.696-2.516c-3.59-3.868-5.598-9.213-5.175-15.115
						c0.709-9.889,8.023-18.209,17.32-20.648l-0.674-3.436c0,0,0,0,0,0l-0.616-3.139c-4.874,1.284-9.41,3.797-13.158,7.294
						c-11.717,10.934-13.007,28.925-2.857,39.858L340.796,216.608z"/>
					<path style="fill:#263238;" d="M378.192,218.905l-2.647-2.852c0,0,0,0,0,0l-1.828-1.969c-4.138,3.868-9.655,6.265-15.557,6.265
						c-5.902,0-11.076-2.39-14.667-6.258l-2.111,1.97h0l-3.047,2.844c4.907,5.286,11.862,8.255,19.337,8.255
						C365.138,227.161,372.527,224.191,378.192,218.905z"/>
					<path style="fill:#407BFF;" d="M378.192,218.905c11.709-10.934,12.999-28.925,2.857-39.858
						c-6.604-7.105-16.802-9.894-26.701-7.294l0.761,3.884c0,0,0,0,0,0l0.528,2.692c1.797-0.467,3.675-0.718,5.585-0.718
						c11.798,0,20.681,9.568,19.835,21.366c-0.423,5.903-3.196,11.241-7.341,15.108l2.342,2.523c0,0,0,0,0,0L378.192,218.905z"/>
				</g>
			</g>
			<path style="opacity:0.3;fill:#407BFF;" d="M425.422,173.305c0.572,0,1.093,0.221,1.467,0.623
				c0.376,0.404,0.561,0.944,0.519,1.52l-1.236,17.249c-0.088,1.23-1.201,2.269-2.429,2.269h-17.249
				c-0.572,0-1.093-0.222-1.467-0.623c-0.376-0.404-0.56-0.944-0.519-1.52l1.236-17.249c0.088-1.23,1.201-2.269,2.429-2.269H425.422
				 M425.422,172.423h-17.249c-1.698,0-3.188,1.39-3.31,3.088l-1.236,17.249c-0.122,1.699,1.168,3.088,2.867,3.088h17.249
				c1.699,0,3.188-1.39,3.31-3.088l1.236-17.249C428.411,173.813,427.121,172.423,425.422,172.423L425.422,172.423z"/>
			<path style="opacity:0.3;fill:#407BFF;" d="M423.295,202.986c0.572,0,1.093,0.222,1.467,0.623
				c0.376,0.404,0.56,0.943,0.519,1.519l-1.236,17.249c-0.088,1.23-1.201,2.269-2.429,2.269h-17.249
				c-0.572,0-1.093-0.221-1.467-0.623c-0.376-0.404-0.56-0.943-0.519-1.519l1.236-17.249c0.088-1.23,1.201-2.269,2.429-2.269
				H423.295 M423.295,202.103h-17.249c-1.698,0-3.188,1.39-3.309,3.088L401.5,222.44c-0.122,1.699,1.168,3.088,2.867,3.088h17.249
				c1.698,0,3.188-1.39,3.31-3.088l1.236-17.249C426.284,203.493,424.993,202.103,423.295,202.103L423.295,202.103z"/>
			<path style="fill:#407BFF;" d="M398.042,298.429c0.484,0,0.923,0.185,1.236,0.521c0.314,0.337,0.468,0.792,0.433,1.28
				c-0.076,1.062-1.001,1.927-2.063,1.927c-0.484,0-0.923-0.185-1.236-0.52c-0.314-0.338-0.468-0.792-0.433-1.28
				C396.056,299.293,396.981,298.429,398.042,298.429 M398.042,297.546c-1.517,0-2.834,1.229-2.943,2.746s1.033,2.746,2.549,2.746
				s2.834-1.229,2.943-2.746C400.7,298.776,399.559,297.546,398.042,297.546L398.042,297.546z"/>
			<g>
				<polygon style="fill:#407BFF;" points="398.262,297.561 397.822,297.53 397.886,296.65 398.325,296.682 				"/>
				<path style="fill:#407BFF;" d="M398.454,294.875l-0.44-0.031l0.13-1.806l0.44,0.031L398.454,294.875z M398.713,291.264
					l-0.439-0.031l0.13-1.807l0.44,0.031L398.713,291.264z M398.972,287.651l-0.44-0.031l0.13-1.806l0.439,0.031L398.972,287.651z
					 M399.23,284.04l-0.44-0.031l0.13-1.807l0.44,0.031L399.23,284.04z M399.489,280.428l-0.439-0.031l0.13-1.806l0.439,0.031
					L399.489,280.428z M399.749,276.816l-0.439-0.031l0.129-1.807l0.439,0.031L399.749,276.816z M400.008,273.204l-0.439-0.031
					l0.129-1.806l0.439,0.031L400.008,273.204z M400.267,269.593l-0.44-0.031l0.129-1.807l0.439,0.031L400.267,269.593z
					 M400.525,265.98l-0.439-0.031l0.13-1.806l0.44,0.031L400.525,265.98z M400.784,262.369l-0.44-0.031l0.13-1.807l0.439,0.031
					L400.784,262.369z M401.043,258.757l-0.44-0.031l0.13-1.806l0.44,0.031L401.043,258.757z"/>
				
					<rect x="400.673" y="254.47" transform="matrix(0.0708 -0.9975 0.9975 0.0708 118.654 636.7578)" style="fill:#407BFF;" width="0.882" height="0.441"/>
			</g>
			<path style="fill:#407BFF;" d="M419.784,254.729H261.436c-0.893,0-1.713-0.352-2.308-0.991c-0.597-0.641-0.889-1.486-0.824-2.383
				l0.781-10.901c0.13-1.822,1.719-3.306,3.542-3.306h158.349c0.893,0,1.713,0.351,2.307,0.989c0.597,0.641,0.89,1.487,0.825,2.385
				l-0.781,10.901C423.196,253.245,421.606,254.729,419.784,254.729z M262.628,238.105c-1.332,0-2.493,1.084-2.589,2.417
				l-0.781,10.901c-0.045,0.629,0.158,1.22,0.571,1.663c0.411,0.442,0.982,0.686,1.607,0.686h158.348
				c1.332,0,2.493-1.084,2.59-2.417l0.781-10.901c0.045-0.629-0.158-1.221-0.572-1.664c-0.411-0.441-0.981-0.685-1.606-0.685
				H262.628z"/>
			<path style="opacity:0.8;fill-rule:evenodd;clip-rule:evenodd;fill:#FFFFFF;" d="M416.384,244.176H266.281
				c-0.816,0-1.435-0.667-1.377-1.483l0,0c0.058-0.816,0.774-1.483,1.59-1.483h150.104c0.816,0,1.435,0.667,1.377,1.483l0,0
				C417.916,243.508,417.2,244.176,416.384,244.176z"/>
			<path style="opacity:0.8;fill-rule:evenodd;clip-rule:evenodd;fill:#FFFFFF;" d="M391.369,250.431H265.832
				c-0.816,0-1.435-0.668-1.377-1.483l0,0c0.058-0.816,0.774-1.483,1.59-1.483h125.536c0.816,0,1.435,0.668,1.377,1.483l0,0
				C392.9,249.763,392.185,250.431,391.369,250.431z"/>
		</g>
	</g>
</g>
</svg>
