<svg width="22" height="23" viewBox="0 0 22 23" fill="none" xmlns="http://www.w3.org/2000/svg">
<g clip-path="url(#clip0_202_469)">
<path d="M11 22.3801C17.0751 22.3801 22 17.4553 22 11.3801C22 5.30499 17.0751 0.380127 11 0.380127C4.92487 0.380127 0 5.30499 0 11.3801C0 17.4553 4.92487 22.3801 11 22.3801Z" fill="#E1FFF0"/>
<mask id="mask0_202_469" style="mask-type:luminance" maskUnits="userSpaceOnUse" x="3" y="6" width="15" height="11">
<path d="M18 6.38013H3V16.3801H18V6.38013Z" fill="white"/>
</mask>
<g mask="url(#mask0_202_469)">
<path fill-rule="evenodd" clip-rule="evenodd" d="M16.8407 7.04086C16.9969 7.19713 17.0847 7.40906 17.0847 7.63003C17.0847 7.851 16.9969 8.06292 16.8407 8.21919L8.92398 16.1359C8.76771 16.2921 8.55578 16.3798 8.33481 16.3798C8.11384 16.3798 7.90192 16.2921 7.74565 16.1359L3.99565 12.3859C3.84385 12.2287 3.75985 12.0182 3.76175 11.7997C3.76365 11.5812 3.85129 11.3722 4.0058 11.2177C4.16031 11.0632 4.36932 10.9755 4.58781 10.9736C4.80631 10.9717 5.01681 11.0557 5.17398 11.2075L8.33481 14.3684L15.6623 7.04086C15.8186 6.88463 16.0305 6.79688 16.2515 6.79688C16.4725 6.79688 16.6844 6.88463 16.8407 7.04086Z" fill="#604ED3"/>
</g>
</g>
<defs>
<clipPath id="clip0_202_469">
<rect width="22" height="22" fill="white" transform="translate(0 0.380127)"/>
</clipPath>
</defs>
</svg>
