<svg width="23" height="23" viewBox="0 0 23 23" fill="none" xmlns="http://www.w3.org/2000/svg">
<g clip-path="url(#clip0_202_569)">
<path d="M11.5156 22.5498C17.5908 22.5498 22.5156 17.6249 22.5156 11.5498C22.5156 5.47467 17.5908 0.549805 11.5156 0.549805C5.44049 0.549805 0.515625 5.47467 0.515625 11.5498C0.515625 17.6249 5.44049 22.5498 11.5156 22.5498Z" fill="#E1FFF0"/>
<mask id="mask0_202_569" style="mask-type:luminance" maskUnits="userSpaceOnUse" x="3" y="6" width="16" height="11">
<path d="M18.5156 6.5498H3.51562V16.5498H18.5156V6.5498Z" fill="white"/>
</mask>
<g mask="url(#mask0_202_569)">
<path fill-rule="evenodd" clip-rule="evenodd" d="M17.3563 7.21079C17.5125 7.36706 17.6003 7.57899 17.6003 7.79996C17.6003 8.02093 17.5125 8.23285 17.3563 8.38912L9.4396 16.3058C9.28333 16.462 9.07141 16.5497 8.85044 16.5497C8.62947 16.5497 8.41755 16.462 8.26128 16.3058L4.51128 12.5558C4.35948 12.3986 4.27548 12.1881 4.27738 11.9696C4.27928 11.7511 4.36692 11.5421 4.52143 11.3876C4.67594 11.2331 4.88495 11.1454 5.10344 11.1435C5.32194 11.1416 5.53244 11.2256 5.68961 11.3774L8.85044 14.5383L16.1779 7.21079C16.3342 7.05456 16.5461 6.9668 16.7671 6.9668C16.9881 6.9668 17.2 7.05456 17.3563 7.21079Z" fill="#46B07C"/>
</g>
</g>
<defs>
<clipPath id="clip0_202_569">
<rect width="22" height="22" fill="white" transform="translate(0.515625 0.549805)"/>
</clipPath>
</defs>
</svg>
