<svg width="61" height="61" viewBox="0 0 61 61" fill="none" xmlns="http://www.w3.org/2000/svg">
<rect x="0.308594" y="0.189941" width="60" height="60" rx="8" fill="#FFE9EB"/>
<g clip-path="url(#clip0_202_533)">
<g clip-path="url(#clip1_202_533)">
<mask id="mask0_202_533" style="mask-type:luminance" maskUnits="userSpaceOnUse" x="14" y="14" width="32" height="32">
<path d="M45.3389 14.1899H14.3086V45.2202H45.3389V14.1899Z" fill="white"/>
</mask>
<g mask="url(#mask0_202_533)">
<path d="M33.5871 16.7445L31.5443 16.4542L30.6342 14.6547C30.3253 14.0422 29.3203 14.0422 29.0115 14.6547L28.1014 16.4543L26.0586 16.7446C25.3092 16.8505 25.0099 17.779 25.5597 18.3036L27.0254 19.6973L26.6801 21.6611C26.5508 22.4 27.3267 22.9683 27.9913 22.627L29.8228 21.686L31.6544 22.627C32.3282 22.9746 33.0935 22.3923 32.9656 21.6611L32.6203 19.6973L34.086 18.3035C34.6358 17.7789 34.3364 16.8505 33.5871 16.7445Z" fill="#ED4252"/>
<path d="M44.5558 22.2885L42.513 21.9982L41.603 20.1987C41.294 19.5861 40.289 19.5861 39.9802 20.1987L39.0701 21.9982L37.0274 22.2885C36.278 22.3944 35.9786 23.3228 36.5285 23.8474L37.9943 25.2412L37.6489 27.205C37.5196 27.944 38.2954 28.5122 38.9602 28.171L40.7915 27.2299L42.6231 28.1709C43.3003 28.5173 44.0616 27.9325 43.9343 27.205L43.589 25.2412L45.0547 23.8474C45.6045 23.3228 45.3051 22.3944 44.5558 22.2885Z" fill="#ED4252"/>
<path d="M22.6183 22.2887L20.5756 21.9984L19.6655 20.1989C19.3565 19.5864 18.3516 19.5864 18.0427 20.1989L17.1327 21.9984L15.0899 22.2887C14.3405 22.3947 14.0412 23.3231 14.591 23.8477L16.0567 25.2415L15.7114 27.2053C15.5821 27.9442 16.358 28.5124 17.0227 28.1712L18.854 27.2301L20.6856 28.1711C21.3609 28.5176 22.1244 27.9341 21.9968 27.2053L21.6515 25.2415L23.1173 23.8477C23.667 23.3231 23.3677 22.3947 22.6183 22.2887Z" fill="#ED4252"/>
<path d="M33.0998 34.0928C34.4139 33.0959 35.277 31.5334 35.277 29.7605C35.277 26.7526 32.8302 24.3059 29.8224 24.3059C26.8146 24.3059 24.3679 26.7526 24.3679 29.7605C24.3679 31.5334 25.231 33.0958 26.5451 34.0928C23.6629 35.3599 21.6406 38.2336 21.6406 41.5786V44.3059C21.6406 44.8084 22.0472 45.215 22.5497 45.215H37.0952C37.5977 45.215 38.0043 44.8084 38.0043 44.3059V41.5786C38.0043 38.2336 35.982 35.3599 33.0998 34.0928Z" fill="#ED4252"/>
</g>
</g>
</g>
<defs>
<clipPath id="clip0_202_533">
<rect width="32" height="32" fill="white" transform="translate(14.3086 14.1899)"/>
</clipPath>
<clipPath id="clip1_202_533">
<rect width="32" height="32" fill="white" transform="translate(14.3086 14.1899)"/>
</clipPath>
</defs>
</svg>
