<svg width="61" height="61" viewBox="0 0 61 61" fill="none" xmlns="http://www.w3.org/2000/svg">
<rect x="0.660156" y="0.189941" width="60" height="60" rx="8" fill="#EDF4FF"/>
<g clip-path="url(#clip0_202_525)">
<g clip-path="url(#clip1_202_525)">
<path d="M40.7572 32.4158C35.8556 32.6069 31.215 33.8815 27.0802 35.9939L21.7633 39.064C20.3572 39.8747 18.5615 39.3881 17.7545 37.9893L15.0524 33.3105C14.2437 31.9091 14.7258 30.1104 16.1271 29.3017L20.5321 26.7581C20.7872 26.6108 21.1134 26.6981 21.2607 26.9533L24.7221 32.9485C24.872 33.208 25.207 33.2941 25.4643 33.1356C25.713 32.9823 25.7809 32.6491 25.6348 32.396L22.1484 26.3575C22.01 26.1176 22.078 25.8114 22.3056 25.6536C25.9423 23.1324 29.0189 19.9211 31.3816 16.176C32.2767 14.756 34.3624 14.794 35.2037 16.2507L42.6033 29.0683C43.4442 30.5219 42.4374 32.3504 40.7572 32.4158ZM41.7067 23.4888C41.9807 21.9208 41.0617 20.3483 39.5764 19.81C39.1095 19.6408 38.686 20.1489 38.9342 20.5789C39.5251 21.6028 40.1182 22.6301 40.7179 23.6684C40.9684 24.1021 41.6205 23.9822 41.7067 23.4888ZM29.3949 42.3607L26.8639 37.9671C26.7168 37.7117 26.3902 37.6242 26.1349 37.7715C24.7632 38.5629 24.7114 38.5936 22.8816 39.6498C22.6265 39.7971 22.5387 40.1235 22.6861 40.3786L25.2214 44.7695C25.5465 45.3318 26.1309 45.6375 26.7262 45.6375C27.3035 45.6375 27.5243 45.4422 28.7602 44.7288C29.5882 44.2508 29.8729 43.1881 29.3949 42.3607ZM45.601 19.4334C45.856 19.2862 45.9435 18.96 45.7962 18.7049C45.649 18.4499 45.3229 18.3623 45.0676 18.5097L43.6876 19.3064C43.2154 19.5791 43.4129 20.3018 43.9549 20.3018C44.1445 20.3017 44.1065 20.2963 45.601 19.4334ZM40.6967 16.6697L41.0332 15.4139C41.1095 15.1294 40.9406 14.837 40.6562 14.7607C40.3714 14.6846 40.0791 14.8533 40.0029 15.1378L39.6663 16.3936C39.5757 16.7318 39.8305 17.0652 40.1818 17.0652C40.4173 17.0651 40.6328 16.908 40.6967 16.6697ZM46.6419 25.1284C46.7182 24.8438 46.5493 24.5513 46.2648 24.4751L45.009 24.1387C44.7245 24.0626 44.432 24.2313 44.3557 24.5158C44.2795 24.8003 44.4484 25.0928 44.7329 25.169C46.1063 25.537 46.0309 25.5238 46.1271 25.5238C46.3625 25.5238 46.5781 25.3666 46.6419 25.1284Z" fill="#1F65D1"/>
</g>
</g>
<defs>
<clipPath id="clip0_202_525">
<rect width="32" height="32" fill="white" transform="translate(14.6602 14.1899)"/>
</clipPath>
<clipPath id="clip1_202_525">
<rect width="32" height="32" fill="white" transform="translate(14.6602 14.1899)"/>
</clipPath>
</defs>
</svg>
