<svg width="60" height="61" viewBox="0 0 60 61" fill="none" xmlns="http://www.w3.org/2000/svg">
<rect y="0.189941" width="60" height="60" rx="8" fill="#F6F1FF"/>
<g clip-path="url(#clip0_202_514)">
<path d="M30.5741 26.4949L29.6894 24.7021L28.8046 26.4949C28.7135 26.6793 28.5376 26.8073 28.3339 26.8368L26.3555 27.1243L27.7871 28.5198C27.9344 28.6634 28.0017 28.8702 27.9669 29.073L27.6289 31.0436L29.3985 30.1132C29.4895 30.0653 29.5895 30.0414 29.6894 30.0414C29.7892 30.0414 29.8891 30.0653 29.9802 30.1132L31.7498 31.0436L31.4118 29.073C31.3771 28.8703 31.4443 28.6634 31.5915 28.5198L33.0232 27.1243L31.0447 26.8368C30.8411 26.8073 30.6651 26.6793 30.5741 26.4949Z" fill="#9256FF"/>
<path d="M38.6813 28.4273C38.6278 28.2627 38.6278 28.0885 38.6813 27.9238L39.1878 26.365C39.4651 25.5116 39.1636 24.5839 38.4377 24.0564L37.1118 23.093C36.9716 22.9912 36.8693 22.8504 36.8158 22.6856L36.3093 21.1268C36.0319 20.2735 35.2427 19.7001 34.3454 19.7001H32.7064C32.5332 19.7001 32.3676 19.6463 32.2274 19.5445L30.9014 18.5811C30.1755 18.0537 29.2 18.0537 28.4741 18.5811L27.1482 19.5445C27.008 19.6463 26.8424 19.7001 26.6692 19.7001H25.0302C24.133 19.7001 23.3437 20.2735 23.0663 21.1269L22.5598 22.6857C22.5063 22.8504 22.4039 22.9912 22.2638 23.0931L20.9379 24.0564C20.212 24.5839 19.9105 25.5116 20.1878 26.365L20.6943 27.9238C20.7479 28.0885 20.7479 28.2627 20.6943 28.4274L20.1878 29.9862C19.9105 30.8396 20.212 31.7673 20.9379 32.2948L22.2639 33.2583C22.4041 33.36 22.5064 33.5009 22.5599 33.6657L23.0664 35.2244C23.3438 36.0778 24.133 36.6512 25.0302 36.6512H26.6693C26.8425 36.6512 27.0081 36.705 27.1482 36.8068L28.4742 37.7701C28.8373 38.0339 29.2625 38.1658 29.6879 38.1658C30.1132 38.1658 30.5386 38.0339 30.9016 37.7702L32.2276 36.8068C32.3677 36.705 32.5333 36.6512 32.7065 36.6512H34.3455C35.2427 36.6512 36.032 36.0778 36.3094 35.2244L36.8159 33.6656C36.8694 33.5009 36.9717 33.36 37.1119 33.2582L38.4378 32.2948C39.1638 31.7673 39.4652 30.8396 39.1879 29.9861L38.6813 28.4273ZM34.8011 27.1356L32.6979 29.1857L33.1945 32.0805C33.2347 32.3149 33.1382 32.552 32.9458 32.6918C32.8369 32.7709 32.7078 32.8112 32.5783 32.8112C32.4788 32.8112 32.379 32.7875 32.2876 32.7395L29.6878 31.3727L27.0881 32.7394C26.8776 32.85 26.6223 32.8317 26.4299 32.6918C26.2374 32.552 26.141 32.315 26.1812 32.0805L26.6777 29.1857L24.5745 27.1356C24.4042 26.9696 24.3429 26.7212 24.4164 26.4949C24.4899 26.2687 24.6855 26.1038 24.9209 26.0696L27.8275 25.6472L29.1273 23.0134C29.2326 22.8 29.4499 22.665 29.6878 22.665C29.9258 22.665 30.143 22.8 30.2483 23.0134L31.5482 25.6472L34.4547 26.0696C34.6902 26.1038 34.8858 26.2687 34.9593 26.4949C35.0327 26.7212 34.9714 26.9696 34.8011 27.1356Z" fill="#9256FF"/>
<path d="M41.4556 36.5925L38.5031 33.6394L37.8562 34.1088L37.3806 35.5719C36.9525 36.8906 35.7331 37.7763 34.3468 37.7763H32.8087L32.2031 38.2156L36.0181 42.03C36.1362 42.1481 36.2962 42.2132 36.4599 42.2132C36.5025 42.2132 36.5456 42.2088 36.5881 42.1994C36.7943 42.1563 36.965 42.0119 37.0418 41.8156L38.2231 38.7968L41.2412 37.6163C41.4381 37.5394 41.5825 37.3688 41.6256 37.1619C41.6687 36.9556 41.605 36.7412 41.4556 36.5925Z" fill="#9256FF"/>
<path d="M26.5683 37.7763H25.0303C23.644 37.7763 22.4247 36.8906 21.9965 35.5719L21.5209 34.1088L20.874 33.6394L17.9215 36.5925C17.7721 36.7412 17.7084 36.9556 17.7515 37.1619C17.7946 37.3688 17.939 37.5394 18.1359 37.6163L21.154 38.7968L22.3352 41.8156C22.4121 42.0119 22.5827 42.1563 22.789 42.1994C22.8315 42.2088 22.8747 42.2132 22.9171 42.2132C23.0809 42.2132 23.2409 42.1481 23.359 42.03L27.174 38.2156L26.5683 37.7763Z" fill="#9256FF"/>
</g>
<defs>
<clipPath id="clip0_202_514">
<rect width="32" height="32" fill="white" transform="translate(14 14.1899)"/>
</clipPath>
</defs>
</svg>
