<svg width="61" height="61" viewBox="0 0 61 61" fill="none" xmlns="http://www.w3.org/2000/svg">
<rect x="0.960938" y="0.700195" width="60" height="60" rx="8" fill="#FFE9EB"/>
<path d="M38.9999 35.2959C37.4523 35.2954 35.9705 35.9214 34.892 37.0312L28.2752 32.7784C28.7957 31.4437 28.7957 29.9621 28.2752 28.6274L34.892 24.3746C37.9793 27.5371 43.3324 26.1716 44.5275 21.9166C45.7227 17.6617 41.8635 13.7086 37.5811 14.801C34.2425 15.6527 32.4007 19.2327 33.649 22.4441L27.0322 26.6969C23.9485 23.531 18.5938 24.8906 17.3939 29.1442C16.194 33.3978 20.0488 37.3552 24.3325 36.2676C25.3589 36.0069 26.2933 35.4675 27.0322 34.7089L33.649 38.9617C32.0513 43.0824 35.5136 47.3874 39.8811 46.7107C44.2486 46.0339 46.2457 40.883 43.4759 37.439C42.3856 36.0834 40.7395 35.2952 38.9999 35.2959ZM38.9999 16.9239C41.6516 16.9239 43.309 19.7945 41.9831 22.091C40.6572 24.3875 37.3425 24.3875 36.0166 22.091C35.7143 21.5674 35.5551 20.9733 35.5551 20.3687C35.5551 18.4662 37.0974 16.9239 38.9999 16.9239ZM22.9244 34.1476C20.2726 34.1476 18.6153 31.277 19.9411 28.9805C21.267 26.684 24.5817 26.684 25.9076 28.9805C26.2099 29.5042 26.3691 30.0982 26.3691 30.7029C26.3691 32.6054 24.8269 34.1476 22.9244 34.1476ZM38.9999 44.4819C36.3481 44.4819 34.6907 41.6113 36.0166 39.3148C37.3425 37.0183 40.6572 37.0183 41.9831 39.3148C42.2854 39.8384 42.4446 40.4325 42.4446 41.0371C42.4446 42.9396 40.9023 44.4819 38.9999 44.4819Z" fill="#ED4252"/>
</svg>
