<svg width="61" height="61" viewBox="0 0 61 61" fill="none" xmlns="http://www.w3.org/2000/svg">
<rect x="0.960938" y="0.700195" width="60" height="60" rx="8" fill="#EDF4FF"/>
<path d="M46.3718 15.2943C45.7837 14.7066 44.9239 14.4826 44.1238 14.7086H44.1022L16.5487 23.0691C14.8498 23.5588 14.318 25.704 15.5915 26.9305C15.7679 27.1004 15.9704 27.2411 16.1913 27.347L28.3818 33.2843L34.3105 45.4677C34.687 46.2712 35.4961 46.7827 36.3834 46.7783C36.4494 46.7783 36.5155 46.7754 36.5815 46.7697C37.5308 46.6928 38.3323 46.0339 38.5913 45.1174L46.946 17.5639V17.5424C47.175 16.7443 46.9554 15.8848 46.3718 15.2943ZM36.3963 44.4599L36.3892 44.48V44.47L30.6384 32.6556L37.529 25.7651C38.1379 25.1241 37.8247 24.0644 36.9651 23.8575C36.5866 23.7664 36.1877 23.8733 35.9054 24.1415L29.0149 31.032L17.1962 25.2813H17.1861L44.7267 16.9193L36.3963 44.4599Z" fill="#1F65D1"/>
</svg>
