<svg width="61" height="61" viewBox="0 0 61 61" fill="none" xmlns="http://www.w3.org/2000/svg">
<rect x="0.960938" y="0.700195" width="60" height="60" rx="8" fill="#F6F1FF"/>
<path d="M50.6297 33.1001C50.0344 33.5465 49.1899 33.4259 48.7434 32.8306C47.0965 30.6169 44.4963 29.3168 41.7372 29.3275C41.1955 29.3274 40.7065 29.003 40.4959 28.5039C40.3546 28.169 40.3546 27.7913 40.4959 27.4564C40.7065 26.9573 41.1955 26.6328 41.7372 26.6328C44.8488 26.6325 46.7932 23.264 45.2372 20.5694C43.6811 17.8748 39.7917 17.8752 38.2361 20.57C38.0534 20.8866 37.9145 21.2264 37.8231 21.5802C37.5638 22.585 36.3141 22.9323 35.5736 22.2054C35.2299 21.868 35.0923 21.3729 35.2127 20.9066C36.5103 15.8856 42.7566 14.1522 46.4561 17.7864C49.2101 20.4919 49.1318 24.9537 46.2845 27.5608C48.1166 28.354 49.7092 29.6128 50.9042 31.2121C51.3507 31.809 51.2277 32.655 50.6297 33.1001ZM41.5553 43.4746C42.1117 44.3499 41.5119 45.4993 40.4757 45.5436C39.954 45.5658 39.4664 45.2847 39.2244 44.822C35.5091 38.5311 26.4077 38.5311 22.6924 44.822C22.2117 45.741 20.9163 45.795 20.3608 44.9191C20.0811 44.4781 20.0814 43.9153 20.3615 43.4746C21.6678 41.2303 23.6595 39.464 26.0439 38.4356C21.1028 34.6524 22.1099 26.939 27.8568 24.5514C33.6037 22.1638 39.7802 26.8927 38.9744 33.0634C38.6961 35.1953 37.58 37.1285 35.8729 38.4356C38.2573 39.464 40.249 41.2303 41.5553 43.4746ZM30.9584 37.4116C35.1071 37.4114 37.7002 32.9201 35.6256 29.3273C33.5511 25.7344 28.3651 25.7347 26.2909 29.3277C25.818 30.1469 25.569 31.0762 25.569 32.0222C25.569 34.9988 27.9818 37.4117 30.9584 37.4116ZM21.527 27.9801C21.527 27.236 20.9237 26.6328 20.1796 26.6328C17.0681 26.6325 15.1236 23.264 16.6796 20.5694C18.2357 17.8748 22.1251 17.8752 23.6807 20.57C23.8634 20.8866 24.0023 21.2264 24.0937 21.5802C24.353 22.585 25.6027 22.9323 26.3432 22.2054C26.6869 21.868 26.8245 21.3729 26.7042 20.9066C25.4065 15.8856 19.1602 14.1522 15.4607 17.7864C12.7067 20.4919 12.785 24.9537 15.6323 27.5608C13.8021 28.3548 12.2113 29.6135 11.0176 31.2121C10.3947 32.0418 10.9036 33.2348 11.9336 33.3594C12.4117 33.4173 12.8843 33.2157 13.1734 32.8306C14.8203 30.6169 17.4205 29.3168 20.1796 29.3275C20.9238 29.3275 21.527 28.7243 21.527 27.9801Z" fill="#9256FF"/>
</svg>
