<svg width="60" height="60" viewBox="0 0 60 60" fill="none" xmlns="http://www.w3.org/2000/svg">
<rect width="60" height="60" rx="8" fill="#EDF4FF"/>
<g clip-path="url(#clip0_274_3064)">
<path d="M30 10C31.8359 10 33.6068 10.2344 35.3125 10.7031C37.0182 11.1719 38.6133 11.8424 40.0977 12.7148C41.582 13.5872 42.9297 14.6289 44.1406 15.8398C45.3516 17.0508 46.3932 18.4049 47.2656 19.9023C48.138 21.3997 48.8086 22.9948 49.2773 24.6875C49.7461 26.3802 49.987 28.151 50 30C50 31.8359 49.7656 33.6068 49.2969 35.3125C48.8281 37.0182 48.1576 38.6133 47.2852 40.0977C46.4128 41.582 45.3711 42.9297 44.1602 44.1406C42.9492 45.3516 41.5951 46.3932 40.0977 47.2656C38.6003 48.138 37.0052 48.8086 35.3125 49.2773C33.6198 49.7461 31.849 49.987 30 50C28.1641 50 26.3932 49.7656 24.6875 49.2969C22.9818 48.8281 21.3867 48.1576 19.9023 47.2852C18.418 46.4128 17.0703 45.3711 15.8594 44.1602C14.6484 42.9492 13.6068 41.5951 12.7344 40.0977C11.862 38.6003 11.1914 37.0117 10.7227 35.332C10.2539 33.6523 10.013 31.875 10 30C10 28.1641 10.2344 26.3932 10.7031 24.6875C11.1719 22.9818 11.8424 21.3867 12.7148 19.9023C13.5872 18.418 14.6289 17.0703 15.8398 15.8594C17.0508 14.6484 18.4049 13.6068 19.9023 12.7344C21.3997 11.862 22.9883 11.1914 24.668 10.7227C26.3477 10.2539 28.125 10.013 30 10ZM30 47.5C31.6016 47.5 33.1445 47.2917 34.6289 46.875C36.1133 46.4583 37.5065 45.8724 38.8086 45.1172C40.1107 44.362 41.2956 43.444 42.3633 42.3633C43.431 41.2826 44.3424 40.1042 45.0977 38.8281C45.8529 37.5521 46.4453 36.1589 46.875 34.6484C47.3047 33.138 47.513 31.5885 47.5 30C47.5 28.3984 47.2917 26.8555 46.875 25.3711C46.4583 23.8867 45.8724 22.4935 45.1172 21.1914C44.362 19.8893 43.444 18.7044 42.3633 17.6367C41.2826 16.569 40.1042 15.6576 38.8281 14.9023C37.5521 14.1471 36.1589 13.5547 34.6484 13.125C33.138 12.6953 31.5885 12.487 30 12.5C28.3984 12.5 26.8555 12.7083 25.3711 13.125C23.8867 13.5417 22.4935 14.1276 21.1914 14.8828C19.8893 15.638 18.7044 16.556 17.6367 17.6367C16.569 18.7174 15.6576 19.8958 14.9023 21.1719C14.1471 22.4479 13.5547 23.8411 13.125 25.3516C12.6953 26.862 12.487 28.4115 12.5 30C12.5 31.6016 12.7083 33.1445 13.125 34.6289C13.5417 36.1133 14.1276 37.5065 14.8828 38.8086C15.638 40.1107 16.556 41.2956 17.6367 42.3633C18.7174 43.431 19.8958 44.3424 21.1719 45.0977C22.4479 45.8529 23.8411 46.4453 25.3516 46.875C26.862 47.3047 28.4115 47.513 30 47.5ZM41.6602 30.3125L42.5977 27.5H44.0625L42.4023 32.5H40.9375L40 29.6875L39.0625 32.5H37.5977L35.9375 27.5H37.4023L38.3398 30.3125L39.2773 27.5H40.7227L41.6602 30.3125ZM32.5977 27.5H34.0625L32.4023 32.5H30.9375L30 29.6875L29.0625 32.5H27.5977L25.9375 27.5H27.4023L28.3398 30.3125L29.2773 27.5H30.7227L31.6602 30.3125L32.5977 27.5ZM22.5977 27.5H24.0625L22.4023 32.5H20.9375L20 29.6875L19.0625 32.5H17.5977L15.9375 27.5H17.4023L18.3398 30.3125L19.2773 27.5H20.7227L21.6602 30.3125L22.5977 27.5Z" fill="#1F65D1"/>
</g>
<defs>
<clipPath id="clip0_274_3064">
<rect width="40" height="40" fill="white" transform="translate(10 10)"/>
</clipPath>
</defs>
</svg>
