<svg width="49" height="49" viewBox="0 0 49 49" fill="none" xmlns="http://www.w3.org/2000/svg">
<ellipse cx="26.4823" cy="26.6419" rx="22.3729" ry="21.8978" fill="#D2E5FF"/>
<ellipse cx="23.2323" cy="22.4369" rx="22.3729" ry="21.8978" fill="#1871ED"/>
<path d="M32.054 10.1992H16.0371C15.4471 10.1992 14.8813 10.4414 14.4641 10.8725C14.0469 11.3035 13.8125 11.8882 13.8125 12.4978V32.7256C13.8125 33.3352 14.0469 33.9199 14.4641 34.3509C14.8813 34.782 15.4471 35.0242 16.0371 35.0242H32.054C32.644 35.0242 33.2099 34.782 33.627 34.3509C34.0442 33.9199 34.2786 33.3352 34.2786 32.7256V12.4978C34.2786 11.8882 34.0442 11.3035 33.627 10.8725C33.2099 10.4414 32.644 10.1992 32.054 10.1992ZM31.6091 32.2659H16.482V12.9575H31.6091V32.2659ZM18.7066 16.6353C18.7066 16.2695 18.8472 15.9187 19.0975 15.6601C19.3478 15.4015 19.6873 15.2562 20.0413 15.2562H28.0498C28.4038 15.2562 28.7433 15.4015 28.9936 15.6601C29.2439 15.9187 29.3845 16.2695 29.3845 16.6353C29.3845 17.0011 29.2439 17.3519 28.9936 17.6105C28.7433 17.8692 28.4038 18.0145 28.0498 18.0145H20.0413C19.6873 18.0145 19.3478 17.8692 19.0975 17.6105C18.8472 17.3519 18.7066 17.0011 18.7066 16.6353ZM23.1557 22.6117C23.1557 22.9754 23.0513 23.3309 22.8558 23.6333C22.6602 23.9357 22.3823 24.1714 22.0571 24.3106C21.7319 24.4498 21.3741 24.4862 21.0289 24.4153C20.6836 24.3443 20.3665 24.1692 20.1176 23.912C19.8688 23.6548 19.6993 23.3272 19.6306 22.9704C19.5619 22.6137 19.5972 22.244 19.7319 21.908C19.8666 21.572 20.0947 21.2848 20.3873 21.0827C20.68 20.8807 21.0241 20.7728 21.3761 20.7728C21.8481 20.7728 22.3007 20.9666 22.6345 21.3114C22.9682 21.6563 23.1557 22.124 23.1557 22.6117ZM28.4947 22.6117C28.4947 22.9754 28.3903 23.3309 28.1948 23.6333C27.9992 23.9357 27.7213 24.1714 27.3961 24.3106C27.0709 24.4498 26.7131 24.4862 26.3678 24.4153C26.0226 24.3443 25.7055 24.1692 25.4566 23.912C25.2077 23.6548 25.0382 23.3272 24.9696 22.9704C24.9009 22.6137 24.9362 22.244 25.0709 21.908C25.2055 21.572 25.4337 21.2848 25.7263 21.0827C26.019 20.8807 26.3631 20.7728 26.715 20.7728C27.187 20.7728 27.6397 20.9666 27.9735 21.3114C28.3072 21.6563 28.4947 22.124 28.4947 22.6117ZM23.1557 28.1284C23.1557 28.4921 23.0513 28.8476 22.8558 29.15C22.6602 29.4524 22.3823 29.6881 22.0571 29.8273C21.7319 29.9664 21.3741 30.0029 21.0289 29.9319C20.6836 29.861 20.3665 29.6858 20.1176 29.4286C19.8688 29.1715 19.6993 28.8438 19.6306 28.4871C19.5619 28.1304 19.5972 27.7607 19.7319 27.4246C19.8666 27.0886 20.0947 26.8014 20.3873 26.5994C20.68 26.3973 21.0241 26.2895 21.3761 26.2895C21.8481 26.2895 22.3007 26.4832 22.6345 26.8281C22.9682 27.1729 23.1557 27.6407 23.1557 28.1284ZM28.4947 28.1284C28.4947 28.4921 28.3903 28.8476 28.1948 29.15C27.9992 29.4524 27.7213 29.6881 27.3961 29.8273C27.0709 29.9664 26.7131 30.0029 26.3678 29.9319C26.0226 29.861 25.7055 29.6858 25.4566 29.4286C25.2077 29.1715 25.0382 28.8438 24.9696 28.4871C24.9009 28.1304 24.9362 27.7607 25.0709 27.4246C25.2055 27.0886 25.4337 26.8014 25.7263 26.5994C26.019 26.3973 26.3631 26.2895 26.715 26.2895C27.187 26.2895 27.6397 26.4832 27.9735 26.8281C28.3072 27.1729 28.4947 27.6407 28.4947 28.1284Z" fill="white"/>
</svg>
