<svg width="49" height="49" viewBox="0 0 49 49" fill="none" xmlns="http://www.w3.org/2000/svg">
<ellipse cx="26.4823" cy="26.3685" rx="22.3729" ry="21.8978" fill="#D2E5FF"/>
<ellipse cx="23.2323" cy="22.1634" rx="22.3729" ry="21.8978" fill="#1871ED"/>
<path d="M35.5651 11.1724C35.5549 11.1243 35.5309 11.0799 35.496 11.0447C35.461 11.0094 35.4165 10.9846 35.3676 10.9732C32.1103 10.1937 24.584 12.9714 20.5064 16.9608C19.7791 17.6669 19.116 18.4337 18.5248 19.2525C17.2674 19.1436 16.0099 19.2345 14.9382 19.6918C11.9145 20.9944 11.0341 24.3932 10.7888 25.8553C10.7749 25.9353 10.7802 26.0174 10.8042 26.0951C10.8282 26.1728 10.8703 26.244 10.9271 26.3031C10.984 26.3622 11.0541 26.4075 11.1319 26.4356C11.2097 26.4637 11.2931 26.4737 11.3756 26.4649L16.2313 25.9407C16.2347 26.299 16.2568 26.657 16.2975 27.0131C16.3219 27.2604 16.434 27.4915 16.6145 27.6663L18.4948 29.5023C18.6736 29.6786 18.9096 29.7884 19.1622 29.8126C19.524 29.8522 19.8876 29.8738 20.2516 29.8774L19.7189 34.624C19.71 34.7046 19.7203 34.7862 19.749 34.8623C19.7778 34.9384 19.8241 35.007 19.8845 35.0626C19.9448 35.1183 20.0175 35.1595 20.0968 35.183C20.1762 35.2065 20.26 35.2117 20.3417 35.1982C21.8328 34.9642 25.3114 34.1025 26.6345 31.1429C27.1017 30.094 27.1973 28.8693 27.0894 27.6445C27.928 27.0658 28.7135 26.4166 29.4369 25.7045C33.5274 21.7211 36.3492 14.519 35.5651 11.1724ZM25.3559 20.9525C24.9824 20.5871 24.728 20.1216 24.6249 19.6147C24.5217 19.1078 24.5745 18.5824 24.7765 18.1048C24.9785 17.6273 25.3206 17.2191 25.7597 16.932C26.1987 16.6448 26.7149 16.4915 27.2429 16.4915C27.771 16.4915 28.2872 16.6448 28.7262 16.932C29.1652 17.2191 29.5074 17.6273 29.7094 18.1048C29.9114 18.5824 29.9641 19.1078 29.861 19.6147C29.7579 20.1216 29.5034 20.5871 29.1299 20.9525C28.8822 21.1952 28.5881 21.3878 28.2643 21.5192C27.9405 21.6506 27.5934 21.7182 27.2429 21.7182C26.8924 21.7182 26.5453 21.6506 26.2215 21.5192C25.8977 21.3878 25.6036 21.1952 25.3559 20.9525Z" fill="white"/>
<path d="M18.3678 30.8316C18.0631 31.1305 17.5742 31.247 16.9858 31.3466C15.6639 31.567 14.4965 30.449 14.734 29.1409C14.8247 28.645 15.0927 27.9499 15.2596 27.7866C15.296 27.7516 15.3203 27.7063 15.3289 27.657C15.3376 27.6077 15.3301 27.557 15.3076 27.5121C15.2852 27.4672 15.2488 27.4304 15.2037 27.4069C15.1587 27.3834 15.1072 27.3743 15.0566 27.3811C14.3173 27.4696 13.6296 27.7977 13.1028 28.313C11.7953 29.5938 11.6719 34.3464 11.6719 34.3464C11.6719 34.3464 16.5303 34.2255 17.8378 32.9447C18.366 32.4296 18.7015 31.7554 18.7905 31.0308C18.8111 30.8033 18.528 30.6678 18.3678 30.8316Z" fill="white"/>
</svg>
