<svg width="48" height="48" viewBox="0 0 48 48" fill="none" xmlns="http://www.w3.org/2000/svg">
<ellipse cx="25.6229" cy="26.1024" rx="22.3729" ry="21.8978" fill="#D6BEBE"/>
<ellipse cx="22.3729" cy="21.8978" rx="22.3729" ry="21.8978" fill="#D9D9D9"/>
<path fill-rule="evenodd" clip-rule="evenodd" d="M21.3468 23.6553C21.8514 22.4989 21.9694 21.2106 21.6831 19.9818C21.3967 18.753 20.7214 17.6495 19.7576 16.8353C18.7937 16.0212 17.5928 15.5399 16.3335 15.463C15.0742 15.3862 13.8236 15.7179 12.7679 16.4088C11.7123 17.0997 10.9078 18.1129 10.4741 19.2977C10.0405 20.4825 10.0009 21.7757 10.3612 22.9848C10.7215 24.194 11.4625 25.2545 12.4739 26.0087C13.4853 26.7629 14.7132 27.1705 15.9749 27.1709H28.8655C30.1272 27.1705 31.3551 26.7629 32.3665 26.0087C33.3779 25.2545 34.1189 24.194 34.4792 22.9848C34.8395 21.7757 34.7999 20.4825 34.3663 19.2977C33.9327 18.1129 33.1282 17.0997 32.0725 16.4088C31.0168 15.7179 29.7663 15.3862 28.5069 15.463C27.2476 15.5399 26.0467 16.0212 25.0828 16.8353C24.119 17.6495 23.4437 18.753 23.1574 19.9818C22.871 21.2106 22.989 22.4989 23.4936 23.6553H21.3468ZM15.9749 18.9678C15.3533 18.9678 14.7572 19.2147 14.3176 19.6542C13.8781 20.0938 13.6311 20.6899 13.6311 21.3115C13.6311 21.9331 13.8781 22.5293 14.3176 22.9688C14.7572 23.4083 15.3533 23.6553 15.9749 23.6553C16.5965 23.6553 17.1926 23.4083 17.6322 22.9688C18.0717 22.5293 18.3186 21.9331 18.3186 21.3115C18.3186 20.6899 18.0717 20.0938 17.6322 19.6542C17.1926 19.2147 16.5965 18.9678 15.9749 18.9678ZM28.8655 23.6553C29.4871 23.6553 30.0833 23.4083 30.5228 22.9688C30.9623 22.5293 31.2093 21.9331 31.2093 21.3115C31.2093 20.6899 30.9623 20.0938 30.5228 19.6542C30.0833 19.2147 29.4871 18.9678 28.8655 18.9678C28.2439 18.9678 27.6478 19.2147 27.2082 19.6542C26.7687 20.0938 26.5218 20.6899 26.5218 21.3115C26.5218 21.9331 26.7687 22.5293 27.2082 22.9688C27.6478 23.4083 28.2439 23.6553 28.8655 23.6553Z" fill="#343442"/>
</svg>
