<svg width="49" height="49" viewBox="0 0 49 49" fill="none" xmlns="http://www.w3.org/2000/svg">
<ellipse cx="25.9198" cy="26.7142" rx="22.3729" ry="21.8978" fill="#1871ED"/>
<ellipse cx="22.6698" cy="22.5091" rx="22.3729" ry="21.8978" fill="#D9D9D9"/>
<rect x="12.3281" y="15.1328" width="17.6171" height="9.97026" stroke="#1871ED" stroke-width="1.5"/>
<path d="M31.7219 15.0523C31.7219 15.832 31.0898 16.464 30.3101 16.464C29.5305 16.464 28.8984 15.832 28.8984 15.0523C28.8984 14.2727 29.5305 13.6406 30.3101 13.6406C31.0898 13.6406 31.7219 14.2727 31.7219 15.0523Z" fill="#1871ED" stroke="#1871ED"/>
<circle cx="30.3101" cy="24.9937" r="1.41171" fill="#1871ED" stroke="#1871ED"/>
<circle cx="11.9586" cy="24.9937" r="1.41171" fill="#1871ED" stroke="#1871ED"/>
<circle cx="11.9586" cy="15.0523" r="1.41171" fill="#1871ED" stroke="#1871ED"/>
<rect x="21.8906" y="20.1035" width="17.6171" height="9.97026" stroke="#1871ED" stroke-width="1.5"/>
<circle cx="39.8726" cy="20.023" r="1.41171" fill="#1871ED" stroke="#1871ED"/>
<circle cx="39.8726" cy="29.9644" r="1.41171" fill="#1871ED" stroke="#1871ED"/>
<circle cx="21.5211" cy="29.9644" r="1.41171" fill="#1871ED" stroke="#1871ED"/>
<circle cx="21.5211" cy="20.023" r="1.41171" fill="#1871ED" stroke="#1871ED"/>
</svg>
