<svg width="48" height="48" viewBox="0 0 48 48" fill="none" xmlns="http://www.w3.org/2000/svg">
<ellipse cx="25.6229" cy="26.1024" rx="22.3729" ry="21.8978" fill="#D2E5FF"/>
<ellipse cx="22.3729" cy="21.8978" rx="22.3729" ry="21.8978" fill="#021E43"/>
<path d="M23.7703 10.2852H15.2635C13.9584 10.2852 12.8906 11.3303 12.8906 12.6076V31.1876C12.8906 32.465 13.9584 33.5101 15.2635 33.5101H29.5008C30.8059 33.5101 31.8737 32.465 31.8737 31.1876V18.2165C31.8737 17.601 31.6245 17.0088 31.1737 16.5791L25.4432 10.9703C25.0042 10.529 24.3991 10.2852 23.7703 10.2852ZM22.3821 19.5751C23.6872 19.5751 24.755 20.6202 24.755 21.8976C24.755 23.175 23.6872 24.2201 22.3821 24.2201C21.0771 24.2201 20.0093 23.175 20.0093 21.8976C20.0093 20.6202 21.0771 19.5751 22.3821 19.5751ZM27.1279 28.8651H17.6364V28.2032C17.6364 27.2626 18.2059 26.4265 19.0838 26.0549C20.1242 25.6105 21.2471 25.3811 22.3821 25.3811C23.5172 25.3811 24.6401 25.6105 25.6805 26.0549C26.1103 26.2347 26.4766 26.5342 26.734 26.9162C26.9913 27.2981 27.1283 27.7457 27.1279 28.2032V28.8651Z" fill="white"/>
</svg>
