<svg width="36" height="32" viewBox="0 0 36 32" fill="none" xmlns="http://www.w3.org/2000/svg">
<g clip-path="url(#clip0_274_2024)">
<path d="M19.515 26.1703V24.5008L20.5899 23.426H15.3984V9.7041H33.6943V23.426H28.4799L29.5777 24.5008V26.1703H19.515ZM16.7706 22.0538H32.3221V11.0763H16.7706V22.0538Z" fill="#343442"/>
<path d="M15.9143 15.8777C14.5167 15.8777 13.3733 15.433 12.4839 14.5437C11.5945 13.6543 11.1498 12.5108 11.1498 11.1132C11.1498 9.7156 11.5945 8.57211 12.4839 7.68273C13.3733 6.79332 14.5167 6.34863 15.9143 6.34863C17.3119 6.34863 18.4554 6.79332 19.3448 7.68273C20.2342 8.57211 20.6789 9.7156 20.6789 11.1132C20.6789 12.5108 20.2342 13.6543 19.3448 14.5437C18.4554 15.433 17.3119 15.8777 15.9143 15.8777ZM5.75 26.0738V23.0881C5.75 22.2834 5.95117 21.5952 6.35351 21.0234C6.75584 20.4517 7.27465 20.0175 7.90992 19.7211C9.32867 19.0859 10.6892 18.6094 11.9915 18.2918C13.2938 17.9741 14.6014 17.8153 15.9143 17.8153C17.2273 17.8153 18.5296 17.9794 19.8213 18.3076C21.113 18.6358 22.4682 19.107 23.887 19.7211C24.5434 20.0175 25.0729 20.4517 25.4752 21.0234C25.8775 21.5952 26.0787 22.2834 26.0787 23.0881V26.0738H5.75Z" fill="#343442"/>
</g>
<defs>
<clipPath id="clip0_274_2024">
<rect width="31.8188" height="31.8188" fill="white"/>
</clipPath>
</defs>
</svg>
