<svg width="36" height="32" viewBox="0 0 36 32" fill="none" xmlns="http://www.w3.org/2000/svg">
<path d="M19.515 26.1694V24.4999L20.5899 23.425H15.3984V9.70312H33.6943V23.425H28.4799L29.5777 24.4999V26.1694H19.515ZM16.7706 22.0528H32.3221V11.0753H16.7706V22.0528Z" fill="#1871ED"/>
<path d="M15.9143 15.8768C14.5167 15.8768 13.3733 15.4321 12.4839 14.5427C11.5945 13.6533 11.1498 12.5098 11.1498 11.1122C11.1498 9.71463 11.5945 8.57114 12.4839 7.68176C13.3733 6.79235 14.5167 6.34766 15.9143 6.34766C17.3119 6.34766 18.4554 6.79235 19.3448 7.68176C20.2342 8.57114 20.6789 9.71463 20.6789 11.1122C20.6789 12.5098 20.2342 13.6533 19.3448 14.5427C18.4554 15.4321 17.3119 15.8768 15.9143 15.8768ZM5.75 26.0729V23.0871C5.75 22.2824 5.95117 21.5942 6.35351 21.0225C6.75584 20.4507 7.27465 20.0166 7.90992 19.7202C9.32867 19.0849 10.6892 18.6084 11.9915 18.2908C13.2938 17.9732 14.6014 17.8143 15.9143 17.8143C17.2273 17.8143 18.5296 17.9784 19.8213 18.3067C21.113 18.6349 22.4682 19.106 23.887 19.7202C24.5434 20.0166 25.0729 20.4507 25.4752 21.0225C25.8775 21.5942 26.0787 22.2824 26.0787 23.0871V26.0729H5.75Z" fill="#1871ED"/>
</svg>
