<svg width="49" height="49" viewBox="0 0 49 49" fill="none" xmlns="http://www.w3.org/2000/svg">
<ellipse cx="26.4823" cy="26.3724" rx="22.3729" ry="21.8978" fill="#D2E5FF"/>
<ellipse cx="23.2323" cy="22.1673" rx="22.3729" ry="21.8978" fill="#1871ED"/>
<g clip-path="url(#clip0_366_821)">
<path d="M23.16 8.63086C24.3835 8.63086 25.5606 8.78509 26.6915 9.09354C27.8223 9.402 28.8882 9.842 29.8893 10.4136C30.8904 10.9851 31.7895 11.6655 32.5866 12.4548C33.3837 13.2441 34.0789 14.1286 34.6721 15.1084C35.2654 16.0882 35.7149 17.127 36.0208 18.2248C36.3267 19.3225 36.4889 20.4792 36.5074 21.6949C36.5074 22.8924 36.3498 24.0446 36.0347 25.1514C35.7195 26.2582 35.27 27.3015 34.686 28.2813C34.1021 29.2611 33.4069 30.1411 32.6005 30.9214C31.7941 31.7016 30.8904 32.382 29.8893 32.9626C28.8882 33.5432 27.8269 33.9832 26.7054 34.2826C25.5838 34.582 24.402 34.7408 23.16 34.7589C21.9364 34.7589 20.7593 34.6047 19.6284 34.2962C18.4976 33.9878 17.4317 33.5478 16.4306 32.9762C15.4296 32.4047 14.5305 31.7243 13.7333 30.935C12.9362 30.1457 12.241 29.2611 11.6478 28.2813C11.0546 27.3015 10.605 26.2628 10.2991 25.165C9.99325 24.0673 9.83104 22.9106 9.8125 21.6949C9.8125 20.4974 9.97007 19.3452 10.2852 18.2384C10.6004 17.1315 11.0499 16.0882 11.6339 15.1084C12.2178 14.1286 12.913 13.2486 13.7194 12.4684C14.5258 11.6882 15.4296 11.0078 16.4306 10.4272C17.4317 9.84654 18.493 9.40654 19.6145 9.10715C20.7361 8.80777 21.9179 8.649 23.16 8.63086ZM23.16 33.017C24.2259 33.017 25.2501 32.881 26.2327 32.6088C27.2152 32.3366 28.1328 31.9556 28.9856 31.4657C29.8383 30.9758 30.6216 30.3861 31.3353 29.6966C32.049 29.0071 32.6515 28.245 33.1427 27.4104C33.634 26.5758 34.0233 25.6731 34.3106 24.7023C34.598 23.7316 34.737 22.7291 34.7278 21.6949C34.7278 20.6516 34.5887 19.6491 34.3106 18.6874C34.0326 17.7258 33.6433 16.8276 33.1427 15.993C32.6422 15.1583 32.0397 14.3917 31.3353 13.6932C30.6308 12.9946 29.8522 12.4049 28.9995 11.9241C28.1467 11.4433 27.2244 11.0622 26.2327 10.781C25.2409 10.4997 24.2166 10.3637 23.16 10.3727C22.094 10.3727 21.0698 10.5088 20.0873 10.781C19.1047 11.0531 18.1871 11.4342 17.3343 11.9241C16.4816 12.414 15.6984 13.0037 14.9846 13.6932C14.2709 14.3827 13.6684 15.1447 13.1772 15.9794C12.6859 16.814 12.2966 17.7167 12.0093 18.6874C11.7219 19.6582 11.5829 20.6607 11.5922 21.6949C11.5922 22.7382 11.7312 23.7407 12.0093 24.7023C12.2873 25.664 12.6766 26.5621 13.1772 27.3968C13.6777 28.2314 14.2802 28.998 14.9846 29.6966C15.6891 30.3952 16.4677 30.9849 17.3204 31.4657C18.1732 31.9465 19.0955 32.3276 20.0873 32.6088C21.0791 32.89 22.1033 33.0261 23.16 33.017ZM25.5514 20.5518C25.7368 20.9147 25.8294 21.2957 25.8294 21.6949C25.8294 22.0578 25.7599 22.398 25.6209 22.7155C25.4819 23.033 25.2918 23.3097 25.0508 23.5456C24.8099 23.7815 24.5271 23.9675 24.2027 24.1036C23.8783 24.2397 23.5307 24.3077 23.16 24.3077C22.7892 24.3077 22.4416 24.2397 22.1172 24.1036C21.7928 23.9675 21.5101 23.7815 21.2691 23.5456C21.0281 23.3097 20.8381 23.033 20.699 22.7155C20.56 22.398 20.4905 22.0578 20.4905 21.6949C20.4905 21.332 20.56 20.9918 20.699 20.6743C20.8381 20.3567 21.0281 20.08 21.2691 19.8442C21.5101 19.6083 21.7928 19.4223 22.1172 19.2862C22.4416 19.1501 22.7892 19.0821 23.16 19.0821C23.5678 19.0821 23.9571 19.1728 24.3279 19.3542L24.314 19.3406L29.4305 14.3328L30.6818 15.5575L25.5653 20.5654L25.5514 20.5518ZM23.16 22.5658C23.401 22.5658 23.6095 22.4796 23.7856 22.3073C23.9617 22.1349 24.0498 21.9308 24.0498 21.6949C24.0498 21.459 23.9617 21.2549 23.7856 21.0825C23.6095 20.9101 23.401 20.824 23.16 20.824C22.919 20.824 22.7104 20.9101 22.5343 21.0825C22.3582 21.2549 22.2701 21.459 22.2701 21.6949C22.2701 21.9308 22.3582 22.1349 22.5343 22.3073C22.7104 22.4796 22.919 22.5658 23.16 22.5658ZM32.0583 17.7757C32.3456 18.3926 32.5588 19.0276 32.6978 19.6809C32.8369 20.3341 32.911 21.0054 32.9203 21.6949C32.9203 22.965 32.6793 24.1852 32.1973 25.3555C31.7153 26.5259 31.0109 27.5646 30.084 28.4719L28.8187 27.2335C29.5695 26.4986 30.1488 25.6595 30.5567 24.7159C30.9645 23.7724 31.1684 22.779 31.1684 21.7357C31.1684 20.6108 30.9274 19.5266 30.4454 18.4833L32.0583 17.7757ZM26.4412 14.5641C25.3753 14.0923 24.2676 13.8565 23.1182 13.8565C22.386 13.8565 21.6815 13.9472 21.0049 14.1286C20.3283 14.3101 19.6933 14.5777 19.1001 14.9315C18.5069 15.2853 17.9693 15.6936 17.4873 16.1563C17.0053 16.619 16.5928 17.1497 16.2499 17.7485C15.9069 18.3472 15.6381 18.9687 15.4435 19.6128C15.2488 20.2569 15.1515 20.951 15.1515 21.6949C15.1515 22.7382 15.3554 23.7361 15.7632 24.6887C16.1711 25.6413 16.7504 26.4896 17.5012 27.2335L16.236 28.4719C15.3091 27.5646 14.6 26.5304 14.1087 25.3691C13.6175 24.2079 13.3718 22.9831 13.3718 21.6949C13.3718 20.8149 13.4877 19.9666 13.7194 19.1501C13.9511 18.3336 14.2802 17.5716 14.7066 16.8639C15.1329 16.1563 15.6427 15.5122 16.236 14.9315C16.8292 14.3509 17.4873 13.8565 18.2103 13.4482C18.9333 13.04 19.7119 12.7179 20.5461 12.482C21.3803 12.2461 22.2516 12.1327 23.16 12.1418C23.8551 12.1418 24.5364 12.2099 25.2038 12.3459C25.8712 12.482 26.5246 12.6952 27.1642 12.9855L26.4412 14.5641Z" fill="white"/>
</g>
<defs>
<clipPath id="clip0_366_821">
<rect width="28.4746" height="27.8699" fill="white" transform="translate(9.8125 8.63086)"/>
</clipPath>
</defs>
</svg>
