<svg width="46" height="48" viewBox="0 0 46 48" fill="none" xmlns="http://www.w3.org/2000/svg">
<ellipse cx="24.1555" cy="26.1019" rx="20.9524" ry="21.8978" fill="#D2E5FF"/>
<ellipse cx="21.1087" cy="21.8978" rx="20.9524" ry="21.8978" fill="#021E43"/>
<path d="M12.2266 13.2618C12.2266 12.9539 12.3436 12.6585 12.552 12.4407C12.7604 12.2229 13.043 12.1006 13.3377 12.1006H24.4488L30.0044 17.9068V34.1643C30.0044 34.4723 29.8873 34.7676 29.6789 34.9854C29.4706 35.2032 29.1879 35.3255 28.8933 35.3255H13.3377C13.043 35.3255 12.7604 35.2032 12.552 34.9854C12.3436 34.7676 12.2266 34.4723 12.2266 34.1643V13.2618Z" stroke="white" stroke-width="2" stroke-linejoin="round"/>
<path d="M16.6719 21.3906H25.5608M16.6719 26.0356H25.5608" stroke="white" stroke-width="2" stroke-linecap="round" stroke-linejoin="round"/>
</svg>
