<svg width="34" height="34" viewBox="0 0 34 34" fill="none" xmlns="http://www.w3.org/2000/svg">
<path d="M32.1656 21.1348H23.8969V12.866H32.1656C32.5312 12.866 32.8817 12.7208 33.1401 12.4624C33.3985 12.204 33.5438 11.8534 33.5438 11.4879C33.5438 11.1224 33.3985 10.7719 33.1401 10.5134C32.8817 10.255 32.5312 10.1098 32.1656 10.1098H23.8969V1.84101C23.8969 1.47552 23.7517 1.12497 23.4933 0.866533C23.2349 0.608095 22.8843 0.462891 22.5187 0.462891C22.1532 0.462891 21.8026 0.608095 21.5442 0.86652C21.2858 1.12497 21.1406 1.47552 21.1406 1.84101V10.1098H12.8719V1.84101C12.8719 1.47552 12.7267 1.12497 12.4683 0.866533C12.2099 0.608095 11.8592 0.462891 11.4938 0.462891C11.1283 0.462891 10.7777 0.608095 10.5193 0.86652C10.2608 1.12497 10.1156 1.47552 10.1156 1.84101V10.1098H1.84687C1.48138 10.1098 1.13083 10.255 0.872392 10.5134C0.613954 10.7719 0.46875 11.1224 0.46875 11.4879C0.46875 11.8534 0.613954 12.204 0.872379 12.4624C1.13083 12.7208 1.48138 12.866 1.84687 12.866H10.1156V21.1348H1.84687C1.48138 21.1348 1.13083 21.28 0.872392 21.5384C0.613954 21.7968 0.46875 22.1473 0.46875 22.5129C0.46875 22.8784 0.613954 23.229 0.872379 23.4874C1.13083 23.7458 1.48138 23.891 1.84687 23.891H10.1156V32.1598C10.1156 32.5253 10.2608 32.8759 10.5193 33.1343C10.7777 33.3927 11.1283 33.5379 11.4938 33.5379C11.8593 33.5379 12.2099 33.3927 12.4683 33.1343C12.7267 32.8759 12.8719 32.5253 12.8719 32.1598V23.891H21.1406V32.1598C21.1406 32.5253 21.2858 32.8759 21.5442 33.1343C21.8026 33.3927 22.1532 33.5379 22.5187 33.5379C22.8843 33.5379 23.2349 33.3927 23.4933 33.1343C23.7517 32.8759 23.8969 32.5253 23.8969 32.1598V23.891H32.1656C32.5312 23.891 32.8817 23.7458 33.1401 23.4874C33.3985 23.229 33.5438 22.8784 33.5438 22.5129C33.5438 22.1473 33.3985 21.7968 33.1401 21.5384C32.8817 21.28 32.5312 21.1348 32.1656 21.1348ZM12.8719 21.1348V12.866H21.1406V21.1348H12.8719Z" fill="#1871ED"/>
</svg>
