<svg width="49" height="49" viewBox="0 0 49 49" fill="none" xmlns="http://www.w3.org/2000/svg">
<ellipse cx="25.7791" cy="26.6522" rx="22.3729" ry="21.8978" fill="#D2E5FF"/>
<ellipse cx="22.5291" cy="22.4476" rx="22.3729" ry="21.8978" fill="#021E43"/>
<path d="M22.5373 11.9966C19.7054 11.9966 16.9894 13.0977 14.9869 15.0577C12.9844 17.0177 11.8594 19.676 11.8594 22.4478V30.5765C11.8594 31.8539 12.9272 32.899 14.2323 32.899H18.978V23.6091H14.2323V22.4478C14.2323 17.9538 17.9458 14.3191 22.5373 14.3191C27.1289 14.3191 30.8424 17.9538 30.8424 22.4478V23.6091H26.0967V32.899H30.8424C32.1475 32.899 33.2153 31.8539 33.2153 30.5765V22.4478C33.2153 19.676 32.0903 17.0177 30.0878 15.0577C28.0853 13.0977 25.3693 11.9966 22.5373 11.9966Z" fill="white"/>
</svg>
