<svg width="49" height="49" viewBox="0 0 49 49" fill="none" xmlns="http://www.w3.org/2000/svg">
<ellipse cx="26.076" cy="26.6281" rx="22.3729" ry="21.8978" fill="#D6BEBE"/>
<ellipse cx="22.826" cy="22.4236" rx="22.3729" ry="21.8978" fill="#D9D9D9"/>
<path d="M26.6406 12.0879V16.0254C26.6406 16.2865 26.5369 16.5368 26.3523 16.7215C26.1678 16.9061 25.9174 17.0098 25.6563 17.0098H21.7188C21.4576 17.0098 21.2072 16.9061 21.0227 16.7215C20.8381 16.5368 20.7344 16.2865 20.7344 16.0254V12.0879C20.7344 11.8268 20.8381 11.5764 21.0227 11.3918C21.2072 11.2072 21.4576 11.1035 21.7188 11.1035H25.6563C25.9174 11.1035 26.1678 11.2072 26.3523 11.3918C26.5369 11.5764 26.6406 11.8268 26.6406 12.0879ZM17.7812 27.8379H13.8437C13.5827 27.8379 13.3323 27.9416 13.1477 28.1262C12.9631 28.3108 12.8594 28.5612 12.8594 28.8223V32.7598C12.8594 33.0209 12.9631 33.2713 13.1477 33.4558C13.3323 33.6404 13.5827 33.7441 13.8437 33.7441H17.7812C18.0423 33.7441 18.2927 33.6404 18.4773 33.4558C18.6619 33.2713 18.7656 33.0209 18.7656 32.7598V28.8223C18.7656 28.5612 18.6619 28.3108 18.4773 28.1262C18.2927 27.9416 18.0423 27.8379 17.7812 27.8379ZM33.5312 27.8379H29.5937C29.3326 27.8379 29.0822 27.9416 28.8977 28.1262C28.7131 28.3108 28.6094 28.5612 28.6094 28.8223V32.7598C28.6094 33.0209 28.7131 33.2713 28.8977 33.4558C29.0822 33.6404 29.3326 33.7441 29.5937 33.7441H33.5312C33.7924 33.7441 34.0428 33.6404 34.2273 33.4558C34.4119 33.2713 34.5156 33.0209 34.5156 32.7598V28.8223C34.5156 28.5612 34.4119 28.3108 34.2273 28.1262C34.0428 27.9416 33.7924 27.8379 33.5312 27.8379Z" fill="#C4C4C4"/>
<path d="M36.4844 20.9473H24.6719V17.9941H25.6563C26.1783 17.9941 26.6791 17.7867 27.0484 17.4175C27.4175 17.0483 27.625 16.5475 27.625 16.0254V12.0879C27.625 11.5657 27.4175 11.065 27.0484 10.6958C26.6791 10.3266 26.1783 10.1191 25.6563 10.1191H21.7187C21.1967 10.1191 20.6959 10.3266 20.3266 10.6958C19.9574 11.065 19.75 11.5657 19.75 12.0879V16.0254C19.75 16.5475 19.9574 17.0483 20.3266 17.4175C20.6959 17.7867 21.1967 17.9941 21.7187 17.9941H22.7031V20.9473H10.8906C10.6296 20.9473 10.3792 21.051 10.1946 21.2356C10.01 21.4201 9.90625 21.6705 9.90625 21.9316C9.90625 22.1927 10.01 22.4431 10.1946 22.6277C10.3792 22.8123 10.6296 22.916 10.8906 22.916H14.8281V26.8535H13.8437C13.3216 26.8535 12.8208 27.061 12.4516 27.4301C12.0824 27.7994 11.875 28.3002 11.875 28.8223V32.7598C11.875 33.2819 12.0824 33.7827 12.4516 34.1519C12.8208 34.5211 13.3216 34.7285 13.8437 34.7285H17.7812C18.3034 34.7285 18.8042 34.5211 19.1734 34.1519C19.5426 33.7827 19.75 33.2819 19.75 32.7598V28.8223C19.75 28.3002 19.5426 27.7994 19.1734 27.4301C18.8042 27.061 18.3034 26.8535 17.7812 26.8535H16.7969V22.916H30.5781V26.8535H29.5938C29.0717 26.8535 28.5709 27.061 28.2016 27.4301C27.8325 27.7994 27.625 28.3002 27.625 28.8223V32.7598C27.625 33.2819 27.8325 33.7827 28.2016 34.1519C28.5709 34.5211 29.0717 34.7285 29.5938 34.7285H33.5312C34.0533 34.7285 34.5541 34.5211 34.9234 34.1519C35.2925 33.7827 35.5 33.2819 35.5 32.7598V28.8223C35.5 28.3002 35.2925 27.7994 34.9234 27.4301C34.5541 27.061 34.0533 26.8535 33.5312 26.8535H32.5469V22.916H36.4844C36.7455 22.916 36.9959 22.8123 37.1804 22.6277C37.365 22.4431 37.4688 22.1927 37.4688 21.9316C37.4688 21.6705 37.365 21.4201 37.1804 21.2356C36.9959 21.051 36.7455 20.9473 36.4844 20.9473ZM21.7187 12.0879H25.6563V16.0254H21.7187V12.0879ZM17.7812 32.7598H13.8437V28.8223H17.7812V32.7598ZM33.5312 32.7598H29.5938V28.8223H33.5312V32.7598Z" fill="#343442"/>
</svg>
