<svg width="49" height="49" viewBox="0 0 49 49" fill="none" xmlns="http://www.w3.org/2000/svg">
<ellipse cx="26.076" cy="26.7138" rx="22.3729" ry="21.8978" fill="#D6BEBE"/>
<ellipse cx="22.826" cy="22.5093" rx="22.3729" ry="21.8978" fill="#D9D9D9"/>
<rect x="10.6875" y="8.50928" width="26" height="26" rx="2" fill="#343442"/>
<path d="M33.0966 27.6594C32.9375 28.848 32.3523 29.9385 31.4495 30.7278C30.5468 31.5172 29.388 31.9519 28.1887 31.951C24.4961 31.951 20.9547 30.484 18.3436 27.873C15.7325 25.262 14.2656 21.7205 14.2656 18.0279C14.2647 16.8287 14.6994 15.6699 15.4888 14.7671C16.2782 13.8644 17.3686 13.279 18.5572 13.12C18.7329 13.0991 18.9107 13.1357 19.0639 13.2243C19.217 13.3129 19.3374 13.4487 19.4069 13.6114L21.5701 18.4435C21.6233 18.5676 21.645 18.703 21.6331 18.8375C21.6213 18.9719 21.5765 19.1014 21.5026 19.2144L19.3148 21.8158C19.2372 21.9329 19.1913 22.0681 19.1816 22.2083C19.1719 22.3484 19.1988 22.4887 19.2595 22.6153C20.1062 24.3486 21.8977 26.1186 23.6361 26.9571C23.7634 27.0176 23.9043 27.0438 24.0449 27.0333C24.1854 27.0226 24.3209 26.9756 24.4377 26.8967L26.9971 24.7161C27.1105 24.6406 27.2409 24.5947 27.3767 24.5823C27.5123 24.57 27.6489 24.5917 27.7741 24.6454L32.6022 26.8086C32.7656 26.8778 32.9022 26.998 32.9914 27.1515C33.0806 27.3049 33.1175 27.4832 33.0966 27.6594Z" fill="#C4C4C4"/>
<path d="M32.9346 26.0602L28.1117 23.899L28.0984 23.8929C27.848 23.7858 27.5749 23.7428 27.3037 23.7679C27.0325 23.7929 26.7719 23.8851 26.5453 24.0362C26.5187 24.0538 26.493 24.073 26.4685 24.0935L23.9767 26.2178C22.3981 25.451 20.7683 23.8335 20.0015 22.2753L22.1288 19.7456C22.1493 19.72 22.1688 19.6944 22.1872 19.6668C22.335 19.4409 22.4248 19.1819 22.4483 18.9129C22.4719 18.6439 22.4286 18.3732 22.3223 18.125V18.1127L20.155 13.2816C20.0145 12.9574 19.7729 12.6872 19.4662 12.5116C19.1596 12.3359 18.8043 12.2642 18.4535 12.307C17.0663 12.4895 15.793 13.1708 14.8713 14.2236C13.9497 15.2763 13.4428 16.6286 13.4453 18.0278C13.4453 26.1564 20.0588 32.7699 28.1874 32.7699C29.5866 32.7723 30.9389 32.2655 31.9916 31.3439C33.0443 30.4222 33.7257 29.1488 33.9082 27.7617C33.9511 27.411 33.8795 27.0558 33.704 26.7492C33.5286 26.4425 33.2587 26.2008 32.9346 26.0602ZM28.1874 31.1319C24.7132 31.1281 21.3823 29.7462 18.9256 27.2896C16.469 24.8329 15.0871 21.502 15.0833 18.0278C15.0795 17.028 15.4397 16.0611 16.0966 15.3075C16.7535 14.554 17.6623 14.0653 18.6532 13.9327C18.6528 13.9368 18.6528 13.9409 18.6532 13.945L20.8031 18.7567L18.687 21.2895C18.6655 21.3141 18.646 21.3406 18.6286 21.3683C18.4745 21.6047 18.3842 21.8769 18.3662 22.1585C18.3483 22.4401 18.4034 22.7215 18.5262 22.9756C19.4538 24.8726 21.3651 26.7696 23.2826 27.6961C23.5385 27.8178 23.8216 27.871 24.1043 27.8505C24.3868 27.8301 24.6594 27.7367 24.895 27.5794C24.9213 27.5617 24.9466 27.5426 24.9708 27.5221L27.4595 25.3988L32.2712 27.5538H32.2825C32.1515 28.5462 31.6636 29.4567 30.9099 30.1153C30.1561 30.7739 29.1884 31.1352 28.1874 31.1319Z" fill="#343442"/>
</svg>
