<svg width="49" height="49" viewBox="0 0 49 49" fill="none" xmlns="http://www.w3.org/2000/svg">
<ellipse cx="25.7791" cy="26.368" rx="22.3729" ry="21.8978" fill="#D2E5FF"/>
<ellipse cx="22.5291" cy="22.1634" rx="22.3729" ry="21.8978" fill="#021E43"/>
<path d="M24.1541 13.0923V20.1686C24.1541 20.6017 24.3299 21.0171 24.6428 21.3233C24.9557 21.6296 25.3801 21.8016 25.8226 21.8016H33.0524V32.6883C33.0524 33.2658 32.8181 33.8196 32.4009 34.2279C31.9837 34.6363 31.4179 34.8657 30.8279 34.8657H17.4804C16.8904 34.8657 16.3246 34.6363 15.9074 34.2279C15.4902 33.8196 15.2558 33.2658 15.2558 32.6883V31.5997H19.0532L17.8063 32.8201C17.703 32.9211 17.621 33.0411 17.565 33.1732C17.5091 33.3053 17.4802 33.4469 17.4802 33.5899C17.4801 33.7329 17.5089 33.8745 17.5647 34.0066C17.6206 34.1388 17.7025 34.2588 17.8057 34.36C18.0143 34.5643 18.2972 34.6791 18.5923 34.6792C18.7384 34.6792 18.8831 34.6511 19.0181 34.5964C19.1531 34.5418 19.2757 34.4616 19.3791 34.3605L22.5257 31.2807C22.7343 31.0765 22.8514 30.7997 22.8514 30.511C22.8514 30.2223 22.7343 29.9455 22.5257 29.7413L19.3791 26.6625C19.2765 26.5586 19.1537 26.4756 19.018 26.4186C18.8823 26.3615 18.7364 26.3315 18.5887 26.3302C18.441 26.329 18.2945 26.3565 18.1578 26.4113C18.0211 26.466 17.897 26.5468 17.7925 26.649C17.6881 26.7513 17.6055 26.8728 17.5496 27.0066C17.4936 27.1404 17.4655 27.2838 17.4668 27.4283C17.4681 27.5729 17.4987 27.7157 17.557 27.8485C17.6153 27.9814 17.7001 28.1015 17.8063 28.2019L19.0532 29.4223H15.2558V15.2696C15.2558 14.6922 15.4902 14.1383 15.9074 13.73C16.3246 13.3217 16.8904 13.0923 17.4804 13.0923H24.1541ZM15.2558 29.4223V31.5997H14.1435C13.8485 31.5997 13.5656 31.485 13.357 31.2808C13.1484 31.0766 13.0312 30.7997 13.0312 30.511C13.0312 30.2223 13.1484 29.9453 13.357 29.7412C13.5656 29.537 13.8485 29.4223 14.1435 29.4223H15.2558ZM26.3787 13.1391C26.8001 13.2266 27.1865 13.4319 27.491 13.7302L32.4006 18.5356C32.7054 18.8336 32.9152 19.2118 33.0046 19.6243H26.3787V13.1391Z" fill="white"/>
</svg>
