<svg width="36" height="36" viewBox="0 0 36 36" fill="none" xmlns="http://www.w3.org/2000/svg">
<path d="M18 4.5C16.5082 4.5 15.0774 5.09263 14.0225 6.14752C12.9676 7.20242 12.375 8.63316 12.375 10.125V18C12.375 19.4918 12.9676 20.9226 14.0225 21.9775C15.0774 23.0324 16.5082 23.625 18 23.625C19.4918 23.625 20.9226 23.0324 21.9775 21.9775C23.0324 20.9226 23.625 19.4918 23.625 18V10.125C23.625 8.63316 23.0324 7.20242 21.9775 6.14752C20.9226 5.09263 19.4918 4.5 18 4.5ZM9 16.875C9.29837 16.875 9.58452 16.9935 9.7955 17.2045C10.0065 17.4155 10.125 17.7016 10.125 18C10.125 20.0886 10.9547 22.0916 12.4315 23.5685C13.9084 25.0453 15.9114 25.875 18 25.875C20.0886 25.875 22.0916 25.0453 23.5685 23.5685C25.0453 22.0916 25.875 20.0886 25.875 18C25.875 17.7016 25.9935 17.4155 26.2045 17.2045C26.4155 16.9935 26.7016 16.875 27 16.875C27.2984 16.875 27.5845 16.9935 27.7955 17.2045C28.0065 17.4155 28.125 17.7016 28.125 18C28.1255 20.4909 27.2078 22.8945 25.5474 24.7512C23.887 26.608 21.6004 27.7875 19.125 28.0642V30.375C19.125 30.6734 19.0065 30.9595 18.7955 31.1705C18.5845 31.3815 18.2984 31.5 18 31.5C17.7016 31.5 17.4155 31.3815 17.2045 31.1705C16.9935 30.9595 16.875 30.6734 16.875 30.375V28.0642C14.3996 27.7875 12.113 26.608 10.4526 24.7512C8.79223 22.8945 7.87452 20.4909 7.875 18C7.875 17.7016 7.99353 17.4155 8.20451 17.2045C8.41548 16.9935 8.70163 16.875 9 16.875Z" fill="#1871ED"/>
</svg>
