<svg width="49" height="49" viewBox="0 0 49 49" fill="none" xmlns="http://www.w3.org/2000/svg">
<ellipse cx="26.076" cy="26.9979" rx="22.3729" ry="21.8978" fill="#D6BEBE"/>
<ellipse cx="22.826" cy="22.7933" rx="22.3729" ry="21.8978" fill="#D9D9D9"/>
<path d="M27.4217 25.5174C27.4217 26.4258 27.1523 27.314 26.6476 28.0693C26.1429 28.8247 25.4255 29.4134 24.5862 29.761C23.7469 30.1087 22.8234 30.1996 21.9323 30.0223C21.0413 29.8452 20.2229 29.4077 19.5805 28.7653C18.9382 28.1229 18.5007 27.3045 18.3235 26.4136C18.1462 25.5225 18.2372 24.599 18.5848 23.7597C18.9325 22.9204 19.5212 22.2029 20.2766 21.6983C21.0319 21.1936 21.92 20.9242 22.8284 20.9242C24.0467 20.9242 25.215 21.4081 26.0763 22.2695C26.9378 23.1309 27.4217 24.2992 27.4217 25.5174ZM15.4793 15.4123C14.7525 15.4123 14.0421 15.6278 13.4378 16.0316C12.8335 16.4354 12.3625 17.0092 12.0844 17.6807C11.8063 18.3521 11.7335 19.091 11.8753 19.8038C12.0171 20.5165 12.367 21.1713 12.8809 21.6852C13.3949 22.1992 14.0496 22.549 14.7624 22.6909C15.4752 22.8327 16.214 22.7599 16.8855 22.4818C17.5569 22.2036 18.1308 21.7327 18.5346 21.1284C18.9383 20.5241 19.1539 19.8137 19.1539 19.0869C19.1539 18.1123 18.7667 17.1777 18.0776 16.4886C17.3885 15.7994 16.4538 15.4123 15.4793 15.4123ZM30.1776 15.4123C29.4509 15.4123 28.7404 15.6278 28.1362 16.0316C27.5318 16.4354 27.0609 17.0092 26.7828 17.6807C26.5046 18.3521 26.4318 19.091 26.5736 19.8038C26.7155 20.5165 27.0654 21.1713 27.5793 21.6852C28.0932 22.1992 28.748 22.549 29.4607 22.6909C30.1736 22.8327 30.9124 22.7599 31.5838 22.4818C32.2552 22.2036 32.8292 21.7327 33.2329 21.1284C33.6367 20.5241 33.8522 19.8137 33.8522 19.0869C33.8522 18.1123 33.4651 17.1777 32.7759 16.4886C32.0868 15.7994 31.1522 15.4123 30.1776 15.4123Z" fill="#343442"/>
<path d="M36.2391 26.252C36.1427 26.3243 36.0328 26.377 35.916 26.407C35.7991 26.437 35.6775 26.4435 35.5581 26.4265C35.4387 26.4094 35.3237 26.369 35.2199 26.3076C35.1161 26.2461 35.0254 26.1648 34.953 26.0683C34.3993 25.3241 33.6787 24.7202 32.849 24.3053C32.0192 23.8905 31.1037 23.6762 30.1761 23.6798C29.9324 23.6798 29.6988 23.583 29.5265 23.4107C29.3542 23.2385 29.2574 23.0048 29.2574 22.7611C29.2574 22.5175 29.3542 22.2839 29.5265 22.1115C29.6988 21.9393 29.9324 21.8425 30.1761 21.8425C30.6916 21.8425 31.1966 21.6979 31.634 21.4252C32.0714 21.1525 32.4236 20.7625 32.6505 20.2997C32.8774 19.8369 32.9699 19.3197 32.9176 18.8069C32.8653 18.2941 32.6702 17.8063 32.3545 17.3988C32.0389 16.9913 31.6153 16.6805 31.1318 16.5017C30.6484 16.323 30.1245 16.2833 29.6196 16.3873C29.1148 16.4914 28.6493 16.7349 28.2759 17.0902C27.9025 17.4456 27.6363 17.8985 27.5074 18.3976C27.4772 18.5145 27.4244 18.6242 27.3518 18.7207C27.2792 18.8171 27.1883 18.8983 27.0844 18.9596C26.9805 19.0209 26.8654 19.0612 26.7458 19.078C26.6263 19.0949 26.5047 19.088 26.3878 19.0579C26.2709 19.0277 26.1611 18.9748 26.0648 18.9022C25.9683 18.8296 25.8871 18.7388 25.8258 18.6348C25.7645 18.5308 25.7242 18.4158 25.7074 18.2963C25.6906 18.1768 25.6973 18.0551 25.7275 17.9383C25.9064 17.2462 26.2443 16.6054 26.7144 16.0669C27.1845 15.5284 27.7737 15.1071 28.4354 14.8364C29.0969 14.5657 29.8125 14.4532 30.5253 14.5077C31.2379 14.5623 31.9281 14.7824 32.5408 15.1506C33.1534 15.5189 33.6718 16.025 34.0544 16.6287C34.437 17.2325 34.6734 17.9173 34.7449 18.6285C34.8164 19.3397 34.7209 20.0578 34.4659 20.7256C34.211 21.3934 33.8037 21.9925 33.2765 22.4752C34.5256 23.0161 35.6116 23.8743 36.4263 24.9647C36.4987 25.0615 36.5513 25.1716 36.5811 25.2887C36.6109 25.4058 36.6172 25.5276 36.5998 25.6472C36.5824 25.7668 36.5416 25.8818 36.4797 25.9856C36.4178 26.0893 36.3361 26.1799 36.2391 26.252ZM30.0521 33.3256C30.1163 33.4302 30.1587 33.5465 30.1772 33.6678C30.1956 33.7892 30.1896 33.9128 30.1594 34.0318C30.1292 34.1506 30.0756 34.2624 30.0015 34.3601C29.9276 34.4579 29.8347 34.54 29.7285 34.6013C29.6223 34.6627 29.5048 34.7022 29.3831 34.7174C29.2613 34.7326 29.1378 34.7233 29.0197 34.69C28.9017 34.6568 28.7915 34.6002 28.6956 34.5236C28.5998 34.447 28.5202 34.352 28.4617 34.2442C27.8829 33.2646 27.0588 32.4527 26.0705 31.8888C25.0823 31.3249 23.9642 31.0283 22.8263 31.0283C21.6885 31.0283 20.5704 31.3249 19.5821 31.8888C18.5939 32.4527 17.7698 33.2646 17.191 34.2442C17.1336 34.354 17.0545 34.451 16.9587 34.5295C16.8627 34.6079 16.752 34.6662 16.633 34.7007C16.514 34.7352 16.3892 34.7453 16.2663 34.7304C16.1433 34.7154 16.0246 34.6758 15.9173 34.6138C15.81 34.5517 15.7164 34.4687 15.6421 34.3696C15.5678 34.2704 15.5142 34.1573 15.4848 34.0369C15.4553 33.9166 15.4505 33.7916 15.4706 33.6694C15.4907 33.5471 15.5353 33.4302 15.6018 33.3256C16.4924 31.7953 17.8504 30.5911 19.4762 29.8898C18.5613 29.1895 17.889 28.22 17.5537 27.1176C17.2183 26.0153 17.2368 24.8357 17.6066 23.7444C17.9764 22.6532 18.6788 21.7053 19.6152 21.034C20.5515 20.3626 21.6747 20.0015 22.8269 20.0015C23.9791 20.0015 25.1023 20.3626 26.0386 21.034C26.9751 21.7053 27.6775 22.6532 28.0472 23.7444C28.417 24.8357 28.4355 26.0153 28.1002 27.1176C27.7649 28.22 27.0925 29.1895 26.1777 29.8898C27.8034 30.5911 29.1614 31.7953 30.0521 33.3256ZM22.8269 29.1917C23.5537 29.1917 24.2641 28.9761 24.8684 28.5724C25.4727 28.1686 25.9437 27.5947 26.2218 26.9233C26.4999 26.2519 26.5727 25.5131 26.4309 24.8002C26.2892 24.0874 25.9392 23.4327 25.4253 22.9188C24.9113 22.4048 24.2566 22.0549 23.5438 21.9131C22.831 21.7713 22.0921 21.8441 21.4207 22.1222C20.7493 22.4003 20.1754 22.8714 19.7716 23.4756C19.3678 24.0799 19.1523 24.7903 19.1523 25.5171C19.1523 26.4916 19.5395 27.4263 20.2286 28.1155C20.9177 28.8046 21.8523 29.1917 22.8269 29.1917ZM16.3964 22.7611C16.3964 22.5175 16.2996 22.2839 16.1273 22.1115C15.9551 21.9393 15.7214 21.8425 15.4777 21.8425C14.9623 21.8425 14.4572 21.6979 14.0198 21.4252C13.5824 21.1525 13.2303 20.7625 13.0034 20.2997C12.7765 19.8369 12.684 19.3197 12.7363 18.8069C12.7886 18.2941 12.9836 17.8063 13.2993 17.3988C13.615 16.9913 14.0386 16.6805 14.522 16.5017C15.0055 16.323 15.5293 16.2833 16.0342 16.3873C16.539 16.4914 17.0046 16.7349 17.378 17.0902C17.7513 17.4456 18.0176 17.8985 18.1464 18.3976C18.2073 18.6336 18.3595 18.8358 18.5695 18.9596C18.7794 19.0834 19.03 19.1188 19.266 19.0579C19.502 18.9969 19.7042 18.8448 19.828 18.6348C19.9519 18.4248 19.9873 18.1743 19.9263 17.9383C19.7475 17.2462 19.4095 16.6054 18.9394 16.0669C18.4694 15.5284 17.8801 15.1071 17.2185 14.8364C16.557 14.5657 15.8413 14.4532 15.1286 14.5077C14.4159 14.5623 13.7257 14.7824 13.1131 15.1506C12.5004 15.5189 11.9821 16.025 11.5995 16.6287C11.2168 17.2325 10.9804 17.9173 10.9089 18.6285C10.8375 19.3397 10.933 20.0578 11.1879 20.7256C11.4429 21.3934 11.8501 21.9925 12.3773 22.4752C11.1294 23.0166 10.0448 23.8748 9.23095 24.9647C9.08461 25.1597 9.02171 25.4048 9.05605 25.646C9.09039 25.8873 9.2192 26.1051 9.4141 26.2514C9.60902 26.3978 9.85408 26.4606 10.0954 26.4263C10.3367 26.392 10.5544 26.2633 10.7008 26.0683C11.2545 25.3241 11.9752 24.7202 12.8049 24.3053C13.6346 23.8905 14.5501 23.6762 15.4777 23.6798C15.7214 23.6798 15.9551 23.583 16.1273 23.4107C16.2996 23.2385 16.3964 23.0048 16.3964 22.7611Z" fill="#343442"/>
</svg>
