<svg width="49" height="48" viewBox="0 0 49 48" fill="none" xmlns="http://www.w3.org/2000/svg">
<ellipse cx="26.4823" cy="26.1029" rx="22.3729" ry="21.8978" fill="#D2E5FF"/>
<ellipse cx="23.2323" cy="21.8978" rx="22.3729" ry="21.8978" fill="#3483EB"/>
<path d="M24.6297 10.2852H16.1229C14.8178 10.2852 13.75 11.3303 13.75 12.6076V31.1876C13.75 32.465 14.8178 33.5101 16.1229 33.5101H30.3602C31.6653 33.5101 32.733 32.465 32.733 31.1876V18.2165C32.733 17.601 32.4839 17.0088 32.033 16.5791L26.3025 10.9703C25.8636 10.529 25.2585 10.2852 24.6297 10.2852ZM23.2415 19.5751C24.5466 19.5751 25.6144 20.6202 25.6144 21.8976C25.6144 23.175 24.5466 24.2201 23.2415 24.2201C21.9364 24.2201 20.8686 23.175 20.8686 21.8976C20.8686 20.6202 21.9364 19.5751 23.2415 19.5751ZM27.9873 28.8651H18.4958V28.2032C18.4958 27.2626 19.0653 26.4265 19.9432 26.0549C20.9836 25.6105 22.1064 25.3811 23.2415 25.3811C24.3766 25.3811 25.4995 25.6105 26.5398 26.0549C26.9697 26.2347 27.336 26.5342 27.5934 26.9162C27.8507 27.2981 27.9877 27.7457 27.9873 28.2032V28.8651Z" fill="white"/>
</svg>
