<svg width="36" height="36" viewBox="0 0 36 36" fill="none" xmlns="http://www.w3.org/2000/svg">
<path d="M23.5172 12.4873V23.5123H12.4922V12.4873H23.5172Z" fill="#C4C4C4"/>
<path d="M33.1656 22.1343H24.8969V13.8655H33.1656C33.5312 13.8655 33.8817 13.7203 34.1401 13.4619C34.3985 13.2035 34.5438 12.8529 34.5438 12.4874C34.5438 12.1219 34.3985 11.7714 34.1401 11.5129C33.8817 11.2545 33.5312 11.1093 33.1656 11.1093H24.8969V2.84052C24.8969 2.47503 24.7517 2.12448 24.4933 1.86604C24.2349 1.60761 23.8843 1.4624 23.5187 1.4624C23.1532 1.4624 22.8026 1.60761 22.5442 1.86603C22.2858 2.12448 22.1406 2.47503 22.1406 2.84052V11.1093H13.8719V2.84052C13.8719 2.47503 13.7267 2.12448 13.4683 1.86604C13.2099 1.60761 12.8592 1.4624 12.4938 1.4624C12.1283 1.4624 11.7777 1.60761 11.5193 1.86603C11.2608 2.12448 11.1156 2.47503 11.1156 2.84052V11.1093H2.84687C2.48138 11.1093 2.13083 11.2545 1.87239 11.5129C1.61395 11.7714 1.46875 12.1219 1.46875 12.4874C1.46875 12.8529 1.61395 13.2035 1.87238 13.4619C2.13083 13.7203 2.48138 13.8655 2.84687 13.8655H11.1156V22.1343H2.84687C2.48138 22.1343 2.13083 22.2795 1.87239 22.5379C1.61395 22.7963 1.46875 23.1469 1.46875 23.5124C1.46875 23.8779 1.61395 24.2285 1.87238 24.4869C2.13083 24.7453 2.48138 24.8905 2.84687 24.8905H11.1156V33.1593C11.1156 33.5248 11.2608 33.8754 11.5193 34.1338C11.7777 34.3922 12.1283 34.5374 12.4938 34.5374C12.8593 34.5374 13.2099 34.3922 13.4683 34.1338C13.7267 33.8754 13.8719 33.5248 13.8719 33.1593V24.8905H22.1406V33.1593C22.1406 33.5248 22.2858 33.8754 22.5442 34.1338C22.8026 34.3922 23.1532 34.5374 23.5187 34.5374C23.8843 34.5374 24.2349 34.3922 24.4933 34.1338C24.7517 33.8754 24.8969 33.5248 24.8969 33.1593V24.8905H33.1656C33.5312 24.8905 33.8817 24.7453 34.1401 24.4869C34.3985 24.2285 34.5438 23.878 34.5438 23.5124C34.5438 23.1468 34.3985 22.7963 34.1401 22.5379C33.8817 22.2795 33.5312 22.1343 33.1656 22.1343ZM13.8719 22.1343V13.8655H22.1406V22.1343H13.8719Z" fill="#343442"/>
</svg>
