<svg width="49" height="49" viewBox="0 0 49 49" fill="none" xmlns="http://www.w3.org/2000/svg">
<ellipse cx="25.6385" cy="26.3685" rx="22.3729" ry="21.8978" fill="#D2E5FF"/>
<ellipse cx="22.3885" cy="22.1634" rx="22.3729" ry="21.8978" fill="#1871ED"/>
<path d="M24.0135 13.0918V20.1681C24.0135 20.6012 24.1893 21.0166 24.5022 21.3229C24.8151 21.6291 25.2394 21.8011 25.6819 21.8011H32.9118V32.6878C32.9118 33.2653 32.6774 33.8191 32.2602 34.2274C31.8431 34.6358 31.2772 34.8652 30.6872 34.8652H17.3398C16.7498 34.8652 16.184 34.6358 15.7668 34.2274C15.3496 33.8191 15.1152 33.2653 15.1152 32.6878V31.5992H18.9126L17.6657 32.8196C17.5623 32.9206 17.4803 33.0407 17.4244 33.1727C17.3684 33.3048 17.3396 33.4464 17.3396 33.5894C17.3395 33.7324 17.3682 33.874 17.4241 34.0061C17.4799 34.1383 17.5619 34.2583 17.6651 34.3595C17.8737 34.5638 18.1566 34.6786 18.4517 34.6787C18.5978 34.6787 18.7424 34.6506 18.8774 34.596C19.0124 34.5413 19.1351 34.4611 19.2385 34.36L22.3851 31.2802C22.5936 31.076 22.7108 30.7992 22.7108 30.5105C22.7108 30.2218 22.5936 29.945 22.3851 29.7408L19.2385 26.6621C19.1358 26.5581 19.0131 26.4751 18.8774 26.4181C18.7417 26.361 18.5958 26.331 18.4481 26.3297C18.3004 26.3285 18.1539 26.356 18.0172 26.4108C17.8805 26.4655 17.7563 26.5463 17.6519 26.6486C17.5475 26.7508 17.4649 26.8723 17.4089 27.0061C17.353 27.1399 17.3249 27.2833 17.3262 27.4278C17.3274 27.5724 17.3581 27.7152 17.4164 27.8481C17.4747 27.9809 17.5594 28.101 17.6657 28.2014L18.9126 29.4218H15.1152V15.2691C15.1152 14.6917 15.3496 14.1379 15.7668 13.7295C16.184 13.3212 16.7498 13.0918 17.3398 13.0918H24.0135ZM15.1152 29.4218V31.5992H14.0029C13.7079 31.5992 13.425 31.4845 13.2164 31.2803C13.0078 31.0761 12.8906 30.7992 12.8906 30.5105C12.8906 30.2218 13.0078 29.9449 13.2164 29.7407C13.425 29.5365 13.7079 29.4218 14.0029 29.4218H15.1152ZM26.2381 13.1386C26.6595 13.2261 27.0459 13.4315 27.3504 13.7298L32.26 18.5351C32.5648 18.8331 32.7746 19.2113 32.864 19.6238H26.2381V13.1386Z" fill="white"/>
</svg>
