<svg width="45" height="48" viewBox="0 0 45 48" fill="none" xmlns="http://www.w3.org/2000/svg">
<ellipse cx="24.0149" cy="26.1009" rx="20.9524" ry="21.8978" fill="#D2E5FF"/>
<ellipse cx="20.968" cy="21.8978" rx="20.9524" ry="21.8978" fill="#1871ED"/>
<path d="M12.0859 13.2609C12.0859 12.9529 12.203 12.6575 12.4114 12.4397C12.6197 12.222 12.9024 12.0996 13.1971 12.0996H24.3082L29.8638 17.9058V34.1633C29.8638 34.4713 29.7467 34.7667 29.5383 34.9844C29.3299 35.2022 29.0473 35.3245 28.7526 35.3245H13.1971C12.9024 35.3245 12.6197 35.2022 12.4114 34.9844C12.203 34.7667 12.0859 34.4713 12.0859 34.1633V13.2609Z" stroke="white" stroke-width="2" stroke-linejoin="round"/>
<path d="M16.5312 21.3887H25.4202M16.5312 26.0337H25.4202" stroke="white" stroke-width="2" stroke-linecap="round" stroke-linejoin="round"/>
</svg>
