<svg width="48" height="49" viewBox="0 0 48 49" fill="none" xmlns="http://www.w3.org/2000/svg">
<ellipse cx="25.6229" cy="26.6424" rx="22.3729" ry="21.8978" fill="#D2E5FF"/>
<ellipse cx="22.3729" cy="22.4378" rx="22.3729" ry="21.8978" fill="#021E43"/>
<path d="M31.1947 10.2004H15.1777C14.5877 10.2004 14.0219 10.4426 13.6047 10.8737C13.1875 11.3048 12.9531 11.8894 12.9531 12.499V32.7268C12.9531 33.3364 13.1875 33.9211 13.6047 34.3522C14.0219 34.7832 14.5877 35.0254 15.1777 35.0254H31.1947C31.7846 35.0254 32.3505 34.7832 32.7677 34.3522C33.1849 33.9211 33.4192 33.3364 33.4192 32.7268V12.499C33.4192 11.8894 33.1849 11.3048 32.7677 10.8737C32.3505 10.4426 31.7846 10.2004 31.1947 10.2004ZM30.7497 32.2671H15.6226V12.9588H30.7497V32.2671ZM17.8472 16.6365C17.8472 16.2708 17.9878 15.92 18.2381 15.6613C18.4884 15.4027 18.8279 15.2574 19.1819 15.2574H27.1904C27.5444 15.2574 27.8839 15.4027 28.1342 15.6613C28.3845 15.92 28.5252 16.2708 28.5252 16.6365C28.5252 17.0023 28.3845 17.3531 28.1342 17.6118C27.8839 17.8704 27.5444 18.0157 27.1904 18.0157H19.1819C18.8279 18.0157 18.4884 17.8704 18.2381 17.6118C17.9878 17.3531 17.8472 17.0023 17.8472 16.6365ZM22.2963 22.6129C22.2963 22.9766 22.192 23.3321 21.9964 23.6346C21.8009 23.937 21.5229 24.1726 21.1977 24.3118C20.8725 24.451 20.5147 24.4874 20.1695 24.4165C19.8243 24.3455 19.5072 24.1704 19.2583 23.9132C19.0094 23.656 18.8399 23.3284 18.7712 22.9717C18.7026 22.615 18.7378 22.2452 18.8725 21.9092C19.0072 21.5732 19.2353 21.286 19.528 21.0839C19.8206 20.8819 20.1647 20.774 20.5167 20.774C20.9887 20.774 21.4413 20.9678 21.7751 21.3126C22.1088 21.6575 22.2963 22.1252 22.2963 22.6129ZM27.6353 22.6129C27.6353 22.9766 27.531 23.3321 27.3354 23.6346C27.1399 23.937 26.8619 24.1726 26.5367 24.3118C26.2115 24.451 25.8537 24.4874 25.5085 24.4165C25.1633 24.3455 24.8461 24.1704 24.5973 23.9132C24.3484 23.656 24.1789 23.3284 24.1102 22.9717C24.0415 22.615 24.0768 22.2452 24.2115 21.9092C24.3462 21.5732 24.5743 21.286 24.8669 21.0839C25.1596 20.8819 25.5037 20.774 25.8557 20.774C26.3277 20.774 26.7803 20.9678 27.1141 21.3126C27.4478 21.6575 27.6353 22.1252 27.6353 22.6129ZM22.2963 28.1296C22.2963 28.4933 22.192 28.8488 21.9964 29.1512C21.8009 29.4536 21.5229 29.6893 21.1977 29.8285C20.8725 29.9677 20.5147 30.0041 20.1695 29.9331C19.8243 29.8622 19.5072 29.687 19.2583 29.4299C19.0094 29.1727 18.8399 28.845 18.7712 28.4883C18.7026 28.1316 18.7378 27.7619 18.8725 27.4259C19.0072 27.0899 19.2353 26.8027 19.528 26.6006C19.8206 26.3985 20.1647 26.2907 20.5167 26.2907C20.9887 26.2907 21.4413 26.4844 21.7751 26.8293C22.1088 27.1741 22.2963 27.6419 22.2963 28.1296ZM27.6353 28.1296C27.6353 28.4933 27.531 28.8488 27.3354 29.1512C27.1399 29.4536 26.8619 29.6893 26.5367 29.8285C26.2115 29.9677 25.8537 30.0041 25.5085 29.9331C25.1633 29.8622 24.8461 29.687 24.5973 29.4299C24.3484 29.1727 24.1789 28.845 24.1102 28.4883C24.0415 28.1316 24.0768 27.7619 24.2115 27.4259C24.3462 27.0899 24.5743 26.8027 24.8669 26.6006C25.1596 26.3985 25.5037 26.2907 25.8557 26.2907C26.3277 26.2907 26.7803 26.4844 27.1141 26.8293C27.4478 27.1741 27.6353 27.6419 27.6353 28.1296Z" fill="white"/>
</svg>
