<svg width="48" height="49" viewBox="0 0 48 49" fill="none" xmlns="http://www.w3.org/2000/svg">
<ellipse cx="25.6229" cy="26.3724" rx="22.3729" ry="21.8978" fill="#D2E5FF"/>
<ellipse cx="22.3729" cy="22.1678" rx="22.3729" ry="21.8978" fill="#021E43"/>
<g clip-path="url(#clip0_326_3)">
<path d="M22.3006 8.63086C23.5241 8.63086 24.7013 8.78509 25.8321 9.09354C26.9629 9.402 28.0289 9.842 29.0299 10.4136C30.031 10.9851 30.9301 11.6655 31.7272 12.4548C32.5244 13.2441 33.2195 14.1286 33.8128 15.1084C34.406 16.0882 34.8555 17.127 35.1614 18.2248C35.4673 19.3225 35.6295 20.4792 35.648 21.6949C35.648 22.8924 35.4905 24.0446 35.1753 25.1514C34.8602 26.2582 34.4106 27.3015 33.8267 28.2813C33.2427 29.2611 32.5475 30.1411 31.7411 30.9214C30.9347 31.7016 30.031 32.382 29.0299 32.9626C28.0289 33.5432 26.9676 33.9832 25.846 34.2826C24.7244 34.582 23.5426 34.7408 22.3006 34.7589C21.0771 34.7589 19.8999 34.6047 18.7691 34.2962C17.6382 33.9878 16.5723 33.5478 15.5712 32.9762C14.5702 32.4047 13.6711 31.7243 12.8739 30.935C12.0768 30.1457 11.3816 29.2611 10.7884 28.2813C10.1952 27.3015 9.74563 26.2628 9.43975 25.165C9.13387 24.0673 8.97166 22.9106 8.95312 21.6949C8.95312 20.4974 9.1107 19.3452 9.42585 18.2384C9.741 17.1315 10.1905 16.0882 10.7745 15.1084C11.3584 14.1286 12.0536 13.2486 12.86 12.4684C13.6664 11.6882 14.5702 11.0078 15.5712 10.4272C16.5723 9.84654 17.6336 9.40654 18.7552 9.10715C19.8767 8.80777 21.0585 8.649 22.3006 8.63086ZM22.3006 33.017C23.3665 33.017 24.3908 32.881 25.3733 32.6088C26.3558 32.3366 27.2734 31.9556 28.1262 31.4657C28.9789 30.9758 29.7622 30.3861 30.4759 29.6966C31.1896 29.0071 31.7921 28.245 32.2834 27.4104C32.7746 26.5758 33.1639 25.6731 33.4513 24.7023C33.7386 23.7316 33.8776 22.7291 33.8684 21.6949C33.8684 20.6516 33.7293 19.6491 33.4513 18.6874C33.1732 17.7258 32.7839 16.8276 32.2834 15.993C31.7828 15.1583 31.1803 14.3917 30.4759 13.6932C29.7715 12.9946 28.9928 12.4049 28.1401 11.9241C27.2873 11.4433 26.3651 11.0622 25.3733 10.781C24.3815 10.4997 23.3573 10.3637 22.3006 10.3727C21.2346 10.3727 20.2104 10.5088 19.2279 10.781C18.2454 11.0531 17.3277 11.4342 16.475 11.9241C15.6222 12.414 14.839 13.0037 14.1253 13.6932C13.4115 14.3827 12.8091 15.1447 12.3178 15.9794C11.8265 16.814 11.4372 17.7167 11.1499 18.6874C10.8626 19.6582 10.7235 20.6607 10.7328 21.6949C10.7328 22.7382 10.8718 23.7407 11.1499 24.7023C11.428 25.664 11.8173 26.5621 12.3178 27.3968C12.8183 28.2314 13.4208 28.998 14.1253 29.6966C14.8297 30.3952 15.6083 30.9849 16.4611 31.4657C17.3138 31.9465 18.2361 32.3276 19.2279 32.6088C20.2197 32.89 21.2439 33.0261 22.3006 33.017ZM24.692 20.5518C24.8774 20.9147 24.9701 21.2957 24.9701 21.6949C24.9701 22.0578 24.9006 22.398 24.7615 22.7155C24.6225 23.033 24.4325 23.3097 24.1915 23.5456C23.9505 23.7815 23.6678 23.9675 23.3434 24.1036C23.0189 24.2397 22.6713 24.3077 22.3006 24.3077C21.9298 24.3077 21.5822 24.2397 21.2578 24.1036C20.9334 23.9675 20.6507 23.7815 20.4097 23.5456C20.1687 23.3097 19.9787 23.033 19.8396 22.7155C19.7006 22.398 19.6311 22.0578 19.6311 21.6949C19.6311 21.332 19.7006 20.9918 19.8396 20.6743C19.9787 20.3567 20.1687 20.08 20.4097 19.8442C20.6507 19.6083 20.9334 19.4223 21.2578 19.2862C21.5822 19.1501 21.9298 19.0821 22.3006 19.0821C22.7084 19.0821 23.0977 19.1728 23.4685 19.3542L23.4546 19.3406L28.5711 14.3328L29.8224 15.5575L24.7059 20.5654L24.692 20.5518ZM22.3006 22.5658C22.5416 22.5658 22.7501 22.4796 22.9262 22.3073C23.1024 22.1349 23.1904 21.9308 23.1904 21.6949C23.1904 21.459 23.1024 21.2549 22.9262 21.0825C22.7501 20.9101 22.5416 20.824 22.3006 20.824C22.0596 20.824 21.851 20.9101 21.6749 21.0825C21.4988 21.2549 21.4108 21.459 21.4108 21.6949C21.4108 21.9308 21.4988 22.1349 21.6749 22.3073C21.851 22.4796 22.0596 22.5658 22.3006 22.5658ZM31.1989 17.7757C31.4862 18.3926 31.6994 19.0276 31.8385 19.6809C31.9775 20.3341 32.0516 21.0054 32.0609 21.6949C32.0609 22.965 31.8199 24.1852 31.3379 25.3555C30.8559 26.5259 30.1515 27.5646 29.2246 28.4719L27.9593 27.2335C28.7101 26.4986 29.2895 25.6595 29.6973 24.7159C30.1051 23.7724 30.3091 22.779 30.3091 21.7357C30.3091 20.6108 30.0681 19.5266 29.5861 18.4833L31.1989 17.7757ZM25.5818 14.5641C24.5159 14.0923 23.4082 13.8565 22.2589 13.8565C21.5266 13.8565 20.8222 13.9472 20.1455 14.1286C19.4689 14.3101 18.834 14.5777 18.2407 14.9315C17.6475 15.2853 17.1099 15.6936 16.6279 16.1563C16.1459 16.619 15.7334 17.1497 15.3905 17.7485C15.0475 18.3472 14.7787 18.9687 14.5841 19.6128C14.3894 20.2569 14.2921 20.951 14.2921 21.6949C14.2921 22.7382 14.496 23.7361 14.9039 24.6887C15.3117 25.6413 15.891 26.4896 16.6418 27.2335L15.3766 28.4719C14.4497 27.5646 13.7406 26.5304 13.2493 25.3691C12.7581 24.2079 12.5124 22.9831 12.5124 21.6949C12.5124 20.8149 12.6283 19.9666 12.86 19.1501C13.0918 18.3336 13.4208 17.5716 13.8472 16.8639C14.2736 16.1563 14.7834 15.5122 15.3766 14.9315C15.9698 14.3509 16.6279 13.8565 17.3509 13.4482C18.0739 13.04 18.8525 12.7179 19.6867 12.482C20.5209 12.2461 21.3922 12.1327 22.3006 12.1418C22.9958 12.1418 23.677 12.2099 24.3444 12.3459C25.0118 12.482 25.6653 12.6952 26.3048 12.9855L25.5818 14.5641Z" fill="white"/>
</g>
<defs>
<clipPath id="clip0_326_3">
<rect width="28.4746" height="27.8699" fill="white" transform="translate(8.95312 8.63086)"/>
</clipPath>
</defs>
</svg>
