<svg width="46" height="49" viewBox="0 0 46 49" fill="none" xmlns="http://www.w3.org/2000/svg">
<ellipse cx="24.4524" cy="26.4476" rx="20.9524" ry="21.8978" fill="#D6BEBE"/>
<ellipse cx="21.4055" cy="22.2435" rx="20.9524" ry="21.8978" fill="#D9D9D9"/>
<path d="M30.9219 16.3369V20.2744H22.0625V9.44629H24.0313C25.8587 9.44629 27.6114 10.1723 28.9037 11.4645C30.1959 12.7568 30.9219 14.5094 30.9219 16.3369Z" fill="#C4C4C4"/>
<path d="M24.0312 8.46191H20.0937C18.0059 8.46419 16.0042 9.29461 14.5278 10.771C13.0514 12.2473 12.221 14.249 12.2188 16.3369V28.1494C12.221 30.2373 13.0514 32.239 14.5278 33.7153C16.0042 35.1918 18.0059 36.0221 20.0937 36.0244H24.0312C26.1191 36.0221 28.1208 35.1918 29.5972 33.7153C31.0736 32.239 31.9039 30.2373 31.9062 28.1494V16.3369C31.9039 14.249 31.0736 12.2473 29.5972 10.771C28.1208 9.29461 26.1191 8.46419 24.0312 8.46191ZM29.9375 16.3369V19.29H23.0469V10.4307H24.0312C25.5971 10.4323 27.0986 11.0551 28.2059 12.1624C29.313 13.2697 29.9359 14.771 29.9375 16.3369ZM20.0937 10.4307H21.0781V19.29H14.1875V16.3369C14.1891 14.771 14.8119 13.2697 15.9192 12.1624C17.0265 11.0551 18.5278 10.4323 20.0937 10.4307ZM24.0312 34.0557H20.0937C18.5278 34.0541 17.0265 33.4312 15.9192 32.324C14.8119 31.2167 14.1891 29.7153 14.1875 28.1494V21.2588H29.9375V28.1494C29.9359 29.7153 29.313 31.2167 28.2059 32.324C27.0986 33.4312 25.5971 34.0541 24.0312 34.0557Z" fill="#343442"/>
</svg>
