<svg width="46" height="49" viewBox="0 0 46 49" fill="none" xmlns="http://www.w3.org/2000/svg">
<ellipse cx="24.4524" cy="26.4486" rx="20.9524" ry="21.8978" fill="#1871ED"/>
<ellipse cx="21.4055" cy="22.2435" rx="20.9524" ry="21.8978" fill="#D9D9D9"/>
<path d="M30.9219 16.3359V20.2734H22.0625V9.44531H24.0313C25.8587 9.44531 27.6114 10.1713 28.9037 11.4635C30.1959 12.7558 30.9219 14.5084 30.9219 16.3359Z" fill="#C4C4C4"/>
<path d="M24.0312 8.46094H20.0937C18.0059 8.46321 16.0042 9.29364 14.5278 10.77C13.0514 12.2463 12.221 14.2481 12.2188 16.3359V28.1484C12.221 30.2363 13.0514 32.238 14.5278 33.7143C16.0042 35.1908 18.0059 36.0211 20.0937 36.0234H24.0312C26.1191 36.0211 28.1208 35.1908 29.5972 33.7143C31.0736 32.238 31.9039 30.2363 31.9062 28.1484V16.3359C31.9039 14.2481 31.0736 12.2463 29.5972 10.77C28.1208 9.29364 26.1191 8.46321 24.0312 8.46094ZM29.9375 16.3359V19.2891H23.0469V10.4297H24.0312C25.5971 10.4313 27.0986 11.0541 28.2059 12.1614C29.313 13.2687 29.9359 14.77 29.9375 16.3359ZM20.0937 10.4297H21.0781V19.2891H14.1875V16.3359C14.1891 14.77 14.8119 13.2687 15.9192 12.1614C17.0265 11.0541 18.5278 10.4313 20.0937 10.4297ZM24.0312 34.0547H20.0937C18.5278 34.0531 17.0265 33.4302 15.9192 32.323C14.8119 31.2158 14.1891 29.7143 14.1875 28.1484V21.2578H29.9375V28.1484C29.9359 29.7143 29.313 31.2158 28.2059 32.323C27.0986 33.4302 25.5971 34.0531 24.0312 34.0547Z" fill="#1871ED"/>
</svg>
