<svg width="49" height="49" viewBox="0 0 49 49" fill="none" xmlns="http://www.w3.org/2000/svg">
<ellipse cx="26.076" cy="26.7142" rx="22.3729" ry="21.8978" fill="#1871ED"/>
<ellipse cx="22.826" cy="22.5091" rx="22.3729" ry="21.8978" fill="#D9D9D9"/>
<rect x="10.6875" y="8.50977" width="26" height="26" rx="2" fill="#1871ED"/>
<path d="M33.0966 27.6623C32.9375 28.8509 32.3523 29.9414 31.4495 30.7307C30.5468 31.5201 29.388 31.9548 28.1887 31.9539C24.4961 31.9539 20.9547 30.487 18.3436 27.876C15.7325 25.2649 14.2656 21.7234 14.2656 18.0308C14.2647 16.8316 14.6994 15.6728 15.4888 14.7701C16.2782 13.8673 17.3686 13.282 18.5572 13.1229C18.7329 13.102 18.9107 13.1386 19.0639 13.2272C19.217 13.3158 19.3374 13.4516 19.4069 13.6143L21.5701 18.4464C21.6233 18.5706 21.645 18.7059 21.6331 18.8404C21.6213 18.9749 21.5765 19.1044 21.5026 19.2173L19.3148 21.8187C19.2372 21.9358 19.1913 22.0711 19.1816 22.2112C19.1719 22.3514 19.1988 22.4916 19.2595 22.6183C20.1062 24.3515 21.8977 26.1216 23.6361 26.96C23.7634 27.0205 23.9043 27.0467 24.0449 27.0362C24.1854 27.0255 24.3209 26.9786 24.4377 26.8996L26.9971 24.719C27.1105 24.6436 27.2409 24.5976 27.3767 24.5852C27.5123 24.5729 27.6489 24.5946 27.7741 24.6484L32.6022 26.8116C32.7656 26.8807 32.9022 27.001 32.9914 27.1544C33.0806 27.3078 33.1175 27.4861 33.0966 27.6623Z" fill="#C4C4C4"/>
<path d="M32.9346 26.0621L28.1117 23.901L28.0984 23.8948C27.848 23.7877 27.5749 23.7448 27.3037 23.7698C27.0325 23.7948 26.7719 23.887 26.5453 24.0382C26.5187 24.0558 26.493 24.0749 26.4685 24.0955L23.9767 26.2198C22.3981 25.453 20.7683 23.8355 20.0015 22.2773L22.1288 19.7476C22.1493 19.722 22.1688 19.6964 22.1872 19.6688C22.335 19.4428 22.4248 19.1838 22.4483 18.9148C22.4719 18.6458 22.4286 18.3752 22.3223 18.127V18.1147L20.155 13.2836C20.0145 12.9593 19.7729 12.6892 19.4662 12.5135C19.1596 12.3379 18.8043 12.2661 18.4535 12.309C17.0663 12.4915 15.793 13.1728 14.8713 14.2255C13.9497 15.2783 13.4428 16.6305 13.4453 18.0297C13.4453 26.1584 20.0588 32.7718 28.1874 32.7718C29.5866 32.7743 30.9389 32.2674 31.9916 31.3458C33.0443 30.4242 33.7257 29.1508 33.9082 27.7636C33.9511 27.413 33.8795 27.0577 33.704 26.7511C33.5286 26.4445 33.2587 26.2028 32.9346 26.0621ZM28.1874 31.1338C24.7132 31.13 21.3823 29.7482 18.9256 27.2916C16.469 24.8348 15.0871 21.504 15.0833 18.0297C15.0795 17.03 15.4397 16.0631 16.0966 15.3095C16.7535 14.5559 17.6623 14.0672 18.6532 13.9347C18.6528 13.9388 18.6528 13.9429 18.6532 13.947L20.8031 18.7586L18.687 21.2914C18.6655 21.3161 18.646 21.3425 18.6286 21.3702C18.4745 21.6066 18.3842 21.8788 18.3662 22.1605C18.3483 22.442 18.4034 22.7234 18.5262 22.9775C19.4538 24.8746 21.3651 26.7716 23.2826 27.6981C23.5385 27.8197 23.8216 27.8729 24.1043 27.8525C24.3868 27.8321 24.6594 27.7386 24.895 27.5814C24.9213 27.5637 24.9466 27.5445 24.9708 27.5241L27.4595 25.4008L32.2712 27.5558H32.2825C32.1515 28.5481 31.6636 29.4586 30.9099 30.1172C30.1561 30.7758 29.1884 31.1372 28.1874 31.1338Z" fill="#1871ED"/>
</svg>
