<svg width="49" height="49" viewBox="0 0 49 49" fill="none" xmlns="http://www.w3.org/2000/svg">
<ellipse cx="25.9198" cy="26.9896" rx="22.3729" ry="21.8978" fill="#1871ED"/>
<ellipse cx="22.6698" cy="22.7845" rx="22.3729" ry="21.8978" fill="#D9D9D9"/>
<path d="M21.9062 11.5352C20.663 11.5352 19.4708 12.029 18.5917 12.9081C17.7126 13.7872 17.2188 14.9795 17.2188 16.2227V22.7852C17.2188 24.0284 17.7126 25.2206 18.5917 26.0997C19.4708 26.9788 20.663 27.4727 21.9062 27.4727C23.1495 27.4727 24.3417 26.9788 25.2208 26.0997C26.0999 25.2206 26.5938 24.0284 26.5938 22.7852V16.2227C26.5938 14.9795 26.0999 13.7872 25.2208 12.9081C24.3417 12.029 23.1495 11.5352 21.9062 11.5352ZM14.4063 21.8477C14.6549 21.8477 14.8933 21.9464 15.0692 22.1222C15.245 22.2981 15.3438 22.5365 15.3438 22.7852C15.3438 24.5256 16.0352 26.1948 17.2659 27.4255C18.4966 28.6563 20.1658 29.3477 21.9062 29.3477C23.6467 29.3477 25.3159 28.6563 26.5466 27.4255C27.7773 26.1948 28.4688 24.5256 28.4688 22.7852C28.4688 22.5365 28.5675 22.2981 28.7433 22.1222C28.9192 21.9464 29.1576 21.8477 29.4062 21.8477C29.6549 21.8477 29.8933 21.9464 30.0692 22.1222C30.245 22.2981 30.3438 22.5365 30.3438 22.7852C30.3441 24.8609 29.5794 26.8639 28.1957 28.4112C26.8121 29.9585 24.9066 30.9414 22.8438 31.172V33.0977C22.8438 33.3463 22.745 33.5848 22.5692 33.7606C22.3933 33.9364 22.1549 34.0352 21.9062 34.0352C21.6576 34.0352 21.4192 33.9364 21.2433 33.7606C21.0675 33.5848 20.9688 33.3463 20.9688 33.0977V31.172C18.9059 30.9414 17.0004 29.9585 15.6168 28.4112C14.2331 26.8639 13.4684 24.8609 13.4688 22.7852C13.4688 22.5365 13.5675 22.2981 13.7433 22.1222C13.9192 21.9464 14.1576 21.8477 14.4063 21.8477Z" fill="#1871ED"/>
</svg>
