<svg width="49" height="49" viewBox="0 0 49 49" fill="none" xmlns="http://www.w3.org/2000/svg">
<ellipse cx="25.9198" cy="26.4486" rx="22.3729" ry="21.8978" fill="#1871ED"/>
<ellipse cx="22.6698" cy="22.2435" rx="22.3729" ry="21.8978" fill="#D9D9D9"/>
<path fill-rule="evenodd" clip-rule="evenodd" d="M21.6436 24C22.1483 22.8437 22.2663 21.5553 21.9799 20.3265C21.6936 19.0978 21.0183 17.9942 20.0545 17.1801C19.0906 16.3659 17.8897 15.8846 16.6304 15.8078C15.371 15.7309 14.1205 16.0626 13.0648 16.7535C12.0091 17.4444 11.2046 18.4576 10.771 19.6424C10.3374 20.8273 10.2978 22.1204 10.6581 23.3295C11.0184 24.5387 11.7593 25.5992 12.7708 26.3535C13.7822 27.1077 15.0101 27.5153 16.2718 27.5156H29.1624C30.4241 27.5153 31.6519 27.1077 32.6634 26.3535C33.6748 25.5992 34.4158 24.5387 34.7761 23.3295C35.1364 22.1204 35.0968 20.8273 34.6632 19.6424C34.2295 18.4576 33.425 17.4444 32.3693 16.7535C31.3136 16.0626 30.0631 15.7309 28.8038 15.8078C27.5444 15.8846 26.3436 16.3659 25.3797 17.1801C24.4159 17.9942 23.7406 19.0978 23.4542 20.3265C23.1679 21.5553 23.2858 22.8437 23.7905 24H21.6436ZM16.2718 19.3125C15.6502 19.3125 15.054 19.5594 14.6145 19.999C14.1749 20.4385 13.928 21.0347 13.928 21.6563C13.928 22.2779 14.1749 22.874 14.6145 23.3135C15.054 23.7531 15.6502 24 16.2718 24C16.8934 24 17.4895 23.7531 17.9291 23.3135C18.3686 22.874 18.6155 22.2779 18.6155 21.6563C18.6155 21.0347 18.3686 20.4385 17.9291 19.999C17.4895 19.5594 16.8934 19.3125 16.2718 19.3125ZM29.1624 24C29.784 24 30.3801 23.7531 30.8197 23.3135C31.2592 22.874 31.5061 22.2779 31.5061 21.6563C31.5061 21.0347 31.2592 20.4385 30.8197 19.999C30.3801 19.5594 29.784 19.3125 29.1624 19.3125C28.5408 19.3125 27.9447 19.5594 27.5051 19.999C27.0656 20.4385 26.8186 21.0347 26.8186 21.6563C26.8186 22.2779 27.0656 22.874 27.5051 23.3135C27.9447 23.7531 28.5408 24 29.1624 24Z" fill="#1871ED"/>
</svg>
