<svg width="36" height="36" viewBox="0 0 36 36" fill="none" xmlns="http://www.w3.org/2000/svg">
<g clip-path="url(#clip0_366_1054)">
<path d="M18 4.5C18.2984 4.5 18.5845 4.61853 18.7955 4.82951C19.0065 5.04048 19.125 5.32663 19.125 5.625V9C19.125 9.29837 19.0065 9.58452 18.7955 9.7955C18.5845 10.0065 18.2984 10.125 18 10.125C17.7016 10.125 17.4155 10.0065 17.2045 9.7955C16.9935 9.58452 16.875 9.29837 16.875 9V5.625C16.875 5.32663 16.9935 5.04048 17.2045 4.82951C17.4155 4.61853 17.7016 4.5 18 4.5ZM8.397 8.397C8.60797 8.1861 8.89406 8.06762 9.19237 8.06762C9.49068 8.06762 9.77678 8.1861 9.98775 8.397L12.0465 10.4535C12.2577 10.6647 12.3764 10.9513 12.3764 11.25C12.3764 11.5487 12.2577 11.8353 12.0465 12.0465C11.8353 12.2577 11.5487 12.3764 11.25 12.3764C10.9513 12.3764 10.6647 12.2577 10.4535 12.0465L8.397 9.98775C8.1861 9.77678 8.06762 9.49068 8.06762 9.19237C8.06762 8.89406 8.1861 8.60797 8.397 8.397ZM4.5 18C4.5 17.7016 4.61853 17.4155 4.82951 17.2045C5.04048 16.9935 5.32663 16.875 5.625 16.875H9.1935C9.49187 16.875 9.77802 16.9935 9.98899 17.2045C10.2 17.4155 10.3185 17.7016 10.3185 18C10.3185 18.2984 10.2 18.5845 9.98899 18.7955C9.77802 19.0065 9.49187 19.125 9.1935 19.125H5.625C5.32663 19.125 5.04048 19.0065 4.82951 18.7955C4.61853 18.5845 4.5 18.2984 4.5 18ZM25.875 18C25.875 17.7016 25.9935 17.4155 26.2045 17.2045C26.4155 16.9935 26.7016 16.875 27 16.875H30.375C30.6734 16.875 30.9595 16.9935 31.1705 17.2045C31.3815 17.4155 31.5 17.7016 31.5 18C31.5 18.2984 31.3815 18.5845 31.1705 18.7955C30.9595 19.0065 30.6734 19.125 30.375 19.125H27C26.7016 19.125 26.4155 19.0065 26.2045 18.7955C25.9935 18.5845 25.875 18.2984 25.875 18ZM27.5715 8.4465C27.4154 8.29192 27.2069 8.20153 26.9874 8.19319C26.7678 8.18486 26.5531 8.25919 26.3857 8.4015L16.9808 16.4475C16.7641 16.633 16.5886 16.8616 16.4655 17.1189C16.3424 17.3761 16.2743 17.6562 16.2658 17.9413C16.2572 18.2263 16.3082 18.51 16.4157 18.7742C16.5231 19.0383 16.6845 19.2771 16.8896 19.4753C17.0947 19.6735 17.3389 19.8266 17.6066 19.9249C17.8743 20.0232 18.1596 20.0645 18.4442 20.0461C18.7288 20.0277 19.0064 19.9501 19.2592 19.8183C19.5121 19.6864 19.7346 19.5031 19.9125 19.2803L27.639 9.612C27.773 9.44353 27.8403 9.23172 27.8283 9.01683C27.8163 8.80194 27.7257 8.59896 27.5737 8.4465H27.5715Z" fill="#1871ED"/>
<path fill-rule="evenodd" clip-rule="evenodd" d="M14.9904 35.7497C12.6592 35.3549 10.4286 34.5049 8.42602 33.2481C6.42339 31.9913 4.68791 30.3524 3.31868 28.4249C0.553382 24.5321 -0.552259 19.7003 0.244982 14.9923C1.04222 10.2844 3.67704 6.08592 7.5698 3.32063C11.4626 0.555335 16.2944 -0.550306 21.0024 0.246935C25.7106 1.04418 29.9093 3.67911 32.6748 7.57208C35.4403 11.4651 36.5461 16.2972 35.7489 21.0054C34.9516 25.7137 32.3167 29.9124 28.4237 32.6779C24.5307 35.4434 19.6986 36.5492 14.9904 35.7519V35.7497ZM4.49411 26.1129C8.5976 23.7392 13.2558 22.4926 17.9964 22.4994C22.9149 22.4994 27.5274 23.8157 31.4986 26.1129C32.9338 23.7231 33.709 20.9951 33.745 18.2076C33.7811 15.4202 33.0766 12.6731 31.7036 10.2469C30.3306 7.82081 28.3382 5.80256 25.93 4.39832C23.5218 2.99409 20.7841 2.25419 17.9964 2.25419C15.2087 2.25419 12.4709 2.99409 10.0627 4.39832C7.6545 5.80256 5.66216 7.82081 4.28915 10.2469C2.91614 12.6731 2.21166 15.4202 2.24767 18.2076C2.28368 20.9951 3.05888 23.7231 4.49411 26.1129Z" fill="#1871ED"/>
</g>
<defs>
<clipPath id="clip0_366_1054">
<rect width="36" height="36" fill="white"/>
</clipPath>
</defs>
</svg>
