<svg width="28" height="29" viewBox="0 0 28 29" fill="none" xmlns="http://www.w3.org/2000/svg">
<path d="M26.2661 19.7757C26.0719 21.227 25.3572 22.5585 24.255 23.5222C23.1527 24.4861 21.7378 25.0169 20.2736 25.0157C15.7649 25.0157 11.4408 23.2246 8.25266 20.0366C5.06451 16.8484 3.27344 12.5243 3.27344 8.01559C3.27232 6.55134 3.80303 5.1365 4.7669 4.03423C5.73077 2.93195 7.06215 2.21724 8.51347 2.02304C8.72802 1.99755 8.94505 2.04224 9.13208 2.15039C9.31911 2.25855 9.46607 2.42437 9.55098 2.62305L12.1923 8.5231C12.2571 8.67463 12.2836 8.83986 12.2691 9.00409C12.2548 9.16831 12.2 9.32642 12.1098 9.46435L9.43849 12.6406C9.34373 12.7836 9.2877 12.9488 9.27587 13.1199C9.26403 13.291 9.29681 13.4623 9.37099 13.6169C10.4047 15.7332 12.5923 17.8944 14.7148 18.9182C14.8703 18.9921 15.0423 19.0241 15.2139 19.0112C15.3855 18.9982 15.5509 18.9408 15.6935 18.8444L18.8186 16.1819C18.9571 16.0898 19.1163 16.0337 19.2821 16.0185C19.4477 16.0035 19.6144 16.03 19.7673 16.0957L25.6624 18.7369C25.862 18.8213 26.0287 18.9682 26.1376 19.1556C26.2465 19.3428 26.2916 19.5606 26.2661 19.7757Z" fill="#C4C4C4"/>
<path d="M26.0699 17.823L20.1811 15.1843L20.1648 15.1768C19.8591 15.046 19.5257 14.9935 19.1946 15.0241C18.8634 15.0546 18.5452 15.1673 18.2686 15.3518C18.2361 15.3733 18.2047 15.3966 18.1748 15.4218L15.1323 18.0155C13.2048 17.0793 11.2148 15.1043 10.2785 13.2018L12.876 10.113C12.901 10.0817 12.9248 10.0505 12.9473 10.0167C13.1278 9.74084 13.2374 9.4246 13.2661 9.09618C13.2949 8.76773 13.242 8.43726 13.1123 8.13419V8.11918L10.466 2.22039C10.2944 1.82447 9.99941 1.49465 9.62499 1.28018C9.25057 1.0657 8.81682 0.978069 8.38849 1.03037C6.6947 1.25326 5.13995 2.08509 4.01463 3.37052C2.88932 4.65594 2.27039 6.30703 2.27345 8.01544C2.27345 17.9405 10.3485 26.0156 20.2736 26.0156C21.982 26.0186 23.6331 25.3997 24.9185 24.2745C26.2039 23.1491 27.0358 21.5943 27.2586 19.9006C27.311 19.4724 27.2236 19.0387 27.0094 18.6643C26.7951 18.2899 26.4656 17.9948 26.0699 17.823ZM20.2736 24.0156C16.0315 24.011 11.9645 22.3237 8.9649 19.3242C5.9653 16.3245 4.27809 12.2575 4.27347 8.01544C4.26877 6.79478 4.70853 5.61417 5.51065 4.69404C6.31276 3.77392 7.42236 3.17723 8.63225 3.01539C8.63176 3.02037 8.63176 3.02541 8.63225 3.03039L11.2573 8.90545L8.6735 11.998C8.64727 12.0281 8.62345 12.0604 8.60225 12.0942C8.41413 12.3829 8.30378 12.7152 8.28188 13.0591C8.25999 13.4029 8.32728 13.7465 8.47725 14.0568C9.60975 16.373 11.9435 18.6893 14.2848 19.8206C14.5973 19.9691 14.9429 20.0341 15.288 20.0091C15.633 19.9842 15.9658 19.8701 16.2535 19.6781C16.2857 19.6564 16.3165 19.6331 16.346 19.6081L19.3848 17.0155L25.2599 19.6468H25.2736C25.1137 20.8584 24.518 21.9702 23.5977 22.7743C22.6773 23.5785 21.4957 24.0197 20.2736 24.0156Z" fill="#343442"/>
<line x1="22.7796" y1="2.10852" x2="2.77106" y2="27.0817" stroke="#343442" stroke-width="3" stroke-linecap="round"/>
</svg>
