<svg width="36" height="36" viewBox="0 0 36 36" fill="none" xmlns="http://www.w3.org/2000/svg">
<path d="M21.5531 5.59678V10.3218C21.5531 10.6351 21.4286 10.9355 21.2072 11.1571C20.9857 11.3786 20.6852 11.503 20.3719 11.503H15.6469C15.3336 11.503 15.0331 11.3786 14.8116 11.1571C14.5901 10.9355 14.4656 10.6351 14.4656 10.3218V5.59678C14.4656 5.2835 14.5901 4.98303 14.8116 4.7615C15.0331 4.53999 15.3336 4.41553 15.6469 4.41553H20.3719C20.6852 4.41553 20.9857 4.53999 21.2072 4.7615C21.4286 4.98303 21.5531 5.2835 21.5531 5.59678ZM10.9219 24.4968H6.19687C5.88359 24.4968 5.58313 24.6213 5.3616 24.8427C5.14009 25.0642 5.01562 25.3647 5.01562 25.678V30.403C5.01562 30.7163 5.14009 31.0168 5.3616 31.2383C5.58313 31.4598 5.88359 31.5843 6.19687 31.5843H10.9219C11.2352 31.5843 11.5356 31.4598 11.7571 31.2383C11.9787 31.0168 12.1031 30.7163 12.1031 30.403V25.678C12.1031 25.3647 11.9787 25.0642 11.7571 24.8427C11.5356 24.6213 11.2352 24.4968 10.9219 24.4968ZM29.8219 24.4968H25.0969C24.7836 24.4968 24.4831 24.6213 24.2616 24.8427C24.0401 25.0642 23.9156 25.3647 23.9156 25.678V30.403C23.9156 30.7163 24.0401 31.0168 24.2616 31.2383C24.4831 31.4598 24.7836 31.5843 25.0969 31.5843H29.8219C30.1352 31.5843 30.4357 31.4598 30.6572 31.2383C30.8786 31.0168 31.0031 30.7163 31.0031 30.403V25.678C31.0031 25.3647 30.8786 25.0642 30.6572 24.8427C30.4357 24.6213 30.1352 24.4968 29.8219 24.4968Z" fill="#C4C4C4"/>
<path d="M33.3625 16.2281H19.1875V12.6844H20.3688C20.9953 12.6844 21.5962 12.4355 22.0393 11.9924C22.4823 11.5494 22.7313 10.9485 22.7313 10.3219V5.59687C22.7313 4.9703 22.4823 4.36939 22.0393 3.92634C21.5962 3.48328 20.9953 3.23438 20.3688 3.23438H15.6438C15.0172 3.23438 14.4163 3.48328 13.9732 3.92634C13.5302 4.36939 13.2813 4.9703 13.2813 5.59687V10.3219C13.2813 10.9485 13.5302 11.5494 13.9732 11.9924C14.4163 12.4355 15.0172 12.6844 15.6438 12.6844H16.825V16.2281H2.65C2.33672 16.2281 2.03625 16.3526 1.81473 16.5741C1.59322 16.7956 1.46875 17.0961 1.46875 17.4094C1.46875 17.7227 1.59322 18.0232 1.81473 18.2447C2.03625 18.4661 2.33672 18.5906 2.65 18.5906H7.375V23.3156H6.19375C5.56717 23.3156 4.96627 23.5646 4.52322 24.0075C4.08016 24.4507 3.83125 25.0516 3.83125 25.6781V30.4031C3.83125 31.0296 4.08016 31.6306 4.52322 32.0737C4.96627 32.5167 5.56717 32.7656 6.19375 32.7656H10.9188C11.5453 32.7656 12.1462 32.5167 12.5893 32.0737C13.0323 31.6306 13.2813 31.0296 13.2813 30.4031V25.6781C13.2813 25.0516 13.0323 24.4507 12.5893 24.0075C12.1462 23.5646 11.5453 23.3156 10.9188 23.3156H9.7375V18.5906H26.275V23.3156H25.0938C24.4672 23.3156 23.8663 23.5646 23.4232 24.0075C22.9802 24.4507 22.7313 25.0516 22.7313 25.6781V30.4031C22.7313 31.0296 22.9802 31.6306 23.4232 32.0737C23.8663 32.5167 24.4672 32.7656 25.0938 32.7656H29.8188C30.4453 32.7656 31.0462 32.5167 31.4893 32.0737C31.9323 31.6306 32.1813 31.0296 32.1813 30.4031V25.6781C32.1813 25.0516 31.9323 24.4507 31.4893 24.0075C31.0462 23.5646 30.4453 23.3156 29.8188 23.3156H28.6375V18.5906H33.3625C33.6758 18.5906 33.9763 18.4661 34.1978 18.2447C34.4193 18.0232 34.5438 17.7227 34.5438 17.4094C34.5438 17.0961 34.4193 16.7956 34.1978 16.5741C33.9763 16.3526 33.6758 16.2281 33.3625 16.2281ZM15.6438 5.59687H20.3688V10.3219H15.6438V5.59687ZM10.9188 30.4031H6.19375V25.6781H10.9188V30.4031ZM29.8188 30.4031H25.0938V25.6781H29.8188V30.4031Z" fill="#343442"/>
</svg>
