<svg width="49" height="49" viewBox="0 0 49 49" fill="none" xmlns="http://www.w3.org/2000/svg">
<ellipse cx="25.9198" cy="26.9881" rx="22.3729" ry="21.8978" fill="#D6BEBE"/>
<ellipse cx="22.6698" cy="22.7835" rx="22.3729" ry="21.8978" fill="#D9D9D9"/>
<path d="M21.9062 11.5337C20.663 11.5337 19.4708 12.0276 18.5917 12.9066C17.7126 13.7857 17.2188 14.978 17.2188 16.2212V22.7837C17.2188 24.0269 17.7126 25.2192 18.5917 26.0983C19.4708 26.9773 20.663 27.4712 21.9062 27.4712C23.1495 27.4712 24.3417 26.9773 25.2208 26.0983C26.0999 25.2192 26.5938 24.0269 26.5938 22.7837V16.2212C26.5938 14.978 26.0999 13.7857 25.2208 12.9066C24.3417 12.0276 23.1495 11.5337 21.9062 11.5337ZM14.4063 21.8462C14.6549 21.8462 14.8933 21.945 15.0692 22.1208C15.245 22.2966 15.3438 22.5351 15.3438 22.7837C15.3438 24.5242 16.0352 26.1934 17.2659 27.4241C18.4966 28.6548 20.1658 29.3462 21.9062 29.3462C23.6467 29.3462 25.3159 28.6548 26.5466 27.4241C27.7773 26.1934 28.4688 24.5242 28.4688 22.7837C28.4688 22.5351 28.5675 22.2966 28.7433 22.1208C28.9192 21.945 29.1576 21.8462 29.4062 21.8462C29.6549 21.8462 29.8933 21.945 30.0692 22.1208C30.245 22.2966 30.3438 22.5351 30.3438 22.7837C30.3441 24.8594 29.5794 26.8624 28.1957 28.4097C26.8121 29.957 24.9066 30.9399 22.8438 31.1706V33.0962C22.8438 33.3448 22.745 33.5833 22.5692 33.7591C22.3933 33.9349 22.1549 34.0337 21.9062 34.0337C21.6576 34.0337 21.4192 33.9349 21.2433 33.7591C21.0675 33.5833 20.9688 33.3448 20.9688 33.0962V31.1706C18.9059 30.9399 17.0004 29.957 15.6168 28.4097C14.2331 26.8624 13.4684 24.8594 13.4688 22.7837C13.4688 22.5351 13.5675 22.2966 13.7433 22.1208C13.9192 21.945 14.1576 21.8462 14.4063 21.8462Z" fill="#343442"/>
</svg>
