<svg width="49" height="49" viewBox="0 0 49 49" fill="none" xmlns="http://www.w3.org/2000/svg">
<ellipse cx="26.076" cy="26.9974" rx="22.3729" ry="21.8978" fill="#1871ED"/>
<ellipse cx="22.826" cy="22.7923" rx="22.3729" ry="21.8978" fill="#D9D9D9"/>
<path d="M27.4217 25.5172C27.4217 26.4257 27.1523 27.3138 26.6476 28.0691C26.1429 28.8245 25.4255 29.4132 24.5862 29.7608C23.7469 30.1085 22.8234 30.1994 21.9323 30.0221C21.0413 29.845 20.2229 29.4075 19.5805 28.7651C18.9382 28.1227 18.5007 27.3043 18.3235 26.4134C18.1462 25.5223 18.2372 24.5988 18.5848 23.7595C18.9325 22.9202 19.5212 22.2027 20.2766 21.6981C21.0319 21.1934 21.92 20.924 22.8284 20.924C24.0467 20.924 25.215 21.4079 26.0763 22.2693C26.9378 23.1307 27.4217 24.299 27.4217 25.5172ZM15.4793 15.4121C14.7525 15.4121 14.0421 15.6276 13.4378 16.0314C12.8335 16.4352 12.3625 17.009 12.0844 17.6805C11.8063 18.3519 11.7335 19.0908 11.8753 19.8036C12.0171 20.5163 12.367 21.1711 12.8809 21.685C13.3949 22.199 14.0496 22.5489 14.7624 22.6907C15.4752 22.8325 16.214 22.7597 16.8855 22.4816C17.5569 22.2034 18.1308 21.7325 18.5346 21.1282C18.9383 20.5239 19.1539 19.8135 19.1539 19.0867C19.1539 18.1121 18.7667 17.1775 18.0776 16.4884C17.3885 15.7992 16.4538 15.4121 15.4793 15.4121ZM30.1776 15.4121C29.4509 15.4121 28.7404 15.6276 28.1362 16.0314C27.5318 16.4352 27.0609 17.009 26.7828 17.6805C26.5046 18.3519 26.4318 19.0908 26.5736 19.8036C26.7155 20.5163 27.0654 21.1711 27.5793 21.685C28.0932 22.199 28.748 22.5489 29.4607 22.6907C30.1736 22.8325 30.9124 22.7597 31.5838 22.4816C32.2553 22.2034 32.8292 21.7325 33.2329 21.1282C33.6367 20.5239 33.8522 19.8135 33.8522 19.0867C33.8522 18.1121 33.4651 17.1775 32.7759 16.4884C32.0868 15.7992 31.1522 15.4121 30.1776 15.4121Z" fill="#1871ED"/>
<path d="M36.2391 26.2518C36.1427 26.3241 36.0328 26.3769 35.916 26.4068C35.7991 26.4368 35.6775 26.4433 35.5581 26.4263C35.4387 26.4092 35.3237 26.3688 35.2199 26.3074C35.1161 26.2459 35.0254 26.1646 34.953 26.0681C34.3993 25.3239 33.6787 24.72 32.849 24.3051C32.0192 23.8903 31.1037 23.676 30.1761 23.6796C29.9324 23.6796 29.6988 23.5828 29.5265 23.4105C29.3542 23.2383 29.2574 23.0046 29.2574 22.7609C29.2574 22.5173 29.3542 22.2837 29.5265 22.1113C29.6988 21.9391 29.9324 21.8423 30.1761 21.8423C30.6916 21.8423 31.1966 21.6977 31.634 21.425C32.0714 21.1523 32.4236 20.7623 32.6505 20.2995C32.8774 19.8367 32.9699 19.3195 32.9176 18.8067C32.8653 18.2939 32.6702 17.8061 32.3545 17.3986C32.0389 16.9911 31.6153 16.6804 31.1318 16.5015C30.6484 16.3228 30.1245 16.2831 29.6196 16.3871C29.1148 16.4912 28.6493 16.7347 28.2759 17.09C27.9025 17.4454 27.6363 17.8983 27.5074 18.3974C27.4772 18.5143 27.4244 18.624 27.3518 18.7205C27.2792 18.8169 27.1883 18.8981 27.0844 18.9594C26.9805 19.0207 26.8654 19.061 26.7458 19.0778C26.6263 19.0947 26.5047 19.0878 26.3878 19.0577C26.2709 19.0275 26.1611 18.9746 26.0648 18.902C25.9683 18.8294 25.8871 18.7386 25.8258 18.6346C25.7645 18.5306 25.7242 18.4156 25.7074 18.2961C25.6906 18.1766 25.6973 18.0549 25.7275 17.9381C25.9064 17.246 26.2443 16.6052 26.7144 16.0667C27.1845 15.5282 27.7737 15.1069 28.4354 14.8362C29.0969 14.5655 29.8125 14.453 30.5253 14.5075C31.2379 14.5621 31.9281 14.7822 32.5408 15.1504C33.1534 15.5187 33.6718 16.0248 34.0544 16.6286C34.437 17.2323 34.6734 17.9171 34.7449 18.6283C34.8164 19.3395 34.7209 20.0576 34.4659 20.7255C34.211 21.3932 33.8037 21.9923 33.2765 22.475C34.5256 23.0159 35.6116 23.8741 36.4263 24.9645C36.4987 25.0613 36.5513 25.1714 36.5811 25.2885C36.6109 25.4056 36.6172 25.5274 36.5998 25.647C36.5824 25.7666 36.5416 25.8816 36.4797 25.9854C36.4178 26.0891 36.3361 26.1797 36.2391 26.2518ZM30.0521 33.3254C30.1163 33.43 30.1587 33.5463 30.1772 33.6676C30.1956 33.789 30.1896 33.9126 30.1594 34.0316C30.1292 34.1504 30.0756 34.2622 30.0015 34.3599C29.9276 34.4577 29.8347 34.5398 29.7285 34.6012C29.6223 34.6625 29.5048 34.702 29.3831 34.7172C29.2613 34.7324 29.1378 34.7231 29.0197 34.6898C28.9017 34.6566 28.7915 34.6 28.6956 34.5234C28.5998 34.4468 28.5202 34.3518 28.4617 34.244C27.8829 33.2644 27.0588 32.4525 26.0705 31.8886C25.0823 31.3247 23.9642 31.0281 22.8263 31.0281C21.6885 31.0281 20.5704 31.3247 19.5821 31.8886C18.5939 32.4525 17.7698 33.2644 17.191 34.244C17.1336 34.3538 17.0545 34.4508 16.9587 34.5293C16.8627 34.6077 16.752 34.666 16.633 34.7005C16.514 34.735 16.3892 34.7451 16.2663 34.7302C16.1433 34.7152 16.0246 34.6756 15.9173 34.6136C15.81 34.5515 15.7164 34.4685 15.6421 34.3694C15.5678 34.2702 15.5142 34.1571 15.4848 34.0367C15.4553 33.9164 15.4505 33.7914 15.4706 33.6692C15.4907 33.5469 15.5353 33.43 15.6018 33.3254C16.4924 31.7951 17.8504 30.5909 19.4762 29.8896C18.5613 29.1893 17.889 28.2198 17.5537 27.1174C17.2183 26.0151 17.2368 24.8355 17.6066 23.7442C17.9764 22.653 18.6788 21.7051 19.6152 21.0338C20.5515 20.3624 21.6747 20.0013 22.8269 20.0013C23.9791 20.0013 25.1023 20.3624 26.0386 21.0338C26.9751 21.7051 27.6775 22.653 28.0472 23.7442C28.417 24.8355 28.4355 26.0151 28.1002 27.1174C27.7649 28.2198 27.0925 29.1893 26.1777 29.8896C27.8034 30.5909 29.1614 31.7951 30.0521 33.3254ZM22.8269 29.1915C23.5537 29.1915 24.2641 28.9759 24.8684 28.5722C25.4727 28.1684 25.9437 27.5945 26.2218 26.9231C26.4999 26.2517 26.5727 25.5129 26.4309 24.8C26.2892 24.0872 25.9392 23.4325 25.4253 22.9186C24.9113 22.4046 24.2566 22.0547 23.5438 21.9129C22.831 21.7711 22.0921 21.8439 21.4207 22.122C20.7493 22.4001 20.1754 22.8712 19.7716 23.4754C19.3678 24.0797 19.1523 24.7901 19.1523 25.5169C19.1523 26.4914 19.5395 27.4261 20.2286 28.1153C20.9177 28.8044 21.8523 29.1915 22.8269 29.1915ZM16.3964 22.7609C16.3964 22.5173 16.2996 22.2837 16.1273 22.1113C15.9551 21.9391 15.7214 21.8423 15.4777 21.8423C14.9623 21.8423 14.4572 21.6977 14.0198 21.425C13.5824 21.1523 13.2303 20.7623 13.0034 20.2995C12.7765 19.8367 12.684 19.3195 12.7363 18.8067C12.7886 18.2939 12.9836 17.8061 13.2993 17.3986C13.615 16.9911 14.0386 16.6804 14.522 16.5015C15.0055 16.3228 15.5293 16.2831 16.0342 16.3871C16.539 16.4912 17.0046 16.7347 17.378 17.09C17.7513 17.4454 18.0176 17.8983 18.1464 18.3974C18.2073 18.6334 18.3595 18.8356 18.5695 18.9594C18.7794 19.0832 19.03 19.1186 19.266 19.0577C19.502 18.9968 19.7042 18.8446 19.828 18.6346C19.9519 18.4246 19.9873 18.1741 19.9263 17.9381C19.7475 17.246 19.4095 16.6052 18.9394 16.0667C18.4694 15.5282 17.8801 15.1069 17.2185 14.8362C16.557 14.5655 15.8413 14.453 15.1286 14.5075C14.4159 14.5621 13.7257 14.7822 13.1131 15.1504C12.5004 15.5187 11.9821 16.0248 11.5995 16.6286C11.2168 17.2323 10.9804 17.9171 10.9089 18.6283C10.8375 19.3395 10.933 20.0576 11.1879 20.7255C11.4429 21.3932 11.8501 21.9923 12.3773 22.475C11.1294 23.0164 10.0448 23.8746 9.23095 24.9645C9.08461 25.1595 9.02171 25.4046 9.05605 25.6458C9.09039 25.8871 9.2192 26.1049 9.4141 26.2512C9.60902 26.3976 9.85408 26.4604 10.0954 26.4261C10.3367 26.3918 10.5544 26.2631 10.7008 26.0681C11.2545 25.3239 11.9752 24.72 12.8049 24.3051C13.6346 23.8903 14.5501 23.676 15.4777 23.6796C15.7214 23.6796 15.9551 23.5828 16.1273 23.4105C16.2996 23.2383 16.3964 23.0046 16.3964 22.7609Z" fill="#1871ED"/>
</svg>
