<svg width="49" height="49" viewBox="0 0 49 49" fill="none" xmlns="http://www.w3.org/2000/svg">
<ellipse cx="25.6385" cy="26.6517" rx="22.3729" ry="21.8978" fill="#D2E5FF"/>
<ellipse cx="22.3885" cy="22.4466" rx="22.3729" ry="21.8978" fill="#1871ED"/>
<path d="M22.3967 11.9961C19.5647 11.9961 16.8488 13.0972 14.8463 15.0572C12.8437 17.0172 11.7188 19.6755 11.7188 22.4473V30.576C11.7188 31.8534 12.7865 32.8985 14.0916 32.8985H18.8374V23.6086H14.0916V22.4473C14.0916 17.9533 17.8052 14.3186 22.3967 14.3186C26.9882 14.3186 30.7018 17.9533 30.7018 22.4473V23.6086H25.956V32.8985H30.7018C32.0069 32.8985 33.0747 31.8534 33.0747 30.576V22.4473C33.0747 19.6755 31.9497 17.0172 29.9472 15.0572C27.9447 13.0972 25.2287 11.9961 22.3967 11.9961Z" fill="white"/>
</svg>
