<svg width="48" height="49" viewBox="0 0 48 49" fill="none" xmlns="http://www.w3.org/2000/svg">
<ellipse cx="25.6229" cy="26.368" rx="22.3729" ry="21.8978" fill="#D2E5FF"/>
<ellipse cx="22.3729" cy="22.1634" rx="22.3729" ry="21.8978" fill="#021E43"/>
<path d="M34.7057 11.1714C34.6955 11.1233 34.6716 11.079 34.6366 11.0437C34.6016 11.0084 34.5571 10.9836 34.5083 10.9722C31.2509 10.1927 23.7246 12.9704 19.647 16.9599C18.9197 17.666 18.2567 18.4327 17.6654 19.2515C16.408 19.1427 15.1506 19.2336 14.0789 19.6908C11.0551 20.9934 10.1747 24.3922 9.92947 25.8543C9.91556 25.9343 9.92081 26.0164 9.9448 26.0941C9.96879 26.1718 10.0109 26.243 10.0677 26.3021C10.1246 26.3612 10.1947 26.4066 10.2725 26.4347C10.3503 26.4627 10.4338 26.4728 10.5162 26.464L15.3719 25.9398C15.3754 26.2981 15.3974 26.656 15.4381 27.0121C15.4625 27.2594 15.5747 27.4905 15.7551 27.6653L17.6354 29.5013C17.8142 29.6776 18.0502 29.7874 18.3028 29.8116C18.6646 29.8512 19.0282 29.8728 19.3923 29.8764L18.8595 34.623C18.8506 34.7036 18.8609 34.7852 18.8896 34.8613C18.9184 34.9375 18.9647 35.006 19.0251 35.0617C19.0854 35.1173 19.1581 35.1585 19.2375 35.182C19.3168 35.2055 19.4006 35.2108 19.4824 35.1973C20.9734 34.9632 24.4521 34.1015 25.7751 31.142C26.2423 30.093 26.3379 28.8683 26.2301 27.6435C27.0686 27.0648 27.8541 26.4157 28.5775 25.7035C32.668 21.7201 35.4899 14.518 34.7057 11.1714ZM24.4966 20.9515C24.123 20.5861 23.8686 20.1206 23.7655 19.6137C23.6623 19.1068 23.7151 18.5814 23.9171 18.1039C24.1191 17.6263 24.4612 17.2182 24.9003 16.931C25.3393 16.6438 25.8555 16.4905 26.3836 16.4905C26.9116 16.4905 27.4278 16.6438 27.8668 16.931C28.3059 17.2182 28.648 17.6263 28.85 18.1039C29.052 18.5814 29.1048 19.1068 29.0016 19.6137C28.8985 20.1206 28.6441 20.5861 28.2705 20.9515C28.0229 21.1942 27.7287 21.3868 27.4049 21.5182C27.0811 21.6496 26.7341 21.7173 26.3836 21.7173C26.033 21.7173 25.686 21.6496 25.3622 21.5182C25.0384 21.3868 24.7442 21.1942 24.4966 20.9515Z" fill="white"/>
<path d="M17.5085 30.8311C17.2037 31.13 16.7149 31.2465 16.1265 31.3461C14.8045 31.5665 13.6372 30.4485 13.8746 29.1404C13.9653 28.6445 14.2333 27.9494 14.4002 27.7861C14.4367 27.7511 14.4609 27.7058 14.4696 27.6565C14.4782 27.6072 14.4707 27.5565 14.4483 27.5116C14.4258 27.4667 14.3894 27.4299 14.3444 27.4064C14.2993 27.3829 14.2478 27.3738 14.1972 27.3806C13.4579 27.4691 12.7702 27.7972 12.2435 28.3125C10.936 29.5933 10.8125 34.3459 10.8125 34.3459C10.8125 34.3459 15.671 34.2251 16.9785 32.9442C17.5066 32.4291 17.8422 31.7549 17.9311 31.0304C17.9517 30.8028 17.6686 30.6673 17.5085 30.8311Z" fill="white"/>
</svg>
