<svg width="36" height="36" viewBox="0 0 36 36" fill="none" xmlns="http://www.w3.org/2000/svg">
<path d="M23.8428 5.95379L27.1578 8.82671C29.4397 10.8044 30.5806 11.7932 30.5806 13.0775C30.5806 14.3617 29.4397 15.3506 27.1578 17.3282L23.8428 20.2011C22.8395 21.0708 22.3377 21.5056 21.9267 21.3178C21.5156 21.1301 21.5156 20.4662 21.5156 19.1384V16.9949C17.2969 16.9949 12.7266 18.9537 10.9688 22.2181C10.9688 11.7717 17.2187 9.16005 21.5156 9.16005V7.01648C21.5156 5.68867 21.5156 5.02476 21.9267 4.83706C22.3377 4.64936 22.8395 5.08416 23.8428 5.95379Z" stroke="#333333" stroke-width="2.16" stroke-linecap="round" stroke-linejoin="round"/>
<path d="M18 32.0625C11.3709 32.0625 8.05631 32.0625 5.99691 30.003M18 32.0625C24.6291 32.0625 27.9437 32.0625 30.003 30.003M18 32.0625H18.0037C18.4181 32.0625 18.8196 32.0625 19.2087 32.0619M5.99691 30.003C3.9375 27.9437 3.9375 24.6291 3.9375 18V18.0757M5.99691 30.003C5.10189 29.1081 4.59629 27.9755 4.31004 26.4375C3.94013 24.4499 3.93751 21.7842 3.9375 18.0757M30.003 30.003C32.0625 27.9437 32.0625 24.6291 32.0625 18M30.003 30.003C28.0728 31.9334 25.04 32.0543 19.2087 32.0619M30.003 30.003C31.7481 28.258 32.0145 25.6119 32.0552 20.8117M19.2087 32.0619C25.044 32.0545 28.0787 31.9337 30.0099 30.0026C31.7552 28.2572 32.0219 25.6105 32.0625 20.8095M3.9375 18.0757V17.9963M18 3.9375C11.3709 3.9375 8.05631 3.9375 5.99691 5.99691M5.99691 5.99691C4.62759 7.36623 4.16874 9.29046 4.01498 12.375M5.99691 5.99691C7.74181 4.25199 10.3878 3.98552 15.1875 3.94484M15.1905 3.9375C10.3895 3.97821 7.7428 4.24474 5.99745 5.9901" stroke="#333333" stroke-width="2.16" stroke-linecap="round"/>
</svg>
