<svg width="36" height="36" viewBox="0 0 36 36" fill="none" xmlns="http://www.w3.org/2000/svg">
<path d="M12 15H24M12 27H24M12 21H18M6 32.1V3.9C6 3.66131 6.09482 3.43239 6.2636 3.2636C6.43239 3.09482 6.66131 3 6.9 3H24.378C24.6166 3.00021 24.8454 3.09517 25.014 3.264L29.736 7.986C29.82 8.06985 29.8865 8.16947 29.9318 8.27914C29.9771 8.3888 30.0003 8.50634 30 8.625V32.1C30 32.2182 29.9767 32.3352 29.9315 32.4444C29.8863 32.5536 29.82 32.6528 29.7364 32.7364C29.6528 32.82 29.5536 32.8863 29.4444 32.9315C29.3352 32.9767 29.2182 33 29.1 33H6.9C6.78181 33 6.66478 32.9767 6.55558 32.9315C6.44639 32.8863 6.34718 32.82 6.2636 32.7364C6.18003 32.6528 6.11374 32.5536 6.06851 32.4444C6.02328 32.3352 6 32.2182 6 32.1Z" stroke="#333333" stroke-width="1.5" stroke-linecap="round" stroke-linejoin="round"/>
<path d="M24 3V8.1C24 8.33869 24.0948 8.56761 24.2636 8.7364C24.4324 8.90518 24.6613 9 24.9 9H30" stroke="#333333" stroke-width="1.5" stroke-linecap="round" stroke-linejoin="round"/>
</svg>
