<svg width="49" height="49" viewBox="0 0 49 49" fill="none" xmlns="http://www.w3.org/2000/svg">
<ellipse cx="25.9198" cy="26.7181" rx="22.3729" ry="21.8978" fill="#D6BEBE"/>
<ellipse cx="22.6698" cy="22.5135" rx="22.3729" ry="21.8978" fill="#D9D9D9"/>
<path d="M23.4905 12.0625C20.6585 12.0625 17.9425 13.1636 15.94 15.1236C13.9375 17.0836 12.8125 19.7419 12.8125 22.5137V30.6425C12.8125 31.9198 13.8803 32.9649 15.1854 32.9649H19.9311V23.675H15.1854V22.5137C15.1854 18.0197 18.8989 14.385 23.4905 14.385C28.082 14.385 31.7956 18.0197 31.7956 22.5137V23.675H27.0498V32.9649H31.7956C33.1006 32.9649 34.1684 31.9198 34.1684 30.6425V22.5137C34.1684 19.7419 33.0434 17.0836 31.0409 15.1236C29.0384 13.1636 26.3224 12.0625 23.4905 12.0625Z" fill="#343442"/>
</svg>
