<svg width="33" height="34" viewBox="0 0 33 34" fill="none" xmlns="http://www.w3.org/2000/svg">
<g clip-path="url(#clip0_147_256)">
<g clip-path="url(#clip1_147_256)">
<g clip-path="url(#clip2_147_256)">
<path fill-rule="evenodd" clip-rule="evenodd" d="M29.7872 13.7868C29.2787 8.57089 26.1947 0.369873 16.6654 0.369873C7.13609 0.369873 4.05294 8.57089 3.54449 13.7868C2.6734 14.1174 1.92396 14.7059 1.39633 15.4738C0.868706 16.2417 0.588034 17.1523 0.591835 18.084V20.3806C0.591835 21.5986 1.07567 22.7666 1.93689 23.6279C2.79812 24.4891 3.96619 24.9729 5.18415 24.9729C6.40211 24.9729 7.57018 24.4891 8.43141 23.6279C9.29263 22.7666 9.77646 21.5986 9.77646 20.3806V18.084C9.77244 17.1714 9.49754 16.2805 8.98663 15.5243C8.47572 14.7681 7.75179 14.1806 6.90661 13.8363C7.23418 10.818 8.84234 3.6501 16.6654 3.6501C24.4884 3.6501 26.0804 10.818 26.408 13.8354C25.5643 14.1801 24.8424 14.7682 24.3342 15.5247C23.826 16.2811 23.5545 17.1718 23.5543 18.0831V20.3797C23.5579 21.2441 23.8045 22.09 24.266 22.8209C24.7275 23.5518 25.3852 24.1382 26.1641 24.513C25.4756 25.8089 23.7199 27.5638 19.4066 28.0884C19.0119 27.4784 18.4267 27.016 17.742 26.773C17.0574 26.5301 16.3115 26.5202 15.6207 26.7451C14.9298 26.9699 14.3327 27.4168 13.9221 28.0162C13.5116 28.6156 13.3107 29.3339 13.3507 30.0594C13.3907 30.7848 13.6693 31.4766 14.1433 32.0273C14.6173 32.5779 15.2599 32.9564 15.9713 33.104C16.6827 33.2515 17.4229 33.1597 18.0768 32.8429C18.7306 32.5262 19.2614 32.0022 19.5865 31.3525C26.623 30.5488 28.8702 26.9239 29.5757 24.792C30.5049 24.4911 31.3135 23.9008 31.8831 23.1073C32.4528 22.3139 32.7536 21.3591 32.7416 20.3824V18.084C32.7453 17.1521 32.4644 16.2413 31.9364 15.4734C31.4084 14.7055 30.6586 14.1171 29.7872 13.7868ZM6.49624 20.3797C6.49624 20.7277 6.358 21.0614 6.11194 21.3075C5.86587 21.5535 5.53214 21.6918 5.18415 21.6918C4.83616 21.6918 4.50243 21.5535 4.25636 21.3075C4.0103 21.0614 3.87206 20.7277 3.87206 20.3797V18.084C3.87206 17.736 4.0103 17.4023 4.25636 17.1562C4.50243 16.9101 4.83616 16.7719 5.18415 16.7719C5.53214 16.7719 5.86587 16.9101 6.11194 17.1562C6.358 17.4023 6.49624 17.736 6.49624 18.084V20.3797ZM26.8345 18.0831C26.8345 17.9108 26.8685 17.7402 26.9344 17.581C27.0003 17.4218 27.097 17.2771 27.2188 17.1553C27.3407 17.0335 27.4853 16.9368 27.6445 16.8709C27.8037 16.8049 27.9743 16.771 28.1466 16.771C28.3189 16.771 28.4895 16.8049 28.6487 16.8709C28.8079 16.9368 28.9526 17.0335 29.0744 17.1553C29.1962 17.2771 29.2929 17.4218 29.3588 17.581C29.4248 17.7402 29.4587 17.9108 29.4587 18.0831V20.3797C29.4587 20.7277 29.3205 21.0614 29.0744 21.3075C28.8283 21.5535 28.4946 21.6918 28.1466 21.6918C27.7986 21.6918 27.4649 21.5535 27.2188 21.3075C26.9728 21.0614 26.8345 20.7277 26.8345 20.3797V18.0831Z" fill="#70C1FA"/>
</g>
</g>
</g>
<defs>
<clipPath id="clip0_147_256">
<rect width="32.148" height="32.805" fill="white" transform="translate(0.59375 0.368652)"/>
</clipPath>
<clipPath id="clip1_147_256">
<rect width="32.148" height="32.805" fill="white" transform="translate(0.59375 0.368652)"/>
</clipPath>
<clipPath id="clip2_147_256">
<rect width="32.148" height="32.8031" fill="white" transform="translate(0.59375 0.369629)"/>
</clipPath>
</defs>
</svg>
