<svg width="30" height="23" viewBox="0 0 30 23" fill="none" xmlns="http://www.w3.org/2000/svg">
<g clip-path="url(#clip0_147_240)">
<g clip-path="url(#clip1_147_240)">
<g clip-path="url(#clip2_147_240)">
<path d="M26.1007 6.33285H18.8125V4.5108H26.1007V6.33285ZM3.32638 0.866699C2.60171 0.866938 1.9068 1.15491 1.39438 1.66733C0.881966 2.17974 0.593988 2.87466 0.59375 3.59933V7.24342C0.593988 7.96809 0.881966 8.66301 1.39438 9.17542C1.9068 9.68784 2.60171 9.97581 3.32638 9.97605H27.0121C27.3711 9.97617 27.7266 9.90558 28.0583 9.76832C28.39 9.63105 28.6914 9.4298 28.9453 9.17605C29.1992 8.92231 29.4006 8.62104 29.5381 8.28943C29.6756 7.95783 29.7464 7.6024 29.7466 7.24342V3.59933C29.7464 3.24036 29.6756 2.88492 29.5381 2.55332C29.4006 2.22171 29.1992 1.92044 28.9453 1.66669C28.6914 1.41294 28.39 1.2117 28.0583 1.07443C27.7266 0.937171 27.3711 0.866581 27.0121 0.866699H3.32638ZM26.1007 17.2642V19.0863H11.5243V17.2642H26.1007ZM3.32638 13.6202C2.60156 13.6204 1.9065 13.9085 1.39406 14.4211C0.881622 14.9337 0.59375 15.6289 0.59375 16.3537L0.59375 19.9978C0.59375 20.7226 0.881622 21.4177 1.39406 21.9304C1.9065 22.443 2.60156 22.7311 3.32638 22.7313H27.0121C27.3712 22.7314 27.7269 22.6608 28.0587 22.5234C28.3905 22.386 28.692 22.1846 28.9459 21.9307C29.1999 21.6767 29.4013 21.3752 29.5386 21.0434C29.676 20.7116 29.7467 20.356 29.7466 19.9969V16.3528C29.7463 15.6281 29.4583 14.9332 28.9459 14.4208C28.4335 13.9084 27.7386 13.6204 27.0139 13.6202H3.32638Z" fill="#69E48E"/>
</g>
</g>
</g>
<defs>
<clipPath id="clip0_147_240">
<rect width="29.151" height="21.87" fill="white" transform="translate(0.59375 0.86377)"/>
</clipPath>
<clipPath id="clip1_147_240">
<rect width="29.151" height="21.87" fill="white" transform="translate(0.59375 0.86377)"/>
</clipPath>
<clipPath id="clip2_147_240">
<rect width="29.151" height="21.8637" fill="white" transform="translate(0.59375 0.866699)"/>
</clipPath>
</defs>
</svg>
