<svg width="21" height="23" viewBox="0 0 21 23" fill="none" xmlns="http://www.w3.org/2000/svg">
<g clip-path="url(#clip0_147_265)">
<g clip-path="url(#clip1_147_265)">
<g clip-path="url(#clip2_147_265)">
<path d="M1.24219 22.0399V19.2162C1.24219 17.5695 1.89634 15.9903 3.06072 14.8259C4.22511 13.6615 5.80437 13.0073 7.45106 13.0073H13.102C14.7487 13.0073 16.328 13.6615 17.4924 14.8259C18.6568 15.9903 19.3109 17.5695 19.3109 19.2162V22.0399M5.75667 22.0399V18.6511M14.7928 22.0399V18.6511M9.14546 8.48296H5.19517C4.74626 8.48296 4.31569 8.30481 3.99801 7.98764C3.68033 7.67046 3.50149 7.24018 3.50078 6.79126V5.66197C3.49999 4.94672 3.65056 4.23941 3.94259 3.58649C4.23461 2.93358 4.66149 2.34985 5.19517 1.87365M17.055 7.35636V5.66197C17.0558 4.94673 16.9052 4.23943 16.6131 3.58653C16.3211 2.93362 15.8943 2.34989 15.3606 1.87365M19.3136 6.79126V5.09777M1.24219 6.79126V5.09777M14.7964 6.22707C14.7964 7.12066 14.5315 7.99418 14.035 8.73718C13.5385 9.48017 12.8329 10.0593 12.0073 10.4012C11.1818 10.7432 10.2733 10.8327 9.39692 10.6583C8.52049 10.484 7.71545 10.0537 7.08358 9.42183C6.45172 8.78997 6.02141 7.98492 5.84708 7.1085C5.67275 6.23208 5.76222 5.32364 6.10419 4.49807C6.44615 3.6725 7.02524 2.96687 7.76824 2.47042C8.51123 1.97397 9.38476 1.70898 10.2784 1.70898C10.8717 1.70898 11.4592 1.82585 12.0073 2.0529C12.5555 2.27996 13.0536 2.61276 13.4731 3.0323C13.8927 3.45184 14.2255 3.94991 14.4525 4.49807C14.6796 5.04623 14.7964 5.63374 14.7964 6.22707Z" stroke="#70C1FA" stroke-width="1.79967" stroke-linecap="round" stroke-linejoin="round"/>
</g>
</g>
</g>
<defs>
<clipPath id="clip0_147_265">
<rect width="19.872" height="22.347" fill="white" transform="translate(0.34375 0.597656)"/>
</clipPath>
<clipPath id="clip1_147_265">
<rect width="19.872" height="22.347" fill="white" transform="translate(0.34375 0.597656)"/>
</clipPath>
<clipPath id="clip2_147_265">
<rect width="19.872" height="22.3367" fill="white" transform="translate(0.34375 0.602783)"/>
</clipPath>
</defs>
</svg>
