<svg width="26" height="26" viewBox="0 0 26 26" fill="none" xmlns="http://www.w3.org/2000/svg">
<g clip-path="url(#clip0_147_272)">
<g clip-path="url(#clip1_147_272)">
<g clip-path="url(#clip2_147_272)">
<path d="M25.63 3.7082C25.4749 2.93639 25.0858 2.23111 24.5155 1.68839C23.9453 1.14567 23.2216 0.791883 22.4431 0.675201C21.9165 0.608427 21.3819 0.646749 20.8703 0.787948C20.3586 0.929147 19.88 1.17042 19.4623 1.4978C19.4034 1.54274 19.3575 1.60258 19.3294 1.67115C19.3013 1.73971 19.292 1.81453 19.3025 1.88788C19.3129 1.96123 19.3428 2.03047 19.3889 2.08847C19.435 2.14646 19.4957 2.1911 19.5649 2.2178C21.4669 3.24845 23.1169 4.68787 24.3961 6.4325C24.4355 6.49191 24.489 6.54064 24.5518 6.57435C24.6146 6.60806 24.6848 6.6257 24.7561 6.6257C24.8274 6.6257 24.8975 6.60806 24.9603 6.57435C25.0232 6.54064 25.0767 6.49191 25.1161 6.4325C25.3811 6.03657 25.5633 5.5911 25.6516 5.1229C25.7399 4.65471 25.7326 4.17348 25.63 3.7082ZM6.71466 2.2691C6.77527 2.23401 6.82711 2.18562 6.86629 2.12758C6.90548 2.06953 6.93097 2.00335 6.94085 1.93402C6.95073 1.86469 6.94474 1.79402 6.92333 1.72735C6.90192 1.66067 6.86565 1.59972 6.81726 1.5491C6.41273 1.19915 5.9353 0.94375 5.41968 0.801457C4.90406 0.659164 4.36322 0.633558 3.83646 0.726502C3.05867 0.823868 2.33159 1.16469 1.75919 1.70023C1.18679 2.23577 0.798403 2.9386 0.649561 3.7082C0.485009 4.65525 0.687437 5.62941 1.21566 6.4325C1.25507 6.49191 1.30856 6.54064 1.37138 6.57435C1.43419 6.60806 1.50437 6.6257 1.57566 6.6257C1.64695 6.6257 1.71713 6.60806 1.77995 6.57435C1.84276 6.54064 1.89626 6.49191 1.93566 6.4325C3.17176 4.68156 4.81085 3.2536 6.71466 2.2691ZM13.1398 3.1943C10.1434 3.20285 7.27226 4.39693 5.15352 6.51566C3.03479 8.6344 1.84071 11.5056 1.83216 14.5019C1.8241 16.91 2.59997 19.2553 4.04256 21.1835L2.34606 22.88C2.18757 23.0334 2.06155 23.2171 1.97548 23.4202C1.88942 23.6233 1.84507 23.8416 1.84507 24.0622C1.84507 24.2827 1.88942 24.501 1.97548 24.7041C2.06155 24.9072 2.18757 25.0909 2.34606 25.2443C2.49759 25.406 2.68068 25.5349 2.88401 25.623C3.08735 25.7112 3.3066 25.7566 3.52821 25.7566C3.74982 25.7566 3.96907 25.7112 4.17241 25.623C4.37574 25.5349 4.55884 25.406 4.71036 25.2443L6.40686 23.5478C8.35803 24.9837 10.7172 25.7582 13.1398 25.7582C15.5479 25.7663 17.8932 24.9904 19.8214 23.5478L21.5179 25.2443C21.6771 25.4103 21.8688 25.5416 22.0812 25.6301C22.2935 25.7185 22.5218 25.7621 22.7518 25.7582C23.0826 25.7518 23.4043 25.6489 23.6773 25.462C23.9504 25.2751 24.1628 25.0125 24.2885 24.7064C24.4142 24.4004 24.4476 24.0642 24.3847 23.7394C24.3218 23.4145 24.1652 23.1152 23.9344 22.8782L22.2379 21.1835C23.6817 19.2558 24.4589 16.9104 24.4519 14.5019C24.4559 13.0155 24.166 11.5429 23.5989 10.1689C23.0318 8.79483 22.1987 7.54649 21.1474 6.49562C20.0961 5.44475 18.8474 4.61208 17.4731 4.04552C16.0989 3.47895 14.6262 3.18967 13.1398 3.1943ZM5.17296 14.4506C5.17418 12.6089 5.81386 10.8246 6.98304 9.40166C8.15221 7.9787 9.77856 7.00509 11.585 6.64669C13.3915 6.28829 15.2664 6.56726 16.8902 7.43609C18.5141 8.30492 19.7865 9.70986 20.4907 11.4116C21.195 13.1133 21.2874 15.0065 20.7524 16.7688C20.2173 18.531 19.0879 20.0533 17.5564 21.0762C16.025 22.0992 14.1862 22.5595 12.3534 22.3789C10.5206 22.1982 8.80714 21.3878 7.50486 20.0855C6.76517 19.3454 6.17852 18.4669 5.7784 17.5C5.37829 16.5332 5.17256 15.497 5.17296 14.4506ZM14.425 13.988V10.6985C14.427 10.5359 14.3965 10.3745 14.3352 10.2239C14.2739 10.0733 14.1831 9.93641 14.0681 9.82142C13.9531 9.70643 13.8163 9.61562 13.6657 9.55434C13.515 9.49306 13.3537 9.46255 13.1911 9.4646C12.865 9.46857 12.5535 9.59984 12.323 9.83039C12.0924 10.0609 11.9611 10.3725 11.9572 10.6985V14.4506C11.9453 14.6142 11.9717 14.7783 12.0342 14.93C12.0967 15.0816 12.1935 15.2167 12.3172 15.3245L15.2467 18.254C15.4788 18.4852 15.793 18.6149 16.1206 18.6149C16.4481 18.6149 16.7624 18.4852 16.9945 18.254C17.116 18.1432 17.2131 18.0082 17.2795 17.8577C17.346 17.7073 17.3803 17.5446 17.3803 17.3801C17.3803 17.2156 17.346 17.0529 17.2795 16.9025C17.2131 16.752 17.116 16.617 16.9945 16.5062L14.425 13.988Z" fill="#FBEA80"/>
</g>
</g>
</g>
<defs>
<clipPath id="clip0_147_272">
<rect width="25.119" height="25.119" fill="white" transform="translate(0.59375 0.641602)"/>
</clipPath>
<clipPath id="clip1_147_272">
<rect width="25.119" height="25.119" fill="white" transform="translate(0.59375 0.641602)"/>
</clipPath>
<clipPath id="clip2_147_272">
<rect width="25.119" height="25.1154" fill="white" transform="translate(0.59375 0.643555)"/>
</clipPath>
</defs>
</svg>
