<svg width="32" height="32" viewBox="0 0 32 32" fill="none" xmlns="http://www.w3.org/2000/svg">
<g clip-path="url(#clip0_147_247)">
<g clip-path="url(#clip1_147_247)">
<g clip-path="url(#clip2_147_247)">
<path d="M3.5355 21.2582C3.49931 21.5292 3.48096 21.8023 3.48058 22.0756C3.48682 22.9671 3.68174 23.8471 4.05253 24.6578C4.42331 25.4685 4.96156 26.1914 5.63185 26.7792C6.30214 27.3669 7.08928 27.806 7.94147 28.0676C8.79367 28.3293 9.69161 28.4075 10.5762 28.2971C11.1208 29.2666 11.9136 30.0735 12.8732 30.6351C13.8328 31.1967 14.9247 31.4927 16.0366 31.4927C17.1485 31.4927 18.2403 31.1967 19.1999 30.6351C20.1596 30.0735 20.9524 29.2666 21.4969 28.2971C22.3814 28.4069 23.2791 28.3283 24.1311 28.0664C24.983 27.8046 25.7699 27.3654 26.4401 26.7778C27.1103 26.1902 27.6485 25.4674 28.0195 24.657C28.3904 23.8466 28.5858 22.9669 28.5926 22.0756C28.5922 21.8023 28.5738 21.5292 28.5376 21.2582C29.5066 20.7133 30.313 19.9203 30.8743 18.9608C31.4355 18.0012 31.7313 16.9095 31.7313 15.7979C31.7313 14.6862 31.4355 13.5946 30.8743 12.635C30.313 11.6754 29.5066 10.8825 28.5376 10.3375C28.5738 10.0665 28.5922 9.79348 28.5926 9.52011C28.5863 8.62867 28.3914 7.74866 28.0206 6.93797C27.6498 6.12729 27.1116 5.4043 26.4413 4.81659C25.771 4.22887 24.9839 3.78975 24.1317 3.52811C23.2795 3.26648 22.3815 3.18826 21.4969 3.2986C20.9524 2.3292 20.1596 1.52224 19.1999 0.960639C18.2403 0.399034 17.1485 0.103027 16.0366 0.103027C14.9247 0.103027 13.8328 0.399034 12.8732 0.960639C11.9136 1.52224 11.1208 2.3292 10.5762 3.2986C9.69151 3.18767 8.79334 3.26547 7.94089 3.52689C7.08844 3.7883 6.30107 4.22739 5.63065 4.81522C4.96023 5.40305 4.42199 6.12627 4.05139 6.93724C3.68079 7.7482 3.48625 8.62849 3.48058 9.52011C3.48096 9.79348 3.49931 10.0665 3.5355 10.3375C2.56657 10.8825 1.76009 11.6754 1.19885 12.635C0.6376 13.5946 0.341797 14.6862 0.341797 15.7979C0.341797 16.9095 0.6376 18.0012 1.19885 18.9608C1.76009 19.9203 2.56657 20.7133 3.5355 21.2582ZM5.79868 12.778L7.52803 12.318L6.84655 10.6652C6.69707 10.3016 6.61971 9.91235 6.61879 9.5192C6.61974 8.68695 6.95078 7.88906 7.53927 7.30057C8.12776 6.71208 8.92565 6.38105 9.7579 6.38009C10.151 6.38116 10.5402 6.45851 10.9039 6.60785L12.5585 7.28933L13.0185 5.55998C13.1958 4.8948 13.5878 4.30679 14.1337 3.88735C14.6795 3.4679 15.3486 3.24051 16.037 3.24051C16.7254 3.24051 17.3945 3.4679 17.9404 3.88735C18.4862 4.30679 18.8782 4.8948 19.0555 5.55998L19.5155 7.28933L21.1701 6.60785C21.5338 6.45851 21.923 6.38116 22.3161 6.38009C23.149 6.38033 23.9477 6.71117 24.5368 7.29994C25.1259 7.8887 25.4572 8.68723 25.458 9.52011C25.457 9.91326 25.3797 10.3025 25.2302 10.6661L24.5487 12.3189L26.2781 12.7789C26.9416 12.9584 27.5276 13.3514 27.9455 13.8973C28.3633 14.4431 28.5897 15.1114 28.5897 15.7988C28.5897 16.4862 28.3633 17.1545 27.9455 17.7003C27.5276 18.2461 26.9416 18.6392 26.2781 18.8186L24.5487 19.2786L25.2302 20.9314C25.3797 21.2951 25.457 21.6843 25.458 22.0774C25.4577 22.9108 25.1265 23.7099 24.5372 24.2991C23.9478 24.8883 23.1486 25.2193 22.3152 25.2193C21.9221 25.2182 21.5329 25.1409 21.1692 24.9915L19.5164 24.3073L19.0564 26.0367C18.8791 26.7018 18.4871 27.2899 17.9413 27.7093C17.3954 28.1287 16.7263 28.3561 16.0379 28.3561C15.3495 28.3561 14.6804 28.1287 14.1346 27.7093C13.5887 27.2899 13.1967 26.7018 13.0194 26.0367L12.5594 24.3073L10.9048 24.9888C10.5411 25.1382 10.1519 25.2155 9.7588 25.2166C8.92655 25.2156 8.12866 24.8846 7.54017 24.2961C6.95168 23.7076 6.62064 22.9097 6.61969 22.0774C6.62059 21.6843 6.69795 21.2951 6.84745 20.9314L7.52893 19.2786L5.79958 18.8186C5.13601 18.6392 4.55002 18.2461 4.13218 17.7003C3.71435 17.1545 3.48793 16.4862 3.48793 15.7988C3.48793 15.1114 3.71435 14.4431 4.13218 13.8973C4.55002 13.3514 5.13601 12.9584 5.79958 12.7789L5.79868 12.778Z" fill="#69E48E"/>
<path d="M21.911 13.7737L19.7009 11.5447L14.4723 16.7228L12.4378 14.6883L10.2188 16.9074L14.4624 21.152L21.911 13.7737Z" fill="#69E48E"/>
</g>
</g>
</g>
<defs>
<clipPath id="clip0_147_247">
<rect width="31.392" height="31.392" fill="white" transform="translate(0.34375 0.102539)"/>
</clipPath>
<clipPath id="clip1_147_247">
<rect width="31.392" height="31.392" fill="white" transform="translate(0.34375 0.102539)"/>
</clipPath>
<clipPath id="clip2_147_247">
<rect width="31.3911" height="31.392" fill="white" transform="translate(0.34375 0.102783)"/>
</clipPath>
</defs>
</svg>
