<svg xmlns="http://www.w3.org/2000/svg" width="30.247" height="30.198" viewBox="0 0 30.247 30.198">
  <g id="promotions-svgrepo-com" transform="translate(-2.002 -2.021)">
    <path id="Path_273" data-name="Path 273" d="M32.246,28.66a1.965,1.965,0,1,0,1.984,1.971h0a1.971,1.971,0,0,0-1.958-1.971Z" transform="translate(-10.478 -9.864)" fill="#f9b4ff"/>
    <path id="Path_274" data-name="Path 274" d="M17.365,17.08a1.965,1.965,0,1,0,1.391.578,1.965,1.965,0,0,0-1.391-.578Z" transform="translate(-4.961 -5.576)" fill="#f9b4ff"/>
    <path id="Path_275" data-name="Path 275" d="M31.452,15.131,29.809,13.16a3.533,3.533,0,0,1-.825-2.04L28.795,8.6a3.23,3.23,0,0,0-2.953-3.01l-2.2-.176A4.635,4.635,0,0,1,21,4.287L19.33,2.82a3.243,3.243,0,0,0-4.219-.038L13.3,4.313a4.181,4.181,0,0,1-2.387.97l-2.355.164a3.237,3.237,0,0,0-3.01,2.96l-.17,2.147a4.717,4.717,0,0,1-1.133,2.67L2.8,14.885A3.237,3.237,0,0,0,2.763,19.1l1.568,1.889a3.91,3.91,0,0,1,.894,2.242L5.4,25.653a3.237,3.237,0,0,0,2.953,3.01l2.2.2a4.553,4.553,0,0,1,2.632,1.121l1.675,1.448a3.256,3.256,0,0,0,4.219.031l1.921-1.606A3.715,3.715,0,0,1,23.146,29l2.519-.183a3.23,3.23,0,0,0,3.01-2.953l.183-2.04A5.126,5.126,0,0,1,30.117,20.9l1.341-1.53a3.224,3.224,0,0,0-.006-4.238ZM8.783,13.475a3.652,3.652,0,1,1,3.64,3.646h0a3.646,3.646,0,0,1-3.665-3.646Zm5.283,10.774a.29.29,0,0,1-.22.145H12.756a.277.277,0,0,1-.233-.139.264.264,0,0,1,0-.271L20.155,9.974a.321.321,0,0,1,.227-.139h1.14a.277.277,0,0,1,.132.372h0Zm11.417-3.489a3.659,3.659,0,1,1-3.684-3.64h0a3.646,3.646,0,0,1,3.633,3.665h0Z" fill="#70c1fa"/>
  </g>
</svg>
