<svg xmlns="http://www.w3.org/2000/svg" width="25.224" height="28.027" viewBox="0 0 25.224 28.027">
  <g id="stack-add-svgrepo-com" transform="translate(-3 -2)">
    <path id="Path_276" data-name="Path 276" d="M13.3,20.859a1.4,1.4,0,0,1-1.4-1.4V17.706H10.151a1.4,1.4,0,0,1,0-2.8H11.9V13.151a1.4,1.4,0,1,1,2.8,0V14.9h1.752a1.4,1.4,0,1,1,0,2.8H14.706v1.752A1.4,1.4,0,0,1,13.3,20.859Z" transform="translate(2.308 3.913)" fill="#ffda6e"/>
    <path id="Path_277" data-name="Path 277" d="M8.605,6.2V4.8a2.8,2.8,0,0,1,2.8-2.8h8.408a2.8,2.8,0,0,1,2.8,2.8V6.2a2.8,2.8,0,0,1,2.8,2.8v1.4q0,.119-.01.236a4.206,4.206,0,0,1,2.813,3.968V25.823a4.2,4.2,0,0,1-4.2,4.2H7.2a4.2,4.2,0,0,1-4.2-4.2V14.612a4.206,4.206,0,0,1,2.812-3.968q-.01-.117-.01-.236v-1.4A2.8,2.8,0,0,1,8.605,6.2Zm2.8-1.4h8.408V6.2H11.408Zm11.211,4.2v1.4H8.605v-1.4ZM7.2,13.211H24.02a1.4,1.4,0,0,1,1.4,1.4V25.823a1.4,1.4,0,0,1-1.4,1.4H7.2a1.4,1.4,0,0,1-1.4-1.4V14.612A1.4,1.4,0,0,1,7.2,13.211Z" transform="translate(0)" fill="#ffda6e" fill-rule="evenodd"/>
  </g>
</svg>
