<svg xmlns="http://www.w3.org/2000/svg" width="29.446" height="23.569" viewBox="0 0 29.446 23.569">
  <g id="Communication_Mail" data-name="Communication / Mail" transform="translate(-1.5 -3.5)">
    <path id="Vector" d="M4.469,6.469l8.973,6.776,0,0a6.741,6.741,0,0,0,2.041,1.237,2.94,2.94,0,0,0,1.472,0A6.762,6.762,0,0,0,19,13.246s5.756-4.417,8.973-6.776M3,20.868V9.7a7.3,7.3,0,0,1,.32-3.1A2.937,2.937,0,0,1,4.6,5.32,7.3,7.3,0,0,1,7.7,5H24.744a7.294,7.294,0,0,1,3.1.32A2.94,2.94,0,0,1,29.126,6.6a7.29,7.29,0,0,1,.32,3.093V20.873a7.283,7.283,0,0,1-.32,3.092,2.941,2.941,0,0,1-1.285,1.285,7.283,7.283,0,0,1-3.092.32H7.7a7.29,7.29,0,0,1-3.093-.32A2.938,2.938,0,0,1,3.32,23.964,7.3,7.3,0,0,1,3,20.868Z" fill="none" stroke="#69e48e" stroke-linecap="round" stroke-linejoin="round" stroke-width="3"/>
  </g>
</svg>
