<svg xmlns="http://www.w3.org/2000/svg" width="30.304" height="19.154" viewBox="0 0 30.304 19.154">
  <g id="handshake-o" transform="translate(0.01 0.01)">
    <path id="Path_267" data-name="Path 267" d="M2.524,11.777a.753.753,0,0,0,.736-.421.894.894,0,0,0,0-.841.753.753,0,0,0-.736-.421.753.753,0,0,0-.736.421.894.894,0,0,0,0,.841A.753.753,0,0,0,2.524,11.777Zm19.36-.762-.506-.657-.545-.71q-.171-.223-.5-.644t-.559-.7q-.23-.276-.532-.618t-.591-.644l-1.643,1.84a3.423,3.423,0,0,1-2.74,1.209,3.433,3.433,0,0,1-2.7-1.288,3.213,3.213,0,0,1,.026-4.14l2.326-2.708a2.563,2.563,0,0,0-.67-.217,4.084,4.084,0,0,0-.624-.079q-.243-.007-.743.007t-.644.013a2.833,2.833,0,0,0-2.077.867L7.084,4.627H5.047v7.15q.066,0,.276-.007t.289,0q.079.007.256.026a1,1,0,0,1,.269.059q.092.039.23.112a.992.992,0,0,1,.243.177l3.9,3.838A4.385,4.385,0,0,0,13.5,17.441a2.221,2.221,0,0,0,1.643-.618,1.821,1.821,0,0,0,1.479-.105,1.784,1.784,0,0,0,.953-1.117,2.084,2.084,0,0,0,1.669-.578,2.46,2.46,0,0,0,.473-.6,1.136,1.136,0,0,0,.184-.664.839.839,0,0,0,.565.131,1.886,1.886,0,0,0,1.012-.276,1.677,1.677,0,0,0,.651-.7,1.76,1.76,0,0,0,.158-.94A1.786,1.786,0,0,0,21.884,11.014Zm2.09.762h1.262V5.047H24.013L21.95,2.681a2.81,2.81,0,0,0-2.221-1H17.533a2.406,2.406,0,0,0-1.919.881L12.868,5.757a1.482,1.482,0,0,0-.368.986,1.514,1.514,0,0,0,.355.986,1.845,1.845,0,0,0,1.446.683,1.821,1.821,0,0,0,1.459-.644L18.3,4.9A.946.946,0,0,1,19,4.62a.841.841,0,0,1,.729,1.1q.21.25.736.828t.789.894q.381.473,1.084,1.387t.848,1.111A3.565,3.565,0,0,1,23.974,11.777Zm3.785,0a.753.753,0,0,0,.736-.421.894.894,0,0,0,0-.841.854.854,0,0,0-1.472,0,.894.894,0,0,0,0,.841A.753.753,0,0,0,27.759,11.777Zm2.524-7.571v8.412a.853.853,0,0,1-.841.841h-5.7a3.311,3.311,0,0,1-1.078,1.4,3.5,3.5,0,0,1-1.643.677,4.239,4.239,0,0,1-1.058,1.071,3.679,3.679,0,0,1-1.347.6,3.667,3.667,0,0,1-1.373,1.071,3.5,3.5,0,0,1-1.689.322,4,4,0,0,1-1.656.519,4.308,4.308,0,0,1-1.676-.184,6.962,6.962,0,0,1-1.538-.7,7.663,7.663,0,0,1-1.36-1.065L5.547,13.459H.841a.808.808,0,0,1-.591-.25A.808.808,0,0,1,0,12.618V3.785a.808.808,0,0,1,.25-.591.808.808,0,0,1,.591-.25H6.375q.184-.184.618-.631t.624-.631q.191-.184.578-.526A3.907,3.907,0,0,1,8.859.664q.276-.151.67-.335a3.2,3.2,0,0,1,.815-.256A5.275,5.275,0,0,1,11.238,0h1.538a4.127,4.127,0,0,1,2.379.736A4.127,4.127,0,0,1,17.533,0h2.195a4.771,4.771,0,0,1,.881.079,5.207,5.207,0,0,1,.743.191,3.021,3.021,0,0,1,.677.348q.355.237.585.407a4.872,4.872,0,0,1,.565.519q.335.348.513.552t.539.631q.361.427.545.637h4.666a.853.853,0,0,1,.841.841Z" transform="translate(0 0)" fill="#70c1fa" stroke="#70c1fa" stroke-width="0.021"/>
  </g>
</svg>
