<svg xmlns="http://www.w3.org/2000/svg" width="23.774" height="23.774" viewBox="0 0 23.774 23.774">
  <g id="compass-svgrepo-com" transform="translate(-3 -3)">
    <path id="Path_282" data-name="Path 282" d="M18.629,7.627l-6.445,2.642a3.473,3.473,0,0,0-1.955,1.955L7.588,18.669a.449.449,0,0,0,.251.581.475.475,0,0,0,.33,0l6.445-2.642a3.473,3.473,0,0,0,1.955-1.955L19.21,8.208a.449.449,0,0,0-.251-.581A.476.476,0,0,0,18.629,7.627Zm-5.2,7.106a1.321,1.321,0,1,1,.934-.387A1.322,1.322,0,0,1,13.425,14.733Z" transform="translate(1.462 1.475)" fill="#70c1fa"/>
    <path id="Path_283" data-name="Path 283" d="M14.887,26.774a11.887,11.887,0,1,1,8.405-3.482A11.886,11.886,0,0,1,14.887,26.774Zm0-21.793a9.906,9.906,0,1,0,7,2.9A9.906,9.906,0,0,0,14.887,4.981Z" fill="#70c1fa"/>
  </g>
</svg>
