<svg xmlns="http://www.w3.org/2000/svg" width="30.636" height="30.712" viewBox="0 0 30.636 30.712">
  <path id="chatbot-svgrepo-com" d="M17.781,4.939v0Zm-5.927,0v0ZM25.4,23.555l-.692-.7-.4.4.137.548Zm1.273,5.093-.239.958a.988.988,0,0,0,1.2-1.2Zm-7.9-1.976-.7-.7-1.234,1.234,1.693.423Zm.049-.049.7.7a.988.988,0,0,0-.792-1.682ZM.988,15.805h0ZM13.83,0V4.939h1.976V0Zm3.951,3.951H11.854V5.927h5.927ZM29.636,15.805A11.854,11.854,0,0,0,17.781,3.951V5.927a9.879,9.879,0,0,1,9.879,9.879Zm-3.544,8.454a11.821,11.821,0,0,0,3.544-8.454H27.66a9.845,9.845,0,0,1-2.953,7.045Zm1.539,4.149-1.273-5.093-1.917.479,1.273,5.093Zm-9.1-.778,7.9,1.976.479-1.917-7.9-1.976Zm-.41-1.706-.049.049,1.4,1.4.049-.049Zm-.338,1.735q.571,0,1.13-.053l-.186-1.967q-.466.044-.944.044Zm-5.927,0h5.927V25.684H11.854ZM0,15.805A11.854,11.854,0,0,0,11.854,27.66V25.684a9.879,9.879,0,0,1-9.879-9.879ZM11.854,3.951A11.854,11.854,0,0,0,0,15.805H1.976a9.879,9.879,0,0,1,9.878-9.879Zm2.964,11.854a2.964,2.964,0,0,1-2.964-2.964H9.879a4.939,4.939,0,0,0,4.939,4.939Zm2.964-2.964a2.964,2.964,0,0,1-2.964,2.964v1.976a4.939,4.939,0,0,0,4.939-4.939ZM14.818,9.879a2.964,2.964,0,0,1,2.964,2.964h1.976A4.939,4.939,0,0,0,14.818,7.9Zm0-1.976a4.939,4.939,0,0,0-4.939,4.939h1.976a2.964,2.964,0,0,1,2.964-2.964Zm0,15.806a8.857,8.857,0,0,0,5.557-1.95l-1.236-1.541a6.882,6.882,0,0,1-4.321,1.516Zm-5.557-1.95a8.857,8.857,0,0,0,5.557,1.95V21.733A6.882,6.882,0,0,1,10.5,20.217Z" transform="translate(0.5 0.5)" fill="#69e48e" stroke="#69e48e" stroke-width="1"/>
</svg>
