<svg xmlns="http://www.w3.org/2000/svg" width="37.068" height="33.304" viewBox="0 0 37.068 33.304">
  <g id="chat-2-svgrepo-com" transform="translate(-1.5 -2.5)">
    <path id="Path_278" data-name="Path 278" d="M10.571,4A7.57,7.57,0,0,0,3,11.57v9.964a7.57,7.57,0,0,0,7.571,7.57v4.989a.189.189,0,0,0,.307.149L17.384,29.1H29.5a7.57,7.57,0,0,0,7.571-7.57V11.57A7.57,7.57,0,0,0,29.5,4Z" fill="none" stroke="#69e48e" stroke-linecap="round" stroke-width="3"/>
    <path id="Path_279" data-name="Path 279" d="M10.785,11.893A1.893,1.893,0,1,1,8.893,10,1.893,1.893,0,0,1,10.785,11.893Z" transform="translate(3.571 5.356)" fill="#69e48e"/>
    <path id="Path_280" data-name="Path 280" d="M14.785,11.893A1.893,1.893,0,1,1,12.893,10,1.893,1.893,0,0,1,14.785,11.893Z" transform="translate(7.141 5.356)" fill="#69e48e"/>
    <path id="Path_281" data-name="Path 281" d="M18.785,11.893A1.893,1.893,0,1,1,16.893,10,1.893,1.893,0,0,1,18.785,11.893Z" transform="translate(10.712 5.356)" fill="#69e48e"/>
  </g>
</svg>
