<svg xmlns="http://www.w3.org/2000/svg" width="26.134" height="26.135" viewBox="0 0 26.134 26.135">
  <path id="link-svgrepo-com" d="M14.041,18.852a1.425,1.425,0,0,0,0-2.015,4,4,0,0,1,0-5.662l4.8-4.8A4,4,0,0,1,24.5,12.039l-1.483,1.482a1.425,1.425,0,1,0,2.015,2.015l1.483-1.482a6.854,6.854,0,1,0-9.693-9.693l-4.8,4.8a6.854,6.854,0,0,0,0,9.693A1.425,1.425,0,0,0,14.041,18.852Zm2.782-6.813a1.425,1.425,0,0,0,0,2.015,4,4,0,0,1,0,5.662l-4.75,4.75A4,4,0,1,1,6.412,18.8L7.8,17.413A1.425,1.425,0,1,0,5.788,15.4L4.4,16.789a6.854,6.854,0,0,0,9.693,9.693l4.75-4.75a6.854,6.854,0,0,0,0-9.693,1.425,1.425,0,0,0-2.015,0Z" transform="translate(-2.391 -2.354)" fill="#ffe96e" fill-rule="evenodd"/>
</svg>
