<svg xmlns="http://www.w3.org/2000/svg" width="27.782" height="28.355" viewBox="0 0 27.782 28.355">
  <path id="notifications-alert-svgrepo-com" d="M12.3,5.867v.746c-3.814,1.564-6.478,6.7-6.381,11.152v2.472c-1.952,2.51-1.837,6.252,3.033,6.252H12.3a3.905,3.905,0,0,0,1.111,2.734,3.742,3.742,0,0,0,5.364,0,3.905,3.905,0,0,0,1.111-2.734h3.357c4.861,0,4.932-3.75,2.98-6.26l.054-2.461c.1-4.457-2.571-9.6-6.391-11.159V5.867a3.905,3.905,0,0,0-1.111-2.734,3.742,3.742,0,0,0-5.364,0A3.9,3.9,0,0,0,12.3,5.867Zm5.058,0s0,.052,0,.078a10.135,10.135,0,0,0-2.524,0c0-.026,0-.053,0-.08a1.3,1.3,0,0,1,.37-.911,1.247,1.247,0,0,1,1.788,0A1.3,1.3,0,0,1,17.359,5.867ZM14.831,26.489a1.3,1.3,0,0,0,.37.911,1.248,1.248,0,0,0,1.788,0,1.3,1.3,0,0,0,.37-.911Zm8.415-2.578a1.291,1.291,0,0,0,.96-2.128,2.183,2.183,0,0,1-.512-1.454l.058-2.62c.1-4.376-3.357-9.266-7.651-9.266s-7.746,4.888-7.651,9.263l.057,2.623a2.184,2.184,0,0,1-.512,1.453,1.291,1.291,0,0,0,.96,2.128ZM23.2,3.7a1.418,1.418,0,0,1,1.973-.357,14.775,14.775,0,0,1,4.644,7.036,1.418,1.418,0,0,1-2.691.9,12.164,12.164,0,0,0-3.569-5.6A1.418,1.418,0,0,1,23.2,3.7ZM6.82,3.347a1.418,1.418,0,0,1,1.615,2.33,12.164,12.164,0,0,0-3.569,5.6,1.418,1.418,0,0,1-2.691-.9A14.775,14.775,0,0,1,6.82,3.347Z" transform="translate(-2.103 -2)" fill="#ffda6e" fill-rule="evenodd"/>
</svg>
