<svg xmlns="http://www.w3.org/2000/svg" width="24.624" height="24.624" viewBox="0 0 24.624 24.624">
  <path id="scale-2-svgrepo-com" d="M4,16.163v8.109a1.351,1.351,0,0,0,1.351,1.351H13.46M4,16.163h8.109a1.351,1.351,0,0,1,1.351,1.351v8.109M4,16.163v-2.7m9.46,12.163h2.7M6.7,4H5.351A1.351,1.351,0,0,0,4,5.351V6.7M22.921,4h1.351a1.351,1.351,0,0,1,1.351,1.351V6.7m-2.7,18.921h1.351a1.351,1.351,0,0,0,1.351-1.351V22.921m0-6.757v-2.7M13.46,4h2.7" transform="translate(-2.5 -2.5)" fill="none" stroke="#ffda6e" stroke-linecap="round" stroke-linejoin="round" stroke-width="3"/>
</svg>
