<svg xmlns="http://www.w3.org/2000/svg" width="22.262" height="27.588" viewBox="0 0 22.262 27.588">
  <path id="update-page-svgrepo-com" d="M15.652,3H7.663A2.663,2.663,0,0,0,5,5.663V12.32M15.652,3l7.989,7.989M15.652,3V9.657a1.331,1.331,0,0,0,1.331,1.331h6.657m0,0V24.3a2.663,2.663,0,0,1-2.663,2.663h-9.32a5.326,5.326,0,0,1-5.326-5.326h0a5.326,5.326,0,0,1,5.326-5.326h3.994m0,0L11.657,12.32m3.994,3.994-3.994,3.994" transform="translate(-3.5 -0.879)" fill="none" stroke="#70c1fa" stroke-linecap="round" stroke-linejoin="round" stroke-width="3"/>
</svg>
