<svg xmlns="http://www.w3.org/2000/svg" width="29.209" height="31.472" viewBox="0 0 29.209 31.472">
  <g id="request-quote" transform="translate(-6 -3)">
    <path id="Path_286" data-name="Path 286" d="M26.232,25.48v6.744H8.248V5.248h11.24V3H8.248A2.248,2.248,0,0,0,6,5.248V32.224a2.248,2.248,0,0,0,2.248,2.248H26.232a2.248,2.248,0,0,0,2.248-2.248V25.48Z" transform="translate(0)" fill="#69e48e"/>
    <path id="Path_287" data-name="Path 287" d="M36.963,7.227,33.254,3.518a1.8,1.8,0,0,0-2.518,0L15,19.254v6.227h6.216L36.951,9.745a1.8,1.8,0,0,0,0-2.518ZM20.283,23.233H17.248V20.2L27.858,9.576,30.9,12.622Zm12.207-12.2L29.443,7.991,31.995,5.44l3.046,3.046Z" transform="translate(-2.256 -0.001)" fill="#69e48e"/>
  </g>
</svg>
