<svg id="catalog-svgrepo-com" xmlns="http://www.w3.org/2000/svg" width="34" height="34" viewBox="0 0 34 34">
  <path id="Path_288" data-name="Path 288" d="M27.462,2H8.266A2.133,2.133,0,0,0,6.133,4.133V8.4H4v2.133H6.133v5.332H4V18H6.133v5.332H4v2.133H6.133v4.266a2.133,2.133,0,0,0,2.133,2.133h19.2A2.133,2.133,0,0,0,29.6,29.728V4.133A2.133,2.133,0,0,0,27.462,2Zm0,27.728H8.266V25.462H10.4V23.329H8.266V18H10.4V15.864H8.266V10.532H10.4V8.4H8.266V4.133h19.2Z" transform="translate(0.266 0.133)" fill="#69e48e"/>
  <rect id="Rectangle_6" data-name="Rectangle 6" width="8" height="2" transform="translate(15 9)" fill="#69e48e"/>
  <rect id="Rectangle_7" data-name="Rectangle 7" width="8" height="2" transform="translate(15 16)" fill="#69e48e"/>
  <rect id="Rectangle_8" data-name="Rectangle 8" width="8" height="3" transform="translate(15 23)" fill="#69e48e"/>
  <rect id="_Transparent_Rectangle_" data-name="&lt;Transparent Rectangle&gt;" width="34" height="34" fill="none"/>
</svg>
