<svg xmlns="http://www.w3.org/2000/svg" width="29.723" height="27.271" viewBox="0 0 29.723 27.271">
  <path id="quick-text-svgrepo-com" d="M16.316,3.3C8.111,3.3,1.474,9.394,1.474,16.875a13.134,13.134,0,0,0,1.81,6.576,1.217,1.217,0,0,1,.121,1.026L1.474,29.726a.626.626,0,0,0,.784.784l5.309-2.051a1.265,1.265,0,0,1,1.026.121,15.7,15.7,0,0,0,7.783,1.991c8.145-.06,14.782-6.094,14.782-13.635S24.522,3.3,16.316,3.3ZM9.438,16.392a.6.6,0,0,1,.6-.6h9.593a.6.6,0,0,1,.6.6V17.6a.6.6,0,0,1-.6.6H9.981a.6.6,0,0,1-.6-.6V16.392Zm13.816,5.792a.6.6,0,0,1-.6.6H9.981a.6.6,0,0,1-.6-.6V21.038a.6.6,0,0,1,.6-.6h12.67a.6.6,0,0,1,.6.6Zm0-9.231a.6.6,0,0,1-.6.6H9.981a.6.6,0,0,1-.6-.6V11.807a.6.6,0,0,1,.6-.6h12.67a.6.6,0,0,1,.6.6Z" transform="translate(-1.435 -3.3)" fill="#69e48e"/>
</svg>
