<svg xmlns="http://www.w3.org/2000/svg" width="30.179" height="24.173" viewBox="0 0 30.179 24.173">
  <g id="code-outline-badged" transform="translate(-6.473 -6.475)">
    <path id="Path_273" data-name="Path 273" d="M16.67,16.7a1.141,1.141,0,0,0-1.585-.3L7.636,21.482a1.141,1.141,0,0,0,0,1.882l7.448,5.076a1.141,1.141,0,1,0,1.289-1.882l-6.068-4.129,6.068-4.118a1.141,1.141,0,0,0,.3-1.608Z" transform="translate(0 -1.31)" fill="#ffda6e" stroke="#ffda6e" stroke-width="1.333"/>
    <path id="Path_274" data-name="Path 274" d="M38.718,21.482,31.27,16.407a1.15,1.15,0,1,0-1.289,1.9l6.068,4.14-6.068,4.14a1.141,1.141,0,1,0,1.289,1.882L38.718,23.4a1.141,1.141,0,0,0,0-1.882Z" transform="translate(-3.228 -1.311)" fill="#ffda6e" stroke="#ffda6e" stroke-width="1.333"/>
    <path id="Path_275" data-name="Path 275" d="M25.709,13.1a1.027,1.027,0,0,0-1.243.753L20.542,29.595a1.027,1.027,0,0,0,.753,1.243h.251a1.027,1.027,0,0,0,.992-.776l3.924-15.752a1.027,1.027,0,0,0-.753-1.209Z" transform="translate(-1.933 -0.857)" fill="#ffda6e" stroke="#ffda6e" stroke-width="1.333"/>
    <circle id="Ellipse_7" data-name="Ellipse 7" cx="3.219" cy="3.219" r="3.219" transform="translate(29.548 7.141)" fill="#ffda6e" stroke="#ffda6e" stroke-width="1.333"/>
  </g>
</svg>
