<svg xmlns="http://www.w3.org/2000/svg" width="25.91" height="25.863" viewBox="0 0 25.91 25.863">
  <g id="privacy-dashboard-svgrepo-com" transform="translate(-20.7 -21.816)">
    <path id="Path_292" data-name="Path 292" d="M42.436,42.4A11.672,11.672,0,1,1,31.422,23.28m4.421.009a11.673,11.673,0,0,1,8.829,15.262" fill="none" stroke="#ffda6e" stroke-linecap="round" stroke-width="2.5"/>
    <path id="Path_293" data-name="Path 293" d="M69.262,66.732h6.309a1.259,1.259,0,0,1,1.262,1.262v3.47a1.259,1.259,0,0,1-1.262,1.262H69.262A1.259,1.259,0,0,1,68,71.464v-3.47A1.259,1.259,0,0,1,69.262,66.732Zm.631,0V64.476a2.524,2.524,0,0,1,5.047,0v2.256" transform="translate(-38.782 -32.613)" fill="none" stroke="#ffda6e" stroke-width="2.5"/>
  </g>
</svg>
