<svg width="22" height="27" viewBox="0 0 22 27" fill="none" xmlns="http://www.w3.org/2000/svg">
<g clip-path="url(#clip0_147_279)">
<g clip-path="url(#clip1_147_279)">
<g clip-path="url(#clip2_147_279)">
<path d="M14.6387 11.8975V19.6645" stroke="#FBEA80" stroke-width="2.70009" stroke-linecap="round" stroke-linejoin="round"/>
<path d="M10.7559 13.1917V19.6636" stroke="#FBEA80" stroke-width="2.70009" stroke-linecap="round" stroke-linejoin="round"/>
<path d="M6.87109 15.781V19.6645" stroke="#FBEA80" stroke-width="2.70009" stroke-linecap="round" stroke-linejoin="round"/>
<path d="M18.2993 6.49704C18.8362 6.94156 19.284 7.48396 19.6187 8.09544C19.8143 8.76438 19.8811 9.46436 19.8158 10.1582V19.664C19.8158 22.1048 19.8158 23.3252 19.0571 24.0839C18.2984 24.8426 17.0771 24.8426 14.6372 24.8426H6.87016C4.42936 24.8426 3.20896 24.8426 2.45026 24.0839C1.69156 23.3252 1.69336 22.1048 1.69336 19.664V6.71934C1.69336 4.27854 1.69336 3.05814 2.45206 2.29944C3.21076 1.54074 4.43026 1.54164 6.87106 1.54164H11.1983C11.8921 1.47624 12.5921 1.54312 13.2611 1.73874C13.8729 2.07333 14.4156 2.52106 14.8604 3.05814L18.2993 6.49704Z" stroke="#FBEA80" stroke-width="2.70009" stroke-linejoin="round"/>
</g>
</g>
</g>
<defs>
<clipPath id="clip0_147_279">
<rect width="20.826" height="26.001" fill="white" transform="translate(0.34375 0.19165)"/>
</clipPath>
<clipPath id="clip1_147_279">
<rect width="20.826" height="26.001" fill="white" transform="translate(0.34375 0.19165)"/>
</clipPath>
<clipPath id="clip2_147_279">
<rect width="20.8224" height="26.0001" fill="white" transform="translate(0.345703 0.19165)"/>
</clipPath>
</defs>
</svg>
