<?xml version="1.0" standalone="no"?>
<!DOCTYPE svg PUBLIC "-//W3C//DTD SVG 20010904//EN"
 "http://www.w3.org/TR/2001/REC-SVG-20010904/DTD/svg10.dtd">
<svg version="1.0" xmlns="http://www.w3.org/2000/svg"
 width="300.000000pt" height="155.000000pt" viewBox="0 0 300.000000 155.000000"
 preserveAspectRatio="xMidYMid meet">
<metadata>
Created by potrace 1.10, written by Peter Selinger 2001-2011
</metadata>
<g transform="translate(0.000000,155.000000) scale(0.050000,-0.050000)"
fill="#000000" stroke="none">
<path d="M1728 3080 c-314 -46 -517 -230 -609 -550 -88 -304 -76 -292 -437
-443 -834 -348 -900 -1063 -149 -1600 445 -318 1472 -542 2157 -471 99 10 146
20 105 21 -122 5 -85 43 41 43 69 0 132 12 155 29 61 44 67 44 -651 102 -741
60 -1143 177 -1560 456 -642 429 -612 911 70 1133 369 120 459 207 569 550 93
288 207 395 424 399 184 2 472 -377 623 -823 54 -159 103 -240 156 -257 21 -6
43 -34 50 -60 16 -65 64 -62 81 4 28 114 -9 517 -63 678 -180 537 -559 848
-962 789z"/>
<path d="M2664 1383 c-45 -29 -23 -173 26 -173 34 0 40 13 40 88 0 90 -19 115
-66 85z"/>
<path d="M3714 1385 c-14 -25 19 -248 52 -345 17 -49 45 -142 63 -206 45 -159
99 -155 106 6 11 239 54 274 70 57 15 -216 115 -277 115 -71 -1 169 -49 337
-112 391 l-56 48 -36 -45 c-20 -24 -36 -61 -36 -82 0 -21 -9 -38 -20 -38 -17
0 -30 103 -22 173 10 81 -90 171 -124 112z"/>
<path d="M1909 1314 c-74 -64 -89 -250 -38 -482 l37 -168 110 -14 c139 -18
196 32 171 150 -17 82 -16 142 2 245 41 231 -133 397 -282 269z m172 -155 c33
-62 21 -130 -31 -179 -63 -59 -63 -81 0 -140 58 -55 39 -97 -28 -61 -35 19
-42 41 -42 141 0 64 -9 123 -20 130 -30 19 -24 103 11 138 35 35 82 23 110
-29z"/>
<path d="M4552 1244 c-5 -9 -1 -52 9 -95 10 -43 18 -139 19 -212 0 -163 56
-258 110 -189 17 23 24 58 17 85 -16 66 8 147 44 147 31 0 58 -50 78 -146 28
-128 119 -79 103 55 -5 43 0 96 11 117 35 64 92 -10 108 -141 14 -112 70 -199
112 -173 56 35 -37 404 -118 469 -69 53 -153 45 -161 -16 -8 -54 -11 -54 -75
-13 -28 19 -68 28 -95 21 -37 -10 -50 -1 -68 48 -21 55 -71 79 -94 43z"/>
<path d="M5213 1183 c-94 -104 5 -463 127 -463 51 0 60 8 60 50 0 67 30 63 59
-9 29 -69 69 -89 101 -50 29 34 -18 172 -93 272 -26 36 -47 86 -47 112 0 119
-129 174 -207 88z m147 -211 c0 -15 -13 -38 -30 -52 -18 -15 -30 -17 -30 -4 0
11 -5 35 -12 52 -9 23 0 32 30 32 23 0 42 -12 42 -28z"/>
<path d="M4373 1186 c-21 -20 -15 -107 11 -180 17 -48 18 -72 2 -88 -35 -35
-98 43 -113 140 -24 150 -98 139 -98 -15 0 -196 155 -352 282 -285 79 43 49
342 -41 417 -16 13 -36 19 -43 11z"/>
<path d="M5723 1149 c-23 -29 -45 -42 -53 -30 -7 12 -34 21 -61 21 -55 0 -61
-28 -26 -114 13 -31 29 -105 35 -166 18 -170 109 -167 118 3 7 127 42 178 86
125 29 -35 33 -162 9 -251 -12 -42 -6 -58 26 -75 174 -94 174 384 -1 507 -62
43 -87 39 -133 -20z"/>
<path d="M2882 1125 c-30 -30 -68 -55 -84 -55 -22 0 -29 -43 -34 -196 -5 -195
-5 -197 40 -190 39 5 51 27 79 142 52 216 117 205 117 -20 0 -121 3 -128 44
-122 112 16 78 411 -41 474 -56 30 -59 29 -121 -33z"/>
<path d="M3251 1108 c-69 -69 -95 -149 -81 -255 20 -156 28 -173 81 -173 68 0
61 -30 -21 -103 -84 -73 -85 -86 -19 -130 160 -104 341 299 280 623 -15 81
-172 106 -240 38z m142 -158 c14 -38 -47 -135 -79 -125 -34 11 -42 92 -13 126
31 38 77 37 92 -1z"/>
<path d="M2244 1056 c-34 -34 -30 -221 8 -314 53 -133 246 -153 264 -27 6 40
-2 45 -70 46 l-76 1 55 29 c117 64 39 289 -100 289 -31 0 -68 -11 -81 -24z"/>
<path d="M2593 1045 c-28 -45 -33 -222 -9 -303 32 -105 67 -124 98 -55 54 118
-30 454 -89 358z"/>
</g>
</svg>
