<?xml version="1.0" encoding="utf-8"?>
<!-- Generator: Adobe Illustrator 27.5.0, SVG Export Plug-In . SVG Version: 6.00 Build 0)  -->
<svg version="1.1" xmlns="http://www.w3.org/2000/svg" xmlns:xlink="http://www.w3.org/1999/xlink" x="0px" y="0px"
	 viewBox="0 0 500 500" style="enable-background:new 0 0 500 500;" xml:space="preserve">
<g id="Background_Complete">
	<g>
		<g>
			<rect y="382.398" style="fill:#EBEBEB;" width="500" height="0.25"/>
			<path style="fill:#EBEBEB;" d="M237.014,337.8H43.915c-3.147,0-5.708-2.561-5.708-5.708V60.66c0-3.147,2.561-5.708,5.708-5.708
				h193.099c3.146,0,5.707,2.561,5.707,5.708v271.432C242.721,335.239,240.16,337.8,237.014,337.8z M43.915,55.203
				c-3.01,0-5.458,2.448-5.458,5.458v271.432c0,3.01,2.448,5.458,5.458,5.458h193.099c3.009,0,5.457-2.448,5.457-5.458V60.66
				c0-3.009-2.448-5.458-5.457-5.458H43.915z"/>
			<path style="fill:#EBEBEB;" d="M453.31,337.8H260.212c-3.147,0-5.707-2.561-5.707-5.708V60.66c0-3.147,2.561-5.708,5.707-5.708
				H453.31c3.148,0,5.708,2.561,5.708,5.708v271.432C459.019,335.239,456.458,337.8,453.31,337.8z M260.212,55.203
				c-3.009,0-5.457,2.448-5.457,5.458v271.432c0,3.01,2.448,5.458,5.457,5.458H453.31c3.01,0,5.458-2.448,5.458-5.458V60.66
				c0-3.009-2.448-5.458-5.458-5.458H260.212z"/>
		</g>
		<g>
			<rect x="418.333" y="391.922" style="fill:#EBEBEB;" width="31.568" height="0.25"/>
			<rect x="301.926" y="389.208" style="fill:#EBEBEB;" width="33.408" height="0.25"/>
			<rect x="396.586" y="401.208" style="fill:#EBEBEB;" width="62.433" height="0.25"/>
			<rect x="52.459" y="399.528" style="fill:#EBEBEB;" width="19.235" height="0.25"/>
			<rect x="80.597" y="399.528" style="fill:#EBEBEB;" width="30.292" height="0.25"/>
			<rect x="189.578" y="395.306" style="fill:#EBEBEB;" width="54.556" height="0.25"/>
		</g>
	</g>
	<g>
		<g>
			<g>
				<g>
					
						<rect x="265.985" y="273.741" transform="matrix(-1.836970e-16 1 -1 -1.836970e-16 648.3831 -57.3433)" style="fill:#F0F0F0;" width="173.757" height="43.558"/>
					
						<rect x="333.702" y="213.488" transform="matrix(-1.836970e-16 1 -1 -1.836970e-16 585.7394 -119.987)" style="fill:#F5F5F5;" width="38.323" height="38.777"/>
					<path style="fill:#E6E6E6;" d="M361.446,213.208L361.446,213.208h-17.165l0,0c0,2.195,1.779,3.974,3.974,3.974h9.218
						C359.667,217.181,361.446,215.402,361.446,213.208z"/>
					
						<rect x="333.702" y="255.25" transform="matrix(-1.836970e-16 1 -1 -1.836970e-16 627.5018 -78.2245)" style="fill:#F5F5F5;" width="38.323" height="38.777"/>
					
						<rect x="333.702" y="297.013" transform="matrix(-1.836970e-16 1 -1 -1.836970e-16 669.2643 -36.462)" style="fill:#F5F5F5;" width="38.323" height="38.777"/>
					
						<rect x="333.702" y="338.775" transform="matrix(-1.836970e-16 1 -1 -1.836970e-16 711.0267 5.3004)" style="fill:#F5F5F5;" width="38.323" height="38.777"/>
					<path style="fill:#E6E6E6;" d="M361.446,254.97L361.446,254.97h-17.165l0,0c0,2.194,1.779,3.974,3.974,3.974h9.218
						C359.667,258.944,361.446,257.164,361.446,254.97z"/>
					<path style="fill:#E6E6E6;" d="M361.446,296.732L361.446,296.732h-17.165l0,0c0,2.195,1.779,3.974,3.974,3.974h9.218
						C359.667,300.706,361.446,298.927,361.446,296.732z"/>
					<path style="fill:#E6E6E6;" d="M361.446,338.495L361.446,338.495h-17.165l0,0c0,2.194,1.779,3.974,3.974,3.974h9.218
						C359.667,342.468,361.446,340.689,361.446,338.495z"/>
					
						<rect x="298.642" y="284.642" transform="matrix(-1.836970e-16 1 -1 -1.836970e-16 681.0403 -90.0005)" style="fill:#F5F5F5;" width="173.757" height="21.756"/>
				</g>
				<g>
					
						<rect x="313.476" y="273.741" transform="matrix(-1.836970e-16 1 -1 -1.836970e-16 695.8741 -104.8343)" style="fill:#F0F0F0;" width="173.757" height="43.558"/>
					
						<rect x="381.193" y="213.488" transform="matrix(-1.836970e-16 1 -1 -1.836970e-16 633.2304 -167.478)" style="fill:#F5F5F5;" width="38.323" height="38.777"/>
					<path style="fill:#E6E6E6;" d="M408.937,213.208L408.937,213.208h-17.165l0,0c0,2.195,1.779,3.974,3.974,3.974h9.218
						C407.158,217.181,408.937,215.402,408.937,213.208z"/>
					
						<rect x="381.193" y="255.25" transform="matrix(-1.836970e-16 1 -1 -1.836970e-16 674.9929 -125.7156)" style="fill:#F5F5F5;" width="38.323" height="38.777"/>
					
						<rect x="381.193" y="297.013" transform="matrix(-1.836970e-16 1 -1 -1.836970e-16 716.7554 -83.953)" style="fill:#F5F5F5;" width="38.323" height="38.777"/>
					
						<rect x="381.193" y="338.775" transform="matrix(-1.836970e-16 1 -1 -1.836970e-16 758.5178 -42.1907)" style="fill:#F5F5F5;" width="38.323" height="38.777"/>
					<path style="fill:#E6E6E6;" d="M408.937,254.97L408.937,254.97h-17.165l0,0c0,2.194,1.779,3.974,3.974,3.974h9.218
						C407.158,258.944,408.937,257.164,408.937,254.97z"/>
					<path style="fill:#E6E6E6;" d="M408.937,296.732L408.937,296.732h-17.165l0,0c0,2.195,1.779,3.974,3.974,3.974h9.218
						C407.158,300.706,408.937,298.927,408.937,296.732z"/>
					<path style="fill:#E6E6E6;" d="M408.937,338.495L408.937,338.495h-17.165l0,0c0,2.194,1.779,3.974,3.974,3.974h9.218
						C407.158,342.468,408.937,340.689,408.937,338.495z"/>
					
						<rect x="346.133" y="284.642" transform="matrix(-1.836970e-16 1 -1 -1.836970e-16 728.5313 -137.4915)" style="fill:#F5F5F5;" width="173.757" height="21.756"/>
				</g>
			</g>
			<g>
				<g>
					<rect x="403.944" y="173.944" style="fill:#E0E0E0;" width="12.722" height="34.697"/>
					<polygon style="fill:#E6E6E6;" points="363.997,208.641 412.518,208.641 419.742,152.486 371.222,152.486 					"/>
					<polygon style="fill:#F0F0F0;" points="358.458,208.641 411.281,208.641 418.506,152.486 365.683,152.486 					"/>
					<polygon style="fill:#FFFFFF;" points="407.425,204.216 413.512,156.912 369.539,156.912 363.453,204.216 					"/>
				</g>
				
					<ellipse transform="matrix(0.7295 -0.684 0.684 0.7295 -18.4093 314.5828)" style="fill:#E6E6E6;" cx="388.482" cy="180.564" rx="12.845" ry="11.295"/>
			</g>
		</g>
		<g>
			<g>
				<g>
					
						<rect x="180.401" y="95.611" transform="matrix(-1 -1.224647e-16 1.224647e-16 -1 496.5014 478.009)" style="fill:#E6E6E6;" width="135.699" height="286.788"/>
					
						<rect x="177.386" y="95.611" transform="matrix(-1 -1.224647e-16 1.224647e-16 -1 490.4702 478.009)" style="fill:#F5F5F5;" width="135.699" height="286.788"/>
					
						<rect x="107.921" y="176.568" transform="matrix(-1.836970e-16 1 -1 -1.836970e-16 484.2397 -6.2305)" style="fill:#FFFFFF;" width="274.627" height="124.873"/>
					
						<rect x="46.625" y="237.865" transform="matrix(-1.836970e-16 1 -1 -1.836970e-16 422.943 55.0662)" style="fill:#E6E6E6;" width="274.627" height="2.28"/>
					
						<rect x="179.624" y="182.6" transform="matrix(-1 -1.224647e-16 1.224647e-16 -1 490.4702 373.3628)" style="fill:#F5F5F5;" width="131.221" height="8.163"/>
				</g>
			</g>
		</g>
		<g>
			<g>
				
					<rect x="135.107" y="251.999" transform="matrix(-1 -1.224647e-16 1.224647e-16 -1 289.1265 626.6273)" style="fill:#F0F0F0;" width="18.913" height="122.629"/>
				
					<rect x="57.117" y="374.628" transform="matrix(-1 -1.224647e-16 1.224647e-16 -1 207.5052 757.0265)" style="fill:#F0F0F0;" width="93.271" height="7.77"/>
				<rect x="53.486" y="251.999" style="fill:#F5F5F5;" width="81.621" height="122.629"/>
				<rect x="60.921" y="267.093" style="fill:#F0F0F0;" width="66.75" height="40.218"/>
				<rect x="60.921" y="319.316" style="fill:#F0F0F0;" width="66.75" height="40.218"/>
				<path style="fill:#F5F5F5;" d="M74.452,294.285v-14.165c0-1.24-1.015-2.255-2.255-2.255h-1.005
					c-1.241,0-2.255,1.015-2.255,2.255v14.165c0,1.24,1.015,2.255,2.255,2.255h1.005C73.437,296.54,74.452,295.525,74.452,294.285z"
					/>
				<path style="fill:#F5F5F5;" d="M74.452,346.507v-14.165c0-1.24-1.015-2.255-2.255-2.255h-1.005
					c-1.241,0-2.255,1.015-2.255,2.255v14.165c0,1.24,1.015,2.255,2.255,2.255h1.005C73.437,348.763,74.452,347.748,74.452,346.507z
					"/>
			</g>
			<g>
				<path style="fill:#E0E0E0;" d="M134.735,182.729c-2.119,1.063-7.866-0.079-5.95,3.81c0.901,1.828,2.366,3.78,3.928,5.706
					c2.14,2.64,1.736,5.503-0.791,6.543c-0.613,0.252-1.114,0.565-1.397,0.971c-1.164,1.668,1.585,3.906,2.935,5.577
					c1.304,1.615,1.894,3.316,0.896,4.56c-1.101,1.373-3.396,0.868-5.218,1.283c-4.384,0.997,0.124,7.042-0.342,10.148
					c-0.319,2.126-2.043,2.719-4.385,3.019c-1.911,0.245-4.462,0.417-4.568,2.376c-0.092,1.695,2.116,3.617,2.695,5.399
					c0.563,1.732,0.371,3.415-0.425,4.696c-0.711,1.145-1.885,1.92-3.44,2.251c-2.171,0.462-5.455-0.017-5.611,2.432
					c-0.07,1.094,0.692,2.062,0.162,3.069c-0.447,0.85-1.463,1.28-2.548,1.497c-1.744,0.349-4.258,0.255-6.257-0.111
					c-2.549-0.467-6.311-2.713-4.928-4.878c0.387-0.607,1.134-0.961,1.971-1.132c0.611-0.125,2.392,0.069,2.621-0.345
					c0.229-0.414-0.385-2.006-0.411-2.585c-0.075-1.665,0.223-3.229,0.743-4.673c0.706-1.961,1.82-3.722,3.29-5.211
					c0.603-0.61,1.568-1.06,1.691-1.95c0.118-0.85-0.438-1.875-1.057-2.745c-0.976-1.372-2.486-2.683-3.033-4.152
					c-0.859-2.308,1.222-3.04,3.149-3.564c1.743-0.474,4.036-1.084,3.444-3.199c-0.427-1.528-2.353-2.778-2.929-4.268
					c-0.774-1.999,1.113-2.077,2.466-2.792c1.756-0.926,2.199-2.58,1.562-4.677c-1.051-3.456-7.386-8.334-4.143-10.581
					c0.823-0.57,1.587-0.762,2.083-1.62c0.53-0.917,0.607-2.059,1.295-2.891c1.092-1.32,3.349-1.542,4.529-2.768
					c2.419-2.514-2.808-6.973,1.964-8.034c1.09-0.242,2.056-0.472,2.787-1.153c0.437-0.407,0.79-2.378,1.283-2.516
					c2.188-0.61,6.136,3.637,7.376,4.948C131.678,176.765,137.265,181.459,134.735,182.729z"/>
				<path style="fill:#F5F5F5;" d="M97.182,241.319c1.3-2.405,6.983-4.806,3.211-7.598c-1.773-1.313-4.111-2.4-6.52-3.403
					c-3.301-1.374-4.477-4.556-2.804-7.191c0.406-0.639,0.68-1.271,0.713-1.863c0.134-2.432-3.49-3.015-5.575-3.888
					c-2.015-0.843-3.446-2.219-3.232-4.113c0.237-2.09,2.532-2.999,3.918-4.555c3.335-3.744-3.879-7.134-5.131-10.604
					c-0.857-2.375,0.347-4.053,2.253-5.816c1.555-1.438,3.714-3.198,2.759-5.27c-0.826-1.793-3.803-2.39-5.268-3.855
					c-1.424-1.424-2.155-3.266-2.139-5.073c0.015-1.614,0.636-3.137,1.83-4.441c1.669-1.821,4.822-3.371,3.649-5.976
					c-0.524-1.163-1.714-1.682-1.786-3.042c-0.061-1.148,0.606-2.22,1.447-3.116c1.352-1.441,3.621-2.907,5.581-3.774
					c2.499-1.105,7.02-1.142,6.96,1.934c-0.017,0.862-0.487,1.689-1.133,2.383c-0.473,0.508-2.147,1.415-2.128,1.981
					c0.019,0.567,1.413,1.815,1.747,2.392c0.957,1.658,1.532,3.445,1.846,5.247c0.427,2.446,0.386,4.942-0.113,7.38
					c-0.205,0.999-0.817,2.059-0.449,3.048c0.351,0.943,1.389,1.648,2.401,2.154c1.595,0.798,3.63,1.203,4.899,2.368
					c1.994,1.829,0.549,3.873-0.871,5.607c-1.284,1.568-2.981,3.617-1.326,5.415c1.195,1.299,3.563,1.383,4.869,2.55
					c1.753,1.566,0.13,2.818-0.682,4.391c-1.053,2.039-0.56,4.008,1.125,5.759c2.777,2.887,10.978,3.946,9.319,8.262
					c-0.421,1.096-0.992,1.767-0.971,2.953c0.023,1.268,0.566,2.485,0.404,3.765c-0.257,2.031-2.13,3.66-2.514,5.648
					c-0.789,4.077,6.21,5.396,2.568,9.447c-0.832,0.925-1.562,1.761-1.842,2.911c-0.167,0.688,0.576,2.926,0.214,3.374
					c-1.604,1.984-7.361,0.087-9.157-0.485C103.071,245.528,95.629,244.191,97.182,241.319z"/>
				<g>
					<path style="fill:#F0F0F0;" d="M82.62,235.889c0,0,0.688,16.11,27.063,16.11c26.375,0,27.063-16.11,27.063-16.11H82.62z"/>
				</g>
			</g>
		</g>
	</g>
</g>
<g id="Background_Simple" style="display:none;">
	<g style="display:inline;">
		<path style="fill:#407BFF;" d="M131.899,247.026c-0.786,31.03,5.248,70.802,41.386,80.974c18.098,5.094,38.142,1.729,56.168,8.296
			c19.203,6.996,31.824,17.374,54.624,18.443c88.597,4.153,141.281-75.833,135.107-139.29
			c-5.106-52.482-48.72-151.552-130.942-109.038c-16.198,8.375-29.113,20.965-45.076,29.372
			c-19.803,10.429-44.581,9.275-62.081,21.073C154.702,174.639,132.525,222.3,131.899,247.026z"/>
		<path style="opacity:0.9;fill:#FFFFFF;" d="M131.899,247.026c-0.786,31.03,5.248,70.802,41.386,80.974
			c18.098,5.094,38.142,1.729,56.168,8.296c19.203,6.996,31.824,17.374,54.624,18.443c88.597,4.153,141.281-75.833,135.107-139.29
			c-5.106-52.482-48.72-151.552-130.942-109.038c-16.198,8.375-29.113,20.965-45.076,29.372
			c-19.803,10.429-44.581,9.275-62.081,21.073C154.702,174.639,132.525,222.3,131.899,247.026z"/>
	</g>
</g>
<g id="Shadow_1_">
	<ellipse id="_x3C_Path_x3E__74_" style="fill:#F5F5F5;" cx="250" cy="416.238" rx="193.889" ry="11.323"/>
</g>
<g id="Character_1_">
	<g>
		<polygon style="fill:#FFB573;" points="313.544,408.013 305.518,407.887 303.674,389.268 311.7,389.393 		"/>
		<polygon style="fill:#FFB573;" points="354.835,408.042 346.809,408.042 340.555,389.454 348.581,389.454 		"/>
		<path style="fill:#263238;" d="M345.737,407.113h9.786c0.328,0,0.612,0.228,0.683,0.548l1.586,7.135
			c0.164,0.74-0.417,1.44-1.175,1.427c-3.148-0.054-5.446-0.239-9.412-0.239c-2.44,0-9.797,0.254-13.166,0.254
			c-3.295,0-3.809-3.331-2.43-3.633c6.185-1.353,10.845-3.219,12.825-4.998C344.791,407.285,345.257,407.113,345.737,407.113z"/>
		<path style="fill:#263238;" d="M305.589,406.959l8.765,0.137c0.328,0.005,0.609,0.237,0.675,0.559l1.474,7.159
			c0.153,0.742-0.42,1.434-1.177,1.409c-3.161-0.103-7.727-0.36-11.701-0.423c-4.646-0.073-8.663,0.118-14.112,0.032
			c-3.295-0.052-4.157-3.397-2.773-3.677c6.3-1.275,11.429-1.342,16.907-4.602C304.241,407.199,304.897,406.948,305.589,406.959z"/>
		<path style="fill:#FFB573;" d="M310.517,168.827c-2.576,5.72-5.346,11.107-8.463,16.479c-1.554,2.672-3.176,5.324-4.931,7.925
			c-1.724,2.613-3.604,5.183-5.681,7.692l-0.796,0.939l-0.398,0.468c-0.139,0.161-0.227,0.276-0.507,0.573
			c-0.93,0.977-2.212,2.138-4.26,2.778c-0.99,0.32-2.127,0.428-3.15,0.333c-1.052-0.086-1.935-0.376-2.712-0.704
			c-1.51-0.68-2.516-1.516-3.331-2.294c-1.593-1.58-2.606-3.087-3.494-4.595c-0.881-1.503-1.607-2.986-2.275-4.465
			c-2.587-5.938-4.245-11.814-5.504-17.948l5.755-1.79c1.23,2.621,2.501,5.33,3.836,7.916c1.326,2.599,2.686,5.16,4.156,7.524
			c0.724,1.183,1.479,2.319,2.256,3.322c0.77,0.992,1.579,1.906,2.205,2.358c0.296,0.229,0.529,0.281,0.405,0.186
			c-0.078-0.061-0.234-0.12-0.533-0.173c-0.277-0.051-0.65-0.002-0.93,0.064c-0.603,0.192-0.695,0.338-0.629,0.208l1.118-1.535
			c3.185-4.503,6.097-9.561,8.852-14.689c2.756-5.113,5.436-10.447,7.94-15.617L310.517,168.827z"/>
		<g>
			<path style="fill:#407BFF;" d="M313.858,163.796c2.164,7.363-13.072,27.435-13.072,27.435l-15.362-9.885
				c0,0,4.515-10.242,10.645-18.051C302.364,155.277,311.483,155.716,313.858,163.796z"/>
			<path style="opacity:0.2;" d="M313.858,163.796c2.164,7.363-13.072,27.435-13.072,27.435l-15.362-9.885
				c0,0,4.515-10.242,10.645-18.051C302.364,155.277,311.483,155.716,313.858,163.796z"/>
		</g>
		<path style="opacity:0.2;" d="M304.494,172.44c-3.16,1.35-7.81,8.96-10.23,14.6l6.52,4.19c0,0,5.87-7.73,9.8-15.36
			C308.524,173.61,306.164,171.73,304.494,172.44z"/>
		<path style="fill:#FFB573;" d="M270.621,177.095l1.973-9.052l-9.137-0.07c0,0-2.439,6.798,2.468,9.974L270.621,177.095z"/>
		<polygon style="fill:#FFB573;" points="271.553,159.555 264.231,162.193 263.457,167.973 272.594,168.043 		"/>
		<polygon style="opacity:0.2;" points="303.676,389.273 304.625,398.87 312.655,398.996 311.706,389.399 		"/>
		<polygon style="opacity:0.2;" points="348.585,389.459 340.555,389.459 343.782,399.04 351.813,399.04 		"/>
		<g>
			<path style="fill:#407BFF;" d="M349.638,160.54c-8.646,30.49-6.902,62.853-7.683,69.402c-6.279-0.456-29.926-2.219-42.816-3.181
				c-5.615-45.686,5.624-69.159,5.624-69.159s2.753-0.535,6.497-0.919c1.175-0.12,2.441-0.226,3.759-0.295
				c0.729-0.044,1.468-0.067,2.219-0.082c4.844-0.079,12.754,0.69,18.203,1.356c1.141,0.142,2.303,0.313,3.426,0.497
				c1.043,0.178,2.066,0.367,3.029,0.56C346.266,159.59,349.638,160.54,349.638,160.54z"/>
			<path style="opacity:0.2;" d="M349.638,160.54c-8.646,30.49-6.902,62.853-7.683,69.402c-6.279-0.456-29.926-2.219-42.816-3.181
				c-5.615-45.686,5.624-69.159,5.624-69.159s2.753-0.535,6.497-0.919c1.175-0.12,2.441-0.226,3.759-0.295
				c0.729-0.044,1.468-0.067,2.219-0.082c4.844-0.079,12.754,0.69,18.203,1.356c1.141,0.142,2.303,0.313,3.426,0.497
				c1.043,0.178,2.066,0.367,3.029,0.56C346.266,159.59,349.638,160.54,349.638,160.54z"/>
		</g>
		<path style="opacity:0.2;" d="M340.504,173.62c-0.77,2.95,0.11,16.41,3.19,19.73c0.42-4.31,0.98-8.81,1.72-13.41L340.504,173.62z"
			/>
		<path style="fill:#FFB573;" d="M335.16,137.032c-1.584,5.771-3.528,16.415,0.278,20.627c-3.418,2.927-7.851,6.273-14.823,5.999
			c-6.972-0.273-5.401-4.965-3.377-7.353c6.646-1.074,6.838-5.931,6.039-10.566L335.16,137.032z"/>
		<path style="fill:#263238;" d="M334.8,156c0,0-2.877,4.748-14.46,7.645c1.918,1.772,2.848,5.966,2.848,5.966
			s15.111-3.646,14.653-12.108C337.05,156.708,334.8,156,334.8,156z"/>
		<path style="fill:#263238;" d="M316.222,168.552c0,0,1.522-3.663,4.119-4.907c-1.207-1.256-3.028-5.034-1.937-7.811
			c-1.798-0.083-2.687,0.167-2.687,0.167S311.139,161.774,316.222,168.552z"/>
		<path style="fill:#263238;" d="M319.844,168.656c-0.138,0.786-0.593,1.362-1.016,1.288c-0.423-0.074-0.654-0.771-0.516-1.557
			c0.138-0.786,0.593-1.362,1.016-1.288C319.751,167.173,319.982,167.871,319.844,168.656z"/>
		<path style="fill:#263238;" d="M319.16,173.162c-0.068,0.795-0.47,1.409-0.898,1.373c-0.428-0.037-0.72-0.711-0.652-1.505
			c0.068-0.795,0.47-1.41,0.898-1.373C318.936,171.693,319.228,172.367,319.16,173.162z"/>
		<path style="opacity:0.2;" d="M330.316,140.586l-7.033,5.15c0.193,1.097,0.324,2.205,0.321,3.272
			c2.522-0.175,6.152-2.658,6.611-5.251C330.444,142.464,330.483,141.208,330.316,140.586z"/>
		<path style="fill:#263238;" d="M319.098,115.209c-6.238-0.134-7.495,14.939-3.451,17.574
			C319.69,135.418,330.778,115.46,319.098,115.209z"/>
		<path style="fill:#FFB573;" d="M336.513,128.271c-1.077,7.893-1.306,12.568-5.614,16.339c-6.48,5.674-15.997,1.314-17.3-6.742
			c-1.173-7.251,0.786-18.941,8.782-21.519C330.259,113.811,337.59,120.378,336.513,128.271z"/>
		<path style="fill:#263238;" d="M335.381,136.001c-4.02,2.11-8.617-19.733,2.02-18.594
			C350.715,118.833,343.413,131.786,335.381,136.001z"/>
		<path style="fill:#263238;" d="M317.571,117.364c0,4.888,15.868,9.747,21.312,8.081c5.444-1.667,6.803-5.95,3.889-9
			C337.828,111.271,317.571,107.778,317.571,117.364z"/>
		<path style="fill:#263238;" d="M318.21,118.02c0,0,0.357,2.196,2.288,4.325c-1.417-0.083-2.83-2.095-3.28-3.267
			C316.769,117.906,318.21,118.02,318.21,118.02z"/>
		<path style="fill:#FFB573;" d="M339.443,137.278c-1.26,1.739-3.207,2.734-4.954,2.984c-2.629,0.376-3.599-2.058-2.581-4.358
			c0.917-2.071,3.389-4.762,5.888-4.083C340.26,132.49,340.885,135.29,339.443,137.278z"/>
		<path style="fill:#263238;" d="M301.647,396.969l13.59,0.207c0,0-4.533-53.686-3.308-78.668c0.373-7.6,1.899-18.229,3.907-29.621
			c2.535-14.354,3.755-20.079,7.035-38.22c2.338-12.935,4.416-21.81,4.416-21.81l-28.146-2.092c0,0-11.936,64.701-11.662,89.198
			C287.758,341.433,301.647,396.969,301.647,396.969z"/>
		<path style="opacity:0.2;" d="M317.384,246c-5.06,12.6-5.16,42.12-2.83,50.43c0.4-2.461,0.83-4.98,1.28-7.54
			c2.54-14.36,3.76-20.08,7.04-38.22c0.06-0.36,0.13-0.71,0.19-1.06C321.324,248.08,319.414,246.79,317.384,246z"/>
		<path style="fill:#263238;" d="M314.325,227.893c0,0,2.486,67.687,4.372,91.13c2.066,25.672,21.309,78.162,21.309,78.162h14.702
			c0,0-9.809-48.043-12.818-72.974c-3.427-28.399,0.062-94.262,0.062-94.262L314.325,227.893z"/>
		<polygon style="fill:#407BFF;" points="338.246,397.503 355.558,397.503 355.558,392.331 336.207,391.995 		"/>
		<polygon style="fill:#407BFF;" points="299.935,397.259 316.13,397.513 316.212,392.28 298.113,391.721 		"/>
		<path style="fill:#263238;" d="M324.32,129.593c-0.048,0.646-0.429,1.143-0.851,1.112c-0.422-0.031-0.725-0.58-0.677-1.226
			c0.048-0.646,0.429-1.144,0.851-1.112C324.065,128.398,324.368,128.947,324.32,129.593z"/>
		<path style="fill:#263238;" d="M317.023,129.05c-0.048,0.646-0.429,1.144-0.851,1.112c-0.422-0.031-0.725-0.58-0.677-1.226
			c0.048-0.646,0.429-1.144,0.851-1.112C316.767,127.855,317.071,128.404,317.023,129.05z"/>
		<path style="fill:#ED893E;" d="M319.319,129.544c0,0-1.745,3.615-3.495,5.292c1.063,1.151,3.041,0.808,3.041,0.808
			L319.319,129.544z"/>
		<path style="fill:#263238;" d="M321.458,137.574c2.481-0.148,3.747-1.769,3.805-1.845c0.064-0.083,0.048-0.202-0.036-0.266
			c-0.083-0.064-0.203-0.048-0.267,0.035c-0.015,0.019-1.493,1.9-4.319,1.689c-0.105-0.007-0.196,0.071-0.204,0.176
			c-0.008,0.105,0.071,0.196,0.176,0.204C320.909,137.589,321.19,137.59,321.458,137.574z"/>
		<path style="fill:#263238;" d="M326.746,127.403c0.063-0.004,0.126-0.023,0.183-0.06c0.176-0.114,0.227-0.349,0.113-0.526
			c-1.141-1.767-2.896-1.794-2.97-1.795c-0.21-0.001-0.381,0.169-0.382,0.379c-0.001,0.209,0.168,0.38,0.377,0.382l0,0
			c0.058,0.001,1.426,0.037,2.337,1.447C326.481,127.349,326.613,127.411,326.746,127.403z"/>
		<path style="fill:#263238;" d="M314.065,126.305c0.123-0.007,0.24-0.074,0.306-0.188c0.844-1.451,2.209-1.551,2.266-1.555
			c0.209-0.013,0.369-0.192,0.357-0.401c-0.012-0.209-0.189-0.369-0.398-0.358c-0.076,0.006-1.826,0.114-2.883,1.932
			c-0.106,0.181-0.044,0.414,0.138,0.52C313.919,126.294,313.993,126.31,314.065,126.305z"/>
		<g>
			<path style="fill:#407BFF;" d="M343.082,408.515c0.742,0,1.543-0.154,2.101-0.289c0.074-0.018,0.131-0.079,0.143-0.154
				c0.012-0.076-0.022-0.151-0.087-0.192c-0.292-0.183-2.882-1.773-3.769-1.317c-0.138,0.071-0.306,0.221-0.326,0.538
				c-0.027,0.425,0.106,0.763,0.393,1.005C341.901,408.411,342.472,408.515,343.082,408.515z M344.632,407.96
				c-1.363,0.273-2.411,0.224-2.85-0.145c-0.193-0.162-0.277-0.387-0.258-0.69c0.009-0.148,0.069-0.197,0.12-0.223
				C342.105,406.665,343.579,407.351,344.632,407.96z"/>
			<path style="fill:#407BFF;" d="M345.138,408.232c0.036,0,0.072-0.01,0.104-0.031c0.059-0.038,0.091-0.105,0.086-0.174
				c-0.008-0.098-0.2-2.414-1.132-3.176c-0.243-0.198-0.516-0.281-0.81-0.245c0,0,0,0,0,0c-0.454,0.056-0.574,0.336-0.605,0.498
				c-0.17,0.895,1.436,2.653,2.267,3.104C345.076,408.225,345.107,408.232,345.138,408.232z M343.518,404.979
				c0.156,0,0.3,0.055,0.437,0.167c0.598,0.488,0.854,1.838,0.948,2.515c-0.826-0.627-1.849-1.956-1.748-2.484
				c0.009-0.048,0.031-0.161,0.277-0.192l0,0C343.461,404.98,343.49,404.979,343.518,404.979z"/>
			<path style="fill:#407BFF;" d="M304.782,408.055c0.067-0.022,0.117-0.08,0.128-0.151c0.012-0.08-0.027-0.159-0.098-0.197
				c-0.362-0.194-3.563-1.88-4.546-1.352c-0.19,0.102-0.301,0.275-0.322,0.501v0c-0.035,0.378,0.08,0.691,0.342,0.93
				c0.868,0.793,3.173,0.513,4.47,0.276C304.766,408.06,304.774,408.058,304.782,408.055z M300.516,406.66
				c0.608-0.2,2.347,0.494,3.611,1.121c-1.777,0.267-3.096,0.169-3.583-0.276c-0.171-0.156-0.243-0.358-0.22-0.615
				c0.009-0.099,0.046-0.159,0.123-0.201C300.468,406.678,300.491,406.669,300.516,406.66z"/>
			<path style="fill:#407BFF;" d="M304.782,408.055c0.017-0.006,0.034-0.014,0.049-0.024c0.056-0.039,0.087-0.104,0.081-0.171
				c-0.007-0.092-0.19-2.257-1.198-3.111c-0.307-0.261-0.66-0.376-1.049-0.343l0,0c-0.524,0.045-0.678,0.307-0.716,0.52
				c-0.161,0.905,1.731,2.671,2.693,3.121C304.687,408.068,304.737,408.07,304.782,408.055z M302.503,404.821
				c0.05-0.016,0.113-0.029,0.195-0.036l0,0c0.288-0.025,0.54,0.058,0.771,0.254c0.662,0.561,0.928,1.859,1.021,2.491
				c-0.979-0.609-2.263-1.994-2.166-2.537C302.33,404.959,302.345,404.873,302.503,404.821z M302.682,404.595l-0.004,0.001
				L302.682,404.595z"/>
		</g>
		<g>
			<path style="fill:#FFB573;" d="M351.699,165.54c2.797,5.624,5.31,11.24,7.619,17.04c1.172,2.885,2.253,5.813,3.313,8.765
				c0.519,1.484,1.02,2.97,1.5,4.481l0.362,1.128l0.386,1.296c0.279,0.888,0.446,1.778,0.651,2.665
				c1.317,7.133,0.54,13.892-0.916,20.223c-0.741,3.172-1.7,6.249-2.815,9.247c-0.573,1.495-1.182,2.971-1.827,4.431
				c-0.646,1.478-1.312,2.867-2.125,4.366l-5.526-2.405c0.772-2.729,1.55-5.672,2.098-8.543c0.602-2.88,1.063-5.771,1.378-8.633
				c0.284-2.863,0.475-5.703,0.343-8.455c-0.075-2.753-0.443-5.409-1.104-7.839c-0.191-0.59-0.339-1.204-0.568-1.762
				c-0.115-0.298-0.188-0.537-0.333-0.885l-0.427-1.029c-0.556-1.373-1.168-2.739-1.748-4.114c-1.17-2.752-2.434-5.484-3.661-8.234
				l-7.546-16.432L351.699,165.54z"/>
			<g>
				<path style="fill:#407BFF;" d="M349.636,160.541c7.324,2.294,14.525,27.125,14.525,27.125l-16.944,7.417
					c0,0-5.482-12-8.633-21.404C335.15,163.435,340.765,157.763,349.636,160.541z"/>
				<path style="opacity:0.2;" d="M349.636,160.541c7.324,2.294,14.525,27.125,14.525,27.125l-16.944,7.417
					c0,0-5.482-12-8.633-21.404C335.15,163.435,340.765,157.763,349.636,160.541z"/>
			</g>
			<path style="fill:#FFB573;" d="M352.772,235.387l-3.953,7.13l9.308,2.425c0,0,2.817-6.916-0.506-9.109L352.772,235.387z"/>
			<polygon style="fill:#FFB573;" points="348.126,250.613 356.679,251.322 358.126,244.942 348.819,242.517 			"/>
		</g>
	</g>
</g>
<g id="Shield">
	<g>
		<polygon style="opacity:0.19;fill:#407BFF;" points="296.748,289.27 85.168,289.27 100.087,77.701 311.667,77.701 		"/>
		<polygon style="opacity:0.2;fill:#FFFFFF;" points="132.844,289.27 102.406,289.27 178.216,77.701 208.654,77.701 		"/>
		<polygon style="opacity:0.2;fill:#FFFFFF;" points="206.745,289.27 139.625,289.27 215.435,77.701 282.555,77.701 		"/>
		<g>
			<polygon style="fill:#407BFF;" points="100.654,113.831 94.455,113.395 97.191,74.593 136,74.593 136,80.808 102.982,80.808 			
				"/>
			<polygon style="fill:#407BFF;" points="121.081,292.377 81.834,292.377 84.601,253.149 90.8,253.586 88.502,286.163 
				121.081,286.163 			"/>
			<polygon style="fill:#407BFF;" points="312.234,113.831 306.035,113.395 308.333,80.808 275.754,80.808 275.754,74.593 
				315.001,74.593 			"/>
			<polygon style="fill:#407BFF;" points="299.644,292.377 260.835,292.377 260.835,286.163 293.853,286.163 296.18,253.149 
				302.379,253.586 			"/>
		</g>
		<g style="opacity:0.3;">
			<path style="fill:#407BFF;" d="M194.251,258.07c-0.182,0-0.363-0.045-0.527-0.135c-0.062-0.033-1.531-0.838-4.003-2.353
				c-1.04-0.632-2.264-1.4-3.631-2.275c-4.348-2.826-8.54-5.804-12.467-8.856c-0.95-0.742-1.904-1.5-2.875-2.286
				c-3.621-2.961-6.962-5.94-9.934-8.859c-0.765-0.754-1.516-1.515-2.268-2.294c-2.824-2.927-5.405-5.919-7.674-8.894
				c-0.582-0.752-1.142-1.519-1.691-2.295c-2.11-2.961-3.938-5.97-5.431-8.939c-0.384-0.749-0.758-1.534-1.107-2.322
				c-1.347-2.984-2.38-6.01-3.067-8.985c-0.175-0.706-0.333-1.475-0.481-2.333c-0.105-0.565-0.191-1.152-0.27-1.739
				c-0.302-2.287-0.568-4.621-0.817-7.138c-0.079-0.748-0.15-1.503-0.222-2.258c-0.261-2.961-0.475-5.933-0.635-8.85l-0.017-0.298
				c-0.039-0.665-0.077-1.325-0.107-1.984c-0.138-2.877-0.237-5.847-0.295-8.827l-0.028-2.271c-0.034-3.149-0.028-6.119,0.018-8.83
				c0.01-0.763,0.027-1.521,0.045-2.271c0.073-3.264,0.178-6.234,0.311-8.827l0.008-0.17c0.034-0.723,0.067-1.424,0.107-2.11
				c0.179-3.222,0.388-6.275,0.604-8.826c0.072-0.879,0.133-1.616,0.197-2.277c0.231-2.518,0.402-3.923,0.402-3.923
				c0.063-0.521,0.485-0.925,1.009-0.965c0.185-0.014,18.635-1.431,38.286-4.887c3.983-0.7,7.857-1.459,11.514-2.255
				c5.39-1.173,10.327-2.455,14.674-3.81c0.217-0.068,0.451-0.066,0.668,0.004c4.151,1.354,8.904,2.635,14.127,3.807
				c3.542,0.796,7.308,1.555,11.192,2.254c19.16,3.456,37.408,4.872,37.591,4.886c0.581,0.044,1.027,0.535,1.016,1.119
				c0,0-0.027,1.405-0.151,3.929c-0.03,0.675-0.074,1.435-0.124,2.275c-0.144,2.567-0.365,5.62-0.642,8.826
				c-0.052,0.636-0.112,1.285-0.174,1.953l-0.03,0.327c-0.237,2.616-0.552,5.586-0.935,8.825c-0.091,0.766-0.179,1.516-0.276,2.274
				c-0.339,2.725-0.752,5.694-1.228,8.823l-0.346,2.264c-0.482,3.006-1.001,5.976-1.542,8.836c-0.121,0.644-0.249,1.289-0.378,1.94
				l-0.068,0.342c-0.568,2.901-1.201,5.872-1.879,8.829c-0.179,0.764-0.358,1.523-0.545,2.282c-0.602,2.511-1.199,4.845-1.821,7.127
				c-0.16,0.585-0.33,1.169-0.516,1.744c-0.268,0.851-0.534,1.617-0.813,2.332c-1.099,2.951-2.554,5.968-4.32,8.951
				c-0.446,0.767-0.929,1.548-1.429,2.314c-1.9,2.952-4.145,5.952-6.67,8.91c-0.655,0.772-1.321,1.536-2.014,2.292
				c-2.671,2.958-5.669,5.944-8.905,8.87c-0.858,0.777-1.717,1.537-2.583,2.288c-3.382,2.916-7.138,5.891-11.165,8.844
				c-1.085,0.788-2.145,1.546-3.195,2.285c-4.355,3.051-8.963,6.025-13.696,8.843c-1.495,0.878-2.825,1.645-3.958,2.279
				c-2.678,1.511-4.257,2.313-4.323,2.347C194.592,258.03,194.422,258.07,194.251,258.07z M140.481,127.8
				c-0.071,0.656-0.175,1.661-0.296,2.974c-0.063,0.657-0.123,1.383-0.188,2.184c-0.222,2.602-0.43,5.633-0.607,8.837
				c-0.04,0.681-0.072,1.375-0.106,2.09l-0.009,0.174c-0.131,2.577-0.235,5.526-0.309,8.77c-0.018,0.743-0.035,1.493-0.044,2.253
				c-0.046,2.695-0.051,5.645-0.017,8.771l0.027,2.263c0.057,2.95,0.155,5.9,0.292,8.758c0.03,0.653,0.068,1.304,0.106,1.961
				l0.018,0.301c0.159,2.896,0.37,5.844,0.628,8.764c0.071,0.75,0.142,1.498,0.22,2.245c0.247,2.499,0.513,4.81,0.811,7.073
				c0.072,0.549,0.153,1.098,0.254,1.639c0.142,0.819,0.29,1.537,0.456,2.208c0.658,2.852,1.645,5.74,2.936,8.6
				c0.335,0.758,0.689,1.503,1.059,2.223c1.446,2.877,3.215,5.788,5.262,8.661c0.534,0.754,1.076,1.495,1.644,2.229
				c2.222,2.913,4.747,5.84,7.513,8.706c0.738,0.766,1.477,1.514,2.227,2.253c2.924,2.87,6.214,5.805,9.779,8.72
				c0.957,0.774,1.901,1.525,2.839,2.257c3.876,3.012,8.017,5.954,12.307,8.742c1.345,0.861,2.553,1.619,3.585,2.246
				c1.594,0.977,2.776,1.66,3.404,2.016c0.67-0.351,1.963-1.042,3.722-2.034c1.125-0.629,2.441-1.389,3.917-2.255
				c4.681-2.787,9.242-5.732,13.551-8.75c1.039-0.732,2.092-1.483,3.163-2.262c3.977-2.916,7.687-5.854,11.023-8.731
				c0.852-0.738,1.699-1.488,2.546-2.255c3.182-2.878,6.127-5.811,8.754-8.719c0.678-0.741,1.326-1.485,1.966-2.238
				c2.463-2.885,4.648-5.805,6.5-8.68c0.483-0.741,0.945-1.489,1.377-2.231c1.704-2.878,3.103-5.775,4.161-8.619
				c0.266-0.685,0.517-1.406,0.773-2.219c0.179-0.551,0.339-1.103,0.489-1.655c0.616-2.26,1.207-4.572,1.806-7.068
				c0.188-0.758,0.364-1.508,0.54-2.258c0.672-2.929,1.299-5.878,1.863-8.758l0.069-0.345c0.127-0.643,0.254-1.281,0.374-1.918
				c0.537-2.842,1.052-5.792,1.53-8.769l0.344-2.255c0.473-3.109,0.883-6.059,1.221-8.767c0.097-0.755,0.185-1.497,0.27-2.231
				c0.384-3.245,0.696-6.195,0.932-8.793l0.03-0.329c0.061-0.661,0.121-1.304,0.173-1.934c0-0.002,0-0.003,0.001-0.004
				c0.273-3.184,0.493-6.215,0.636-8.764c0.05-0.833,0.094-1.582,0.124-2.252c0.06-1.225,0.097-2.181,0.119-2.837
				c-4.164-0.355-20.123-1.827-36.768-4.829c-3.915-0.705-7.711-1.47-11.284-2.273c-5.15-1.156-9.856-2.419-13.993-3.754
				c-4.325,1.336-9.21,2.599-14.524,3.756c-3.686,0.802-7.589,1.567-11.602,2.272C160.8,125.998,144.448,127.469,140.481,127.8z"/>
			<g>
				
					<ellipse transform="matrix(0.7194 -0.6945 0.6945 0.7194 -56.6484 185.182)" style="fill:#407BFF;" cx="200.898" cy="162.711" rx="13.594" ry="12.668"/>
				<polygon style="fill:#407BFF;" points="203.783,167.288 200.575,167.288 197.367,167.288 188.308,209.549 206.882,209.549 				
					"/>
			</g>
			<g style="opacity:0.2;">
				<path style="fill:#407BFF;" d="M229.672,121.877h-51.789c3.838-0.674,7.726-1.429,11.558-2.264h28.993
					C222.147,120.447,225.929,121.202,229.672,121.877z"/>
				<path style="fill:#407BFF;" d="M267.099,132.938H138.895c0.068-0.834,0.13-1.589,0.195-2.264h128.133
					C267.193,131.349,267.149,132.103,267.099,132.938z"/>
				<path style="fill:#407BFF;" d="M266.461,141.735c-0.061,0.737-0.132,1.492-0.204,2.273h-128.08
					c0.037-0.781,0.073-1.536,0.116-2.273H266.461z"/>
				<path style="fill:#407BFF;" d="M265.325,152.805c-0.088,0.745-0.177,1.5-0.275,2.264H137.823
					c0.009-0.763,0.027-1.518,0.044-2.264H265.325z"/>
				<path style="fill:#407BFF;" d="M263.826,163.866c-0.115,0.755-0.23,1.5-0.346,2.264H137.833
					c-0.008-0.763-0.018-1.509-0.027-2.264H263.826z"/>
				<path style="fill:#407BFF;" d="M261.946,174.927c-0.142,0.755-0.293,1.509-0.444,2.273H138.251
					c-0.044-0.763-0.089-1.518-0.124-2.273H261.946z"/>
				<path style="fill:#407BFF;" d="M259.629,185.997c-0.177,0.754-0.355,1.509-0.541,2.264H139.104
					c-0.08-0.755-0.151-1.509-0.222-2.264H259.629z"/>
				<path style="fill:#407BFF;" d="M256.772,197.058c-0.24,0.763-0.498,1.518-0.79,2.272H140.649
					c-0.187-0.754-0.338-1.509-0.47-2.272H256.772z"/>
				<path style="fill:#407BFF;" d="M251.74,208.119c-0.444,0.763-0.915,1.527-1.403,2.273H144.734
					c-0.382-0.746-0.746-1.509-1.082-2.273H251.74z"/>
				<path style="fill:#407BFF;" d="M243.751,219.188c-0.649,0.764-1.306,1.518-1.988,2.264h-90.014
					c-0.578-0.746-1.128-1.5-1.669-2.264H243.751z"/>
				<path style="fill:#407BFF;" d="M232.931,230.249c-0.853,0.773-1.706,1.527-2.566,2.273h-68.78
					c-0.755-0.745-1.501-1.5-2.245-2.273H232.931z"/>
				<path style="fill:#407BFF;" d="M219.27,241.31c-1.076,0.781-2.132,1.536-3.178,2.273h-41.794
					c-0.942-0.736-1.892-1.491-2.858-2.273H219.27z"/>
				<path style="fill:#407BFF;" d="M202.467,252.38c-1.482,0.87-2.805,1.633-3.933,2.264h-8.238
					c-1.038-0.631-2.254-1.394-3.613-2.264H202.467z"/>
			</g>
		</g>
	</g>
</g>
</svg>
