<?xml version="1.0" encoding="utf-8"?>
<!-- Generator: Adobe Illustrator 27.5.0, SVG Export Plug-In . SVG Version: 6.00 Build 0)  -->
<svg version="1.1" xmlns="http://www.w3.org/2000/svg" xmlns:xlink="http://www.w3.org/1999/xlink" x="0px" y="0px"
	 viewBox="0 0 500 500" style="enable-background:new 0 0 500 500;" xml:space="preserve">
<g id="Background_Complete">
	<g>
		<rect y="382.398" style="fill:#EBEBEB;" width="500" height="0.25"/>
		<rect x="423.904" y="398.494" style="fill:#EBEBEB;" width="25.997" height="0.25"/>
		<rect x="311" y="401.208" style="fill:#EBEBEB;" width="45.027" height="0.25"/>
		<rect x="362.111" y="389.208" style="fill:#EBEBEB;" width="60.792" height="0.25"/>
		<rect x="52.459" y="390.888" style="fill:#EBEBEB;" width="19.235" height="0.25"/>
		<rect x="80.597" y="390.888" style="fill:#EBEBEB;" width="55.292" height="0.25"/>
		<rect x="169.667" y="395.111" style="fill:#EBEBEB;" width="74.467" height="0.25"/>
		<path style="fill:#EBEBEB;" d="M237.014,337.8H43.915c-3.147,0-5.708-2.561-5.708-5.708V60.66c0-3.147,2.561-5.708,5.708-5.708
			h193.099c3.146,0,5.707,2.561,5.707,5.708v271.432C242.721,335.239,240.16,337.8,237.014,337.8z M43.915,55.203
			c-3.01,0-5.458,2.448-5.458,5.458v271.432c0,3.01,2.448,5.458,5.458,5.458h193.099c3.009,0,5.457-2.448,5.457-5.458V60.66
			c0-3.009-2.448-5.458-5.457-5.458H43.915z"/>
		<path style="fill:#EBEBEB;" d="M453.31,337.8H260.212c-3.147,0-5.707-2.561-5.707-5.708V60.66c0-3.147,2.561-5.708,5.707-5.708
			H453.31c3.148,0,5.708,2.561,5.708,5.708v271.432C459.019,335.239,456.458,337.8,453.31,337.8z M260.212,55.203
			c-3.009,0-5.457,2.448-5.457,5.458v271.432c0,3.01,2.448,5.458,5.457,5.458H453.31c3.01,0,5.458-2.448,5.458-5.458V60.66
			c0-3.009-2.448-5.458-5.458-5.458H260.212z"/>
	</g>
	<g>
		<path style="fill:#E0E0E0;" d="M425.993,382.398l-5.979-10.814l21.1-245.371l0,0c4.869,7.638,7.058,16.678,6.223,25.697
			L425.993,382.398z"/>
		<path style="fill:#F0F0F0;" d="M65.131,371.584h354.883l22.348-241.347c0.3-3.237-2.248-6.031-5.498-6.031H93.072
			c-2.852,0-5.235,2.172-5.498,5.013L65.131,371.584z"/>
		<path style="fill:#FAFAFA;" d="M415.324,362.444l21.238-228.398c0.206-2.336-1.636-4.347-3.982-4.347H96.709
			c-2.072,0-3.8,1.583-3.981,3.647L71.489,361.745c-0.205,2.336,1.636,4.347,3.982,4.347h335.872
			C413.414,366.091,415.143,364.508,415.324,362.444z"/>
		<path style="fill:#E0E0E0;" d="M432.582,129.702H96.709c-2.075,0-3.801,1.582-3.986,3.647l-1.13,12.172h343.896l1.068-11.474
			C436.763,131.715,434.924,129.702,432.582,129.702z"/>
		<g>
			<path style="fill:#EBEBEB;" d="M113.006,137.611c-0.184,2.074-2.014,3.755-4.088,3.755s-3.606-1.681-3.422-3.755
				c0.184-2.074,2.014-3.755,4.088-3.755S113.19,135.537,113.006,137.611z"/>
			<path style="fill:#F0F0F0;" d="M128.798,137.611c-0.184,2.074-2.014,3.755-4.087,3.755s-3.606-1.681-3.422-3.755
				c0.184-2.074,2.014-3.755,4.088-3.755S128.982,135.537,128.798,137.611z"/>
			<path style="fill:#FFFFFF;" d="M144.59,137.611c-0.184,2.074-2.014,3.755-4.087,3.755c-2.074,0-3.606-1.681-3.422-3.755
				c0.184-2.074,2.014-3.755,4.087-3.755C143.241,133.856,144.774,135.537,144.59,137.611z"/>
		</g>
		<polygon style="fill:#E0E0E0;" points="389.505,371.584 420.014,371.584 425.993,382.398 393.286,382.398 		"/>
		<polygon style="fill:#F5F5F5;" points="389.505,371.584 37.931,371.584 41.713,382.398 393.286,382.398 		"/>
		<path style="fill:#E0E0E0;" d="M248.797,371.584H134.025l0.424,2.431c0.469,2.688,2.801,4.649,5.53,4.649h103.376
			c3.486,0,6.128-3.143,5.53-6.577L248.797,371.584z"/>
	</g>
</g>
<g id="Background_Simple" style="display:none;">
	<g style="display:inline;">
		<path style="fill:#407BFF;" d="M344.107,251.05c-51.73-78.178-42.788-199.338-156.332-147.918
			c-57.777,26.165-105.25-1.059-122.059,46.45c-11.54,32.617,9.49,103.045,28.498,130.757
			c28.635,41.747,69.079,40.491,114.101,42.749c50.953,2.556,75.967,33.694,121.463,45.707
			c33.199,8.766,87.404-15.203,88.007-56.746C418.526,261.15,366.149,284.362,344.107,251.05z"/>
		<path style="opacity:0.9;fill:#FFFFFF;" d="M344.107,251.05c-51.73-78.178-42.788-199.338-156.332-147.918
			c-57.777,26.165-105.25-1.059-122.059,46.45c-11.54,32.617,9.49,103.045,28.498,130.757
			c28.635,41.747,69.079,40.491,114.101,42.749c50.953,2.556,75.967,33.694,121.463,45.707
			c33.199,8.766,87.404-15.203,88.007-56.746C418.526,261.15,366.149,284.362,344.107,251.05z"/>
	</g>
</g>
<g id="Shadow_1_">
	<ellipse id="_x3C_Path_x3E__75_" style="fill:#F5F5F5;" cx="250" cy="416.238" rx="193.889" ry="11.323"/>
</g>
<g id="Globe">
	<g>
		<g>
			
				<ellipse transform="matrix(0.9239 -0.3827 0.3827 0.9239 -76.683 114.5144)" style="fill:#407BFF;" cx="249.51" cy="250.013" rx="134.306" ry="20.769"/>
			
				<ellipse transform="matrix(0.9239 -0.3827 0.3827 0.9239 -76.683 114.5144)" style="opacity:0.2;" cx="249.51" cy="250.013" rx="134.306" ry="20.769"/>
		</g>
		<g>
			<path style="fill:#407BFF;" d="M293.729,154.368c-1.509-0.445-3.048-0.866-4.574-1.252l0.246-0.969
				c1.538,0.389,3.09,0.814,4.611,1.262L293.729,154.368z"/>
			<path style="fill:#407BFF;" d="M282.227,151.576c-7.612-1.461-15.426-2.201-23.224-2.201v-1c7.861,0,15.737,0.747,23.411,2.219
				L282.227,151.576z"/>
			<path style="fill:#407BFF;" d="M259.097,394.659v-1c16.035,0,31.741-3.138,46.683-9.327l0.383,0.924
				C291.099,391.496,275.264,394.659,259.097,394.659z"/>
			
				<ellipse transform="matrix(0.7071 -0.7071 0.7071 0.7071 -116.1176 262.7009)" style="fill:#407BFF;" cx="259.049" cy="271.517" rx="119.611" ry="119.611"/>
			<g style="opacity:0.2;">
				<path style="fill:#FFFFFF;" d="M347.927,213.596l18.831,5.925c-18.341-38.112-54.704-62.428-94.447-66.889l-5.727,15.285
					l-15.905,5.138c0,0-17.753,16.38-17.675,17.431c0.069,1.054-0.298,17.442-0.298,17.442l-12.239,15.894l-10.5,6.871
					l-0.059,15.535l6.253,15.096l9.385-1.723l8.18-9.883l-1.324-6.671l19.304-10.886l14.833,7.927l21.065-8.358l13.604,8.436
					l-17.63,16.676l-27.658,7.127l-19.762,8.185l-19.352,16.859l4.711,20.963l15.416,10.207l30.228,1.55l17.372,18.421
					l10.934,19.284l6.53,8.36l10.576-5.824l10.73-26.814l7.364-34.319l-3.971-19.917l-8.331,5.887l-5.996-12.724l-11.954-12.309
					l-4.061-8.063l26.151,12.623l27.497-4.17l9.531-20.551l-9.913-16.092l-15.982,4.087l-11.515,0.083l-3.807-7.44l14.03-1.85
					L347.927,213.596z"/>
				<path style="fill:#FFFFFF;" d="M202.867,374.701l-6.033-18.066l-28.249-16.798l-9.312-2.334
					c21.575,32.724,57.691,52.314,95.84,53.582l-0.815-1.968c0,0-31.26-10.139-32.31-10.062
					C220.935,379.124,202.867,374.701,202.867,374.701z"/>
				<path style="fill:#FFFFFF;" d="M152.232,262.909l1.149-32.948l20.023-12.624l13.53-32.664l-8.627-1.438
					c-34.189,31.263-48.088,80.727-32.599,126.483l19.324-12.431L152.232,262.909z"/>
			</g>
		</g>
		<path style="opacity:0.2;" d="M367.261,220.579c-17.801,14.723-58.026,36.428-106.53,56.519
			c-47.672,19.746-90.784,32.733-114.097,35.246c0.59,1.66,1.227,3.301,1.908,4.946c6.039,14.579,14.633,27.331,25.047,37.943
			c24.47-4.291,63.159-16.485,105.427-33.993c43.025-17.822,79.527-36.914,99.656-51.269c-0.174-14.767-3.122-29.75-9.119-44.227
			C368.829,223.999,368.069,222.268,367.261,220.579z"/>
		<g>
			<path style="fill:#407BFF;" d="M373.587,198.615l18.285,44.143c4.389,10.597-47.604,42.2-116.129,70.584
				c-68.533,28.388-127.645,42.806-132.035,32.209l-18.285-44.143c4.389,10.597,63.501-3.822,132.035-32.209
				C325.983,240.815,377.977,209.213,373.587,198.615z"/>
			<path style="opacity:0.5;fill:#FFFFFF;" d="M373.587,198.615l18.285,44.143c4.389,10.597-47.604,42.2-116.129,70.584
				c-68.533,28.388-127.645,42.806-132.035,32.209l-18.285-44.143c4.389,10.597,63.501-3.822,132.035-32.209
				C325.983,240.815,377.977,209.213,373.587,198.615z"/>
		</g>
		<g>
			<path style="fill:#FFFFFF;" d="M184.092,306.456c3.162-0.997,6.317-2.011,9.466-3.041c3.395,4.51,6.778,9.015,10.151,13.529
				c-0.61-5.425-1.207-10.863-1.789-16.31c3.127-1.055,6.244-2.13,9.357-3.217c3.856,4.32,7.693,8.641,11.515,12.963
				c-1.077-5.296-2.145-10.601-3.204-15.915c3.097-1.113,6.185-2.245,9.267-3.396c1.52,9.666,3.078,19.309,4.668,28.923
				c-3.157,1.143-6.321,2.268-9.492,3.376c-4.316-4.873-8.654-9.747-13.011-14.613c0.647,6.141,1.31,12.27,1.99,18.383
				c-3.187,1.066-6.382,2.117-9.584,3.148C197.023,322.333,190.577,314.389,184.092,306.456z"/>
			<path style="fill:#FFFFFF;" d="M238.061,287.582c3.087-1.184,6.164-2.391,9.236-3.61c3.203,4.511,6.394,9.025,9.576,13.543
				c-0.485-5.593-0.961-11.209-1.418-16.825c3.049-1.244,6.09-2.505,9.126-3.781c3.649,4.29,7.281,8.58,10.898,12.876
				c-0.939-5.436-1.871-10.881-2.792-16.33c3.019-1.303,6.03-2.622,9.036-3.958c1.283,9.93,2.602,19.84,3.956,29.72
				c-3.075,1.34-6.159,2.662-9.249,3.965c-4.083-4.837-8.187-9.674-12.316-14.513c0.508,6.335,1.032,12.656,1.574,18.963
				c-3.108,1.263-6.222,2.509-9.343,3.738C250.291,303.433,244.198,295.504,238.061,287.582z"/>
			<path style="fill:#FFFFFF;" d="M290.698,265.451c3.007-1.374,6.008-2.768,9.001-4.173c3.01,4.515,6.006,9.025,8.992,13.54
				c-0.361-5.763-0.708-11.537-1.043-17.323c2.969-1.431,5.934-2.88,8.891-4.341c3.442,4.257,6.864,8.513,10.271,12.771
				c-0.802-5.571-1.596-11.149-2.377-16.726c2.94-1.491,5.873-2.997,8.798-4.52c1.044,10.187,2.124,20.348,3.239,30.489
				c-2.993,1.535-5.994,3.052-9.003,4.552c-3.85-4.804-7.717-9.597-11.61-14.396c0.368,6.521,0.752,13.034,1.152,19.524
				c-3.024,1.463-6.059,2.9-9.099,4.325C302.216,281.261,296.48,273.358,290.698,265.451z"/>
		</g>
	</g>
</g>
<g id="Character_1_">
	<g>
		<path style="fill:#263238;" d="M211.093,68.644c-0.986-3.891-8.023-7.195-14.487-6.142c-7.79,1.27-10.652,7.773-10.019,16.458
			c0.803,11.005-9.389,10.853-5.702,22.066c4.176-1.54,10.238-4.063,19.913,0.062c8.548,3.645,18.907,0.196,22.05-3.251
			C212.266,91.616,229.048,67.264,211.093,68.644z"/>
		<path style="fill:#263238;" d="M224.041,97.297c-0.025,0-0.051-0.004-0.076-0.012c-6.553-2.098-5.51-8.907-4.5-15.493
			c0.725-4.73,1.409-9.197-0.82-11.478c-1.4-1.433-3.859-1.898-7.52-1.423c-0.137,0.018-0.263-0.079-0.28-0.216
			c-0.018-0.137,0.079-0.262,0.216-0.28c3.822-0.496,6.424,0.016,7.941,1.569c2.404,2.459,1.701,7.047,0.957,11.903
			c-0.978,6.378-1.988,12.973,4.158,14.94c0.132,0.042,0.204,0.183,0.162,0.314C224.245,97.229,224.146,97.297,224.041,97.297z"/>
		<path style="fill:#FF8B7B;" d="M176.355,112.794c-1.106,0.452-2.011,0.784-3.019,1.105c-0.984,0.323-1.972,0.62-2.966,0.902
			c-1.993,0.542-4.019,0.992-6.086,1.32c-2.06,0.353-4.18,0.543-6.335,0.608l-1.625,0.023l-1.649-0.071
			c-0.543-0.011-1.113-0.102-1.667-0.152l-0.835-0.092c-0.1-0.008-0.39-0.054-0.59-0.087c-0.217-0.033-0.442-0.085-0.666-0.141
			c-1.801-0.413-3.586-1.555-4.678-2.89c-1.124-1.329-1.733-2.705-2.143-3.964c-0.777-2.535-0.856-4.785-0.817-6.945
			c0.147-4.32,0.989-8.215,2.249-12.159c0.418-1.31,1.819-2.032,3.129-1.614c1.087,0.347,1.769,1.371,1.731,2.458l-0.006,0.141
			c-0.13,3.628-0.089,7.449,0.359,10.833c0.228,1.678,0.617,3.303,1.157,4.399c0.257,0.543,0.561,0.905,0.736,1.004
			c0.195,0.098,0.141-0.009,0.227-0.02l0.044-0.009c0.038-0.005-0.014-0.004,0.127-0.004l0.607,0
			c0.408-0.009,0.797,0.026,1.218-0.014c0.825-0.043,1.654-0.088,2.502-0.186c1.688-0.19,3.4-0.467,5.124-0.843
			c1.719-0.379,3.449-0.808,5.166-1.303c0.86-0.242,1.719-0.496,2.565-0.772l2.431-0.816l0.227-0.076
			c2.617-0.878,5.45,0.531,6.328,3.147C180.043,109.086,178.766,111.801,176.355,112.794z"/>
		<path style="fill:#FF8B7B;" d="M145.905,93.411l-2.595-4.439l6.757-3.502c0,0,1.64,4.957-0.171,8.281L145.905,93.411z"/>
		<g>
			<polygon style="fill:#FF8B7B;" points="161.665,323.37 154.651,322.832 155.159,304.535 163.08,304.799 			"/>
			<path style="fill:#263238;" d="M154.104,322.531l8.084-4.16c0.294-0.151,0.632-0.07,0.812,0.197l4.012,5.936
				c0.416,0.616,0.149,1.539-0.535,1.876c-2.842,1.402-4.212,1.295-7.768,3.124c-2.187,1.126-7.28,3.763-10.576,4.584
				c-3.224,0.803-4.191-2.38-2.883-3.015c5.862-2.85,6.737-4.903,7.865-7.479C153.319,323.129,153.674,322.753,154.104,322.531z"/>
			<polygon style="opacity:0.2;" points="163.081,304.805 155.157,304.54 154.884,314.51 162.313,314.933 			"/>
		</g>
		<g>
			<polygon style="fill:#FF8B7B;" points="139.526,298.764 132.669,300.339 127.707,282.72 135.347,280.613 			"/>
			<path style="fill:#263238;" d="M130.682,296.215l9.079-0.473c0.33-0.017,0.604,0.196,0.659,0.513l1.221,7.06
				c0.127,0.732-0.496,1.464-1.258,1.491c-3.167,0.111-4.362-0.746-8.355-0.538c-2.456,0.128-7.989-0.083-11.331-0.688
				c-3.269-0.592-2.843-3.891-1.39-3.933c6.515-0.191,7.951-0.983,10.038-2.869C129.72,296.437,130.198,296.24,130.682,296.215z"/>
			<polygon style="opacity:0.2;" points="135.35,280.619 127.707,282.725 130.414,292.324 137.633,290.517 			"/>
		</g>
		<g>
			<g>
				<path style="fill:#263238;" d="M185.234,115.463c-5.877,2.657-13.875,2.481-13.875,2.481
					c-2.034-5.542-4.304-11.219-2.691-14.663c0,0,9.585-3.188,17.586-1.715C190.63,102.373,189.909,113.35,185.234,115.463z"/>
			</g>
		</g>
		<path style="fill:#407BFF;" d="M172.225,110.33c-1.519,6.782-2.861,18.202-2.417,37.049c12.819,2.007,26.074,4.088,32.313,5.066
			c2.865-15.313,6.182-23.821,12.903-35.188c2.023-3.421,0.477-7.836-3.221-9.293c-7.739-3.048-18.27-5.593-26.923-6.561
			C179.002,100.745,173.517,104.558,172.225,110.33z"/>
		<path style="fill:#263238;" d="M190.458,102.161c0,0-7.569,1.617-5.831,10.617c13.651-0.71,20.268-7.123,20.268-7.123
			L190.458,102.161z"/>
		<path style="fill:#FF8B7B;" d="M205.33,95.3c-1.257,3.821-1.945,7.941-0.435,10.355c0,0-4.074,3.467-17.636,3.791
			c-1.964-6.303,3.199-7.285,3.199-7.285c5.514,0.027,6.539-3.355,6.687-9.377l4.549-0.571
			C203.797,91.18,206.052,93.103,205.33,95.3z"/>
		<path style="opacity:0.2;" d="M201.699,92.212c1.982-0.976,4.108,0.687,3.721,2.731c-2.678,2.2-5.603,3.788-9.258,4.139
			c0.692-1.557,0.925-3.681,0.99-6.299L201.699,92.212z"/>
		<path style="fill:#FF8B7B;" d="M212.622,80.005c-1.646,7.892-2.176,11.264-6.74,14.859c-6.864,5.407-16.061,1.898-16.773-6.268
			c-0.641-7.351,2.159-19.023,10.308-21.244C207.447,65.163,214.268,72.113,212.622,80.005z"/>
		<path style="fill:#263238;" d="M209.128,68.048c-7.078,0.447-6.499,13.729,2.586,18.227
			C217.366,79.291,213.083,69.473,209.128,68.048z"/>
		<path style="fill:#263238;" d="M208.957,67.715c-5.58-3.4-12.957-3.098-16.583,1.93c-5.504,7.63,8.416,0.581,13.512,0.914
			C209.333,73.705,208.957,67.715,208.957,67.715z"/>
		<path style="fill:#263238;" d="M190.131,76.103c-0.018-0.015-0.035-0.031-0.051-0.05c-0.135-0.16-0.117-0.404,0.041-0.545
			c1.583-1.411,3.257-0.952,3.327-0.932c0.2,0.057,0.314,0.27,0.255,0.475c-0.059,0.205-0.267,0.325-0.466,0.269
			c-0.063-0.017-1.367-0.355-2.627,0.768C190.471,76.212,190.269,76.214,190.131,76.103z"/>
		<path style="fill:#FF8B7B;" d="M213.765,87.758c-0.979,1.537-2.565,2.499-4.018,2.826c-2.185,0.492-3.106-1.474-2.355-3.463
			c0.676-1.79,2.627-4.204,4.751-3.806C214.237,83.706,214.884,86.001,213.765,87.758z"/>
		<path style="fill:#263238;" d="M169.808,147.379c-2.317,4.07-5.131,9.117-7.032,12.928
			c-12.067,10.202-38.549,36.144-47.294,57.107c-2.482,20.419,13.851,72.73,13.851,72.73l7.913-3.971c0,0-5.277-41.211-5.18-63.274
			c16.378-17.73,65.262-46.145,60.76-71.911L169.808,147.379z"/>
		<path style="opacity:0.3;" d="M176.591,167.76c0,0-9.929,13.073-19.315,33.378c12.897-10.624,26.358-22.481,32.46-34.346
			L176.591,167.76z"/>
		<path style="fill:#263238;" d="M179.103,148.835c0,0-15.922,46.449-22.349,79.335c-3.578,24.419-2.757,83.476-2.757,83.476
			l9.18,1.09c0,0,9.366-57.081,9.294-81.925c14.127-31.288,34.152-52.598,29.65-78.365L179.103,148.835z"/>
		<path style="opacity:0.2;fill:#FFFFFF;" d="M173.105,167.482c-0.086,0-0.167-0.044-0.213-0.119
			c-0.082-0.133-1.999-3.284-1.697-6.196c0.297-2.853,3.003-11.705,3.118-12.081c0.041-0.132,0.182-0.206,0.313-0.166
			c0.132,0.04,0.206,0.18,0.166,0.312c-0.028,0.091-2.807,9.181-3.099,11.986c-0.218,2.094,0.834,4.403,1.352,5.391l5.395-16.594
			c0.043-0.131,0.186-0.203,0.314-0.16c0.132,0.043,0.203,0.184,0.16,0.315l-5.571,17.139c-0.029,0.093-0.111,0.159-0.208,0.171
			C173.125,167.481,173.115,167.482,173.105,167.482z"/>
		<path style="opacity:0.2;fill:#FFFFFF;" d="M200.489,161.043c-0.031,0-0.063-0.006-0.093-0.018
			c-8.77-3.495-12.744-9.03-12.783-9.085c-0.08-0.113-0.053-0.269,0.06-0.348c0.113-0.079,0.269-0.053,0.349,0.06
			c0.038,0.054,3.936,5.473,12.561,8.909c0.128,0.051,0.191,0.196,0.14,0.325C200.683,160.983,200.589,161.043,200.489,161.043z"/>
		<polygon style="fill:#407BFF;" points="153.122,307.748 153.757,312.808 163.921,313.344 164.53,307.893 		"/>
		<polygon style="fill:#407BFF;" points="126.873,286.587 129.013,291.217 138.86,288.643 137.787,283.265 		"/>
		<path style="fill:#263238;" d="M200.732,80.849c-0.095,0.647-0.51,1.131-0.928,1.08c-0.418-0.051-0.68-0.618-0.585-1.265
			c0.095-0.647,0.51-1.131,0.928-1.079C200.565,79.635,200.827,80.202,200.732,80.849z"/>
		<path style="fill:#263238;" d="M193.505,79.963c-0.095,0.647-0.51,1.131-0.928,1.079c-0.418-0.051-0.68-0.618-0.585-1.265
			c0.095-0.647,0.51-1.131,0.928-1.079C193.338,78.749,193.6,79.315,193.505,79.963z"/>
		<path style="fill:#263238;" d="M193.1,78.756l-1.47-0.637C191.63,78.12,192.24,79.431,193.1,78.756z"/>
		<path style="fill:#FF5652;" d="M194.74,81.162c0,0-1.493,2.654-2.884,3.853c0.727,0.901,2.216,0.713,2.216,0.713L194.74,81.162z"
			/>
		<path style="fill:#263238;" d="M196.045,88.594c-0.063-0.037-0.101-0.11-0.089-0.189c0.015-0.105,0.112-0.18,0.216-0.167
			c2.798,0.343,4.407-1.48,4.423-1.499c0.07-0.081,0.193-0.089,0.268-0.023c0.078,0.068,0.085,0.188,0.016,0.27
			c-0.07,0.082-1.754,2.002-4.763,1.632C196.09,88.615,196.066,88.607,196.045,88.594z"/>
		<path style="fill:#263238;" d="M202.51,78.674c-0.051-0.039-0.092-0.091-0.117-0.155c-0.629-1.563-2.001-1.818-2.015-1.82
			c-0.205-0.035-0.34-0.233-0.298-0.441c0.041-0.208,0.242-0.347,0.448-0.312c0.073,0.013,1.792,0.331,2.573,2.27
			c0.078,0.194-0.017,0.418-0.213,0.502C202.756,78.775,202.613,78.754,202.51,78.674z"/>
		<path style="fill:#263238;" d="M200.326,79.643l-1.47-0.637C198.856,79.006,199.467,80.317,200.326,79.643z"/>
		<path style="fill:#FF8B7B;" d="M217.905,116.597c0.66,2.45,1.177,4.846,1.721,7.28c0.52,2.43,0.996,4.874,1.405,7.342
			c0.425,2.464,0.787,4.954,1.06,7.494c0.28,2.554,0.498,5.089,0.423,7.954l-0.007,0.265c-0.002,0.086-0.012,0.183-0.024,0.266
			c-0.405,2.577-1.065,4.777-1.739,6.999c-0.675,2.207-1.455,4.341-2.253,6.454c-0.815,2.108-1.664,4.192-2.572,6.248
			c-0.932,2.052-1.844,4.086-2.889,6.108c-0.633,1.225-2.139,1.705-3.364,1.072c-1.032-0.533-1.534-1.689-1.289-2.771l2.913-12.839
			c0.492-2.12,0.924-4.244,1.335-6.327c0.398-2.069,0.757-4.187,0.892-6.006l-0.031,0.53c-0.1-2.028-0.47-4.359-0.846-6.646
			c-0.398-2.301-0.855-4.633-1.342-6.971l-1.521-7.027l-1.576-7.009l-0.004-0.018c-0.606-2.695,1.088-5.37,3.782-5.976
			C214.602,112.43,217.208,114.028,217.905,116.597z"/>
		<g>
			<g>
				<path style="fill:#263238;" d="M204.237,113.92c-1.755,6.206,5.133,19.858,5.133,19.858c3.78-0.201,7.728-6.296,12.297-10.194
					c0,0-3.801-10.558-7.473-13.987C210.942,106.559,205.633,108.982,204.237,113.92z"/>
			</g>
		</g>
		<path style="fill:#FF8B7B;" d="M142.316,87.221l0.995,1.751l6.757-3.502l-1.163-1.769c-0.631-0.96-1.853-1.34-2.917-0.908
			l-2.482,1.007C142.157,84.348,141.598,85.956,142.316,87.221z"/>
		<path style="fill:#FF8B7B;" d="M209.176,169.108l-5.039,4.795l5.109,6.692c0,0,5.885-3.491,4.545-9.756L209.176,169.108z"/>
		<path style="fill:#FF8B7B;" d="M202.683,178.77l1.453-4.867l5.109,6.692l-2.259,2.806c-0.404,0.502-1.177,0.476-1.547-0.052
			l-2.621-3.747C202.648,179.359,202.598,179.053,202.683,178.77z"/>
		<g>
			<path style="fill:#407BFF;" d="M169.764,145.017c-0.957-0.241-1.311,2.624-0.555,3.416c0.756,0.792,15.029,4.486,33.174,5.703
				c1.978-0.554,1.499-3.584,0.134-3.772C197.971,150.654,180.626,147.748,169.764,145.017z"/>
			<path style="opacity:0.2;fill:#FFFFFF;" d="M169.764,145.017c-0.957-0.241-1.311,2.624-0.555,3.416
				c0.756,0.792,15.029,4.486,33.174,5.703c1.978-0.554,1.499-3.584,0.134-3.772C197.971,150.654,180.626,147.748,169.764,145.017z"
				/>
		</g>
		<g>
			<polygon style="fill:#407BFF;" points="159.659,54.474 127.3,78.799 141.153,80.041 135.106,90.987 141.818,94.695 
				147.865,83.75 156.292,94.816 			"/>
			<g style="opacity:0.2;">
				<path style="fill:#FFFFFF;" d="M144.206,71.853c-0.823-1.99-1.139-3.481-1.29-4.8l-6.483,4.876
					c0.164,1.254,0.494,2.689,1.275,4.566c0.642,1.542,1.248,2.596,1.854,3.399l1.592,0.145l-0.588,1.064
					c1.347,1.423,2.666,2.354,4.135,5.895c0.215,0.531,0.398,1.02,0.543,1.488l2.619-4.741l4.624,6.077
					c-0.081-2.121,0.059-4.201-1.288-7.465C148.736,76.375,146.679,77.832,144.206,71.853z"/>
				<path style="fill:#FFFFFF;" d="M158.071,73.487c-1.845-2.789-3.541-2.861-5.499-7.594c-0.877-2.141-1.183-3.707-1.325-5.103
					l-4.54,3.422c0.15,1.351,0.464,2.874,1.319,4.938c2.463,5.982,4.52,4.525,6.993,10.504c1.844,4.484,1.157,6.431,1.727,9.638
					L158.071,73.487z"/>
			</g>
		</g>
		<path style="fill:#FF8B7B;" d="M150.288,92.863c2.195-2.672,1.209-6.091,1.276-9.345c0.008-0.396-0.807-0.905-1.629,0.356
			c-0.527,0.808-0.652,2.305-0.49,3.082c-1.645,0.738-2.768,2.943-1.495,5.461C149.32,92.936,150.288,92.863,150.288,92.863z"/>
		<path style="fill:#263238;" d="M206.235,70.026c-1.135,1.771-7.231,3.513-9.955,3.937c5.608-2.141,7.55-3.983,7.55-3.983
			L206.235,70.026z"/>
	</g>
</g>
</svg>
